<svg width="571" height="254" viewBox="0 0 571 254" fill="none" xmlns="http://www.w3.org/2000/svg">
<path d="M111.847 146.799H69.9551V116.344C69.9551 106.209 78.1534 98.0146 88.2947 98.0146H93.5075C103.649 98.0146 111.847 106.209 111.847 116.344V146.799Z" fill="#E52421"/>
<path d="M142.792 87.4998L111.325 67.5596V146.989H142.792V87.4998Z" fill="#3287C4"/>
<path d="M95.2607 105.072C96.2085 105.072 97.0141 104.267 97.0141 103.32V95.4575C97.0141 94.5103 96.2085 93.7051 95.2607 93.7051C94.3129 93.7051 93.5073 94.5103 93.5073 95.4575V103.32C93.5073 104.267 94.3129 105.072 95.2607 105.072Z" fill="#E52421"/>
<path d="M87.2048 105.072C88.1526 105.072 88.9582 104.267 88.9582 103.32V95.4575C88.9582 94.5103 88.1526 93.7051 87.2048 93.7051C86.257 93.7051 85.4514 94.5103 85.4514 95.4575V103.32C85.4514 104.267 86.257 105.072 87.2048 105.072Z" fill="#E52421"/>
<path d="M154.402 118.524L163.596 127.712L165.539 114.214L167.482 127.712L176.675 118.524L167.434 133.112V136.238C176.201 135.29 183.025 127.854 183.025 118.808C183.025 109.146 175.159 101.283 165.491 101.283C155.824 101.283 147.957 109.146 147.957 118.808C147.957 127.807 154.781 135.243 163.548 136.238V133.112L154.402 118.524Z" fill="#93C23F"/>
<path d="M127.059 189.379C149.995 189.379 170.278 177.917 182.457 160.393H71.6611C83.8401 177.87 104.123 189.379 127.059 189.379Z" fill="#93C23F"/>
<path d="M182.457 160.393C186.058 155.231 188.949 149.547 191.034 143.484H63.0835C65.1212 149.547 68.0594 155.231 71.6609 160.393H182.457Z" fill="#3287C4"/>
<path d="M224.823 114.308C217.762 114.308 212.028 120.039 212.028 127.096C212.028 136.616 210.464 145.758 207.573 154.283C204.967 161.909 201.318 169.061 196.816 175.597C181.462 197.621 155.919 212.067 127.059 212.067C98.1988 212.067 72.6561 197.621 57.302 175.597C52.7527 169.108 49.1037 161.956 46.5447 154.283C43.654 145.758 42.0901 136.616 42.0901 127.096C42.0901 80.2533 80.2384 42.1253 127.106 42.1253C134.167 42.1253 139.901 36.3943 139.901 29.3371C139.901 22.2799 134.167 16.5488 127.106 16.5488C66.1164 16.5962 16.5 66.1862 16.5 127.096C16.5 188.006 66.1164 237.596 127.059 237.596C188.001 237.596 237.618 188.006 237.618 127.096C237.618 120.039 231.884 114.308 224.823 114.308Z" fill="#414C59"/>
<path d="M189.707 104.03L165.539 90.1055L141.37 104.03V131.928L163.643 144.763V139.127C153.265 138.132 145.161 129.418 145.161 118.808C145.161 107.535 154.308 98.3942 165.586 98.3942C176.865 98.3942 186.011 107.535 186.011 118.808C186.011 129.418 177.86 138.132 167.529 139.127V144.763L189.755 131.928V104.03H189.707Z" fill="#3287C4"/>
<path d="M78.4849 128.612H87.6784C93.6494 128.612 96.5875 131.785 96.5875 138.132V140.311C96.5875 146.61 94.2181 150.399 87.3941 150.399H85.3563V164.514H78.4375V128.612H78.4849ZM85.4037 144.81H86.541C89.1474 144.81 89.7161 143.342 89.7161 140.358V137.895C89.7161 135.574 89.1948 134.059 86.8728 134.059H85.4037V144.81ZM105.26 153.431V155.893C105.26 158.262 105.828 159.351 107.44 159.351C109.051 159.351 109.383 157.741 109.383 156.036C109.383 152.673 108.767 151.678 105.07 148.599C101.042 145.189 98.957 143.153 98.957 137.848C98.957 132.732 100.663 127.996 107.44 127.996C114.643 127.996 115.733 132.922 115.733 137.043V139.127H109.193V136.995C109.193 134.816 108.814 133.727 107.487 133.727C106.208 133.727 105.781 134.816 105.781 136.853C105.781 139.032 106.16 140.074 109.146 142.395C114.406 146.563 116.301 148.884 116.301 154.757C116.301 160.393 114.358 164.987 107.25 164.987C100.426 164.987 98.4357 160.867 98.4357 155.562V153.431H105.26ZM126.301 148.884V164.466H119.429V128.612H128.386C134.404 128.612 137.39 131.264 137.39 137.516V138.795C137.39 143.91 135.352 145.426 133.788 146.136C136.015 147.226 137.058 148.836 137.058 153.857C137.058 157.314 137.01 162.572 137.295 164.466H130.613C130.186 162.856 130.186 158.167 130.186 153.573C130.186 149.547 129.713 148.836 127.106 148.836H126.301V148.884ZM126.301 143.484H127.154C129.476 143.484 130.423 142.774 130.423 139.411V137.658C130.423 135.243 129.949 134.059 127.39 134.059H126.301V143.484Z" fill="white"/>
<path d="M201.791 49.0882C196.626 40.7521 188.807 36.5368 179.187 35.4948C178.618 33.2213 178.618 28.4849 178.665 26.0693C183.594 26.4482 188.238 28.2007 192.313 31.1373C197.905 35.2106 200.512 42.4099 201.791 49.0882Z" fill="white"/>
<path d="M201.791 49.0882C196.626 40.7521 188.807 36.5368 179.187 35.4948C178.618 33.2213 178.618 28.4849 178.665 26.0693C183.594 26.4482 188.238 28.2007 192.313 31.1373C197.905 35.2106 200.512 42.4099 201.791 49.0882Z" stroke="#020203" stroke-width="0.25" stroke-miterlimit="10"/>
<path d="M220.178 57.5661C222.69 64.9548 215.724 74.0487 204.54 77.8378C197.337 80.3008 190.134 79.9218 185.3 77.3642C184.589 76.7485 183.926 76.0854 183.404 75.3275C182.646 74.2855 182.267 73.954 181.935 72.9593C181.603 71.9647 181.603 70.6859 181.651 70.2122C181.367 63.4392 187.954 55.9557 197.763 52.6402C204.966 50.1773 212.122 50.5089 217.003 53.0665C218.472 54.298 219.562 55.8136 220.178 57.5661Z" fill="white"/>
<path d="M220.178 57.5661C222.69 64.9548 215.724 74.0487 204.54 77.8378C197.337 80.3008 190.134 79.9218 185.3 77.3642C184.589 76.7485 183.926 76.0854 183.404 75.3275C182.646 74.2855 182.267 73.954 181.935 72.9593C181.603 71.9647 181.603 70.6859 181.651 70.2122C181.367 63.4392 187.954 55.9557 197.763 52.6402C204.966 50.1773 212.122 50.5089 217.003 53.0665C218.472 54.298 219.562 55.8136 220.178 57.5661Z" fill="white"/>
<path d="M197.147 48.8034C196.294 49.3717 195.441 49.8928 194.54 50.3664C194.067 50.6032 193.64 50.84 193.166 51.0295C193.024 51.0768 192.882 51.1716 192.74 51.2189C192.171 51.4558 191.602 51.6926 191.034 51.882C190.418 52.0715 189.802 52.2609 189.186 52.403C188.996 52.4504 188.854 52.4978 188.664 52.5451C186.626 53.0188 184.494 53.303 182.361 53.2556C178.144 53.2556 173.974 52.2609 170.182 50.3664C166.676 48.0929 163.548 45.0616 161.036 41.462C165.396 38.5254 170.514 37.0098 175.869 37.0098C176.154 37.0098 176.438 37.0098 176.675 37.0098C178.618 37.0571 180.513 37.3413 182.409 37.815C184.352 38.2886 186.295 38.9991 188.143 39.899C191.555 42.2198 194.683 45.2037 197.147 48.8034Z" fill="white"/>
<path d="M197.147 48.8034C196.294 49.3717 195.441 49.8928 194.54 50.3664C194.067 50.6032 193.64 50.84 193.166 51.0295C193.024 51.0768 192.882 51.1716 192.74 51.2189C192.171 51.4558 191.602 51.6926 191.034 51.882C190.418 52.0715 189.802 52.2609 189.186 52.403C188.996 52.4504 188.854 52.4978 188.664 52.5451C186.626 53.0188 184.494 53.303 182.361 53.2556C178.144 53.2556 173.974 52.2609 170.182 50.3664C166.676 48.0929 163.548 45.0616 161.036 41.462C165.396 38.5254 170.514 37.0098 175.869 37.0098C176.154 37.0098 176.438 37.0098 176.675 37.0098C178.618 37.0571 180.513 37.3413 182.409 37.815C184.352 38.2886 186.295 38.9991 188.143 39.899C191.555 42.2198 194.683 45.2037 197.147 48.8034Z" stroke="#020203" stroke-width="0.25" stroke-miterlimit="10"/>
<path d="M212.785 59.6973C213.259 61.0235 212.548 62.4444 211.222 62.918C209.895 63.3917 208.473 62.6812 207.999 61.355C207.525 60.0288 208.236 58.6079 209.563 58.1343C209.753 58.0395 209.989 58.0396 210.226 57.9922C209.658 58.2764 209.421 58.9395 209.61 59.5552C209.847 60.2183 210.558 60.5972 211.222 60.3604C211.885 60.1236 212.264 59.4131 212.027 58.75C211.98 58.6553 211.98 58.6079 211.932 58.5132C212.312 58.75 212.596 59.1763 212.785 59.6973Z" fill="#414C59"/>
<path d="M212.785 59.6973C213.259 61.0235 212.548 62.4444 211.222 62.918C209.895 63.3917 208.473 62.6812 207.999 61.355C207.525 60.0288 208.236 58.6079 209.563 58.1343C209.753 58.0395 209.989 58.0396 210.226 57.9922C209.658 58.2764 209.421 58.9395 209.61 59.5552C209.847 60.2183 210.558 60.5972 211.222 60.3604C211.885 60.1236 212.264 59.4131 212.027 58.75C211.98 58.6553 211.98 58.6079 211.932 58.5132C212.312 58.75 212.596 59.1763 212.785 59.6973Z" fill="#414C59"/>
<path d="M223.448 47.1458C223.353 47.0985 223.259 47.0037 223.164 47.0037C221.363 46.3407 217.619 46.1986 214.681 49.6561C215.06 46.8617 216.387 45.2513 217.572 44.3987C218.093 45.4881 219.373 46.0565 220.557 45.6302C221.837 45.2039 222.548 43.783 222.074 42.5042C221.647 41.2254 220.226 40.5149 218.946 40.9885C218.851 41.0359 218.757 41.0833 218.662 41.1306C216.814 41.7464 212.786 43.7356 212.122 49.7509C210.084 49.2772 207.857 49.0404 205.488 49.0878C204.872 40.6096 200.559 32.6525 193.593 27.5845C188.617 23.9849 182.788 22.0903 176.722 22.043C175.632 22.043 174.779 22.8482 174.685 23.8902C174.306 27.5845 174.685 31.2316 175.632 34.7365C169.756 35.0207 164.212 37.01 159.568 40.5149C158.715 41.1306 158.478 42.3147 159.046 43.262C164.449 52.0243 174.163 57.3291 184.494 57.0923C184.921 57.0923 185.347 57.0449 185.726 57.0449C181.793 60.6919 179.471 65.0968 179.518 69.4069C179.424 69.4542 179.376 69.4542 179.281 69.4542C176.959 70.2594 175.632 72.3908 176.249 74.2854C176.912 76.1799 179.281 77.0325 181.604 76.2746C181.698 76.2273 181.746 76.2273 181.84 76.1799C185.205 80.5848 191.887 82.8109 199.28 82.1478C201.649 81.9109 204.113 81.3899 206.578 80.5848L206.72 80.5374C208.189 80.0164 209.563 79.448 210.843 78.7849C212.643 77.885 214.302 76.7956 215.771 75.6115C221.837 70.7804 224.87 64.1495 222.927 58.3711C221.884 55.3398 219.61 52.9716 216.529 51.3612C217.856 49.7982 219.278 49.2772 220.368 49.1825C220.463 50.035 221.126 50.7455 221.979 50.8876C223.069 51.077 224.112 50.3666 224.301 49.2772C224.491 48.3773 224.112 47.5721 223.448 47.1458ZM178.713 26.211C183.215 26.5899 187.527 28.1529 191.224 30.8527C196.768 34.8786 200.322 40.9885 201.27 47.6195C196.484 40.4202 188.664 35.7311 180.134 34.7839C180.087 34.7839 180.087 34.7839 180.04 34.7839C179.092 32.0368 178.618 29.1476 178.713 26.211ZM174.021 50.8876C169.946 49.1351 166.344 46.2933 163.643 42.6463C167.434 40.1833 171.841 38.8572 176.438 38.7624C176.817 38.7624 177.196 38.7624 177.575 38.7624C177.67 38.7624 177.765 38.7624 177.86 38.7624C178.191 38.7624 178.523 38.8098 178.855 38.8098C178.95 38.8098 179.045 38.8098 179.139 38.8572C179.471 38.9045 179.803 38.9045 180.134 38.9519C180.229 38.9519 180.324 38.9992 180.419 38.9992C180.703 39.0466 180.987 39.094 181.272 39.1413C181.461 39.1887 181.651 39.1887 181.793 39.2361C184.542 39.8044 187.148 40.7991 189.565 42.1726C192.503 43.8777 195.109 46.1986 197.147 48.993C196.389 49.4667 195.631 49.8929 194.872 50.2719C194.493 50.4613 194.067 50.6508 193.688 50.8402C193.546 50.8876 193.451 50.935 193.309 50.9823C192.835 51.1718 192.313 51.3612 191.792 51.5507C191.271 51.7401 190.75 51.8822 190.228 52.0243C190.086 52.0717 189.944 52.119 189.802 52.119C188.048 52.5453 186.248 52.8295 184.352 52.8295C180.798 52.9716 177.291 52.2611 174.021 50.8876ZM188.191 77.0798C186.579 76.2746 185.3 75.2326 184.352 73.9538C183.499 72.4855 182.883 70.591 182.788 69.4542C182.693 66.3282 184.257 63.0601 187.053 60.1709C186.627 63.7232 187.006 67.0387 188.238 70.1647C189.707 73.8591 192.076 76.7009 194.588 78.8323C192.219 78.5955 190.039 78.0271 188.191 77.0798ZM205.535 77.3166C204.54 77.6482 203.545 77.9324 202.549 78.1692C199.517 76.6062 194.872 73.4802 192.882 68.3175C191.413 64.6231 191.555 60.3604 193.214 55.624C193.877 55.2451 194.588 54.9135 195.299 54.6293C196.01 54.3452 196.721 54.061 197.479 53.7768C197.811 53.6347 198.19 53.54 198.521 53.4452C198.379 54.061 198.237 54.6767 198.142 55.2924C197.479 59.271 197.811 62.9654 199.185 66.4229C200.986 71.0646 204.35 74.3801 207.478 76.6062C206.909 76.843 206.246 77.0798 205.535 77.3166ZM219.799 59.3184C220.605 61.7339 220.273 64.3389 218.946 66.8492C216.292 67.8912 214.112 67.1334 213.97 67.1334C213.544 66.9913 213.07 67.1808 212.928 67.607C212.786 68.0333 212.975 68.507 213.402 68.6491C213.496 68.6964 215.297 69.3121 217.667 68.8859C216.34 70.6857 214.586 72.3908 212.454 73.8591C209.468 72.154 205.63 69.1701 203.782 64.5758C202.739 61.9234 202.502 58.9395 203.118 55.7187C203.308 54.6293 203.592 53.4926 204.019 52.3559C204.445 52.3085 204.919 52.2611 205.345 52.2611C210.084 52.0243 214.255 53.1611 217.003 55.3872C218.33 56.4765 219.278 57.8027 219.799 59.3184Z" fill="#414C59"/>
<path d="M223.448 47.1458C223.353 47.0985 223.259 47.0037 223.164 47.0037C221.363 46.3407 217.619 46.1986 214.681 49.6561C215.06 46.8617 216.387 45.2513 217.572 44.3987C218.093 45.4881 219.373 46.0565 220.557 45.6302C221.837 45.2039 222.548 43.783 222.074 42.5042C221.647 41.2254 220.226 40.5149 218.946 40.9885C218.851 41.0359 218.757 41.0833 218.662 41.1306C216.814 41.7464 212.786 43.7356 212.122 49.7509C210.084 49.2772 207.857 49.0404 205.488 49.0878C204.872 40.6096 200.559 32.6525 193.593 27.5845C188.617 23.9849 182.788 22.0903 176.722 22.043C175.632 22.043 174.779 22.8482 174.685 23.8902C174.306 27.5845 174.685 31.2316 175.632 34.7365C169.756 35.0207 164.212 37.01 159.568 40.5149C158.715 41.1306 158.478 42.3147 159.046 43.262C164.449 52.0243 174.163 57.3291 184.494 57.0923C184.921 57.0923 185.347 57.0449 185.726 57.0449C181.793 60.6919 179.471 65.0968 179.518 69.4069C179.424 69.4542 179.376 69.4542 179.281 69.4542C176.959 70.2594 175.632 72.3908 176.249 74.2854C176.912 76.1799 179.281 77.0325 181.604 76.2746C181.698 76.2273 181.746 76.2273 181.84 76.1799C185.205 80.5848 191.887 82.8109 199.28 82.1478C201.649 81.9109 204.113 81.3899 206.578 80.5848L206.72 80.5374C208.189 80.0164 209.563 79.448 210.843 78.7849C212.643 77.885 214.302 76.7956 215.771 75.6115C221.837 70.7804 224.87 64.1495 222.927 58.3711C221.884 55.3398 219.61 52.9716 216.529 51.3612C217.856 49.7982 219.278 49.2772 220.368 49.1825C220.463 50.035 221.126 50.7455 221.979 50.8876C223.069 51.077 224.112 50.3666 224.301 49.2772C224.491 48.3773 224.112 47.5721 223.448 47.1458ZM178.713 26.211C183.215 26.5899 187.527 28.1529 191.224 30.8527C196.768 34.8786 200.322 40.9885 201.27 47.6195C196.484 40.4202 188.664 35.7311 180.134 34.7839C180.087 34.7839 180.087 34.7839 180.04 34.7839C179.092 32.0368 178.618 29.1476 178.713 26.211ZM174.021 50.8876C169.946 49.1351 166.344 46.2933 163.643 42.6463C167.434 40.1833 171.841 38.8572 176.438 38.7624C176.817 38.7624 177.196 38.7624 177.575 38.7624C177.67 38.7624 177.765 38.7624 177.86 38.7624C178.191 38.7624 178.523 38.8098 178.855 38.8098C178.95 38.8098 179.045 38.8098 179.139 38.8572C179.471 38.9045 179.803 38.9045 180.134 38.9519C180.229 38.9519 180.324 38.9992 180.419 38.9992C180.703 39.0466 180.987 39.094 181.272 39.1413C181.461 39.1887 181.651 39.1887 181.793 39.2361C184.542 39.8044 187.148 40.7991 189.565 42.1726C192.503 43.8777 195.109 46.1986 197.147 48.993C196.389 49.4667 195.631 49.8929 194.872 50.2719C194.493 50.4613 194.067 50.6508 193.688 50.8402C193.546 50.8876 193.451 50.935 193.309 50.9823C192.835 51.1718 192.313 51.3612 191.792 51.5507C191.271 51.7401 190.75 51.8822 190.228 52.0243C190.086 52.0717 189.944 52.119 189.802 52.119C188.048 52.5453 186.248 52.8295 184.352 52.8295C180.798 52.9716 177.291 52.2611 174.021 50.8876ZM188.191 77.0798C186.579 76.2746 185.3 75.2326 184.352 73.9538C183.499 72.4855 182.883 70.591 182.788 69.4542C182.693 66.3282 184.257 63.0601 187.053 60.1709C186.627 63.7232 187.006 67.0387 188.238 70.1647C189.707 73.8591 192.076 76.7009 194.588 78.8323C192.219 78.5955 190.039 78.0271 188.191 77.0798ZM205.535 77.3166C204.54 77.6482 203.545 77.9324 202.549 78.1692C199.517 76.6062 194.872 73.4802 192.882 68.3175C191.413 64.6231 191.555 60.3604 193.214 55.624C193.877 55.2451 194.588 54.9135 195.299 54.6293C196.01 54.3452 196.721 54.061 197.479 53.7768C197.811 53.6347 198.19 53.54 198.521 53.4452C198.379 54.061 198.237 54.6767 198.142 55.2924C197.479 59.271 197.811 62.9654 199.185 66.4229C200.986 71.0646 204.35 74.3801 207.478 76.6062C206.909 76.843 206.246 77.0798 205.535 77.3166ZM219.799 59.3184C220.605 61.7339 220.273 64.3389 218.946 66.8492C216.292 67.8912 214.112 67.1334 213.97 67.1334C213.544 66.9913 213.07 67.1808 212.928 67.607C212.786 68.0333 212.975 68.507 213.402 68.6491C213.496 68.6964 215.297 69.3121 217.667 68.8859C216.34 70.6857 214.586 72.3908 212.454 73.8591C209.468 72.154 205.63 69.1701 203.782 64.5758C202.739 61.9234 202.502 58.9395 203.118 55.7187C203.308 54.6293 203.592 53.4926 204.019 52.3559C204.445 52.3085 204.919 52.2611 205.345 52.2611C210.084 52.0243 214.255 53.1611 217.003 55.3872C218.33 56.4765 219.278 57.8027 219.799 59.3184Z" fill="#414C59"/>
<path d="M208.378 86.2684C207.431 86.5999 206.341 86.221 205.867 85.3211L204.255 82.3845C204.161 82.1951 204.066 81.9582 204.018 81.7214L203.45 78.548C203.26 77.4113 204.255 78.2639 205.393 78.0744C206.53 77.8849 207.383 76.7008 207.573 77.8376L208.047 80.632L209.516 83.2371C210.084 84.2317 209.705 85.5579 208.71 86.0789C208.615 86.1736 208.52 86.221 208.378 86.2684Z" fill="#414C59"/>
<path d="M208.378 86.2684C207.431 86.5999 206.341 86.221 205.867 85.3211L204.255 82.3845C204.161 82.1951 204.066 81.9582 204.018 81.7214L203.45 78.548C203.26 77.4113 204.255 78.2639 205.393 78.0744C206.53 77.8849 207.383 76.7008 207.573 77.8376L208.047 80.632L209.516 83.2371C210.084 84.2317 209.705 85.5579 208.71 86.0789C208.615 86.1736 208.52 86.221 208.378 86.2684Z" fill="#414C59"/>
<path d="M215.866 83.0946C215.771 83.142 215.25 83.3788 215.107 83.4262C213.97 83.6156 213.164 83.6156 212.975 82.4789L212.454 79.3529L211.553 76.511C211.221 75.4217 212.169 74.7112 213.307 74.3796C214.397 74.0481 215.25 74.1428 215.581 75.2322L216.529 78.2161C216.576 78.3109 216.576 78.4056 216.576 78.5003L217.145 81.7684C217.335 82.7631 216.813 82.7631 215.866 83.0946Z" fill="#414C59"/>
<path d="M215.866 83.0946C215.771 83.142 215.25 83.3788 215.107 83.4262C213.97 83.6156 213.164 83.6156 212.975 82.4789L212.454 79.3529L211.553 76.511C211.221 75.4217 212.169 74.7112 213.307 74.3796C214.397 74.0481 215.25 74.1428 215.581 75.2322L216.529 78.2161C216.576 78.3109 216.576 78.4056 216.576 78.5003L217.145 81.7684C217.335 82.7631 216.813 82.7631 215.866 83.0946Z" fill="#414C59"/>
<path d="M301.16 97.0197C301.16 105.877 295.009 111.655 286.683 111.655C283.04 111.655 279.871 110.424 277.553 107.819V121.649H270.882V82.7632H277.221V86.5049C279.445 83.7578 282.757 82.4316 286.683 82.4316C295.009 82.479 301.16 88.21 301.16 97.0197ZM294.347 97.0197C294.347 91.5729 290.704 88.1153 285.926 88.1153C281.148 88.1153 277.458 91.5729 277.458 97.0197C277.458 102.467 281.148 105.924 285.926 105.924C290.704 105.924 294.347 102.467 294.347 97.0197Z" fill="#414C59"/>
<path d="M304.66 97.0197C304.66 88.4942 311.047 82.4316 319.799 82.4316C328.646 82.4316 334.985 88.4469 334.985 97.0197C334.985 105.545 328.646 111.655 319.799 111.655C311.047 111.655 304.66 105.593 304.66 97.0197ZM328.267 97.0197C328.267 91.5729 324.624 88.1153 319.799 88.1153C315.021 88.1153 311.378 91.5729 311.378 97.0197C311.378 102.467 315.021 105.924 319.799 105.924C324.672 105.972 328.267 102.467 328.267 97.0197Z" fill="#414C59"/>
<path d="M340.946 71.6807H347.617V111.324H340.946V71.6807Z" fill="#414C59"/>
<path d="M352.584 108.482L355.139 103.414C357.646 105.072 361.478 106.256 365.073 106.256C369.284 106.256 371.034 105.072 371.034 103.083C371.034 97.6359 353.436 102.751 353.436 91.3839C353.436 85.9844 358.308 82.4795 365.972 82.4795C369.757 82.4795 374.062 83.3794 376.617 84.9424L374.062 90.0103C371.318 88.4 368.622 87.879 365.925 87.879C361.856 87.879 359.964 89.2052 359.964 91.0997C359.964 96.8781 377.563 91.7628 377.563 102.893C377.563 108.245 372.643 111.703 364.648 111.703C359.917 111.656 355.186 110.282 352.584 108.482Z" fill="#414C59"/>
<path d="M394.452 99.0565L389.485 103.746V111.276H382.862V71.6328H389.532V95.5516L403.346 82.716H411.341L399.42 94.7464L412.429 111.324H404.34L394.452 99.0565Z" fill="#414C59"/>
<path d="M440.105 94.5573V111.277H433.813V107.819C432.204 110.282 429.129 111.656 424.872 111.656C418.343 111.656 414.274 108.056 414.274 103.13C414.274 98.3938 417.491 94.652 426.102 94.652H433.482V94.2257C433.482 90.3419 431.116 88.0211 426.385 88.0211C423.168 88.0211 419.857 89.1104 417.728 90.8629L415.126 85.9844C418.154 83.6162 422.601 82.4795 427.19 82.4795C435.374 82.4795 440.105 86.3633 440.105 94.5573ZM433.482 102.372V99.0569H426.622C422.08 99.0569 420.85 100.762 420.85 102.846C420.85 105.262 422.885 106.777 426.291 106.777C429.508 106.825 432.346 105.309 433.482 102.372Z" fill="#414C59"/>
<path d="M267.618 166.266L270.172 161.199C272.68 162.856 276.512 164.04 280.107 164.04C284.318 164.04 286.068 162.856 286.068 160.867C286.068 155.42 268.469 160.535 268.469 149.168C268.469 143.769 273.342 140.264 281.006 140.264C284.791 140.264 289.096 141.164 291.65 142.727L289.096 147.795C286.352 146.184 283.655 145.663 280.959 145.663C276.89 145.663 274.998 146.989 274.998 148.884C274.998 154.662 292.597 149.547 292.597 160.678C292.597 166.03 287.677 169.487 279.681 169.487C274.951 169.44 270.22 168.066 267.618 166.266Z" fill="#414C59"/>
<path d="M315.021 167.545C313.412 168.824 311 169.487 308.634 169.487C302.389 169.487 298.841 166.171 298.841 159.872V146.136H294.158V140.784H298.841V134.248H305.512V140.784H313.128V146.136H305.512V159.682C305.512 162.477 306.884 163.945 309.438 163.945C310.81 163.945 312.182 163.566 313.176 162.761L315.021 167.545Z" fill="#414C59"/>
<path d="M317.67 154.804C317.67 146.278 324.057 140.216 332.809 140.216C341.656 140.216 347.995 146.231 347.995 154.804C347.995 163.329 341.656 169.439 332.809 169.439C324.057 169.439 317.67 163.377 317.67 154.804ZM341.277 154.804C341.277 149.357 337.635 145.899 332.809 145.899C328.031 145.899 324.388 149.357 324.388 154.804C324.388 160.251 328.031 163.708 332.809 163.708C337.682 163.756 341.277 160.251 341.277 154.804Z" fill="#414C59"/>
<path d="M353.956 129.464H360.626V169.107H353.956V129.464Z" fill="#414C59"/>
<path d="M367.959 131.879C367.959 129.653 369.757 127.854 372.217 127.854C374.677 127.854 376.475 129.511 376.475 131.69C376.475 134.058 374.724 135.858 372.217 135.858C369.757 135.858 367.959 134.106 367.959 131.879ZM368.858 140.547H375.528V169.06H368.858V140.547Z" fill="#414C59"/>
<path d="M381.442 154.804C381.442 146.278 387.829 140.216 396.865 140.216C402.4 140.216 406.847 142.489 409.023 146.847L403.914 149.831C402.211 147.084 399.656 145.899 396.817 145.899C391.897 145.899 388.16 149.31 388.16 154.804C388.16 160.345 391.897 163.708 396.817 163.708C399.656 163.708 402.211 162.477 403.914 159.777L409.023 162.761C406.847 167.024 402.4 169.439 396.865 169.439C387.876 169.439 381.442 163.377 381.442 154.804Z" fill="#414C59"/>
<path d="M438.165 152.341V169.061H431.873V165.603C430.265 168.066 427.19 169.44 422.932 169.44C416.403 169.44 412.335 165.84 412.335 160.914C412.335 156.178 415.552 152.436 424.162 152.436H431.542V152.01C431.542 148.126 429.177 145.805 424.446 145.805C421.229 145.805 417.917 146.895 415.788 148.647L413.186 143.769C416.214 141.4 420.661 140.264 425.25 140.264C433.387 140.264 438.165 144.148 438.165 152.341ZM431.495 160.157V156.841H424.635C420.093 156.841 418.863 158.546 418.863 160.63C418.863 163.046 420.898 164.561 424.304 164.561C427.521 164.609 430.359 163.093 431.495 160.157Z" fill="#414C59"/>
<path d="M287.393 198.047V204.394C286.825 204.299 286.305 204.252 285.832 204.252C280.77 204.252 277.553 207.235 277.553 213.061V226.891H270.882V198.378H277.221V202.546C279.161 199.515 282.615 198.047 287.393 198.047Z" fill="#414C59"/>
<path d="M319.988 214.719H297.659C298.463 218.887 301.916 221.54 306.884 221.54C310.101 221.54 312.608 220.545 314.595 218.461L318.19 222.582C315.636 225.613 311.615 227.224 306.742 227.224C297.185 227.224 290.988 221.066 290.988 212.588C290.988 204.11 297.233 198 305.701 198C314.027 198 320.083 203.826 320.083 212.73C320.083 213.299 320.036 214.104 319.988 214.719ZM297.564 210.315H313.743C313.223 206.194 310.053 203.352 305.701 203.352C301.349 203.352 298.179 206.147 297.564 210.315Z" fill="#414C59"/>
<path d="M324.104 212.588C324.104 204.063 330.491 198 339.527 198C345.062 198 349.509 200.273 351.685 204.631L346.576 207.615C344.872 204.868 342.318 203.684 339.479 203.684C334.559 203.684 330.822 207.094 330.822 212.588C330.822 218.13 334.559 221.492 339.479 221.492C342.318 221.492 344.872 220.261 346.576 217.561L351.685 220.545C349.509 224.808 345.062 227.224 339.527 227.224C330.538 227.224 324.104 221.161 324.104 212.588Z" fill="#414C59"/>
<path d="M384.139 198.331L370.798 229.165C368.196 235.606 364.553 237.596 359.822 237.596C356.984 237.596 354.003 236.648 352.206 234.991L354.855 230.065C356.132 231.296 357.93 232.054 359.775 232.054C362.14 232.054 363.512 230.917 364.79 228.123L365.263 226.986L352.821 198.378H359.775L368.716 219.455L377.752 198.378H384.139V198.331Z" fill="#414C59"/>
<path d="M399.893 214.625L394.925 219.314V226.845H388.255V187.201H394.925V211.12L408.739 198.284H416.734L404.86 210.315L417.87 226.892H409.78L399.893 214.625Z" fill="#414C59"/>
<path d="M422.222 187.248H428.893V226.892H422.222V187.248Z" fill="#414C59"/>
<path d="M436.699 189.664C436.699 187.438 438.496 185.638 440.957 185.638C443.417 185.638 445.214 187.295 445.214 189.474C445.214 191.842 443.464 193.642 440.957 193.642C438.544 193.642 436.699 191.89 436.699 189.664ZM437.598 198.331H444.268V226.844H437.598V198.331Z" fill="#414C59"/>
<path d="M481.074 210.504V226.845H474.404V211.357C474.404 206.289 471.896 203.826 467.638 203.826C462.908 203.826 459.691 206.715 459.691 212.446V226.845H453.02V198.332H459.359V202.026C461.536 199.421 465.036 198 469.152 198C476.012 198.047 481.074 201.931 481.074 210.504Z" fill="#414C59"/>
<path d="M517.833 198.331V222.534C517.833 232.907 512.44 237.596 502.458 237.596C497.112 237.596 491.861 236.222 488.596 233.522L491.577 228.502C494.084 230.586 498.153 231.912 502.079 231.912C508.371 231.912 511.163 229.023 511.163 223.244V221.729C508.797 224.286 505.438 225.518 501.606 225.518C493.422 225.518 487.224 219.976 487.224 211.688C487.224 203.399 493.469 197.952 501.606 197.952C505.627 197.952 509.128 199.231 511.494 202.073V198.284H517.833V198.331ZM511.257 211.735C511.257 206.951 507.614 203.683 502.6 203.683C497.538 203.683 493.895 206.951 493.895 211.735C493.895 216.614 497.538 219.882 502.6 219.882C507.662 219.929 511.257 216.614 511.257 211.735Z" fill="#414C59"/>
<path d="M554.166 198.331V226.844H547.827V223.197C545.698 225.802 542.339 227.223 538.649 227.223C531.363 227.223 526.396 223.197 526.396 214.624V198.331H533.066V213.724C533.066 218.887 535.527 221.35 539.737 221.35C544.373 221.35 547.543 218.461 547.543 212.73V198.331H554.166Z" fill="#414C59"/>
</svg>
