<svg width="304" height="121" viewBox="0 0 304 121" fill="none" xmlns="http://www.w3.org/2000/svg">
<path d="M146.915 33.025C146.915 33.8514 146.531 34.2922 145.817 34.4024H143.51C141.643 34.4024 140.654 35.5594 140.654 37.8183C140.654 38.0387 140.654 38.4244 140.709 38.8652C140.709 39.3059 140.764 39.6916 140.764 39.912H144.114C144.773 39.9671 145.103 40.4079 145.103 41.2343C145.103 41.9506 144.773 42.3362 144.114 42.3362H140.764L140.819 55.1737C140.819 55.9451 140.324 56.3307 139.391 56.3307C138.457 56.3307 137.963 55.9451 137.963 55.1737V42.3362H136.535C135.985 42.3362 135.766 42.0057 135.766 41.2894C135.766 40.3528 136.04 39.912 136.535 39.912H137.963C137.963 39.6916 137.963 39.361 137.963 38.9203C137.963 38.4795 137.963 38.1489 137.963 37.9285C137.963 36.1104 138.237 34.7329 138.787 33.7963C139.61 32.4189 140.984 31.7026 143.016 31.7026H145.872C146.531 31.8128 146.915 32.2536 146.915 33.025Z" fill="#404B59"/>
<path d="M161.581 47.2399C161.581 50.9865 160.482 53.576 158.285 55.0085C157.187 55.7248 155.978 56.0553 154.66 56.0553C152.243 56.0553 150.431 55.1187 149.222 53.2454C148.179 51.6476 147.685 49.6091 147.685 47.0746V39.4713C147.685 38.8653 148.179 38.5347 149.113 38.5347C150.101 38.5347 150.596 38.8653 150.596 39.4713V47.3501C150.596 49.0581 150.815 50.3253 151.255 51.0967C152.024 52.4741 153.177 53.1903 154.715 53.1903C156.253 53.1903 157.406 52.4741 158.175 51.0967C158.56 50.3253 158.779 49.0581 158.779 47.2399V39.306C158.779 38.7 159.274 38.3694 160.208 38.3694C161.196 38.3694 161.691 38.7 161.691 39.306V47.2399H161.581Z" fill="#404B59"/>
<path d="M179.815 55.1741C179.815 55.7802 179.321 56.1108 178.332 56.1108C177.398 56.1108 176.904 55.7802 176.904 55.1741V47.2402C176.904 45.422 176.684 44.1548 176.3 43.3835C175.531 41.951 174.377 41.2347 172.84 41.2347C171.302 41.2347 170.203 41.951 169.379 43.3284C168.94 44.1548 168.72 45.367 168.72 47.0749V54.9537C168.72 55.5598 168.226 55.8904 167.237 55.8904C166.303 55.8904 165.809 55.5598 165.809 54.9537V47.4055C165.809 44.8711 166.303 42.8325 167.347 41.2347C168.555 39.3614 170.368 38.4248 172.785 38.4248C174.103 38.4248 175.311 38.7554 176.41 39.4716C178.607 40.849 179.705 43.4386 179.705 47.2402V55.1741H179.815Z" fill="#404B59"/>
<path d="M198.82 55.3385C198.82 55.7793 198.381 56.0548 197.502 56.0548C196.623 56.0548 196.184 55.8344 196.129 55.3385V53.5203C194.975 55.1732 193.437 55.9997 191.405 55.9997C189.043 55.9997 187.176 55.063 185.803 53.1346C184.649 51.4267 184.1 49.333 184.1 46.8537C184.1 44.4294 184.649 42.3908 185.803 40.8481C187.066 39.0851 188.879 38.2035 191.295 38.2035C193.163 38.2035 194.756 38.9749 195.964 40.5176V32.9143C195.964 32.3633 196.403 32.0327 197.337 32.0327C198.326 32.0327 198.82 32.3082 198.82 32.9143V55.3385ZM195.854 47.0189C195.854 44.9804 195.634 43.5479 195.14 42.7765C194.316 41.344 193.108 40.6278 191.515 40.6278C189.922 40.6278 188.714 41.344 187.945 42.8316C187.341 43.9886 187.011 45.4211 187.011 47.1842C187.011 48.8922 187.341 50.3247 188 51.5368C188.824 53.0245 190.032 53.7407 191.625 53.7407C193.163 53.7407 194.426 53.0245 195.305 51.5368C195.689 50.8757 195.854 49.3881 195.854 47.0189Z" fill="#404B59"/>
<path d="M216.011 55.3389C216.011 55.8348 215.516 56.0552 214.583 56.0552C213.759 56.0552 213.374 55.8348 213.374 55.3389V53.5208C212.276 55.2287 210.738 56.1103 208.651 56.1103C207.223 56.1103 205.959 55.7246 204.861 54.9533C203.762 54.1819 202.884 53.1351 202.279 51.8128C201.675 50.4354 201.346 48.8927 201.346 47.1847C201.346 43.4381 202.499 40.8486 204.751 39.361C205.904 38.6447 207.168 38.259 208.541 38.259C210.518 38.259 212.111 39.0304 213.21 40.6282V38.7549C213.21 38.2039 213.649 37.9285 214.583 37.9285C215.571 37.9285 216.066 38.2039 216.066 38.7549V55.3389H216.011ZM213.374 47.405C213.374 45.5869 213.045 44.0442 212.441 42.8871C211.617 41.3995 210.408 40.6282 208.706 40.6282C207.058 40.6282 205.904 41.3444 205.136 42.7769C204.531 43.934 204.202 45.3665 204.202 47.1296C204.202 48.8376 204.531 50.2701 205.19 51.4822C206.014 52.9147 207.223 53.6309 208.816 53.6309C210.408 53.6309 211.562 52.9698 212.386 51.5924C213.045 50.4904 213.374 49.113 213.374 47.405Z" fill="#404B59"/>
<path d="M233.807 52.0322C232.544 54.6769 230.402 55.9992 227.381 55.9992C224.854 55.9992 222.877 55.1176 221.504 53.4097C220.24 51.867 219.636 49.7733 219.636 47.1287C219.636 43.2168 220.845 40.5722 223.316 39.1948C224.579 38.5336 225.898 38.1479 227.381 38.1479C230.072 38.1479 232.049 39.1397 233.258 41.0681C233.258 41.1232 233.313 41.1783 233.313 41.2334C233.313 41.5639 233.093 41.9496 232.653 42.2802C232.214 42.6108 231.83 42.776 231.445 42.776C231.225 42.776 231.006 42.6659 230.896 42.4455C230.237 41.1783 229.138 40.5171 227.545 40.5171C224.305 40.5171 222.657 42.6659 222.657 47.0185C222.657 51.3711 224.25 53.5749 227.381 53.5749C229.413 53.5749 230.731 52.5832 231.39 50.6548C231.61 50.2692 231.939 50.1039 232.324 50.1039C232.708 50.1039 233.093 50.2692 233.477 50.5446C233.862 50.8201 234.027 51.1507 234.027 51.5364C233.972 51.7568 233.917 51.9221 233.807 52.0322Z" fill="#404B59"/>
<path d="M239.739 55.7233C239.739 57.6517 239.464 59.0842 238.915 60.131C238.146 61.6186 236.718 62.39 234.686 62.39H231.83C231.335 62.3349 231.116 61.8941 231.116 61.1228C231.116 60.2963 231.39 59.8005 231.885 59.7454H234.192C236.059 59.7454 236.993 58.4782 236.993 55.9437C236.993 55.7233 236.993 55.3377 236.938 54.8418C236.938 54.3459 236.883 53.9602 236.883 53.7399V39.4148C236.883 38.8638 237.377 38.5884 238.311 38.5884C239.245 38.5884 239.739 38.8638 239.739 39.4148V53.7399C239.739 53.9602 239.739 54.2908 239.739 54.7316C239.739 55.1724 239.739 55.5029 239.739 55.7233ZM239.904 34.401C239.904 34.8969 239.739 35.3377 239.409 35.6682C239.08 35.9988 238.64 36.2192 238.146 36.2192C237.652 36.2192 237.267 36.0539 236.883 35.6682C236.553 35.3377 236.389 34.8969 236.389 34.401C236.389 33.9052 236.553 33.4644 236.883 33.1338C237.212 32.8032 237.652 32.6379 238.146 32.6379C238.64 32.6379 239.025 32.8032 239.409 33.1338C239.739 33.5195 239.904 33.9052 239.904 34.401Z" fill="#404B59"/>
<path d="M257.864 55.3389C257.864 55.8348 257.369 56.0552 256.436 56.0552C255.612 56.0552 255.227 55.8348 255.227 55.3389V53.5208C254.129 55.2287 252.591 56.1103 250.504 56.1103C249.076 56.1103 247.812 55.7246 246.714 54.9533C245.615 54.1819 244.737 53.1351 244.132 51.8128C243.528 50.4354 243.199 48.8927 243.199 47.1847C243.199 43.4381 244.352 40.8486 246.604 39.361C247.758 38.6447 249.021 38.259 250.394 38.259C252.371 38.259 253.964 39.0304 255.063 40.6282V38.7549C255.063 38.2039 255.502 37.9285 256.436 37.9285C257.424 37.9285 257.919 38.2039 257.919 38.7549V55.3389H257.864ZM255.282 47.405C255.282 45.5869 254.953 44.0442 254.349 42.8871C253.525 41.3995 252.316 40.6282 250.614 40.6282C248.966 40.6282 247.812 41.3444 247.043 42.7769C246.439 43.934 246.11 45.3665 246.11 47.1296C246.11 48.8376 246.439 50.2701 247.098 51.4822C247.922 52.9147 249.131 53.6309 250.723 53.6309C252.316 53.6309 253.47 52.9698 254.294 51.5924C254.953 50.4904 255.282 49.113 255.282 47.405Z" fill="#404B59"/>
<path d="M152.134 78.588C152.134 82.5549 150.871 85.2546 148.289 86.6871C147.026 87.4034 145.653 87.734 144.17 87.734C141.533 87.734 139.501 86.9075 138.128 85.1995C136.865 83.6568 136.206 81.5081 136.206 78.8634C136.206 75.7229 137.084 73.3538 138.842 71.8662C140.325 70.599 142.083 69.9929 144.17 69.9929C146.696 69.9929 148.674 70.8194 150.102 72.4172C151.42 73.9599 152.134 75.9984 152.134 78.588ZM149.168 78.6982C149.168 76.9351 148.783 75.4475 148.014 74.2904C147.136 72.9681 145.872 72.2519 144.17 72.2519C142.412 72.2519 141.149 72.913 140.27 74.2904C139.556 75.4475 139.172 76.9351 139.172 78.7532C139.172 80.5714 139.556 82.059 140.27 83.2161C141.149 84.5935 142.467 85.2546 144.17 85.2546C145.927 85.2546 147.191 84.5384 148.069 83.161C148.783 82.059 149.168 80.5714 149.168 78.6982Z" fill="#404B59"/>
<path d="M170.204 87.0175C170.204 87.4582 169.764 87.7337 168.885 87.7337C168.007 87.7337 167.567 87.5133 167.512 87.0175V85.1993C166.359 86.8522 164.821 87.6786 162.789 87.6786C160.427 87.6786 158.559 86.742 157.186 84.8136C156.033 83.1056 155.429 81.0119 155.429 78.5326C155.429 76.1084 155.978 74.0698 157.131 72.5271C158.395 70.764 160.207 69.8825 162.624 69.8825C164.491 69.8825 166.084 70.6538 167.293 72.1965V64.5932C167.293 64.0422 167.732 63.7117 168.666 63.7117C169.654 63.7117 170.149 63.9872 170.149 64.5932V87.0175H170.204ZM167.238 78.6979C167.238 76.6593 167.018 75.2268 166.524 74.4555C165.7 73.023 164.491 72.3067 162.899 72.3067C161.306 72.3067 160.097 73.023 159.328 74.5106C158.724 75.6676 158.395 77.1001 158.395 78.8632C158.395 80.5712 158.724 82.0037 159.383 83.2158C160.207 84.7034 161.416 85.4197 163.008 85.4197C164.546 85.4197 165.81 84.7034 166.688 83.2158C167.073 82.5546 167.238 81.067 167.238 78.6979Z" fill="#404B59"/>
<path d="M176.795 84.8155L186.407 84.7604C187.011 84.7604 187.34 85.1461 187.34 85.9725C187.34 86.854 187.011 87.2948 186.352 87.2948H173.06C172.401 87.2948 172.071 87.1295 172.071 86.854C172.071 86.4684 172.401 85.8072 173.06 84.9808L182.397 72.6392H173.06C172.456 72.6392 172.126 72.2535 172.126 71.427C172.126 70.6557 172.456 70.27 173.06 70.27H186.297C186.846 70.27 187.121 70.4353 187.121 70.7659C187.121 70.9863 186.846 71.427 186.297 72.1984L176.795 84.8155Z" fill="#404B59"/>
<path d="M203.928 85.0346C203.928 87.1283 203.763 88.7261 203.433 89.7729C202.5 92.8032 199.973 94.2908 195.909 94.2908C192.613 94.2908 190.526 93.4093 189.482 91.5911C189.373 91.4809 189.373 91.3707 189.373 91.2605C189.373 90.9299 189.592 90.5994 190.032 90.379C190.416 90.1586 190.801 90.0484 191.13 90.0484C191.515 90.0484 191.789 90.1586 192.009 90.4341C192.393 90.8748 192.613 91.1503 192.668 91.1503C193.382 91.7013 194.481 91.9768 195.909 91.9768C198.6 91.9768 200.248 90.985 200.797 88.9465C200.962 88.3955 201.017 87.1283 201.017 85.255C199.753 86.7426 198.215 87.4589 196.293 87.4589C193.986 87.4589 192.174 86.6324 190.801 84.9244C189.537 83.3817 188.933 81.3983 188.933 79.0291V71.3707C188.933 70.7096 189.373 70.4341 190.306 70.4341C191.35 70.4341 191.844 70.7647 191.844 71.3707V78.7536C191.844 78.6985 191.899 78.6985 191.899 78.6434C191.899 80.4616 192.229 81.8941 192.833 82.9961C193.602 84.3735 194.865 85.0897 196.513 85.0897C197.666 85.0897 198.765 84.5939 199.863 83.547C200.632 82.8308 201.017 81.9492 201.126 80.8473C201.181 80.1861 201.236 78.2578 201.236 75.0622V71.4258C201.236 70.8198 201.676 70.5443 202.555 70.5443C203.433 70.5443 203.928 70.8198 203.928 71.4258V85.0346Z" fill="#404B59"/>
<path d="M221.23 82.3341C221.23 84.4829 220.132 86.0256 217.99 87.0173C216.946 87.5132 215.628 87.7336 214.09 87.7336C210.794 87.7336 208.652 86.6316 207.499 84.4278C207.444 84.3176 207.444 84.2074 207.444 84.0972C207.444 83.7115 207.664 83.3809 208.048 83.1055C208.433 82.83 208.762 82.6647 209.147 82.6647C209.476 82.6647 209.751 82.83 209.97 83.1055C210.63 84.6482 212.003 85.3644 214.09 85.3644C216.891 85.3644 218.319 84.4829 218.319 82.6647C218.319 82.0035 218.044 81.5077 217.495 81.122C217.111 80.8465 216.122 80.5159 214.529 80.1302C212.717 79.6895 211.563 79.3589 211.069 79.1936C208.762 78.3121 207.609 76.8796 207.609 74.841C207.609 73.133 208.323 71.8658 209.751 70.9843C210.904 70.268 212.387 69.8823 214.2 69.8823C217.001 69.8823 218.923 70.5986 219.967 72.0311L220.022 72.0862C220.132 72.1964 220.132 72.3066 220.132 72.4719C220.132 72.8024 219.912 73.133 219.418 73.4085C219.033 73.6289 218.649 73.7391 218.264 73.7391C217.935 73.7391 217.66 73.6289 217.44 73.4085C216.836 72.6922 215.792 72.3066 214.419 72.3066C211.728 72.3066 210.41 73.0228 210.41 74.5104C210.41 75.3369 210.904 75.8878 211.838 76.2735C212.058 76.3837 212.936 76.6041 214.364 76.9898C216.287 77.4856 217.385 77.8162 217.715 77.9815C220.077 78.8079 221.23 80.2955 221.23 82.3341Z" fill="#404B59"/>
<path d="M237.761 86.3025C237.816 86.3576 237.871 86.4678 237.871 86.578C237.871 86.9086 237.706 87.184 237.376 87.4044C237.102 87.6248 236.772 87.735 236.443 87.735C235.839 87.735 235.289 87.4044 234.74 86.7984L228.533 79.6909L227.6 80.6276V86.9086C227.6 87.4595 227.105 87.6799 226.062 87.6799C225.183 87.6799 224.744 87.4044 224.744 86.9086V64.7047C224.744 64.2088 225.183 63.9333 226.117 63.9333C227.105 63.9333 227.655 64.2088 227.655 64.7047V77.3218L234.356 70.5449C234.905 69.994 235.509 69.6634 236.168 69.6634C236.498 69.6634 236.827 69.7736 237.157 69.9389C237.541 70.1592 237.706 70.3796 237.706 70.7102C237.706 70.8204 237.651 70.9306 237.541 71.0408L230.676 78.038L237.761 86.3025Z" fill="#404B59"/>
<path d="M254.733 87.0201C254.733 87.516 254.239 87.7363 253.305 87.7363C252.481 87.7363 252.096 87.516 252.096 87.0201V85.2019C250.998 86.9099 249.46 87.7914 247.373 87.7914C245.945 87.7914 244.682 87.4058 243.583 86.6344C242.485 85.8631 241.606 84.8162 241.002 83.4939C240.397 82.1165 240.068 80.5738 240.068 78.8658C240.068 75.1193 241.221 72.5297 243.473 71.0421C244.627 70.3259 245.89 69.9402 247.263 69.9402C249.24 69.9402 250.833 70.7115 251.932 72.3093V70.4361C251.932 69.8851 252.371 69.6096 253.305 69.6096C254.294 69.6096 254.788 69.8851 254.788 70.4361V87.0201H254.733ZM252.096 79.0862C252.096 77.268 251.767 75.7253 251.163 74.5683C250.339 73.0807 249.131 72.3093 247.428 72.3093C245.78 72.3093 244.627 73.0256 243.858 74.4581C243.254 75.6151 242.924 77.0476 242.924 78.8107C242.924 80.5187 243.254 81.9512 243.913 83.1633C244.737 84.5958 245.945 85.3121 247.538 85.3121C249.131 85.3121 250.284 84.6509 251.108 83.2735C251.767 82.2267 252.096 80.7942 252.096 79.0862Z" fill="#404B59"/>
<path d="M262.038 87.4577C262.038 89.3861 261.764 90.8186 261.214 91.8654C260.445 93.353 259.017 94.1244 256.985 94.1244H254.129C253.635 94.0693 253.415 93.6285 253.415 92.8572C253.415 92.0307 253.69 91.5348 254.184 91.4797H256.491C258.358 91.4797 259.292 90.2125 259.292 87.6781C259.292 87.4577 259.292 87.072 259.237 86.5762C259.237 86.0803 259.182 85.6946 259.182 85.4742V71.1492C259.182 70.5982 259.676 70.3227 260.61 70.3227C261.544 70.3227 262.038 70.5982 262.038 71.1492V85.4742C262.038 85.6946 262.038 86.0252 262.038 86.466C262.038 86.8516 262.038 87.2373 262.038 87.4577ZM262.203 66.1354C262.203 66.6313 262.038 67.072 261.709 67.4026C261.379 67.7332 260.94 67.9536 260.445 67.9536C259.951 67.9536 259.567 67.7883 259.182 67.4026C258.853 67.072 258.688 66.6313 258.688 66.1354C258.688 65.6395 258.853 65.1988 259.182 64.8682C259.512 64.5376 259.951 64.3723 260.445 64.3723C260.94 64.3723 261.324 64.5376 261.709 64.8682C262.038 65.1988 262.203 65.6395 262.203 66.1354Z" fill="#404B59"/>
<path d="M150.211 114.017C150.211 116.166 149.113 117.709 146.97 118.7C145.927 119.196 144.609 119.417 143.071 119.417C139.775 119.417 137.633 118.315 136.48 116.111C136.425 116.001 136.425 115.891 136.425 115.78C136.425 115.395 136.645 115.064 137.029 114.789C137.413 114.513 137.743 114.348 138.127 114.348C138.457 114.348 138.732 114.513 138.951 114.789C139.61 116.331 140.984 117.048 143.071 117.048C145.872 117.048 147.3 116.166 147.3 114.348C147.3 113.687 147.025 113.191 146.476 112.805C146.092 112.53 145.103 112.199 143.51 111.813C141.698 111.373 140.544 111.042 140.05 110.877C137.743 109.995 136.59 108.563 136.59 106.524C136.59 104.816 137.304 103.549 138.732 102.667C139.885 101.951 141.368 101.565 143.181 101.565C145.982 101.565 147.904 102.282 148.948 103.714L149.003 103.769C149.113 103.879 149.113 103.99 149.113 104.155C149.113 104.486 148.893 104.816 148.399 105.092C148.014 105.312 147.63 105.422 147.245 105.422C146.916 105.422 146.641 105.312 146.421 105.092C145.817 104.375 144.773 103.99 143.4 103.99C140.709 103.99 139.391 104.706 139.391 106.194C139.391 107.02 139.885 107.571 140.819 107.957C141.039 108.067 141.917 108.287 143.345 108.673C145.268 109.169 146.366 109.499 146.696 109.665C149.058 110.546 150.211 111.979 150.211 114.017Z" fill="#404B59"/>
<path d="M164.108 102.116C164.437 102.447 164.657 102.778 164.657 103.163C164.657 103.549 164.492 103.935 164.163 104.265C163.833 104.596 163.449 104.761 163.064 104.761C162.899 104.761 162.789 104.706 162.68 104.596C162.405 104.1 161.801 103.879 160.922 103.879C159.384 103.879 158.176 104.596 157.352 106.028C156.693 107.13 156.418 108.508 156.418 110.271C156.418 110.381 156.418 110.491 156.418 110.711C156.418 110.877 156.418 111.042 156.418 111.152V118.7C156.363 119.196 155.869 119.472 154.88 119.472C154.001 119.472 153.562 119.196 153.562 118.7V103.439C153.562 103.163 153.562 102.943 153.562 102.943V102.778C153.562 102.227 154.111 101.951 155.155 101.951C156.089 101.951 156.528 102.227 156.528 102.833V103.879C157.736 102.337 159.274 101.565 161.197 101.565C162.734 101.565 163.723 101.786 164.108 102.116Z" fill="#404B59"/>
<path d="M181.683 110.269C181.683 114.236 180.42 116.936 177.838 118.368C176.575 119.085 175.202 119.415 173.719 119.415C171.083 119.415 169.05 118.589 167.677 116.881C166.414 115.338 165.755 113.189 165.755 110.545C165.755 107.404 166.634 105.035 168.391 103.547C169.874 102.28 171.632 101.674 173.719 101.674C176.246 101.674 178.223 102.501 179.651 104.098C181.024 105.641 181.683 107.68 181.683 110.269ZM178.772 110.434C178.772 108.671 178.388 107.184 177.619 106.027C176.74 104.704 175.477 103.988 173.774 103.988C172.016 103.988 170.753 104.649 169.874 106.027C169.16 107.184 168.776 108.671 168.776 110.49C168.776 112.308 169.16 113.795 169.874 114.952C170.753 116.33 172.071 116.991 173.774 116.991C175.532 116.991 176.795 116.275 177.674 114.897C178.388 113.795 178.772 112.253 178.772 110.434Z" fill="#404B59"/>
<path d="M199.752 118.699C199.752 119.139 199.313 119.415 198.434 119.415C197.555 119.415 197.116 119.194 197.061 118.699V116.88C195.908 118.533 194.37 119.36 192.338 119.36C189.976 119.36 188.108 118.423 186.735 116.495C185.582 114.787 184.978 112.693 184.978 110.214C184.978 107.79 185.527 105.751 186.68 104.208C187.944 102.445 189.756 101.564 192.173 101.564C194.04 101.564 195.633 102.335 196.841 103.878V96.2744C196.841 95.7234 197.281 95.3928 198.215 95.3928C199.203 95.3928 199.697 95.6683 199.697 96.2744V118.699H199.752ZM196.841 110.379C196.841 108.34 196.622 106.908 196.127 106.137C195.303 104.704 194.095 103.988 192.502 103.988C190.909 103.988 189.701 104.704 188.932 106.192C188.328 107.349 187.998 108.781 187.998 110.544C187.998 112.252 188.328 113.685 188.987 114.897C189.811 116.385 191.019 117.101 192.612 117.101C194.15 117.101 195.413 116.385 196.292 114.897C196.677 114.236 196.841 112.748 196.841 110.379Z" fill="#404B59"/>
<path d="M218.154 110.269C218.154 114.236 216.891 116.936 214.309 118.368C213.046 119.085 211.673 119.415 210.19 119.415C207.553 119.415 205.521 118.589 204.148 116.881C202.885 115.338 202.226 113.189 202.226 110.545C202.226 107.404 203.104 105.035 204.862 103.547C206.345 102.28 208.103 101.674 210.19 101.674C212.716 101.674 214.694 102.501 216.122 104.098C217.44 105.641 218.154 107.68 218.154 110.269ZM215.188 110.434C215.188 108.671 214.803 107.184 214.035 106.027C213.156 104.704 211.892 103.988 210.19 103.988C208.432 103.988 207.169 104.649 206.29 106.027C205.576 107.184 205.192 108.671 205.192 110.49C205.192 112.308 205.576 113.795 206.29 114.952C207.169 116.33 208.487 116.991 210.19 116.991C211.947 116.991 213.211 116.275 214.089 114.897C214.803 113.795 215.188 112.253 215.188 110.434Z" fill="#404B59"/>
<path d="M244.188 113.411C244.188 115.23 243.584 116.662 242.43 117.654C241.332 118.645 239.849 119.086 237.981 119.086C236.828 119.086 235.729 118.811 234.741 118.205C233.642 117.544 232.983 116.717 232.708 115.615C232.324 116.662 231.665 117.544 230.786 118.15C229.907 118.756 228.864 119.086 227.765 119.086C223.316 119.086 221.064 116.442 221.119 111.097L221.174 102.337C221.174 101.621 221.613 101.235 222.492 101.235C223.536 101.235 224.085 101.621 224.085 102.337V110.546C224.085 112.585 224.25 113.962 224.525 114.679C225.019 115.946 226.062 116.607 227.655 116.607C228.754 116.607 229.633 116.221 230.292 115.505C230.951 114.789 231.28 113.852 231.28 112.75V102.337C231.225 102.006 231.39 101.676 231.775 101.455C232.104 101.29 232.434 101.18 232.818 101.18C233.697 101.18 234.136 101.566 234.136 102.337V112.089C234.136 115.119 235.4 116.607 237.981 116.607C240.233 116.607 241.332 115.23 241.332 112.42V102.337C241.277 101.951 241.441 101.676 241.771 101.455C242.046 101.29 242.375 101.18 242.815 101.18C243.748 101.18 244.188 101.566 244.188 102.282V113.411Z" fill="#404B59"/>
<path d="M251.274 97.5971C251.274 98.0929 251.109 98.5337 250.779 98.8643C250.45 99.1949 250.01 99.4153 249.516 99.4153C249.022 99.4153 248.637 99.25 248.253 98.8643C247.923 98.5337 247.758 98.0929 247.758 97.5971C247.758 97.1012 247.923 96.6604 248.253 96.3299C248.582 95.9993 249.022 95.834 249.516 95.834C250.01 95.834 250.395 95.9993 250.779 96.3299C251.109 96.6604 251.274 97.1012 251.274 97.5971ZM251.054 118.534C250.999 119.03 250.505 119.305 249.516 119.305C248.637 119.305 248.198 119.03 248.198 118.534V102.776C248.198 102.17 248.692 101.839 249.626 101.839C250.614 101.839 251.109 102.17 251.109 102.776V118.534H251.054Z" fill="#404B59"/>
<path d="M268.356 114.015C268.356 116.164 267.257 117.706 265.115 118.698C264.071 119.194 262.753 119.414 261.215 119.414C257.92 119.414 255.778 118.313 254.624 116.109C254.569 115.998 254.569 115.888 254.569 115.778C254.569 115.392 254.789 115.062 255.174 114.786C255.558 114.511 255.888 114.346 256.272 114.346C256.602 114.346 256.876 114.511 257.096 114.786C257.755 116.329 259.128 117.045 261.215 117.045C264.016 117.045 265.445 116.164 265.445 114.346C265.445 113.684 265.17 113.189 264.621 112.803C264.236 112.527 263.248 112.197 261.655 111.811C259.842 111.37 258.689 111.04 258.194 110.875C255.888 109.993 254.734 108.56 254.734 106.522C254.734 104.814 255.448 103.547 256.876 102.665C258.03 101.949 259.513 101.563 261.325 101.563C264.126 101.563 266.049 102.279 267.092 103.712L267.147 103.767C267.257 103.877 267.257 103.987 267.257 104.153C267.257 104.483 267.037 104.814 266.543 105.089C266.159 105.31 265.774 105.42 265.39 105.42C265.06 105.42 264.785 105.31 264.566 105.089C263.962 104.373 262.918 103.987 261.545 103.987C258.854 103.987 257.535 104.704 257.535 106.191C257.535 107.018 258.03 107.569 258.963 107.954C259.183 108.065 260.062 108.285 261.49 108.671C263.412 109.167 264.511 109.497 264.84 109.662C267.202 110.544 268.356 111.976 268.356 114.015Z" fill="#404B59"/>
<path d="M284.887 117.981C284.942 118.037 284.997 118.147 284.997 118.257C284.997 118.588 284.832 118.863 284.503 119.083C284.228 119.304 283.899 119.414 283.569 119.414C282.965 119.414 282.416 119.083 281.867 118.477L275.66 111.37L274.726 112.307V118.588C274.726 119.138 274.232 119.359 273.188 119.359C272.31 119.359 271.87 119.083 271.87 118.588V96.3837C271.87 95.8878 272.31 95.6123 273.243 95.6123C274.232 95.6123 274.781 95.8878 274.781 96.3837V109.001L281.482 102.224C282.031 101.673 282.635 101.342 283.295 101.342C283.624 101.342 283.954 101.453 284.283 101.618C284.668 101.838 284.832 102.059 284.832 102.389C284.832 102.499 284.778 102.61 284.668 102.72L277.802 109.717L284.887 117.981Z" fill="#404B59"/>
<path d="M303.014 110.269C303.014 114.236 301.75 116.936 299.169 118.368C297.906 119.085 296.533 119.415 295.05 119.415C292.413 119.415 290.381 118.589 289.008 116.881C287.745 115.338 287.085 113.189 287.085 110.545C287.085 107.404 287.964 105.035 289.722 103.547C291.205 102.28 292.962 101.674 295.05 101.674C297.576 101.674 299.553 102.501 300.982 104.098C302.355 105.641 303.014 107.68 303.014 110.269ZM300.048 110.434C300.048 108.671 299.663 107.184 298.894 106.027C298.016 104.704 296.752 103.988 295.05 103.988C293.292 103.988 292.029 104.649 291.15 106.027C290.436 107.184 290.051 108.671 290.051 110.49C290.051 112.308 290.436 113.795 291.15 114.952C292.029 116.33 293.347 116.991 295.05 116.991C296.807 116.991 298.07 116.275 298.949 114.897C299.718 113.795 300.048 112.253 300.048 110.434Z" fill="#404B59"/>
<path d="M144.608 100.188C144.223 100.188 143.784 100.078 143.399 99.747C142.96 99.4715 142.74 99.1409 142.74 98.7553C142.74 98.6451 142.74 98.5349 142.795 98.4798L144.278 95.5597C144.388 95.3944 144.553 95.2842 144.882 95.2842C145.267 95.2842 145.651 95.3944 146.091 95.6699C146.585 95.9453 146.86 96.2759 146.86 96.6065C146.86 96.7167 146.86 96.7718 146.805 96.882L145.322 99.8021C145.212 100.022 144.992 100.188 144.608 100.188Z" fill="#404B59"/>
<path d="M59.9132 0.571289C26.958 0.571289 0.0996094 27.5134 0.0996094 60.5713C0.0996094 93.6291 26.958 120.571 59.9132 120.571C92.8683 120.571 119.727 93.6291 119.727 60.5713C119.727 56.7696 116.651 53.6291 112.806 53.6291C108.961 53.6291 105.886 56.7145 105.886 60.5713C105.886 86.0258 85.2337 106.687 59.9132 106.687C34.5927 106.687 13.9408 85.9707 13.9408 60.5713C13.9408 35.1718 34.5927 14.4556 59.9132 14.4556C63.7579 14.4556 66.8338 11.3702 66.8338 7.51344C66.8338 3.65669 63.7579 0.571289 59.9132 0.571289Z" fill="#404B59"/>
<path d="M59.1453 24.3198C59.1453 24.3198 14.1066 70.4906 38.9328 91.3722C41.4044 62.8322 63.9787 53.0251 80.4563 54.3474C75.9524 44.0994 59.1453 24.3198 59.1453 24.3198Z" fill="#3287C3"/>
<path d="M42.6133 91.3721C42.6133 91.3721 63.1004 68.2867 80.5117 67.9561C80.5117 67.9561 54.2025 81.4547 46.7327 95.8349C49.5888 96.1655 73.9207 101.84 86.2788 82.7219C92.3755 73.2454 91.9361 66.9644 97.6484 61.1242C97.5934 61.0691 51.3464 43.2729 42.6133 91.3721Z" fill="#93C23F"/>
<path d="M99.2391 31.7571L105.72 25.2558C109.345 21.6194 110.114 16.4403 107.423 13.7406C104.732 11.0409 99.5687 11.8122 95.9436 15.4486L89.4624 21.95C85.8374 25.5863 85.0684 30.7654 87.7598 33.4651C90.4511 36.1649 95.5592 35.4486 99.2391 31.7571Z" fill="#404B59"/>
</svg>
