<svg width="150" height="53" viewBox="0 0 150 53" fill="none" xmlns="http://www.w3.org/2000/svg">
<g clip-path="url(#clip0_217_15537)">
<path fill-rule="evenodd" clip-rule="evenodd" d="M1.15698 0.861328C9.96918 4.27532 23.6252 2.34948 22.2246 21.1119C-0.185272 24.9052 5.5339 9.46927 1.15698 0.861328Z" fill="#9BC445"/>
<path d="M22.1079 21.462C17.4684 14.5465 11.3991 8.76895 5.06714 4.0127C11.866 7.68931 17.6727 14.0504 22.5748 20.966L22.1079 21.462Z" fill="white"/>
<path d="M30.249 25.8971C23.1 25.4886 14.4629 25.8096 7.54736 28.4941C13.8793 24.5548 23.0125 23.4752 30.3657 23.6211L30.249 25.8971Z" fill="#597181"/>
<path fill-rule="evenodd" clip-rule="evenodd" d="M82.0132 23.7673H86.4484L84.6393 19.0694L83.7056 20.7618L82.0132 23.7673ZM74.4849 30.7996C75.2727 29.5449 76.2356 27.9983 77.3153 26.1892L80.3499 21.0536C81.2837 19.4779 82.0715 18.1065 82.7135 16.9393C83.7056 16.9393 84.4351 16.9685 84.8436 16.9685C85.5731 16.9685 86.3025 16.9685 87.0028 16.9393L88.6661 21.0828L92.2551 29.6908L92.7512 30.7996L91.0296 30.7704C90.6211 30.7704 89.95 30.7704 89.0162 30.7996C88.8412 30.1868 88.5494 29.399 88.1409 28.3485C87.7323 27.3272 87.4114 26.5102 87.1196 25.8682H81.0502C80.1457 27.4731 79.2703 29.1363 78.4241 30.7996L76.5566 30.7704C76.1189 30.7704 75.4478 30.7704 74.4849 30.7996ZM61.6167 30.7996C61.8502 28.7862 62.0252 26.4518 62.142 23.8549C62.2587 21.2287 62.317 18.9235 62.317 16.9393C63.2508 16.9393 64.0094 16.9685 64.6514 16.9685C65.3225 16.9685 65.9936 16.9685 66.6356 16.9393C67.2775 16.9102 67.9487 16.9102 68.6782 16.9102C69.5827 16.9102 70.3706 16.9685 71.0709 17.0561C71.7712 17.1436 72.4131 17.3478 72.9384 17.6688C73.4928 17.9898 73.9013 18.3691 74.1639 18.836C74.4265 19.3029 74.5724 19.8281 74.5724 20.4117C74.5724 20.791 74.514 21.1412 74.4265 21.4913C74.339 21.8415 74.1639 22.1625 73.9888 22.4543C73.7846 22.746 73.5511 23.0087 73.2885 23.2421C73.0259 23.4755 72.7633 23.6506 72.5007 23.7673C72.238 23.9132 71.9463 24.0008 71.5961 24.1175C71.2459 24.205 70.8083 24.3217 70.2247 24.4676L71.0125 25.8099C71.2751 26.2476 71.742 27.0062 72.4423 28.1151L73.6095 29.9242C73.6678 30.0117 73.8721 30.3327 74.1639 30.8579C73.2301 30.8579 72.5882 30.8288 72.2964 30.8288C71.9171 30.8288 71.2751 30.8288 70.3414 30.8579L69.0575 28.1442C68.8241 27.7357 68.5614 27.2397 68.2405 26.6853L66.8398 24.205C66.694 23.9716 66.5189 23.6214 66.2563 23.1546C66.7815 23.2421 67.2484 23.2713 67.6569 23.2713C68.328 23.2713 68.9116 23.1837 69.466 22.9795C70.0204 22.7752 70.4289 22.4834 70.7207 22.1041C71.0125 21.6956 71.1584 21.2871 71.1584 20.8202C71.1584 20.5284 71.1 20.2658 70.9833 20.0324C70.8666 19.7989 70.6332 19.5947 70.3414 19.4196C70.0496 19.2445 69.6703 19.1278 69.2617 19.0986C68.8532 19.0403 68.4155 19.0111 68.007 19.0111C67.7736 19.0111 67.4526 19.0111 67.0733 19.0111C66.6648 19.0111 66.1687 19.0111 65.5851 19.0111L65.3809 23.1837L65.1766 30.7996L63.3967 30.7704C63.0757 30.7704 62.4921 30.7704 61.6167 30.7996ZM44.4884 16.9393C45.3929 16.9393 45.9765 16.9685 46.2975 16.9685C46.6768 16.9685 47.2896 16.9685 48.0483 16.9393L47.523 25.1388C47.523 25.2263 47.523 25.343 47.523 25.4306C47.523 26.3351 47.6689 27.0354 47.9607 27.5023C48.2525 27.9692 48.6902 28.2901 49.2738 28.4944C49.8574 28.6987 50.4994 28.8154 51.2288 28.8154C51.6957 28.8154 52.1334 28.757 52.5711 28.6695C52.9212 28.5819 53.2422 28.4652 53.534 28.3193C53.7675 28.2026 53.9717 28.0567 54.1468 27.8816C54.351 27.6774 54.5261 27.4731 54.672 27.2105C54.8179 26.9479 54.9346 26.6853 54.993 26.3643C55.0805 25.8682 55.1972 25.0512 55.2556 23.8549L55.489 20.3242C55.5474 19.3029 55.5766 18.1649 55.6058 16.9102C56.4811 16.9102 57.1231 16.9393 57.5608 16.9393L59.2532 16.9102L58.903 21.8123L58.6696 25.6932C58.6112 26.5977 58.4945 27.2689 58.3486 27.7357C58.2319 28.1151 58.0568 28.4652 57.8234 28.7862C57.6191 29.078 57.3565 29.3114 57.0647 29.5449C56.6854 29.8367 56.2185 30.0993 55.7225 30.3035C55.1389 30.537 54.5261 30.712 53.8842 30.8288C52.9796 30.9747 52.075 31.0622 51.1121 31.0622C50.1492 31.0622 49.2446 30.9747 48.3984 30.8288C47.6689 30.6829 46.9978 30.4786 46.4142 30.1868C45.8015 29.895 45.3346 29.574 44.9844 29.2239C44.6926 28.9321 44.4592 28.5819 44.3133 28.1442C44.1091 27.6774 44.0215 27.1521 44.0215 26.5686C44.0215 26.3643 44.0215 26.1017 44.0507 25.7807C44.0799 25.4597 44.0799 25.0512 44.1382 24.526L44.2549 23.0962C44.2841 22.6585 44.3425 21.9874 44.3717 21.1412L44.4884 18.9235C44.4592 18.3399 44.4884 17.6688 44.4884 16.9393ZM31.5035 23.7673H35.9388L34.1005 19.0694L33.1668 20.7618L31.5035 23.7673ZM23.946 30.7996C24.7339 29.5449 25.6968 27.9983 26.7765 26.1892L29.8111 21.0536C30.7449 19.4779 31.5327 18.1065 32.1747 16.9393C33.1668 16.9393 33.8962 16.9685 34.3048 16.9685C35.0342 16.9685 35.7637 16.9685 36.464 16.9393L38.1273 21.0828L41.6872 29.6908L42.1832 30.7996L40.4616 30.7704C40.0531 30.7704 39.382 30.7704 38.4482 30.7996C38.2732 30.1868 37.9814 29.399 37.5729 28.3485C37.1643 27.3272 36.8434 26.5102 36.5516 25.8682H30.4822C29.5777 27.4731 28.7023 29.1363 27.8561 30.7996L25.9886 30.7704C25.5801 30.7704 24.9381 30.7704 23.946 30.7996Z" fill="#597181"/>
<path fill-rule="evenodd" clip-rule="evenodd" d="M90.8254 43.8714C90.8254 43.7839 90.8254 43.6964 90.7962 43.5796C90.8837 43.6088 90.9713 43.638 91.0296 43.6672C91.088 43.6964 91.1755 43.6964 91.2339 43.6964C91.3214 43.6964 91.409 43.7255 91.4673 43.7255C91.6424 43.7255 91.7883 43.6964 91.9342 43.6088C92.0801 43.5505 92.226 43.4046 92.401 43.1711C92.5469 42.9669 92.722 42.6459 92.9263 42.2957L91.9342 40.0781L91.2339 38.5316C91.3214 38.5316 91.3798 38.5316 91.4381 38.5316C91.4965 38.5316 91.5549 38.5316 91.6424 38.5316L91.7299 38.7942C91.7591 38.8817 91.7883 38.9985 91.8466 39.086C91.905 39.2319 91.9925 39.407 92.0801 39.6404L93.1014 42.0039L94.5312 39.4653C94.6479 39.2319 94.7354 39.0568 94.7938 38.9693C94.8521 38.8526 94.9105 38.7358 94.9688 38.5608C95.0564 38.5608 95.1147 38.5608 95.1731 38.5608C95.2315 38.5608 95.2898 38.5608 95.3774 38.5608C95.2315 38.8234 94.9688 39.3194 94.5603 39.9906L93.685 41.5079L92.8387 42.996C92.6928 43.2295 92.6053 43.4046 92.4886 43.4921C92.4011 43.5796 92.3427 43.638 92.2551 43.6964C92.1968 43.7255 92.1093 43.7839 92.0509 43.8131C91.9634 43.8423 91.8466 43.8714 91.7591 43.9006C91.6424 43.9298 91.5257 43.9298 91.409 43.9298C91.2339 43.9298 91.0296 43.9006 90.8254 43.8714ZM87.4989 42.179C87.4989 42.0623 87.4989 41.9748 87.4989 41.8581L88.0533 41.3036L90.1834 39.0276C90.2418 38.9693 90.3293 38.8526 90.446 38.7358C90.0959 38.7358 89.7749 38.7358 89.4831 38.7358C88.8995 38.7358 88.3451 38.7358 87.7907 38.765C87.7907 38.6775 87.7907 38.5899 87.7907 38.5316C88.2868 38.5316 88.7828 38.5316 89.308 38.5316H90.7378C90.7378 38.5899 90.7378 38.7067 90.7378 38.7942V38.8234L87.7907 41.9456C88.0825 41.9456 88.3743 41.9748 88.6953 41.9748C89.4831 41.9748 90.0959 41.9456 90.5627 41.9456C90.5627 42.0331 90.5336 42.1207 90.5336 42.2082C90.0375 42.2082 89.5706 42.2082 89.1038 42.2082H87.7907L87.4989 42.179ZM86.3025 38.765C86.0983 38.7067 85.894 38.6775 85.7481 38.6483C85.6022 38.6191 85.4563 38.6191 85.3104 38.6191C84.9895 38.6191 84.6685 38.6483 84.3475 38.7358C84.0557 38.8234 83.7639 38.9401 83.5597 39.1152C83.3262 39.2903 83.1512 39.4945 83.0345 39.7863C82.9177 40.0489 82.8594 40.3115 82.8594 40.5742C82.8594 40.8659 82.9177 41.1286 83.0636 41.362C83.2095 41.5954 83.3846 41.7705 83.6472 41.8872C83.9098 42.0039 84.1725 42.0623 84.4934 42.0623C84.6685 42.0623 84.8436 42.0331 84.9895 42.0039C85.1354 41.9748 85.2813 41.9164 85.398 41.8581C85.5147 41.7997 85.6314 41.7122 85.7481 41.5954C85.8649 41.4787 85.9524 41.362 86.0399 41.2161C86.1275 41.0702 86.1858 40.9243 86.215 40.7492C86.2442 40.5742 86.2734 40.3115 86.3025 39.9614V38.765ZM86.5068 42.179C86.4193 42.179 86.3609 42.179 86.3317 42.179H86.1566L86.215 41.2453C86.1567 41.3912 86.0691 41.5079 86.0107 41.5663C85.9524 41.6538 85.8649 41.7413 85.7773 41.7997C85.6898 41.8872 85.5731 41.9456 85.4272 42.0039C85.2813 42.0623 85.1354 42.1207 84.9603 42.1498C84.7852 42.179 84.6101 42.2082 84.4059 42.2082C84.1141 42.2082 83.8515 42.179 83.5889 42.0915C83.3262 42.0039 83.122 41.8872 82.9469 41.7413C82.7718 41.5954 82.6551 41.3912 82.5676 41.1869C82.48 40.9827 82.4509 40.7784 82.4509 40.545C82.4509 40.224 82.5092 39.9322 82.6551 39.6696C82.801 39.3778 83.0053 39.1444 83.2679 38.9401C83.5305 38.7358 83.8515 38.6191 84.1724 38.5316C84.5226 38.4441 84.8727 38.4149 85.2521 38.4149C85.5731 38.4149 85.894 38.4441 86.2734 38.5024C86.3025 38.269 86.3025 38.0647 86.3025 37.8313C86.3025 37.6562 86.3025 37.4228 86.3025 37.1893C86.3901 37.1893 86.4484 37.1893 86.4776 37.1893C86.536 37.1893 86.5943 37.1893 86.6527 37.1893C86.6235 37.627 86.5943 38.1231 86.5652 38.6191L86.5068 40.3699C86.4776 41.041 86.4776 41.4787 86.4776 41.7122V42.179H86.5068ZM79.4746 38.6483C79.1244 38.6483 78.7743 38.7067 78.4825 38.8526C78.1907 38.9985 77.9572 39.2027 77.8113 39.4945C77.6654 39.7863 77.6071 40.1073 77.6071 40.4283C77.6071 40.6617 77.6362 40.8951 77.7238 41.0994C77.8113 41.3036 77.928 41.4787 78.1323 41.6246C78.3074 41.7705 78.5116 41.8581 78.7159 41.9164C78.9201 41.9748 79.1536 42.0039 79.387 42.0039C79.6496 42.0039 79.9122 41.9748 80.1457 41.8872C80.3791 41.8289 80.5834 41.7122 80.7584 41.5371C80.9335 41.362 81.0794 41.1577 81.1378 40.9243C81.2253 40.6909 81.2545 40.4283 81.2545 40.1656C81.2545 39.903 81.2253 39.6696 81.1378 39.4653C81.0502 39.2319 80.9335 39.0568 80.7584 38.9401C80.5834 38.7942 80.3791 38.7067 80.1749 38.6483C79.9122 38.6775 79.708 38.6483 79.4746 38.6483ZM79.4746 38.4441C79.7372 38.4441 80.029 38.4732 80.2916 38.5316C80.5542 38.5899 80.7876 38.7067 80.9919 38.8526C81.1961 38.9985 81.342 39.2027 81.4588 39.4362C81.5755 39.6696 81.6047 39.9322 81.6047 40.224C81.6047 40.5158 81.5463 40.8076 81.4296 41.0702C81.3129 41.3328 81.167 41.5663 80.9627 41.7413C80.7585 41.9164 80.525 42.0623 80.2624 42.1207C79.9998 42.2082 79.708 42.2374 79.387 42.2374C79.1828 42.2374 78.9493 42.2082 78.7451 42.179C78.5408 42.1498 78.3366 42.0623 78.1615 41.9748C77.9864 41.8872 77.8113 41.7705 77.6946 41.5954C77.5487 41.4495 77.4612 41.2745 77.3736 41.0702C77.3153 40.8659 77.2569 40.6617 77.2569 40.4283C77.2569 40.0489 77.3445 39.6696 77.5195 39.3486C77.6946 39.0276 77.9572 38.7942 78.3366 38.6483C78.6867 38.5024 79.066 38.4441 79.4746 38.4441ZM66.1104 38.9109C66.1395 38.8234 66.1395 38.7358 66.1687 38.6191C66.4605 38.5608 66.7231 38.5024 66.9566 38.4732C67.19 38.4441 67.3943 38.4441 67.6277 38.4441C67.8903 38.4441 68.1529 38.4732 68.3572 38.5024C68.5906 38.5316 68.7657 38.5899 68.9116 38.6775C69.0575 38.765 69.145 38.8526 69.2034 38.9693C69.2617 39.086 69.2617 39.2027 69.2617 39.3194C69.2617 39.4362 69.2617 39.5821 69.2326 39.7863C69.2326 39.9614 69.2034 40.1656 69.2034 40.3699C69.1742 40.5742 69.1742 40.8368 69.145 41.1577C69.1159 41.4787 69.1158 41.7122 69.1158 41.8581V42.1498C69.0283 42.1498 68.97 42.1498 68.9408 42.1498C68.8824 42.1498 68.8241 42.1498 68.7657 42.1498C68.7949 41.7705 68.8241 41.4787 68.8532 41.2453C68.8824 41.0118 68.8824 40.7784 68.8824 40.5158C68.8824 40.2532 68.9116 39.9906 68.9116 39.7863C68.8241 39.8447 68.7365 39.903 68.7073 39.9322C68.649 39.9614 68.5906 39.9906 68.5323 40.0197C68.4739 40.0489 68.4155 40.0781 68.328 40.1073C68.2405 40.1365 68.1821 40.1656 68.0946 40.1656C68.0362 40.1948 67.8611 40.224 67.5985 40.2824C67.3359 40.3407 67.1316 40.3699 67.0441 40.3991C66.7815 40.4574 66.5772 40.545 66.4605 40.6033C66.3146 40.6617 66.1687 40.7492 66.0812 40.8076C65.9936 40.8659 65.9353 40.9535 65.8769 41.041C65.8186 41.1286 65.8186 41.2453 65.8186 41.3328C65.8186 41.4787 65.8769 41.6246 65.9936 41.7413C66.1104 41.858 66.2563 41.9456 66.4313 41.9748C66.6064 42.0331 66.8107 42.0331 67.0733 42.0331C67.19 42.0331 67.3067 42.0331 67.4234 42.0039C67.5402 42.0039 67.6569 41.9748 67.7444 41.9748C67.8611 41.9456 68.007 41.9164 68.1821 41.8581C68.1529 41.9456 68.1237 42.0331 68.1237 42.1207C67.8903 42.1498 67.6861 42.179 67.5402 42.2082C67.3943 42.2082 67.2484 42.2374 67.1025 42.2374C66.8399 42.2374 66.6356 42.2082 66.4022 42.179C66.1979 42.1498 66.0228 42.0915 65.8769 42.0039C65.731 41.9164 65.6143 41.7997 65.556 41.683C65.4976 41.5663 65.4392 41.4204 65.4392 41.3036C65.4392 41.2161 65.4684 41.0994 65.4976 41.0118C65.5268 40.9243 65.6143 40.8368 65.7019 40.7492C65.7602 40.6617 65.8769 40.6033 65.9936 40.545C66.1395 40.4574 66.2854 40.3991 66.4605 40.3407C66.6648 40.2824 66.869 40.224 67.1025 40.1656C67.1608 40.1365 67.4234 40.1073 67.832 40.0197C68.0362 39.9906 68.2113 39.9322 68.3864 39.8738C68.5614 39.8155 68.7073 39.7279 68.7949 39.6112C68.8824 39.4945 68.9408 39.3778 68.9408 39.2903C68.9408 39.2027 68.9116 39.1152 68.8824 39.0568C68.8241 38.9693 68.7657 38.9109 68.649 38.8526C68.5323 38.7942 68.3864 38.7358 68.2113 38.7067C68.0362 38.6775 67.8611 38.6775 67.6861 38.6775C67.4818 38.6775 67.2484 38.6775 67.0733 38.7067C66.869 38.7358 66.7231 38.765 66.5772 38.7942C66.4897 38.7942 66.3146 38.8234 66.1104 38.9109ZM64.6222 38.5024L64.5347 40.1073L64.4471 41.7122C64.418 42.3541 64.3888 42.7626 64.3596 42.9085C64.3304 43.0836 64.2721 43.2295 64.2429 43.3462C64.2137 43.4337 64.1553 43.4921 64.0678 43.5505C63.9803 43.6088 63.8927 43.6672 63.8052 43.7255C63.6885 43.7839 63.5718 43.8131 63.455 43.8423C63.3091 43.8714 63.1049 43.9006 62.9006 43.9006C62.6088 43.9006 62.2879 43.8714 61.9085 43.7839C61.9085 43.6964 61.9085 43.6088 61.8793 43.5213C62.2587 43.638 62.638 43.6964 62.9882 43.6964C63.1341 43.6964 63.2508 43.6964 63.3675 43.6672C63.4842 43.638 63.5718 43.6088 63.6593 43.5505C63.7468 43.4921 63.8052 43.4629 63.8635 43.4046C63.9219 43.3462 63.9511 43.2878 64.0094 43.1711C64.0678 43.0544 64.097 42.8793 64.1262 42.7043C64.1553 42.5292 64.1845 42.1207 64.2137 41.4787C64.2137 41.2745 64.2429 40.8076 64.2721 40.1073C64.3012 39.3194 64.3304 38.8817 64.3304 38.7942V38.4732C64.418 38.4732 64.4763 38.4732 64.5055 38.4732C64.4763 38.5024 64.5347 38.5024 64.6222 38.5024ZM64.2429 37.5978V37.2477C64.3304 37.2477 64.3888 37.2477 64.4763 37.2477C64.5639 37.2477 64.6222 37.2477 64.7098 37.2477V37.5978C64.6222 37.5978 64.5639 37.5978 64.4763 37.5978C64.3888 37.5687 64.3304 37.5687 64.2429 37.5978ZM62.9006 41.8872C62.8714 41.9748 62.8423 42.0915 62.8423 42.1498C62.4629 42.2082 62.1128 42.2374 61.7918 42.2374C61.4708 42.2374 61.179 42.2082 60.9164 42.1207C60.6538 42.0623 60.4204 41.9456 60.2161 41.7705C60.0119 41.6246 59.866 41.4204 59.7784 41.1869C59.6909 40.9535 59.6325 40.6909 59.6325 40.4574C59.6325 40.1073 59.7201 39.7571 59.866 39.4362C60.0119 39.1152 60.2453 38.8526 60.5663 38.6775C60.8872 38.5024 61.3249 38.4149 61.8793 38.4149C62.2879 38.4149 62.6672 38.4732 63.0173 38.5608C63.0173 38.6483 63.0173 38.7358 63.0465 38.8234C62.7255 38.7358 62.4921 38.7067 62.317 38.6775C62.142 38.6483 61.9669 38.6483 61.821 38.6483C61.5 38.6483 61.2374 38.7067 60.9748 38.7942C60.7413 38.8817 60.5371 39.0276 60.362 39.2027C60.1869 39.3778 60.0994 39.5821 60.0119 39.8155C59.9535 40.0489 59.9243 40.2532 59.9243 40.4866C59.9243 40.72 59.9535 40.9535 60.041 41.1577C60.1286 41.362 60.2453 41.5371 60.3912 41.6538C60.5663 41.7705 60.7705 41.8872 61.004 41.9456C61.2374 42.0039 61.5 42.0623 61.7626 42.0623C61.9085 42.0623 62.0544 42.0623 62.2295 42.0331C62.4338 42.0039 62.638 41.9456 62.9006 41.8872ZM55.3723 38.9109C55.4015 38.8234 55.4015 38.7358 55.4307 38.6191C55.7225 38.5608 55.9851 38.5024 56.2185 38.4732C56.452 38.4441 56.6562 38.4441 56.8897 38.4441C57.1523 38.4441 57.4149 38.4732 57.6191 38.5024C57.8526 38.5316 58.0277 38.5899 58.1736 38.6775C58.3195 38.765 58.407 38.8526 58.4653 38.9693C58.5237 39.086 58.5237 39.2027 58.5237 39.3194C58.5237 39.4362 58.5237 39.5821 58.4945 39.7863C58.4945 39.9614 58.4653 40.1656 58.4653 40.3699C58.4362 40.5742 58.4362 40.8368 58.407 41.1577C58.3778 41.4787 58.3778 41.7122 58.3778 41.8581V42.1498C58.2903 42.1498 58.2319 42.1498 58.2027 42.1498C58.1444 42.1498 58.086 42.1498 58.0277 42.1498C58.0568 41.7705 58.086 41.4787 58.1152 41.2453C58.1444 41.0118 58.1444 40.7784 58.1444 40.5158C58.1444 40.2532 58.1736 39.9906 58.1736 39.7863C58.086 39.8447 57.9985 39.903 57.9693 39.9322C57.9109 39.9614 57.8526 39.9906 57.7942 40.0197C57.7359 40.0489 57.6775 40.0781 57.59 40.1073C57.5024 40.1365 57.4441 40.1656 57.3565 40.1656C57.2982 40.1948 57.1231 40.224 56.8605 40.2824C56.5979 40.3407 56.3936 40.3699 56.3061 40.3991C56.0435 40.4574 55.8392 40.545 55.7225 40.6033C55.5766 40.6617 55.4307 40.7492 55.3431 40.8076C55.2556 40.8659 55.1973 40.9535 55.1389 41.041C55.0805 41.1286 55.0805 41.2453 55.0805 41.3328C55.0805 41.4787 55.1389 41.6246 55.2556 41.7413C55.3723 41.858 55.5182 41.9456 55.6933 41.9748C55.8684 42.0331 56.0726 42.0331 56.3352 42.0331C56.452 42.0331 56.5687 42.0331 56.6854 42.0039C56.8021 42.0039 56.9188 41.9748 57.0064 41.9748C57.1231 41.9456 57.269 41.9164 57.4441 41.8581C57.4149 41.9456 57.3857 42.0331 57.3857 42.1207C57.1523 42.1498 56.948 42.179 56.8021 42.2082C56.6562 42.2082 56.5103 42.2374 56.3644 42.2374C56.1018 42.2374 55.8976 42.2082 55.6641 42.179C55.4599 42.1498 55.2848 42.0915 55.1389 42.0039C54.993 41.9164 54.8763 41.7997 54.8179 41.683C54.7596 41.5663 54.7012 41.4204 54.7012 41.3036C54.7012 41.2161 54.7304 41.0994 54.7596 41.0118C54.7887 40.9243 54.8763 40.8368 54.9638 40.7492C55.0222 40.6617 55.1389 40.6033 55.2556 40.545C55.4015 40.4574 55.5474 40.3991 55.7225 40.3407C55.9267 40.2824 56.131 40.224 56.3644 40.1656C56.4228 40.1365 56.6854 40.1073 57.0939 40.0197C57.2982 39.9906 57.4732 39.9322 57.6483 39.8738C57.8234 39.8155 57.9693 39.7279 58.0568 39.6112C58.1444 39.4945 58.2027 39.3778 58.2027 39.2903C58.2027 39.2027 58.1736 39.1152 58.1444 39.0568C58.086 38.9693 58.0277 38.9109 57.9109 38.8526C57.7942 38.7942 57.6483 38.7358 57.4732 38.7067C57.2982 38.6775 57.1231 38.6775 56.948 38.6775C56.7438 38.6775 56.5103 38.6775 56.3352 38.7067C56.131 38.7358 55.9851 38.765 55.8392 38.7942C55.7517 38.7942 55.5766 38.8234 55.3723 38.9109ZM50.9079 42.179C50.9079 42.0623 50.9079 41.9748 50.9079 41.8581L51.4623 41.3036L53.5924 39.0276C53.6507 38.9693 53.7383 38.8526 53.855 38.7358C53.5048 38.7358 53.1839 38.7358 52.8921 38.7358C52.3085 38.7358 51.7541 38.7358 51.1997 38.765C51.1997 38.6775 51.1997 38.5899 51.1997 38.5316C51.6957 38.5316 52.1918 38.5316 52.717 38.5316H54.1468C54.1468 38.5899 54.1468 38.7067 54.1468 38.7942V38.8234L51.1997 41.9456C51.4915 41.9456 51.7833 41.9748 52.1042 41.9748C52.8921 41.9748 53.5048 41.9456 53.9717 41.9456C53.9717 42.0331 53.9425 42.1207 53.9425 42.2082C53.4465 42.2082 52.9796 42.2082 52.5127 42.2082H51.1997L50.9079 42.179ZM49.5364 42.179C49.5656 41.8289 49.5948 41.1869 49.6532 40.2824C49.7115 39.3778 49.7115 38.7942 49.7115 38.5024C49.7991 38.5024 49.8574 38.5024 49.8866 38.5024C49.945 38.5024 50.0033 38.5024 50.0617 38.5024C50.0325 38.9693 49.9741 39.5821 49.9449 40.3699C49.9158 41.1577 49.8866 41.7705 49.8866 42.1498C49.7991 42.1498 49.7407 42.1498 49.7115 42.1498C49.6823 42.179 49.624 42.179 49.5364 42.179ZM49.7115 37.5978V37.2477C49.7991 37.2477 49.8574 37.2477 49.9449 37.2477C50.0325 37.2477 50.0908 37.2477 50.1784 37.2477V37.5978C50.0908 37.5978 50.0325 37.5978 49.9449 37.5978C49.8574 37.5687 49.7699 37.5687 49.7115 37.5978ZM44.1674 42.179L44.3133 39.9614L44.3425 38.9109C44.3425 38.7358 44.3425 38.59 44.3425 38.5024C44.43 38.5024 44.4884 38.5024 44.5176 38.5024C44.5467 38.5024 44.6051 38.5024 44.6926 38.5024L44.6343 39.3194C44.6926 39.2027 44.751 39.1152 44.8094 39.0568C44.8677 38.9985 44.9261 38.9401 44.9844 38.8526C45.072 38.7942 45.1595 38.7067 45.2471 38.6483C45.3638 38.59 45.4805 38.5316 45.6264 38.5024C45.7723 38.4732 45.9182 38.4441 46.0641 38.4149C46.21 38.3857 46.3559 38.3857 46.5018 38.3857C46.7644 38.3857 46.9978 38.4149 47.2313 38.4441C47.4647 38.5024 47.669 38.5608 47.8148 38.6775C47.9607 38.7942 48.0775 38.9109 48.1358 39.0568C48.1942 39.2027 48.2234 39.3486 48.2234 39.5237C48.2234 39.6112 48.2234 39.6988 48.2234 39.8447L48.1358 41.5079L48.1066 42.0915C48.0483 42.0915 47.9899 42.0915 47.9316 42.0915C47.8732 42.0915 47.8148 42.0915 47.7565 42.0915C47.7857 41.7997 47.8148 41.5079 47.8148 41.2161L47.8732 40.2824C47.9024 39.9322 47.9024 39.6988 47.9024 39.5529C47.9024 39.407 47.8732 39.2611 47.8148 39.1152C47.7565 38.9985 47.669 38.8817 47.5231 38.7942C47.3772 38.7067 47.2313 38.6483 47.027 38.6191C46.8227 38.5899 46.6477 38.5608 46.4434 38.5608C46.1516 38.5608 45.9182 38.59 45.6847 38.6483C45.4805 38.7067 45.3054 38.7942 45.1303 38.9109C44.9844 39.0276 44.8385 39.1735 44.751 39.3486C44.6635 39.4945 44.6051 39.6696 44.5759 39.903C44.5467 40.1073 44.5176 40.4283 44.4884 40.8951C44.4592 41.362 44.4592 41.7413 44.4592 42.0623C44.3717 42.0623 44.3133 42.0623 44.2841 42.0623C44.3133 42.179 44.255 42.179 44.1674 42.179ZM39.7905 38.9109C39.8197 38.8234 39.8197 38.7358 39.8489 38.6191C40.1406 38.5608 40.4033 38.5024 40.6367 38.4732C40.8701 38.4441 41.0744 38.4441 41.3078 38.4441C41.5704 38.4441 41.8331 38.4732 42.0373 38.5024C42.2708 38.5316 42.4458 38.5899 42.5917 38.6775C42.7376 38.765 42.8252 38.8526 42.8835 38.9693C42.9419 39.086 42.9419 39.2027 42.9419 39.3194C42.9419 39.4362 42.9419 39.5821 42.9127 39.7863C42.9127 39.9614 42.8835 40.1656 42.8835 40.3699C42.8543 40.5742 42.8543 40.8368 42.8252 41.1577C42.796 41.4787 42.796 41.7122 42.796 41.8581V42.1498C42.7084 42.1498 42.6501 42.1498 42.6209 42.1498C42.5625 42.1498 42.5042 42.1498 42.4458 42.1498C42.475 41.7705 42.5042 41.4787 42.5334 41.2453C42.5625 41.0118 42.5625 40.7784 42.5625 40.5158C42.5625 40.2532 42.5917 39.9906 42.5917 39.7863C42.5042 39.8447 42.4166 39.903 42.3875 39.9322C42.3291 39.9614 42.2708 39.9906 42.2124 40.0197C42.154 40.0489 42.0957 40.0781 42.0081 40.1073C41.9206 40.1365 41.8622 40.1656 41.7747 40.1656C41.7163 40.1948 41.5413 40.224 41.2787 40.2824C41.016 40.3407 40.841 40.3699 40.7242 40.3991C40.4616 40.4574 40.2574 40.545 40.1406 40.6033C39.9948 40.6617 39.8489 40.7492 39.7613 40.8076C39.6738 40.8659 39.6154 40.9535 39.5571 41.041C39.4987 41.1286 39.4987 41.2453 39.4987 41.3328C39.4987 41.4787 39.5571 41.6246 39.6738 41.7413C39.7905 41.858 39.9364 41.9456 40.1115 41.9748C40.2866 42.0331 40.4908 42.0331 40.7534 42.0331C40.8701 42.0331 40.9869 42.0331 41.1036 42.0039C41.2203 42.0039 41.337 41.9748 41.4245 41.9748C41.5413 41.9456 41.6872 41.9164 41.8622 41.8581C41.8331 41.9456 41.8039 42.0331 41.8039 42.1207C41.5704 42.1498 41.3662 42.179 41.2203 42.2082C41.0744 42.2082 40.9285 42.2374 40.7826 42.2374C40.52 42.2374 40.3157 42.2082 40.0823 42.179C39.878 42.1498 39.703 42.0915 39.5571 42.0039C39.4112 41.9164 39.2944 41.7997 39.2361 41.683C39.1777 41.5663 39.1194 41.4204 39.1194 41.3036C39.1194 41.2161 39.1485 41.0994 39.1777 41.0118C39.2069 40.9243 39.2944 40.8368 39.382 40.7492C39.4403 40.6617 39.5571 40.6033 39.6738 40.545C39.8197 40.4574 39.9656 40.3991 40.1406 40.3407C40.3449 40.2824 40.5492 40.224 40.7826 40.1656C40.841 40.1365 41.1036 40.1073 41.5121 40.0197C41.7163 39.9906 41.8914 39.9322 42.0665 39.8738C42.2416 39.8155 42.3875 39.7279 42.475 39.6112C42.5625 39.4945 42.6209 39.3778 42.6209 39.2903C42.6209 39.2027 42.5917 39.1152 42.5625 39.0568C42.5042 38.9693 42.4458 38.9109 42.3291 38.8526C42.2124 38.7942 42.0665 38.7358 41.8914 38.7067C41.7163 38.6775 41.5413 38.6775 41.3662 38.6775C41.1619 38.6775 40.9577 38.6775 40.7534 38.7067C40.5492 38.7358 40.4033 38.765 40.2574 38.7942C40.1698 38.7942 39.9948 38.8234 39.7905 38.9109ZM38.0106 38.7358C37.7188 38.6775 37.5145 38.6775 37.3394 38.6483C37.1643 38.6483 37.0184 38.6191 36.9017 38.6191C36.5516 38.6191 36.2306 38.6483 35.9388 38.7067C35.647 38.765 35.3844 38.8817 35.1218 39.0568C34.8883 39.2319 34.6841 39.4653 34.5674 39.7279C34.4215 39.9906 34.3631 40.2824 34.3631 40.5742C34.3631 40.8659 34.4215 41.0994 34.5382 41.3328C34.6549 41.5663 34.8592 41.7413 35.1218 41.8581C35.3844 41.9748 35.6762 42.0331 35.9972 42.0331C36.2014 42.0331 36.4057 42.0039 36.6099 41.9748C36.7558 41.9456 36.9017 41.8872 37.0184 41.8289C37.1352 41.7705 37.2519 41.683 37.3686 41.5663C37.4853 41.4495 37.5729 41.3328 37.6896 41.1869C37.7771 41.041 37.8355 40.8951 37.8938 40.7492C37.9522 40.545 37.9814 40.2824 38.0106 39.9322V38.7358ZM34.3923 43.4921C34.7716 43.5796 35.1218 43.638 35.3552 43.6672C35.6178 43.6964 35.8513 43.7255 36.0555 43.7255C36.3181 43.7255 36.5516 43.6964 36.7558 43.638C36.9601 43.5796 37.1352 43.5213 37.2519 43.4337C37.3686 43.3462 37.4853 43.2878 37.5437 43.1711C37.6312 43.0544 37.6896 42.9377 37.7188 42.7626C37.7479 42.5875 37.7771 42.4125 37.8063 42.2374C37.8355 41.9456 37.8355 41.5954 37.8647 41.2161C37.8063 41.3328 37.7479 41.4204 37.7188 41.4787C37.6896 41.5371 37.602 41.6246 37.5437 41.683C37.4561 41.7705 37.3686 41.8289 37.2811 41.8872C37.1643 41.9456 37.0476 42.0039 36.9309 42.0331C36.785 42.0915 36.6391 42.1207 36.4932 42.1498C36.3473 42.179 36.1722 42.179 35.9972 42.179C35.7054 42.179 35.4719 42.1498 35.2385 42.0915C35.0051 42.0331 34.8008 41.9456 34.5966 41.7997C34.4215 41.6538 34.2756 41.4787 34.1589 41.2745C34.0713 41.0702 34.013 40.8368 34.013 40.6033C34.013 40.2824 34.0713 39.9614 34.2172 39.6696C34.3631 39.3778 34.5674 39.1152 34.83 38.9401C35.0926 38.7358 35.4136 38.6191 35.7346 38.5316C36.0847 38.4441 36.464 38.4149 36.8726 38.4149C37.2811 38.4149 37.7771 38.4441 38.3607 38.5316L38.3023 38.9401C38.3023 39.0276 38.2732 39.1152 38.2732 39.2611L38.1856 40.9243L38.1273 42.4416C38.1273 42.6167 38.0981 42.7918 38.0397 42.9377C37.9814 43.0836 37.923 43.2295 37.8063 43.3462C37.6896 43.4629 37.5729 43.5796 37.427 43.638C37.2811 43.7255 37.0768 43.7839 36.8142 43.8423C36.5516 43.9006 36.2598 43.9298 35.9388 43.9298C35.7054 43.9298 35.4719 43.9298 35.2385 43.9006C35.0051 43.8714 34.7425 43.8423 34.4507 43.7839C34.4215 43.6964 34.3923 43.5796 34.3923 43.4921ZM31.1534 42.179C31.1826 41.683 31.2117 41.0702 31.2701 40.3699C31.2993 39.6696 31.3285 39.1735 31.3285 38.8234V38.5024C31.3868 38.5024 31.4452 38.5024 31.5035 38.5024C31.5619 38.5024 31.6202 38.5024 31.6786 38.5024L31.6494 39.1735C31.7661 38.9985 31.8537 38.8817 31.9412 38.7942C32.0288 38.7067 32.1163 38.6483 32.233 38.5899C32.3497 38.5316 32.4956 38.5024 32.6415 38.4732C32.7874 38.4441 32.9625 38.4149 33.1084 38.4149C33.2251 38.4149 33.3418 38.4149 33.4877 38.4441C33.4877 38.5316 33.4877 38.6191 33.5169 38.6775C33.3127 38.6483 33.1376 38.6191 32.9917 38.6191C32.8458 38.6191 32.7291 38.6483 32.6124 38.6775C32.4956 38.7067 32.3789 38.765 32.2914 38.8234C32.2038 38.8817 32.0871 38.9693 31.9996 39.086C31.912 39.2027 31.8245 39.2903 31.7953 39.407C31.737 39.5529 31.7078 39.6988 31.6786 39.903C31.6494 40.224 31.6203 40.5742 31.6203 40.9535C31.6203 41.4787 31.5911 41.8872 31.5911 42.1498C31.5035 42.1498 31.4452 42.1498 31.416 42.1498C31.2993 42.179 31.2409 42.179 31.1534 42.179ZM27.0974 37.3644C26.6889 37.3644 26.3096 37.4228 25.9303 37.5103C25.5509 37.627 25.2591 37.7729 24.9673 38.0064C24.7047 38.2398 24.5005 38.5024 24.3837 38.8234C24.267 39.1444 24.2087 39.4653 24.2087 39.8155C24.2087 40.1365 24.267 40.4574 24.4129 40.7492C24.5296 41.041 24.7339 41.2745 24.9965 41.4787C25.2591 41.683 25.5509 41.7997 25.9011 41.8872C26.2512 41.9748 26.6014 42.0039 26.9807 42.0039C27.3892 42.0039 27.7686 41.9456 28.1187 41.8581C28.4689 41.7705 28.7898 41.5954 29.0525 41.3912C29.3151 41.1577 29.5193 40.8951 29.636 40.6033C29.7528 40.2824 29.8111 39.9614 29.8111 39.6404C29.8111 39.3194 29.7528 38.9985 29.636 38.7067C29.5193 38.4149 29.3443 38.1523 29.1108 37.948C28.8774 37.7437 28.5564 37.5978 28.2354 37.5103C27.8561 37.4228 27.5059 37.3644 27.0974 37.3644ZM27.1266 37.1602C27.5643 37.1602 27.9436 37.2185 28.3522 37.3061C28.7315 37.4228 29.0525 37.5687 29.3443 37.8021C29.636 38.0355 29.8403 38.2982 29.957 38.6191C30.0737 38.9109 30.1321 39.2319 30.1321 39.5821C30.1321 39.9614 30.0737 40.3115 29.9278 40.6617C29.7819 41.0118 29.5777 41.3036 29.3151 41.5371C29.0233 41.7705 28.7023 41.9456 28.2646 42.0623C27.8561 42.179 27.4184 42.2374 26.9515 42.2374C26.5138 42.2374 26.1053 42.179 25.6968 42.0623C25.2883 41.9456 24.9673 41.7705 24.6755 41.5663C24.4129 41.3328 24.2087 41.0994 24.092 40.7784C23.9752 40.4574 23.8877 40.1365 23.8877 39.8155C23.8877 39.4362 23.9752 39.0568 24.1211 38.7067C24.267 38.3565 24.5005 38.0647 24.7923 37.8313C25.0841 37.5978 25.4342 37.4228 25.8427 37.3061C26.2512 37.2185 26.6889 37.1602 27.1266 37.1602Z" fill="#597181"/>
<path fill-rule="evenodd" clip-rule="evenodd" d="M56.131 50.5246L56.2769 48.3069L56.3061 47.2565C56.3061 47.0814 56.3061 46.9355 56.3061 46.848C56.3936 46.848 56.452 46.848 56.4812 46.848C56.5103 46.848 56.5687 46.848 56.6562 46.848L56.5979 47.665C56.6562 47.5483 56.7146 47.4607 56.773 47.4024C56.8313 47.344 56.8897 47.2857 56.948 47.1981C57.0356 47.1398 57.1231 47.0522 57.2106 46.9939C57.3274 46.9355 57.4441 46.8772 57.59 46.848C57.7359 46.8188 57.8818 46.7896 58.0277 46.7604C58.1736 46.7313 58.3195 46.7313 58.4654 46.7313C58.728 46.7313 58.9614 46.7604 59.1949 46.7896C59.4283 46.848 59.6325 46.9063 59.7784 47.0231C59.9243 47.1398 60.0411 47.2565 60.0994 47.4024C60.1578 47.5483 60.187 47.6942 60.187 47.8693C60.187 47.9568 60.187 48.0443 60.187 48.1902L60.0994 49.8535L60.0702 50.437C60.0119 50.437 59.9535 50.437 59.8952 50.437C59.8368 50.437 59.7784 50.437 59.7201 50.437C59.7493 50.1453 59.7784 49.8535 59.7784 49.5617L59.8368 48.6279C59.866 48.2778 59.866 48.0443 59.866 47.8984C59.866 47.7525 59.8368 47.6066 59.7784 47.4607C59.7201 47.344 59.6325 47.2273 59.4866 47.1398C59.3407 47.0522 59.1949 46.9939 58.9906 46.9647C58.7863 46.9355 58.6113 46.9063 58.407 46.9063C58.1152 46.9063 57.8818 46.9355 57.6483 46.9939C57.4441 47.0522 57.269 47.1398 57.0939 47.2565C56.948 47.3732 56.8021 47.5191 56.7146 47.6942C56.6271 47.8401 56.5687 48.0152 56.5395 48.2486C56.5103 48.4528 56.4812 48.7738 56.452 49.2407C56.4228 49.7076 56.4228 50.0869 56.4228 50.4079C56.3353 50.4079 56.2769 50.4079 56.2477 50.4079C56.2769 50.5246 56.2185 50.5246 56.131 50.5246ZM52.0167 50.5246C52.0167 50.4079 52.0167 50.3203 52.0167 50.2036L52.5711 49.6492L54.7012 47.3732C54.7596 47.3148 54.8471 47.1981 54.9638 47.0814C54.6137 47.0814 54.2927 47.0814 54.0009 47.0814C53.4173 47.0814 52.8629 47.0814 52.3085 47.1106C52.3085 47.0231 52.3085 46.9355 52.3085 46.8772C52.8045 46.8772 53.3006 46.8772 53.8258 46.8772H55.2556C55.2556 46.9355 55.2556 47.0522 55.2556 47.1398V47.169L52.3085 50.2912C52.6003 50.2912 52.8921 50.3203 53.2131 50.3203C54.0009 50.3203 54.6137 50.2912 55.0805 50.2912C55.0805 50.3787 55.0514 50.4662 55.0514 50.5538C54.5553 50.5538 54.0884 50.5538 53.6216 50.5538H52.3085L52.0167 50.5246ZM51.3456 50.2328C51.3164 50.3203 51.2872 50.437 51.2872 50.4954C50.9079 50.5538 50.5577 50.5829 50.2368 50.5829C49.9158 50.5829 49.624 50.5538 49.3614 50.4662C49.0988 50.4079 48.8653 50.2912 48.6611 50.1161C48.4568 49.9702 48.3109 49.7659 48.2234 49.5325C48.1358 49.299 48.0775 49.0364 48.0775 48.803C48.0775 48.4528 48.165 48.1027 48.3109 47.7817C48.4568 47.4607 48.6902 47.1981 49.0112 47.0231C49.3322 46.848 49.7699 46.7604 50.3243 46.7604C50.7328 46.7604 51.1121 46.8188 51.4623 46.9063C51.4623 46.9939 51.4623 47.0814 51.4915 47.169C51.1705 47.0814 50.9371 47.0522 50.762 47.0231C50.5869 46.9939 50.4118 46.9939 50.2659 46.9939C49.945 46.9939 49.6823 47.0522 49.4197 47.1398C49.1863 47.2273 48.982 47.3732 48.807 47.5483C48.6611 47.7234 48.5443 47.9276 48.4568 48.1611C48.3984 48.3945 48.3693 48.5987 48.3693 48.8322C48.3693 49.0656 48.3985 49.2991 48.486 49.5033C48.5735 49.7076 48.6902 49.8826 48.8361 49.9994C49.0112 50.1161 49.2155 50.2328 49.4489 50.2912C49.6823 50.3495 49.945 50.4079 50.2076 50.4079C50.3535 50.4079 50.4994 50.4079 50.6744 50.3787C50.8787 50.3495 51.083 50.3203 51.3456 50.2328ZM43.2337 52.217C43.2337 52.1295 43.2337 52.0419 43.2045 51.9252C43.292 51.9544 43.3796 51.9836 43.4379 52.0127C43.4963 52.0419 43.5838 52.0419 43.6422 52.0419C43.7297 52.0419 43.8173 52.0711 43.8756 52.0711C44.0507 52.0711 44.1966 52.0419 44.3425 51.9544C44.4884 51.896 44.6343 51.7501 44.7802 51.5167C44.9261 51.3124 45.1012 50.9915 45.3054 50.6413L44.3133 48.4237L43.613 46.8772C43.7006 46.8772 43.7589 46.8772 43.8173 46.8772C43.8756 46.8772 43.934 46.8772 44.0215 46.8772L44.1091 47.1398C44.1383 47.2273 44.1674 47.344 44.2258 47.4316C44.2841 47.5775 44.3425 47.7525 44.4592 47.986L45.4805 50.3495L46.9103 47.8109C47.027 47.5775 47.1146 47.4024 47.1729 47.3148C47.2313 47.1981 47.2896 47.0814 47.348 46.9063C47.4355 46.9063 47.4939 46.9063 47.5522 46.9063C47.6106 46.9063 47.669 46.9063 47.7565 46.9063C47.6106 47.1689 47.348 47.665 46.9395 48.3361L46.0641 49.8535L45.2179 51.3416C45.072 51.5751 44.9845 51.7501 44.8677 51.8377C44.7802 51.9252 44.7218 51.9836 44.6343 52.0419C44.5759 52.0711 44.4884 52.1295 44.43 52.1586C44.3425 52.1878 44.2258 52.217 44.1382 52.2462C44.0215 52.2754 43.9048 52.2754 43.7881 52.2754C43.6422 52.3045 43.4379 52.2754 43.2337 52.217ZM41.2495 50.5246C41.2787 50.0285 41.3078 49.4158 41.3662 48.7155C41.3954 48.0152 41.4246 47.5191 41.4246 47.169V46.848C41.4829 46.848 41.5413 46.848 41.5996 46.848C41.658 46.848 41.7164 46.848 41.7747 46.848L41.7455 47.5191C41.8622 47.344 41.9498 47.2273 42.0373 47.1398C42.1249 47.0522 42.2124 46.9939 42.3291 46.9355C42.4458 46.8772 42.5917 46.848 42.7376 46.8188C42.8835 46.7896 43.0586 46.7604 43.2045 46.7604C43.3212 46.7604 43.4379 46.7604 43.5838 46.7896C43.5838 46.8772 43.5838 46.9647 43.613 47.0231C43.4088 46.9939 43.2337 46.9647 43.0878 46.9647C42.9419 46.9647 42.8252 46.9939 42.7085 47.0231C42.5917 47.0522 42.475 47.1106 42.3875 47.169C42.2999 47.2273 42.1832 47.3148 42.0957 47.4316C42.0081 47.5483 41.9206 47.6358 41.8914 47.7525C41.8331 47.8984 41.8039 48.0443 41.7747 48.2486C41.7455 48.5696 41.7164 48.9197 41.7164 49.2991C41.7164 49.8243 41.6872 50.2328 41.6872 50.4954C41.5996 50.4954 41.5413 50.4954 41.5121 50.4954C41.3662 50.5246 41.3078 50.5246 41.2495 50.5246ZM40.5492 50.2912C40.52 50.3495 40.52 50.4371 40.4908 50.5246C40.2574 50.5829 40.0239 50.5829 39.8197 50.5829C39.6446 50.5829 39.4987 50.5538 39.3528 50.5246C39.2069 50.4954 39.1194 50.437 39.0318 50.3495C38.9443 50.262 38.8859 50.1744 38.8568 50.0869C38.8276 49.9994 38.8276 49.8826 38.8276 49.7659C38.8276 49.7367 38.8276 49.7076 38.8276 49.6784C38.8276 49.6492 38.8276 49.5325 38.8568 49.4158L39.0027 47.0231H38.4774C38.4774 46.9647 38.5066 46.9063 38.5066 46.8188H39.061C39.0902 46.6729 39.0902 46.4395 39.0902 46.1477C39.2069 46.1477 39.2945 46.1185 39.382 46.0893C39.3528 46.4686 39.3528 46.7313 39.3528 46.8188H40.6951C40.6951 46.8772 40.6659 46.9355 40.6659 47.0231H39.3236L39.1777 49.5033V49.6492C39.1777 49.8535 39.2069 49.9994 39.2653 50.0869C39.3236 50.1744 39.4112 50.2328 39.4987 50.2912C39.6154 50.3203 39.703 50.3495 39.8197 50.3495C39.9072 50.3495 39.9948 50.3495 40.0823 50.3203C40.1698 50.3787 40.3449 50.3495 40.5492 50.2912ZM35.3844 48.5112L36.6099 47.5775L36.9893 47.2857C37.0476 47.2273 37.106 47.1981 37.1644 47.1398C37.2227 47.0814 37.3103 47.0231 37.427 46.9063C37.5145 46.9063 37.5729 46.9063 37.6604 46.9063C37.7479 46.9063 37.8063 46.9063 37.8938 46.9063L36.3182 48.1319C36.1723 48.2486 35.9972 48.3653 35.7929 48.5404L37.427 49.9702L38.1565 50.5829C38.0689 50.5829 38.0106 50.5829 37.923 50.5829C37.8355 50.5829 37.7771 50.5829 37.6896 50.5829L36.7558 49.7367L35.3844 48.5112ZM34.9467 50.5246C34.9759 50.0285 35.0051 49.4741 35.0343 48.8614L35.0926 47.0231C35.1218 46.4103 35.1218 45.9142 35.1218 45.5641C35.2093 45.5641 35.2677 45.5641 35.2969 45.5641C35.3552 45.5641 35.4136 45.5641 35.4719 45.5641L35.4136 46.2936L35.2677 49.7367L35.2385 50.5246C35.151 50.5246 35.0926 50.5246 35.0634 50.5246C35.0634 50.5246 35.0051 50.5246 34.9467 50.5246ZM30.5698 48.2194H33.7504C33.7504 48.0443 33.7212 47.9276 33.7212 47.8401C33.692 47.7525 33.6628 47.665 33.6045 47.5775C33.5461 47.4899 33.4877 47.4024 33.4002 47.344C33.3127 47.2857 33.2251 47.2273 33.1084 47.169C32.9917 47.1106 32.875 47.0814 32.7583 47.0522C32.6415 47.0231 32.4956 47.0231 32.3497 47.0231C32.2038 47.0231 32.0288 47.0522 31.8829 47.0522C31.737 47.0814 31.5911 47.1106 31.4744 47.169C31.3576 47.2273 31.2409 47.2857 31.1242 47.3732C31.0075 47.4607 30.92 47.5483 30.8616 47.6358C30.8032 47.7234 30.7449 47.8109 30.7157 47.8984C30.6282 47.9568 30.599 48.0735 30.5698 48.2194ZM33.692 50.1744C33.6628 50.262 33.6628 50.3495 33.6336 50.437C33.4002 50.4954 33.1668 50.5246 32.9625 50.5538C32.7583 50.5829 32.554 50.5829 32.3497 50.5829C31.9996 50.5829 31.6786 50.5538 31.3868 50.4662C31.1242 50.3787 30.8616 50.262 30.6865 50.0869C30.4823 49.9118 30.3364 49.7076 30.278 49.4741C30.1905 49.2407 30.1613 49.0073 30.1613 48.7446C30.1613 48.4237 30.2196 48.1027 30.3655 47.8109C30.5114 47.5191 30.7449 47.2857 31.0659 47.0814C31.3868 46.8772 31.7953 46.7896 32.2914 46.7896C32.6124 46.7896 32.9333 46.848 33.196 46.9355C33.4586 47.0231 33.692 47.1981 33.8379 47.4316C33.9838 47.665 34.0713 47.9276 34.0713 48.2486C34.0713 48.3069 34.0713 48.3653 34.0713 48.4237H30.5406C30.5114 48.5696 30.5114 48.6863 30.5114 48.7738C30.5114 49.0073 30.5406 49.2407 30.6282 49.445C30.7157 49.6492 30.8324 49.8535 31.0075 49.9994C31.1826 50.1453 31.3868 50.262 31.6203 50.3203C31.8537 50.3787 32.1163 50.437 32.3789 50.437C32.7583 50.4079 33.196 50.3203 33.692 50.1744ZM28.5856 50.5246C28.7315 48.5112 28.7899 46.848 28.819 45.5641C28.9066 45.5641 28.9649 45.5641 28.9941 45.5641C29.0525 45.5641 29.1108 45.5641 29.1692 45.5641L29.0525 47.344L28.9358 50.5246C28.8482 50.5246 28.7899 50.5246 28.7607 50.5246C28.7315 50.5246 28.6731 50.5246 28.5856 50.5246ZM24.2379 48.2194H27.4184C27.4184 48.0443 27.3892 47.9276 27.3892 47.8401C27.3601 47.7525 27.3309 47.665 27.2725 47.5775C27.2142 47.4899 27.1558 47.4024 27.0683 47.344C26.9807 47.2857 26.8932 47.2273 26.7765 47.169C26.6598 47.1106 26.543 47.0814 26.4263 47.0522C26.2804 47.0231 26.1637 47.0231 26.0178 47.0231C25.8719 47.0231 25.6968 47.0522 25.5509 47.0522C25.405 47.0814 25.2591 47.1106 25.1424 47.169C25.0257 47.2273 24.909 47.2857 24.7923 47.3732C24.6755 47.4607 24.588 47.5483 24.5297 47.6358C24.4713 47.7234 24.4129 47.8109 24.3838 47.8984C24.2962 47.9568 24.267 48.0735 24.2379 48.2194ZM27.3601 50.1744C27.3309 50.262 27.3309 50.3495 27.3017 50.437C27.0683 50.4954 26.8348 50.5246 26.6306 50.5538C26.4263 50.5829 26.2221 50.5829 26.0178 50.5829C25.6677 50.5829 25.3467 50.5538 25.0549 50.4662C24.7923 50.3787 24.5297 50.262 24.3546 50.0869C24.1503 49.9118 24.0044 49.7076 23.9461 49.4741C23.8585 49.2407 23.8293 49.0073 23.8293 48.7446C23.8293 48.4237 23.8877 48.1027 24.0336 47.8109C24.1795 47.5191 24.4129 47.2857 24.7339 47.0814C25.0549 46.8772 25.4634 46.7896 25.9594 46.7896C26.2804 46.7896 26.6014 46.848 26.864 46.9355C27.1266 47.0231 27.3601 47.1981 27.506 47.4316C27.6519 47.665 27.7394 47.9276 27.7394 48.2486C27.7394 48.3069 27.7394 48.3653 27.7394 48.4237H24.2087C24.1795 48.5696 24.1795 48.6863 24.1795 48.7738C24.1795 49.0073 24.2087 49.2407 24.2962 49.445C24.3838 49.6492 24.5005 49.8535 24.6755 49.9994C24.8506 50.1453 25.0549 50.262 25.2883 50.3203C25.5218 50.3787 25.7844 50.437 26.047 50.437C26.4263 50.4079 26.864 50.3203 27.3601 50.1744ZM141.977 42.1793C141.919 42.1793 141.86 42.1793 141.802 42.1793C141.744 42.1793 141.685 42.1793 141.627 42.1793L141.656 41.3914C141.598 41.5081 141.539 41.5957 141.481 41.654C141.452 41.7124 141.393 41.7707 141.306 41.8291C141.247 41.8875 141.16 41.9458 141.043 42.0042C140.927 42.0625 140.81 42.0917 140.664 42.1501C140.518 42.1793 140.372 42.2084 140.226 42.2376C140.08 42.2668 139.934 42.2668 139.789 42.2668C139.526 42.2668 139.292 42.2376 139.059 42.2084C138.826 42.1501 138.651 42.0917 138.475 41.975C138.3 41.8583 138.184 41.7416 138.125 41.5665C138.067 41.4206 138.038 41.2455 138.038 41.0413C138.038 40.8954 138.067 40.516 138.096 39.9616C138.125 39.378 138.154 38.9112 138.154 38.5318C138.242 38.5318 138.3 38.5318 138.33 38.5318C138.359 38.5318 138.417 38.5318 138.505 38.5318C138.475 38.7361 138.446 39.1738 138.388 39.8157C138.33 40.4577 138.33 40.8662 138.33 41.0413C138.33 41.2163 138.359 41.3914 138.417 41.5081C138.475 41.6248 138.592 41.7416 138.738 41.8291C138.884 41.9166 139.059 41.975 139.234 42.0042C139.409 42.0334 139.613 42.0625 139.818 42.0625C140.022 42.0625 140.226 42.0334 140.401 42.0042C140.576 41.975 140.751 41.9166 140.868 41.8583C140.985 41.7999 141.102 41.7124 141.189 41.6249C141.306 41.5081 141.393 41.3914 141.481 41.2455C141.539 41.1288 141.598 40.9829 141.627 40.7786C141.656 40.6036 141.685 40.2534 141.714 39.7865C141.744 39.3197 141.744 38.9112 141.744 38.5318C141.831 38.5318 141.889 38.5318 141.919 38.5318C141.948 38.5318 142.006 38.5318 142.094 38.5318L141.919 41.0704L141.889 41.6249C141.977 41.8291 141.977 42.0042 141.977 42.1793ZM137.279 41.9458C137.25 42.0334 137.25 42.0917 137.221 42.1793C136.987 42.2376 136.754 42.2376 136.55 42.2376C136.375 42.2376 136.229 42.2084 136.083 42.1793C135.937 42.1501 135.849 42.0917 135.762 42.0042C135.674 41.9166 135.616 41.8291 135.587 41.7416C135.557 41.654 135.558 41.5373 135.558 41.4206C135.558 41.3914 135.558 41.3622 135.558 41.3331C135.558 41.3039 135.557 41.1872 135.587 41.0704L135.733 38.6777H135.178C135.178 38.6194 135.207 38.561 135.207 38.4735H135.762C135.791 38.3276 135.791 38.0941 135.791 37.8023C135.908 37.8023 135.995 37.7732 136.083 37.744C136.054 38.1233 136.054 38.3859 136.054 38.4735H137.396C137.396 38.5318 137.367 38.5902 137.367 38.6777H136.024L135.878 41.158V41.3039C135.878 41.5081 135.908 41.654 135.966 41.7416C136.024 41.8291 136.112 41.8875 136.199 41.9458C136.316 41.975 136.404 42.0042 136.52 42.0042C136.608 42.0042 136.695 42.0042 136.783 41.975C136.9 42.0334 137.046 42.0042 137.279 41.9458ZM131.006 39.8449H134.186C134.186 39.6698 134.157 39.5531 134.157 39.4656C134.128 39.378 134.099 39.2905 134.04 39.203C133.982 39.1154 133.923 39.0279 133.836 38.9695C133.748 38.9112 133.661 38.8528 133.544 38.7944C133.427 38.7361 133.311 38.7069 133.194 38.6777C133.048 38.6485 132.931 38.6485 132.785 38.6485C132.64 38.6485 132.464 38.6777 132.319 38.6777C132.173 38.7069 132.027 38.7361 131.91 38.7944C131.793 38.8528 131.677 38.9112 131.56 38.9987C131.443 39.0862 131.356 39.1738 131.297 39.2613C131.239 39.3489 131.181 39.4364 131.151 39.5239C131.093 39.6115 131.035 39.699 131.006 39.8449ZM134.128 41.8291C134.099 41.9166 134.099 42.0042 134.069 42.0917C133.836 42.1501 133.602 42.1793 133.398 42.2084C133.194 42.2376 132.99 42.2376 132.785 42.2376C132.435 42.2376 132.114 42.2084 131.823 42.1209C131.56 42.0334 131.297 41.9166 131.122 41.7416C130.918 41.5665 130.772 41.3622 130.714 41.1288C130.626 40.8954 130.597 40.6619 130.597 40.3993C130.597 40.0783 130.655 39.7574 130.801 39.4656C130.947 39.1738 131.181 38.9403 131.502 38.7361C131.823 38.5318 132.231 38.4443 132.727 38.4443C133.048 38.4443 133.369 38.5026 133.632 38.5902C133.894 38.6777 134.128 38.8528 134.274 39.0862C134.419 39.3197 134.507 39.5823 134.507 39.9033C134.507 39.9616 134.507 40.02 134.507 40.0783H130.976C130.947 40.2242 130.947 40.341 130.947 40.4285C130.947 40.6619 130.976 40.8954 131.064 41.0996C131.151 41.3039 131.268 41.5081 131.443 41.654C131.618 41.7999 131.823 41.9166 132.056 41.975C132.289 42.0334 132.552 42.0917 132.815 42.0917C133.194 42.0334 133.661 41.975 134.128 41.8291ZM126.512 42.1793C126.512 42.0625 126.512 41.975 126.512 41.8583L127.066 41.3039L129.196 39.0279C129.255 38.9695 129.342 38.8528 129.459 38.7361C129.109 38.7361 128.788 38.7361 128.496 38.7361C127.912 38.7361 127.358 38.7361 126.804 38.7653C126.804 38.6777 126.804 38.5902 126.804 38.5318C127.3 38.5318 127.796 38.5318 128.321 38.5318H129.751C129.751 38.5902 129.751 38.7069 129.751 38.7944V38.8236L126.804 41.9458C127.095 41.9458 127.387 41.975 127.708 41.975C128.496 41.975 129.109 41.9458 129.576 41.9458C129.576 42.0334 129.547 42.1209 129.547 42.2084C129.05 42.2084 128.584 42.2084 128.117 42.2084H126.804L126.512 42.1793ZM123.915 42.1793C123.944 41.6832 123.973 41.0704 124.032 40.3701C124.061 39.6698 124.09 39.1738 124.09 38.8236V38.5026C124.148 38.5026 124.207 38.5026 124.265 38.5026C124.323 38.5026 124.382 38.5026 124.44 38.5026L124.411 39.1738C124.528 38.9987 124.615 38.882 124.703 38.7944C124.79 38.7069 124.878 38.6485 124.995 38.5902C125.111 38.5318 125.257 38.5026 125.403 38.4735C125.549 38.4443 125.724 38.4151 125.87 38.4151C125.987 38.4151 126.103 38.4151 126.249 38.4443C126.249 38.5318 126.249 38.6194 126.278 38.6777C126.074 38.6485 125.899 38.6194 125.753 38.6194C125.607 38.6194 125.491 38.6485 125.374 38.6777C125.257 38.7069 125.14 38.7653 125.053 38.8236C124.965 38.882 124.849 38.9695 124.761 39.0862C124.674 39.203 124.586 39.2905 124.557 39.4072C124.498 39.5531 124.469 39.699 124.44 39.9033C124.411 40.2242 124.382 40.5744 124.382 40.9537C124.382 41.479 124.353 41.8875 124.353 42.1501C124.265 42.1501 124.207 42.1501 124.178 42.1501C124.061 42.1793 124.002 42.1793 123.915 42.1793ZM119.217 38.882C119.188 39.0862 119.159 39.378 119.159 39.7574C119.129 40.1367 119.129 40.3993 119.129 40.516C119.129 40.7203 119.159 40.9245 119.217 41.0996C119.275 41.2747 119.392 41.4498 119.538 41.5957C119.713 41.7416 119.888 41.8583 120.122 41.9166C120.326 42.0042 120.559 42.0334 120.793 42.0334C121.143 42.0334 121.435 41.9458 121.697 41.7999C121.96 41.654 122.164 41.4206 122.31 41.158C122.456 40.8662 122.543 40.5452 122.543 40.2242C122.543 39.8741 122.456 39.5823 122.31 39.3489C122.164 39.0862 121.96 38.9112 121.697 38.7944C121.435 38.6777 121.143 38.6194 120.822 38.6194C120.297 38.6485 119.771 38.7361 119.217 38.882ZM118.663 43.7841L118.721 43.0546L118.867 39.7574L118.896 38.6485C119.275 38.561 119.626 38.5026 119.917 38.4735C120.209 38.4443 120.501 38.4151 120.764 38.4151C121.201 38.4151 121.581 38.4735 121.902 38.5902C122.222 38.7069 122.456 38.9112 122.631 39.203C122.806 39.4947 122.894 39.8157 122.894 40.1951C122.894 40.5744 122.806 40.9537 122.602 41.2747C122.427 41.5957 122.164 41.8291 121.843 42.0042C121.522 42.1501 121.172 42.2376 120.793 42.2376C120.618 42.2376 120.443 42.2084 120.267 42.1793C120.092 42.1501 119.946 42.0917 119.801 42.0334C119.655 41.975 119.538 41.8875 119.45 41.7999C119.363 41.7124 119.246 41.5665 119.1 41.3622L119.042 43.2881V43.4048C119.042 43.4923 119.042 43.6091 119.042 43.755C118.954 43.755 118.896 43.755 118.867 43.755C118.779 43.7841 118.721 43.7841 118.663 43.7841ZM115.074 42.0917C115.074 41.975 115.044 41.8583 115.044 41.7707C115.278 41.8583 115.511 41.9166 115.715 41.9458C115.92 41.975 116.124 42.0042 116.299 42.0042C116.532 42.0042 116.737 41.975 116.883 41.9166C117.058 41.8583 117.174 41.7707 117.262 41.6832C117.35 41.5665 117.379 41.479 117.379 41.3622C117.379 41.3039 117.379 41.2747 117.35 41.2163C117.35 41.158 117.32 41.1288 117.291 41.0704C117.262 41.0121 117.233 40.9829 117.204 40.9537C117.174 40.9245 117.116 40.8662 117.058 40.8078C116.999 40.7495 116.912 40.6911 116.824 40.6327C116.737 40.5744 116.591 40.4868 116.416 40.341C116.212 40.2242 116.066 40.1075 115.949 40.02C115.832 39.9324 115.715 39.8449 115.628 39.7282C115.54 39.6406 115.482 39.5531 115.453 39.4656C115.424 39.378 115.394 39.2905 115.394 39.2321C115.394 39.0862 115.453 38.9695 115.57 38.8236C115.686 38.6777 115.832 38.5902 116.036 38.5318C116.241 38.4735 116.503 38.4151 116.824 38.4151C117.087 38.4151 117.379 38.4443 117.7 38.5026C117.7 38.6194 117.7 38.7069 117.729 38.8236C117.525 38.7653 117.379 38.7069 117.204 38.7069C117.058 38.6777 116.912 38.6777 116.737 38.6777C116.532 38.6777 116.357 38.7069 116.212 38.7361C116.036 38.7944 115.92 38.8528 115.832 38.9403C115.745 39.0279 115.715 39.1154 115.715 39.2321C115.715 39.2905 115.715 39.3489 115.745 39.4072C115.774 39.4656 115.803 39.4947 115.832 39.5531C115.861 39.6115 115.92 39.6698 115.978 39.699C116.036 39.7574 116.124 39.8157 116.212 39.8741C116.299 39.9324 116.445 40.0492 116.62 40.1659C116.795 40.2826 116.941 40.3993 117.029 40.4577C117.116 40.516 117.204 40.5744 117.262 40.6327C117.32 40.6911 117.379 40.7495 117.437 40.8078C117.495 40.8662 117.554 40.9245 117.583 40.9829C117.612 41.0413 117.641 41.0996 117.67 41.158C117.7 41.2163 117.7 41.2747 117.7 41.3331C117.7 41.479 117.641 41.6249 117.525 41.7707C117.408 41.9166 117.262 42.0042 117.058 42.0917C116.853 42.1793 116.591 42.2084 116.299 42.2084C116.182 42.2084 116.036 42.2084 115.891 42.1793C115.715 42.1793 115.599 42.1501 115.482 42.1209C115.336 42.1793 115.219 42.1501 115.074 42.0917ZM107.108 42.1793C107.049 42.1793 106.991 42.1793 106.932 42.1793C106.874 42.1793 106.816 42.1793 106.757 42.1793L106.787 41.3914C106.728 41.5081 106.67 41.5957 106.611 41.654C106.582 41.7124 106.524 41.7707 106.436 41.8291C106.378 41.8875 106.291 41.9458 106.174 42.0042C106.057 42.0625 105.94 42.0917 105.794 42.1501C105.649 42.1793 105.503 42.2084 105.357 42.2376C105.211 42.2668 105.065 42.2668 104.919 42.2668C104.656 42.2668 104.423 42.2376 104.19 42.2084C103.956 42.1501 103.781 42.0917 103.606 41.975C103.431 41.8583 103.314 41.7416 103.256 41.5665C103.197 41.4206 103.168 41.2455 103.168 41.0413C103.168 40.8954 103.197 40.516 103.227 39.9616C103.256 39.378 103.285 38.9112 103.285 38.5318C103.373 38.5318 103.431 38.5318 103.46 38.5318C103.489 38.5318 103.548 38.5318 103.635 38.5318C103.606 38.7361 103.577 39.1738 103.518 39.8157C103.46 40.4577 103.46 40.8662 103.46 41.0413C103.46 41.2163 103.489 41.3914 103.548 41.5081C103.606 41.6248 103.723 41.7416 103.869 41.8291C104.014 41.9166 104.19 41.975 104.365 42.0042C104.54 42.0334 104.744 42.0625 104.948 42.0625C105.153 42.0625 105.357 42.0334 105.532 42.0042C105.707 41.975 105.882 41.9166 105.999 41.8583C106.115 41.7999 106.232 41.7124 106.32 41.6249C106.436 41.5081 106.524 41.3914 106.611 41.2455C106.67 41.1288 106.728 40.9829 106.757 40.7786C106.787 40.6036 106.816 40.2534 106.845 39.7865C106.874 39.3197 106.874 38.9112 106.874 38.5318C106.962 38.5318 107.02 38.5318 107.049 38.5318C107.078 38.5318 107.137 38.5318 107.224 38.5318L107.049 41.0704L107.02 41.6249C107.108 41.8291 107.108 42.0042 107.108 42.1793ZM99.7543 40.1367L100.98 39.203L101.359 38.9112C101.418 38.8528 101.476 38.8236 101.534 38.7653C101.593 38.7069 101.68 38.6485 101.797 38.5318C101.884 38.5318 101.943 38.5318 102.03 38.5318C102.118 38.5318 102.176 38.5318 102.264 38.5318L100.688 39.7574C100.542 39.8741 100.367 39.9908 100.163 40.1659L101.797 41.5957L102.526 42.2084C102.439 42.2084 102.38 42.2084 102.293 42.2084C102.205 42.2084 102.147 42.2084 102.059 42.2084L101.126 41.3622L99.7543 40.1367ZM99.2874 42.1793C99.3166 41.6832 99.3458 41.1288 99.375 40.516L99.4333 38.6777C99.4625 38.065 99.4625 37.5689 99.4625 37.2188C99.55 37.2188 99.6084 37.2188 99.6376 37.2188C99.6959 37.2188 99.7543 37.2188 99.8127 37.2188L99.7543 37.9482L99.6084 41.3914L99.5792 42.1793C99.4917 42.1793 99.4333 42.1793 99.4041 42.1793C99.4333 42.1793 99.375 42.1793 99.2874 42.1793ZM95.6108 42.0917C95.6108 41.975 95.5816 41.8583 95.5816 41.7707C95.8151 41.8583 96.0485 41.9166 96.2528 41.9458C96.457 41.975 96.6613 42.0042 96.8363 42.0042C97.0698 42.0042 97.274 41.975 97.4199 41.9166C97.595 41.8583 97.7117 41.7707 97.7993 41.6832C97.8868 41.5665 97.916 41.479 97.916 41.3622C97.916 41.3039 97.916 41.2747 97.8868 41.2163C97.8868 41.158 97.8576 41.1288 97.8285 41.0704C97.7993 41.0121 97.7701 40.9829 97.7409 40.9537C97.7117 40.9245 97.6534 40.8662 97.595 40.8078C97.5367 40.7495 97.4491 40.6911 97.3616 40.6327C97.274 40.5744 97.1281 40.4868 96.9531 40.341C96.7488 40.2242 96.6029 40.1075 96.4862 40.02C96.3695 39.9324 96.2528 39.8449 96.1652 39.7282C96.0777 39.6406 96.0193 39.5531 95.9902 39.4656C95.961 39.378 95.9318 39.2905 95.9318 39.2321C95.9318 39.0862 95.9902 38.9695 96.1069 38.8236C96.2236 38.6777 96.3695 38.5902 96.5737 38.5318C96.778 38.4735 97.0406 38.4151 97.3616 38.4151C97.6242 38.4151 97.916 38.4443 98.237 38.5026C98.237 38.6194 98.237 38.7069 98.2661 38.8236C98.0619 38.7653 97.916 38.7069 97.7409 38.7069C97.595 38.6777 97.4491 38.6777 97.274 38.6777C97.0698 38.6777 96.8947 38.7069 96.7488 38.7361C96.5737 38.7944 96.457 38.8528 96.3695 38.9403C96.2819 39.0279 96.2528 39.1154 96.2528 39.2321C96.2528 39.2905 96.2528 39.3489 96.2819 39.4072C96.3111 39.4656 96.3403 39.4947 96.3695 39.5531C96.3987 39.6115 96.457 39.6698 96.5154 39.699C96.5737 39.7574 96.6613 39.8157 96.7488 39.8741C96.8364 39.9324 96.9823 40.0492 97.1573 40.1659C97.3324 40.2826 97.4783 40.3993 97.5658 40.4577C97.6534 40.516 97.7409 40.5744 97.7993 40.6327C97.8576 40.6911 97.916 40.7495 97.9743 40.8078C98.0327 40.8662 98.0911 40.9245 98.1202 40.9829C98.1494 41.0413 98.1786 41.0996 98.2078 41.158C98.237 41.2163 98.237 41.2747 98.237 41.3331C98.237 41.479 98.1786 41.6249 98.0619 41.7707C97.9452 41.9166 97.7993 42.0042 97.595 42.0917C97.3908 42.1793 97.1282 42.2084 96.8363 42.2084C96.7196 42.2084 96.5737 42.2084 96.4278 42.1793C96.2528 42.1793 96.136 42.1501 96.0193 42.1209C95.8734 42.1793 95.7567 42.1501 95.6108 42.0917Z" fill="#597181"/>
<path fill-rule="evenodd" clip-rule="evenodd" d="M140.197 46.9942C139.847 46.9942 139.497 47.0526 139.205 47.1985C138.913 47.3444 138.68 47.5487 138.534 47.8405C138.388 48.1323 138.33 48.4532 138.33 48.7742C138.33 49.0076 138.359 49.2411 138.446 49.4453C138.534 49.6496 138.651 49.8247 138.855 49.9706C139.03 50.1165 139.234 50.204 139.438 50.2624C139.643 50.3207 139.876 50.3499 140.11 50.3499C140.372 50.3499 140.635 50.3207 140.868 50.2332C141.102 50.1748 141.306 50.0581 141.481 49.883C141.656 49.7079 141.802 49.5037 141.86 49.2702C141.948 49.0368 141.977 48.7742 141.977 48.5116C141.977 48.249 141.948 48.0155 141.86 47.8113C141.773 47.5778 141.656 47.4028 141.481 47.286C141.306 47.1401 141.102 47.0526 140.897 46.9942C140.635 47.0234 140.431 46.9942 140.197 46.9942ZM140.197 46.79C140.46 46.79 140.752 46.8192 141.014 46.8775C141.277 46.9359 141.51 47.0526 141.714 47.1985C141.919 47.3444 142.065 47.5487 142.181 47.7821C142.298 48.0155 142.327 48.2781 142.327 48.5699C142.327 48.8617 142.269 49.1535 142.152 49.4161C142.035 49.6788 141.89 49.9122 141.685 50.0873C141.481 50.2624 141.248 50.4083 140.956 50.4666C140.693 50.5541 140.401 50.5833 140.08 50.5833C139.876 50.5833 139.643 50.5541 139.438 50.525C139.234 50.4958 139.03 50.4083 138.855 50.3207C138.68 50.2332 138.505 50.1165 138.388 49.9414C138.242 49.7955 138.155 49.6204 138.067 49.4161C138.009 49.2119 137.95 49.0076 137.95 48.7742C137.95 48.3949 138.038 48.0155 138.213 47.6946C138.388 47.3736 138.651 47.1401 139.03 46.9942C139.409 46.8775 139.789 46.79 140.197 46.79ZM136.666 47.0818C136.375 47.0234 136.17 47.0234 135.995 46.9942C135.82 46.9942 135.674 46.9651 135.558 46.9651C135.207 46.9651 134.887 46.9942 134.595 47.0526C134.303 47.111 134.04 47.2277 133.778 47.4028C133.544 47.5778 133.34 47.8113 133.223 48.0739C133.077 48.3365 133.019 48.6283 133.019 48.9201C133.019 49.2119 133.077 49.4453 133.194 49.6788C133.311 49.9122 133.515 50.0873 133.778 50.204C134.04 50.3207 134.332 50.3791 134.653 50.3791C134.857 50.3791 135.062 50.3499 135.266 50.3207C135.412 50.2915 135.558 50.2332 135.674 50.1748C135.791 50.1165 135.908 50.0289 136.024 49.9122C136.141 49.7955 136.229 49.6788 136.345 49.5329C136.433 49.387 136.491 49.2411 136.55 49.0952C136.608 48.8909 136.637 48.6283 136.666 48.2781V47.0818ZM133.048 51.8672C133.457 51.9548 133.778 52.0131 134.011 52.0423C134.274 52.0715 134.507 52.1007 134.711 52.1007C134.974 52.1007 135.207 52.0715 135.412 52.0131C135.616 51.9548 135.791 51.8964 135.908 51.8089C136.025 51.7213 136.141 51.663 136.2 51.5463C136.287 51.4295 136.345 51.3128 136.375 51.1377C136.404 50.9627 136.433 50.7876 136.462 50.6125C136.491 50.3207 136.491 49.9706 136.521 49.5912C136.462 49.7079 136.404 49.7955 136.375 49.8538C136.345 49.9122 136.258 49.9997 136.2 50.0581C136.112 50.1456 136.025 50.204 135.937 50.2624C135.82 50.3207 135.704 50.3791 135.587 50.4082C135.441 50.4666 135.295 50.4958 135.149 50.525C135.003 50.5541 134.828 50.5541 134.653 50.5541C134.361 50.5541 134.128 50.525 133.894 50.4666C133.661 50.4083 133.457 50.3207 133.252 50.1748C133.077 50.0289 132.931 49.8538 132.815 49.6496C132.727 49.4453 132.669 49.2119 132.669 48.9785C132.669 48.6575 132.727 48.3365 132.873 48.0447C133.019 47.7529 133.223 47.4903 133.486 47.3152C133.749 47.111 134.069 46.9942 134.39 46.9067C134.741 46.8192 135.12 46.79 135.528 46.79C135.937 46.79 136.433 46.8192 137.017 46.9067L136.958 47.3152C136.958 47.4028 136.929 47.4903 136.929 47.6362L136.842 49.2994L136.783 50.8168C136.783 50.9918 136.754 51.1669 136.696 51.3128C136.637 51.4587 136.579 51.6046 136.462 51.7213C136.345 51.838 136.229 51.9548 136.054 52.0131C135.908 52.1007 135.704 52.159 135.441 52.2174C135.178 52.2757 134.887 52.3049 134.566 52.3049C134.332 52.3049 134.099 52.3049 133.865 52.2757C133.632 52.2466 133.369 52.2174 133.077 52.159C133.077 52.0423 133.077 51.9548 133.048 51.8672ZM128.467 48.2198H131.648C131.648 48.0447 131.618 47.928 131.618 47.8405C131.589 47.7529 131.56 47.6654 131.502 47.5778C131.443 47.4903 131.385 47.4028 131.297 47.3444C131.21 47.286 131.122 47.2277 131.006 47.1693C130.889 47.111 130.772 47.0818 130.655 47.0526C130.51 47.0234 130.393 47.0234 130.247 47.0234C130.101 47.0234 129.926 47.0526 129.78 47.0526C129.634 47.0818 129.488 47.111 129.372 47.1693C129.255 47.2277 129.138 47.286 129.021 47.3736C128.905 47.4611 128.817 47.5487 128.759 47.6362C128.7 47.7237 128.642 47.8113 128.613 47.8988C128.525 47.9572 128.496 48.0739 128.467 48.2198ZM131.589 50.1748C131.56 50.2624 131.56 50.3499 131.531 50.4374C131.297 50.4958 131.064 50.525 130.86 50.5541C130.655 50.5833 130.451 50.5833 130.247 50.5833C129.897 50.5833 129.576 50.5541 129.284 50.4666C129.021 50.3791 128.759 50.2624 128.584 50.0873C128.379 49.9122 128.234 49.7079 128.175 49.4745C128.088 49.2411 128.059 49.0076 128.059 48.745C128.059 48.424 128.117 48.1031 128.263 47.8113C128.409 47.5195 128.642 47.286 128.963 47.0818C129.284 46.8775 129.693 46.79 130.189 46.79C130.51 46.79 130.831 46.8484 131.093 46.9359C131.356 47.0234 131.589 47.1985 131.735 47.4319C131.881 47.6654 131.969 47.928 131.969 48.249C131.969 48.3073 131.969 48.3657 131.969 48.424H128.438C128.409 48.5699 128.409 48.6867 128.409 48.7742C128.409 49.0076 128.438 49.2411 128.525 49.4453C128.613 49.6496 128.73 49.8538 128.905 49.9997C129.08 50.1456 129.284 50.2624 129.517 50.3207C129.751 50.3791 130.014 50.4374 130.276 50.4374C130.655 50.4083 131.093 50.3207 131.589 50.1748ZM122.952 50.525L123.098 48.3073L123.127 47.2569C123.127 47.0818 123.127 46.9359 123.127 46.8483C123.215 46.8483 123.273 46.8483 123.302 46.8483C123.331 46.8483 123.39 46.8483 123.477 46.8483L123.419 47.6654C123.477 47.5487 123.536 47.4611 123.594 47.4028C123.652 47.3444 123.711 47.286 123.769 47.1985C123.857 47.1401 123.944 47.0526 124.032 46.9942C124.148 46.9359 124.265 46.8775 124.411 46.8483C124.557 46.8192 124.703 46.79 124.849 46.7608C124.995 46.7316 125.141 46.7316 125.286 46.7316C125.549 46.7316 125.783 46.7608 126.016 46.79C126.249 46.8484 126.454 46.9067 126.6 47.0234C126.745 47.1401 126.862 47.2569 126.921 47.4028C126.979 47.5487 127.008 47.6946 127.008 47.8696C127.008 47.9572 127.008 48.0447 127.008 48.1906L126.921 49.8538L126.891 50.4374C126.833 50.4374 126.775 50.4374 126.716 50.4374C126.658 50.4374 126.6 50.4374 126.541 50.4374C126.57 50.1456 126.6 49.8538 126.6 49.562L126.658 48.6283C126.687 48.2781 126.687 48.0447 126.687 47.8988C126.687 47.7529 126.658 47.607 126.6 47.4611C126.541 47.3444 126.454 47.2277 126.308 47.1401C126.162 47.0526 126.016 46.9942 125.812 46.9651C125.607 46.9359 125.432 46.9067 125.228 46.9067C124.936 46.9067 124.703 46.9359 124.469 46.9942C124.265 47.0526 124.09 47.1401 123.915 47.2569C123.769 47.3736 123.623 47.5195 123.536 47.6946C123.448 47.8113 123.419 48.0155 123.361 48.249C123.331 48.4532 123.302 48.7742 123.273 49.2411C123.244 49.7079 123.244 50.0873 123.244 50.4082C123.156 50.4082 123.098 50.4082 123.069 50.4082C123.098 50.525 123.04 50.525 122.952 50.525ZM118.838 50.525C118.838 50.4083 118.838 50.3207 118.838 50.204L119.392 49.6496L121.522 47.3736C121.581 47.3152 121.668 47.1985 121.785 47.0818C121.435 47.0818 121.114 47.0818 120.822 47.0818C120.238 47.0818 119.684 47.0818 119.13 47.111C119.13 47.0234 119.13 46.9359 119.13 46.8775C119.626 46.8775 120.122 46.8775 120.647 46.8775H122.077C122.077 46.9359 122.077 47.0526 122.077 47.1401V47.1693L119.13 50.2915C119.421 50.2915 119.713 50.3207 120.034 50.3207C120.822 50.3207 121.435 50.2915 121.902 50.2915C121.902 50.3791 121.872 50.4666 121.872 50.5541C121.376 50.5541 120.91 50.5541 120.443 50.5541H119.13L118.838 50.525ZM118.137 50.2332C118.108 50.3207 118.079 50.4374 118.079 50.4958C117.7 50.5541 117.35 50.5833 117.029 50.5833C116.708 50.5833 116.416 50.5541 116.153 50.4666C115.891 50.4083 115.657 50.2915 115.453 50.1165C115.249 49.9706 115.103 49.7663 115.015 49.5329C114.928 49.2994 114.869 49.0368 114.869 48.8034C114.869 48.4532 114.957 48.1031 115.103 47.7821C115.249 47.4611 115.482 47.1985 115.803 47.0234C116.124 46.8484 116.562 46.7608 117.116 46.7608C117.525 46.7608 117.904 46.8192 118.254 46.9067C118.254 46.9942 118.254 47.0818 118.283 47.1693C117.962 47.0818 117.729 47.0526 117.554 47.0234C117.379 46.9942 117.204 46.9942 117.058 46.9942C116.737 46.9942 116.474 47.0526 116.212 47.1401C115.978 47.2277 115.774 47.3736 115.599 47.5487C115.453 47.7237 115.336 47.928 115.249 48.1614C115.19 48.3949 115.161 48.5991 115.161 48.8326C115.161 49.066 115.19 49.2994 115.278 49.5037C115.365 49.7079 115.482 49.883 115.628 49.9997C115.803 50.1165 116.007 50.2332 116.241 50.2915C116.474 50.3499 116.737 50.4082 116.999 50.4082C117.145 50.4082 117.291 50.4083 117.466 50.3791C117.671 50.3499 117.904 50.3207 118.137 50.2332ZM113.352 50.525C113.381 50.1748 113.41 49.5329 113.469 48.6283C113.527 47.7237 113.527 47.1401 113.527 46.8483C113.615 46.8483 113.673 46.8483 113.702 46.8483C113.761 46.8483 113.819 46.8483 113.877 46.8483C113.848 47.3152 113.79 47.928 113.761 48.7158C113.731 49.5037 113.702 50.1165 113.702 50.4958C113.615 50.4958 113.556 50.4958 113.527 50.4958C113.498 50.525 113.44 50.525 113.352 50.525ZM113.527 45.9438V45.5936C113.615 45.5936 113.673 45.5936 113.761 45.5936C113.848 45.5936 113.906 45.5936 113.994 45.5936V45.9438C113.906 45.9438 113.848 45.9438 113.761 45.9438C113.673 45.9438 113.586 45.9438 113.527 45.9438ZM108.071 50.525L108.216 48.3073L108.246 47.2569C108.246 47.0818 108.246 46.9359 108.246 46.8483C108.333 46.8483 108.392 46.8483 108.421 46.8483C108.45 46.8483 108.508 46.8483 108.596 46.8483L108.537 47.6654C108.596 47.5487 108.654 47.4611 108.713 47.4028C108.771 47.3444 108.829 47.286 108.888 47.1985C108.975 47.1401 109.063 47.0526 109.15 46.9942C109.267 46.9359 109.384 46.8775 109.53 46.8483C109.675 46.8192 109.821 46.79 109.967 46.7608C110.113 46.7316 110.259 46.7316 110.405 46.7316C110.668 46.7316 110.901 46.7608 111.134 46.79C111.368 46.8484 111.572 46.9067 111.718 47.0234C111.864 47.1401 111.981 47.2569 112.039 47.4028C112.097 47.5487 112.127 47.6946 112.127 47.8696C112.127 47.9572 112.127 48.0447 112.127 48.1906L112.039 49.8538L112.01 50.4374C111.951 50.4374 111.893 50.4374 111.835 50.4374C111.776 50.4374 111.718 50.4374 111.66 50.4374C111.689 50.1456 111.718 49.8538 111.718 49.562L111.776 48.6283C111.806 48.2781 111.806 48.0447 111.806 47.8988C111.806 47.7529 111.776 47.607 111.718 47.4611C111.66 47.3444 111.572 47.2277 111.426 47.1401C111.28 47.0526 111.134 46.9942 110.93 46.9651C110.726 46.9359 110.551 46.9067 110.347 46.9067C110.055 46.9067 109.821 46.9359 109.588 46.9942C109.384 47.0526 109.209 47.1401 109.034 47.2569C108.888 47.3736 108.742 47.5195 108.654 47.6946C108.567 47.8113 108.508 48.0155 108.479 48.249C108.45 48.4532 108.421 48.7742 108.392 49.2411C108.362 49.7079 108.362 50.0873 108.362 50.4082C108.275 50.4082 108.216 50.4082 108.187 50.4082C108.216 50.525 108.158 50.525 108.071 50.525ZM105.007 46.9942C104.657 46.9942 104.306 47.0526 104.015 47.1985C103.723 47.3444 103.489 47.5487 103.344 47.8405C103.198 48.1323 103.139 48.4532 103.139 48.7742C103.139 49.0076 103.168 49.2411 103.256 49.4453C103.344 49.6496 103.46 49.8247 103.664 49.9706C103.84 50.1165 104.044 50.204 104.248 50.2624C104.452 50.3207 104.686 50.3499 104.919 50.3499C105.182 50.3499 105.444 50.3207 105.678 50.2332C105.911 50.1748 106.116 50.0581 106.291 49.883C106.466 49.7079 106.612 49.5037 106.67 49.2702C106.758 49.0368 106.787 48.7742 106.787 48.5116C106.787 48.249 106.758 48.0155 106.67 47.8113C106.582 47.5778 106.466 47.4028 106.291 47.286C106.116 47.1401 105.911 47.0526 105.707 46.9942C105.474 47.0234 105.24 46.9942 105.007 46.9942ZM105.007 46.79C105.269 46.79 105.561 46.8192 105.824 46.8775C106.086 46.9359 106.32 47.0526 106.524 47.1985C106.728 47.3444 106.874 47.5487 106.991 47.7821C107.108 48.0155 107.137 48.2781 107.137 48.5699C107.137 48.8617 107.078 49.1535 106.962 49.4161C106.845 49.6788 106.699 49.9122 106.495 50.0873C106.291 50.2624 106.057 50.4083 105.765 50.4666C105.503 50.5541 105.211 50.5833 104.89 50.5833C104.686 50.5833 104.452 50.5541 104.248 50.525C104.044 50.4958 103.84 50.4083 103.664 50.3207C103.489 50.2332 103.314 50.1165 103.198 49.9414C103.052 49.7955 102.964 49.6204 102.877 49.4161C102.818 49.2119 102.76 49.0076 102.76 48.7742C102.76 48.3949 102.847 48.0155 103.023 47.6946C103.198 47.3736 103.46 47.1401 103.84 46.9942C104.219 46.8775 104.598 46.79 105.007 46.79ZM100.046 50.525C100.075 50.0289 100.105 49.4161 100.163 48.7158C100.192 48.0155 100.221 47.5195 100.221 47.1693V46.8483C100.28 46.8483 100.338 46.8483 100.396 46.8483C100.455 46.8483 100.513 46.8483 100.571 46.8483L100.542 47.5195C100.659 47.3444 100.747 47.2277 100.834 47.1401C100.922 47.0526 101.009 46.9942 101.126 46.9359C101.243 46.8775 101.388 46.8484 101.534 46.8192C101.68 46.79 101.855 46.7608 102.001 46.7608C102.118 46.7608 102.235 46.7608 102.381 46.79C102.381 46.8775 102.381 46.9651 102.41 47.0234C102.206 46.9942 102.03 46.9651 101.885 46.9651C101.739 46.9651 101.622 46.9942 101.505 47.0234C101.388 47.0526 101.272 47.111 101.184 47.1693C101.097 47.2277 100.98 47.3152 100.892 47.4319C100.805 47.5487 100.717 47.6362 100.688 47.7529C100.63 47.8988 100.601 48.0447 100.571 48.249C100.542 48.5699 100.513 48.9201 100.513 49.2994C100.513 49.8247 100.484 50.2332 100.484 50.4958C100.396 50.4958 100.338 50.4958 100.309 50.4958C100.163 50.525 100.105 50.525 100.046 50.525ZM99.3459 50.2915C99.3167 50.3499 99.3167 50.4374 99.2876 50.525C99.0541 50.5833 98.8207 50.5833 98.6164 50.5833C98.4414 50.5833 98.2955 50.5541 98.1496 50.525C98.0037 50.4958 97.9161 50.4374 97.8286 50.3499C97.7411 50.2624 97.6827 50.1748 97.6535 50.0873C97.6243 49.9997 97.6243 49.883 97.6243 49.7663C97.6243 49.7371 97.6243 49.7079 97.6243 49.6788C97.6243 49.6496 97.6243 49.5329 97.6535 49.4161L97.7994 47.0234H97.245C97.245 46.9651 97.2742 46.9067 97.2742 46.8192H97.8286C97.8578 46.6733 97.8578 46.4398 97.8578 46.148C97.9745 46.148 98.062 46.1189 98.1496 46.0897C98.1204 46.469 98.1204 46.7316 98.1204 46.8192H99.4626C99.4626 46.8775 99.4335 46.9359 99.4335 47.0234H98.0912L97.9453 49.5037V49.6496C97.9453 49.8538 97.9745 49.9997 98.0328 50.0873C98.0912 50.1748 98.1787 50.2332 98.2663 50.2915C98.383 50.3207 98.4705 50.3499 98.5873 50.3499C98.6748 50.3499 98.7623 50.3499 98.8499 50.3207C98.9958 50.3791 99.1417 50.3499 99.3459 50.2915ZM94.1812 48.5116L95.4067 47.5778L95.786 47.286C95.8444 47.2277 95.9027 47.1985 95.9611 47.1401C96.0195 47.0818 96.107 47.0234 96.2237 46.9067C96.3113 46.9067 96.3696 46.9067 96.4572 46.9067C96.5447 46.9067 96.6031 46.9067 96.6906 46.9067L95.1149 48.1323C94.969 48.249 94.7939 48.3657 94.5897 48.5408L96.2237 49.9706L96.9532 50.5833C96.8657 50.5833 96.8073 50.5833 96.7198 50.5833C96.6322 50.5833 96.5739 50.5833 96.4863 50.5833L95.5526 49.7371L94.1812 48.5116ZM93.7435 50.525C93.7726 50.0289 93.8018 49.4745 93.831 48.8617L93.8894 47.0234C93.9185 46.4107 93.9185 45.9146 93.9185 45.5645C94.0061 45.5645 94.0644 45.5645 94.0936 45.5645C94.152 45.5645 94.2103 45.5645 94.2687 45.5645L94.2103 46.2939L94.0644 49.7371L94.0353 50.525C93.9477 50.525 93.8894 50.525 93.8602 50.525C93.8602 50.525 93.8018 50.525 93.7435 50.525ZM89.3665 48.2198H92.5471C92.5471 48.0447 92.5179 47.928 92.5179 47.8405C92.4888 47.7529 92.4596 47.6654 92.4012 47.5778C92.3428 47.4903 92.2845 47.4028 92.197 47.3444C92.1094 47.286 92.0219 47.2277 91.9052 47.1693C91.7884 47.111 91.6717 47.0818 91.555 47.0526C91.4091 47.0234 91.2924 47.0234 91.1465 47.0234C91.0006 47.0234 90.8255 47.0526 90.6796 47.0526C90.5337 47.0818 90.3878 47.111 90.2711 47.1693C90.1544 47.2277 90.0377 47.286 89.921 47.3736C89.8042 47.4611 89.7167 47.5487 89.6583 47.6362C89.6 47.7237 89.5416 47.8113 89.5124 47.8988C89.4249 47.9572 89.3957 48.0739 89.3665 48.2198ZM92.4888 50.1748C92.4596 50.2624 92.4596 50.3499 92.4304 50.4374C92.197 50.4958 91.9635 50.525 91.7593 50.5541C91.555 50.5833 91.3508 50.5833 91.1465 50.5833C90.7963 50.5833 90.4754 50.5541 90.1836 50.4666C89.921 50.3791 89.6583 50.2624 89.4833 50.0873C89.279 49.9122 89.1331 49.7079 89.0748 49.4745C88.9872 49.2411 88.958 49.0076 88.958 48.745C88.958 48.424 89.0164 48.1031 89.1623 47.8113C89.3082 47.5195 89.5416 47.286 89.8626 47.0818C90.1836 46.8775 90.5921 46.79 91.0881 46.79C91.4091 46.79 91.7301 46.8484 91.9927 46.9359C92.2553 47.0234 92.4888 47.1985 92.6346 47.4319C92.7805 47.6654 92.8681 47.928 92.8681 48.249C92.8681 48.3073 92.8681 48.3657 92.8681 48.424H89.3374C89.3082 48.5699 89.3082 48.6867 89.3082 48.7742C89.3082 49.0076 89.3374 49.2411 89.4249 49.4453C89.5124 49.6496 89.6292 49.8538 89.8042 49.9997C89.9793 50.1456 90.1836 50.2624 90.417 50.3207C90.6504 50.3791 90.9131 50.4374 91.1757 50.4374C91.555 50.4083 91.9927 50.3207 92.4888 50.1748ZM87.3823 50.525C87.5282 48.5116 87.5866 46.8484 87.6158 45.5645C87.7033 45.5645 87.7617 45.5645 87.7909 45.5645C87.8492 45.5645 87.9076 45.5645 87.9659 45.5645L87.8492 47.3444L87.7325 50.525C87.645 50.525 87.5866 50.525 87.5574 50.525C87.5282 50.525 87.4699 50.525 87.3823 50.525ZM83.0346 48.2198H86.2152C86.2152 48.0447 86.186 47.928 86.186 47.8405C86.1568 47.7529 86.1276 47.6654 86.0693 47.5778C86.0109 47.4903 85.9525 47.4028 85.865 47.3444C85.7775 47.286 85.6899 47.2277 85.5732 47.1693C85.4565 47.111 85.3398 47.0818 85.2231 47.0526C85.0772 47.0234 84.9604 47.0234 84.8145 47.0234C84.6687 47.0234 84.4936 47.0526 84.3477 47.0526C84.2018 47.0818 84.0559 47.111 83.9392 47.1693C83.8224 47.2277 83.7057 47.286 83.589 47.3736C83.4723 47.4611 83.3848 47.5487 83.3264 47.6362C83.268 47.7237 83.2097 47.8113 83.1805 47.8988C83.093 47.9572 83.0638 48.0739 83.0346 48.2198ZM86.1568 50.1748C86.1276 50.2624 86.1276 50.3499 86.0985 50.4374C85.865 50.4958 85.6316 50.525 85.4273 50.5541C85.2231 50.5833 85.0188 50.5833 84.8145 50.5833C84.4644 50.5833 84.1434 50.5541 83.8516 50.4666C83.589 50.3791 83.3264 50.2624 83.1513 50.0873C82.9471 49.9122 82.8012 49.7079 82.7428 49.4745C82.6553 49.2411 82.6261 49.0076 82.6261 48.745C82.6261 48.424 82.6845 48.1031 82.8303 47.8113C82.9762 47.5195 83.2097 47.286 83.5307 47.0818C83.8516 46.8775 84.2601 46.79 84.7562 46.79C85.0772 46.79 85.3981 46.8484 85.6608 46.9359C85.9234 47.0234 86.1568 47.1985 86.3027 47.4319C86.4486 47.6654 86.5361 47.928 86.5361 48.249C86.5361 48.3073 86.5361 48.3657 86.5361 48.424H83.0054C82.9762 48.5699 82.9762 48.6867 82.9762 48.7742C82.9762 49.0076 83.0054 49.2411 83.093 49.4453C83.1805 49.6496 83.2972 49.8538 83.4723 49.9997C83.6474 50.1456 83.8516 50.2624 84.0851 50.3207C84.3185 50.3791 84.5811 50.4374 84.8437 50.4374C85.2231 50.4083 85.6608 50.3207 86.1568 50.1748ZM78.8036 50.525C78.8328 50.1748 78.8619 49.5329 78.9203 48.6283C78.9787 47.7237 78.9787 47.1401 78.9787 46.8483C79.0662 46.8483 79.1246 46.8483 79.1537 46.8483C79.2121 46.8483 79.2705 46.8483 79.3288 46.8483C79.2996 47.3152 79.2413 47.928 79.2121 48.7158C79.1829 49.5037 79.1537 50.1165 79.1537 50.4958C79.0662 50.4958 79.0078 50.4958 78.9787 50.4958C78.9495 50.525 78.8911 50.525 78.8036 50.525ZM78.9787 45.9438V45.5936C79.0662 45.5936 79.1246 45.5936 79.2121 45.5936C79.2996 45.5936 79.358 45.5936 79.4455 45.5936V45.9438C79.358 45.9438 79.2996 45.9438 79.2121 45.9438C79.1246 45.9438 79.037 45.9438 78.9787 45.9438ZM73.3762 46.9942C73.0261 46.9942 72.6759 47.0526 72.3841 47.1985C72.0923 47.3444 71.8589 47.5487 71.713 47.8405C71.5671 48.1323 71.5087 48.4532 71.5087 48.7742C71.5087 49.0076 71.5379 49.2411 71.6254 49.4453C71.713 49.6496 71.8297 49.8247 72.0339 49.9706C72.209 50.1165 72.4133 50.204 72.6175 50.2624C72.8218 50.3207 73.0552 50.3499 73.2887 50.3499C73.5513 50.3499 73.8139 50.3207 74.0473 50.2332C74.2808 50.1748 74.485 50.0581 74.6601 49.883C74.8352 49.7079 74.9811 49.5037 75.0394 49.2702C75.127 49.0368 75.1561 48.7742 75.1561 48.5116C75.1561 48.249 75.127 48.0155 75.0394 47.8113C74.9519 47.5778 74.8352 47.4028 74.6601 47.286C74.485 47.1401 74.2808 47.0526 74.0765 46.9942C73.8431 47.0234 73.6096 46.9942 73.3762 46.9942ZM73.4054 46.79C73.668 46.79 73.9598 46.8192 74.2224 46.8775C74.485 46.9359 74.7185 47.0526 74.9227 47.1985C75.127 47.3444 75.2729 47.5487 75.3896 47.7821C75.5063 48.0155 75.5355 48.2781 75.5355 48.5699C75.5355 48.8617 75.4771 49.1535 75.3604 49.4161C75.2437 49.6788 75.0978 49.9122 74.8935 50.0873C74.6893 50.2624 74.4558 50.4083 74.1932 50.4666C73.9306 50.5541 73.6388 50.5833 73.3178 50.5833C73.1136 50.5833 72.8802 50.5541 72.6759 50.525C72.4716 50.4958 72.2674 50.4083 72.0923 50.3207C71.9172 50.2332 71.7422 50.1165 71.6254 49.9414C71.4795 49.7955 71.392 49.6204 71.3045 49.4161C71.2461 49.2119 71.1877 49.0076 71.1877 48.7742C71.1877 48.3949 71.2753 48.0155 71.4504 47.6946C71.6254 47.3736 71.8881 47.1401 72.2674 46.9942C72.5884 46.8775 72.9677 46.79 73.4054 46.79ZM69.8455 47.0818C69.5537 47.0234 69.3494 47.0234 69.1744 46.9942C68.9993 46.9942 68.8534 46.9651 68.7367 46.9651C68.3865 46.9651 68.0655 46.9942 67.7737 47.0526C67.482 47.111 67.2193 47.2277 66.9567 47.4028C66.7233 47.5778 66.519 47.8113 66.4023 48.0739C66.2564 48.3365 66.1981 48.6283 66.1981 48.9201C66.1981 49.2119 66.2564 49.4453 66.3731 49.6788C66.4899 49.9122 66.6941 50.0873 66.9567 50.204C67.2193 50.3207 67.5111 50.3791 67.8321 50.3791C68.0364 50.3791 68.2406 50.3499 68.4449 50.3207C68.5908 50.2915 68.7367 50.2332 68.8534 50.1748C68.9701 50.1165 69.0868 50.0289 69.2035 49.9122C69.3203 49.7955 69.4078 49.6788 69.5245 49.5329C69.6121 49.387 69.6704 49.2411 69.6996 49.0952C69.758 48.8909 69.7871 48.6283 69.8163 48.2781L69.8455 47.0818ZM66.2564 51.8672C66.6649 51.9548 66.9859 52.0131 67.2193 52.0423C67.482 52.0715 67.7154 52.1007 67.9196 52.1007C68.1823 52.1007 68.4157 52.0715 68.62 52.0131C68.8242 51.9548 68.9993 51.8964 69.116 51.8089C69.2327 51.7213 69.3494 51.663 69.4078 51.5463C69.4953 51.4295 69.5537 51.3128 69.5829 51.1377C69.6121 50.9627 69.6412 50.7876 69.6704 50.6125C69.6996 50.3207 69.6996 49.9706 69.7288 49.5912C69.6704 49.7079 69.6121 49.7955 69.5829 49.8538C69.5537 49.9122 69.4662 49.9997 69.4078 50.0581C69.3203 50.1456 69.2327 50.204 69.1452 50.2624C69.0285 50.3207 68.9117 50.3791 68.795 50.4082C68.6491 50.4666 68.5032 50.4958 68.3573 50.525C68.2114 50.5541 68.0364 50.5541 67.8613 50.5541C67.5695 50.5541 67.3361 50.525 67.1026 50.4666C66.8692 50.4083 66.6649 50.3207 66.4607 50.1748C66.2856 50.0289 66.1397 49.8538 66.023 49.6496C65.9354 49.4453 65.8771 49.2119 65.8771 48.9785C65.8771 48.6575 65.9354 48.3365 66.0813 48.0447C66.2272 47.7529 66.4315 47.4903 66.6941 47.3152C66.9567 47.111 67.2777 46.9942 67.5987 46.9067C67.9488 46.8192 68.3282 46.79 68.7367 46.79C69.1452 46.79 69.6412 46.8192 70.2248 46.9067L70.1665 47.3152C70.1665 47.4028 70.1373 47.4903 70.1373 47.6362L70.0497 49.2994L69.9914 50.8168C69.9914 50.9918 69.9622 51.1669 69.9038 51.3128C69.8455 51.4587 69.7871 51.6046 69.6704 51.7213C69.5537 51.838 69.437 51.9548 69.2619 52.0131C69.116 52.1007 68.9117 52.159 68.6491 52.2174C68.3865 52.2757 68.0947 52.3049 67.7737 52.3049C67.5403 52.3049 67.3069 52.3049 67.0734 52.2757C66.84 52.2466 66.5774 52.2174 66.2856 52.159C66.2856 52.0423 66.2564 51.9548 66.2564 51.8672ZM61.6461 48.2198H64.8266C64.8266 48.0447 64.7974 47.928 64.7974 47.8405C64.7683 47.7529 64.7391 47.6654 64.6807 47.5778C64.6224 47.4903 64.564 47.4028 64.4765 47.3444C64.3889 47.286 64.3014 47.2277 64.1847 47.1693C64.068 47.111 63.9512 47.0818 63.8345 47.0526C63.6886 47.0234 63.5719 47.0234 63.426 47.0234C63.2801 47.0234 63.105 47.0526 62.9591 47.0526C62.8132 47.0818 62.6673 47.111 62.5506 47.1693C62.4339 47.2277 62.3172 47.286 62.2005 47.3736C62.0838 47.4611 61.9962 47.5487 61.9379 47.6362C61.8795 47.7237 61.8211 47.8113 61.792 47.8988C61.7336 47.9572 61.7044 48.0739 61.6461 48.2198ZM64.7683 50.1748C64.7391 50.2624 64.7391 50.3499 64.7099 50.4374C64.4765 50.4958 64.243 50.525 64.0388 50.5541C63.8345 50.5833 63.6303 50.5833 63.426 50.5833C63.0759 50.5833 62.7549 50.5541 62.4631 50.4666C62.2005 50.3791 61.9379 50.2624 61.7628 50.0873C61.5585 49.9122 61.4126 49.7079 61.3543 49.4745C61.2667 49.2411 61.2375 49.0076 61.2375 48.745C61.2375 48.424 61.2959 48.1031 61.4418 47.8113C61.5877 47.5195 61.8211 47.286 62.1421 47.0818C62.4631 46.8775 62.8716 46.79 63.3677 46.79C63.6886 46.79 64.0096 46.8484 64.2722 46.9359C64.5348 47.0234 64.7683 47.1985 64.9142 47.4319C65.0601 47.6654 65.1476 47.928 65.1476 48.249C65.1476 48.3073 65.1476 48.3657 65.1476 48.424H61.6169C61.5877 48.5699 61.5877 48.6867 61.5877 48.7742C61.5877 49.0076 61.6169 49.2411 61.7044 49.4453C61.792 49.6496 61.9087 49.8538 62.0838 49.9997C62.2588 50.1456 62.4631 50.2624 62.6965 50.3207C62.93 50.3791 63.1926 50.4374 63.4552 50.4374C63.8345 50.4083 64.3014 50.3207 64.7683 50.1748Z" fill="#597181"/>
<path d="M133.252 42.3251C132.99 42.5585 132.844 42.7628 132.844 42.967C132.844 43.0837 132.873 43.1713 132.961 43.2588C133.048 43.3172 133.165 43.3755 133.34 43.3755C133.428 43.3755 133.515 43.3755 133.603 43.3464L133.515 43.6673C133.398 43.6965 133.282 43.6965 133.165 43.6965C132.902 43.6965 132.698 43.6382 132.552 43.5214C132.406 43.4047 132.348 43.2588 132.348 43.0837C132.348 42.9378 132.406 42.7628 132.494 42.5877C132.552 42.471 132.64 42.3834 132.727 42.2959H133.252V42.3251Z" fill="#597181"/>
<path d="M143.757 11.9202C143.815 11.3366 143.874 10.7239 143.874 10.1695C143.903 9.58588 143.903 9.00229 143.903 8.4187C144.165 8.4187 144.341 8.4187 144.457 8.4187C144.574 8.4187 144.72 8.4187 144.924 8.4187C145.128 8.4187 145.333 8.4187 145.508 8.4187C145.887 8.4187 146.179 8.44788 146.354 8.47706C146.529 8.50624 146.675 8.59378 146.792 8.65213C146.908 8.73967 146.996 8.82721 147.025 8.94393C147.083 9.06065 147.113 9.20654 147.113 9.35244C147.113 9.49834 147.083 9.64424 147.025 9.79013C146.967 9.93603 146.879 10.0527 146.733 10.1403C146.617 10.257 146.471 10.3154 146.296 10.3737C146.383 10.6072 146.5 10.8406 146.646 11.1616C146.792 11.4534 146.908 11.716 146.996 11.9202C146.733 11.9202 146.529 11.9202 146.354 11.9202C146.179 11.9202 145.975 11.9202 145.712 11.9202L145.537 11.3658C145.508 11.2783 145.479 11.2199 145.449 11.1324L144.982 9.90685C145.099 9.93603 145.216 9.93603 145.333 9.93603C145.449 9.93603 145.566 9.90685 145.654 9.87767C145.741 9.84849 145.829 9.79013 145.887 9.73178C145.945 9.67342 145.945 9.58588 145.945 9.49834C145.945 9.43998 145.916 9.38162 145.887 9.32326C145.858 9.2649 145.799 9.23572 145.712 9.20654C145.624 9.17737 145.479 9.17737 145.303 9.17737C145.216 9.17737 145.099 9.17737 144.953 9.17737C144.924 9.46916 144.924 9.90685 144.895 10.5488C144.866 11.1616 144.866 11.6284 144.866 11.9202C144.603 11.9202 144.428 11.9202 144.282 11.9202C144.165 11.9202 143.961 11.9202 143.757 11.9202ZM145.508 7.60167C145.099 7.60167 144.691 7.66003 144.311 7.77675C143.932 7.89347 143.611 8.06855 143.319 8.33116C143.057 8.59378 142.852 8.88557 142.706 9.23572C142.59 9.58588 142.502 9.96521 142.502 10.3445C142.502 10.7239 142.561 11.0449 142.706 11.3658C142.852 11.6868 143.057 11.9494 143.29 12.1537C143.553 12.3579 143.844 12.5038 144.195 12.6205C144.545 12.7081 144.924 12.7664 145.303 12.7664C145.712 12.7664 146.12 12.7081 146.5 12.5914C146.879 12.4746 147.2 12.2996 147.463 12.0661C147.725 11.8327 147.93 11.5117 148.046 11.1907C148.163 10.8406 148.221 10.4904 148.221 10.1111C148.221 9.76095 148.163 9.4108 148.046 9.08983C147.93 8.76885 147.755 8.47706 147.492 8.2728C147.229 8.03937 146.937 7.86429 146.587 7.77675C146.296 7.66003 145.916 7.60167 145.508 7.60167ZM145.537 6.90137C146.033 6.90137 146.529 6.95973 146.967 7.10562C147.404 7.25152 147.813 7.45578 148.134 7.74757C148.455 8.03937 148.688 8.38952 148.834 8.76885C148.98 9.14819 149.038 9.58588 149.038 10.0236C149.038 10.4904 148.951 10.9573 148.805 11.395C148.659 11.8327 148.396 12.212 148.075 12.5038C147.755 12.7956 147.346 13.0291 146.85 13.2041C146.354 13.35 145.829 13.4376 145.303 13.4376C144.807 13.4376 144.341 13.3792 143.874 13.2333C143.407 13.0874 143.027 12.8832 142.677 12.6205C142.356 12.3579 142.094 12.0078 141.948 11.5993C141.773 11.1907 141.714 10.7531 141.714 10.2862C141.714 9.79013 141.802 9.32326 141.977 8.85639C142.152 8.38952 142.415 8.01019 142.765 7.71839C143.115 7.39742 143.523 7.19316 143.99 7.04726C144.486 6.95973 145.012 6.90137 145.537 6.90137Z" fill="#9BC445"/>
<path fill-rule="evenodd" clip-rule="evenodd" d="M134.886 18.9522C133.719 18.9522 132.727 19.1857 131.852 19.6526C130.976 20.1194 130.334 20.7614 129.897 21.5784C129.459 22.3954 129.255 23.2708 129.255 24.2337C129.255 25.1091 129.459 25.9261 129.897 26.6556C130.305 27.3851 130.947 27.9687 131.823 28.348C132.698 28.7274 133.632 28.9316 134.653 28.9316C135.412 28.9316 136.141 28.8149 136.841 28.5815C137.542 28.348 138.125 27.9979 138.651 27.531C139.147 27.0641 139.526 26.4805 139.789 25.8386C140.051 25.1675 140.168 24.4963 140.168 23.7669C140.168 23.0957 140.051 22.4538 139.818 21.841C139.584 21.2282 139.234 20.703 138.767 20.2361C138.3 19.7985 137.717 19.4775 137.046 19.244C136.345 19.069 135.645 18.9522 134.886 18.9522ZM135.091 16.793C136.229 16.793 137.337 16.9389 138.388 17.2015C139.438 17.4933 140.372 17.931 141.189 18.5437C142.006 19.1857 142.619 19.886 143.027 20.7322C143.436 21.5784 143.64 22.5413 143.64 23.6501C143.64 24.7006 143.436 25.6927 143.057 26.6556C142.648 27.6185 142.065 28.4356 141.218 29.1067C140.401 29.807 139.38 30.3031 138.213 30.624C137.046 30.945 135.791 31.1201 134.478 31.1201C133.252 31.1201 132.056 30.9742 130.918 30.6532C129.78 30.3614 128.817 29.8654 127.971 29.2234C127.154 28.5815 126.57 27.8228 126.22 26.9766C125.87 26.1304 125.695 25.2258 125.695 24.2337C125.695 23.1541 125.928 22.1328 126.366 21.1407C126.804 20.1486 127.475 19.3608 128.321 18.6896C129.167 18.0477 130.188 17.5516 131.326 17.2307C132.523 16.9389 133.748 16.793 135.091 16.793ZM114.461 23.5626L117.087 20.7322L119.48 18.0769C119.655 17.8726 119.946 17.5516 120.326 17.0556L122.398 17.0848C122.485 17.0848 123.156 17.0848 124.382 17.0556L119.071 22.5413L118.167 23.5334L118.896 24.438C119.013 24.5547 119.771 25.4593 121.172 27.0933L124.528 30.9158L122.485 30.8866C122.135 30.8866 121.376 30.8866 120.238 30.9158L119.509 29.8945C119.363 29.6903 119.129 29.3693 118.779 28.9316L115.628 24.9924L114.461 23.5626ZM110.259 30.8866C110.376 29.5444 110.492 28.4064 110.551 27.4435C110.638 26.072 110.755 24.117 110.872 21.6076C110.959 19.886 110.988 18.6605 110.988 17.9601V17.0264C111.951 17.0264 112.564 17.0556 112.885 17.0556C113.089 17.0556 113.673 17.0556 114.665 17.0264L114.315 22.5121L113.994 29.0775L113.965 30.8866L112.185 30.8575C111.922 30.8866 111.309 30.8866 110.259 30.8866ZM95.7859 30.8866L96.1069 27.0058L96.3403 22.5121L96.4862 18.427V17.0556C98.3829 17.0556 100.367 17.0848 102.439 17.0848H104.656H107.983L107.837 19.2732L106.728 19.2149C106.436 19.2149 105.999 19.1857 105.473 19.1857C104.948 19.1857 104.394 19.1857 103.839 19.1857C102.643 19.1857 101.855 19.1857 101.505 19.1857C101.155 19.1857 100.63 19.1857 99.9294 19.2149L99.7543 22.8331C100.805 22.8623 101.884 22.8623 102.935 22.8623C103.664 22.8623 104.919 22.8331 106.67 22.8039C106.611 23.4167 106.553 24.1462 106.495 25.0216C104.452 24.9924 103.256 24.9924 102.964 24.9924C102.059 24.9924 100.921 25.0216 99.5792 25.0508L99.4041 28.8441H100.688C101.067 28.8441 101.914 28.8441 103.227 28.8149L105.736 28.7857L107.399 28.7274C107.312 29.5152 107.283 30.2447 107.224 30.945C105.211 30.945 103.431 30.9158 101.797 30.9158H98.0035L95.7859 30.8866Z" fill="#9BC445"/>
</g>
<defs>
<clipPath id="clip0_217_15537">
<rect width="148.348" height="51.6768" fill="white" transform="translate(0.835938 0.832031)"/>
</clipPath>
</defs>
</svg>
