<svg width="135" height="53" viewBox="0 0 135 53" fill="none" xmlns="http://www.w3.org/2000/svg">
<path d="M35.2854 52.0458H26.5286C12.2763 52.0458 0.668945 40.4527 0.668945 26.1922C0.668945 11.9573 12.2763 0.364258 26.5286 0.364258H52.5166C55.9321 0.364258 58.6798 3.13429 58.6798 6.51987C58.6798 9.93111 55.9064 12.6755 52.5166 12.6755H26.5286C19.0814 12.6755 12.9953 18.7542 12.9953 26.1922C12.9953 33.6559 19.0557 39.7089 26.5286 39.7089H35.2854C38.7009 39.7089 41.4486 42.4789 41.4486 45.8645C41.4486 49.2758 38.7009 52.0458 35.2854 52.0458Z" fill="#3F4A59"/>
<path d="M46.1732 32.6035H26.5538C23.0099 32.6035 20.1338 29.7309 20.1338 26.1914C20.1338 22.6519 23.0099 19.7793 26.5538 19.7793H46.1732C49.717 19.7793 52.5932 22.6519 52.5932 26.1914C52.5932 29.7309 49.717 32.6035 46.1732 32.6035Z" fill="#94C11F"/>
<path d="M67.0003 33.6555C67.0003 33.6811 67.0003 33.7067 67.0003 33.758C67.0003 33.8093 67.0003 33.835 67.0003 33.8606L61.2737 34.1941C61.3251 34.9379 61.5305 35.5534 61.9157 36.0151C62.3266 36.5281 62.9172 36.7846 63.6363 36.7846C64.6121 36.7846 65.2798 36.3229 65.6136 35.3995C65.742 35.1687 65.9731 35.0661 66.3327 35.0661C66.7949 35.0661 67.026 35.1944 67.026 35.4765C67.026 35.5021 67.026 35.5278 67.0003 35.5791C66.7949 36.3485 66.384 36.9385 65.742 37.3232C65.1514 37.7079 64.458 37.8874 63.6363 37.8874C62.4293 37.8874 61.4792 37.5027 60.8115 36.7589C60.1695 36.0408 59.8613 35.0661 59.8613 33.835C59.8613 32.6039 60.1695 31.6292 60.7601 30.8854C61.4021 30.0647 62.3523 29.6543 63.5336 29.6543C64.5864 29.6543 65.4595 30.0134 66.1272 30.7315C66.4354 31.065 66.6665 31.4497 66.7949 31.8601C66.8463 32.1678 66.9233 32.7578 67.0003 33.6555ZM65.6393 32.7834C65.5879 32.2448 65.4339 31.8344 65.2027 31.5523C64.7662 31.0393 64.2269 30.7828 63.5336 30.7828C62.8916 30.7828 62.3523 31.0137 61.9414 31.4497C61.5562 31.8601 61.3251 32.3987 61.2994 33.0655L65.6393 32.7834Z" fill="#3F4A59"/>
<path d="M69.6964 37.375C69.6964 37.7084 69.491 37.8879 69.0544 37.8879C68.5922 37.8879 68.3611 37.7084 68.3611 37.375V28.2698C68.3611 28.0133 68.4638 27.7055 68.6949 27.3977C68.926 27.0643 69.1828 26.8848 69.4396 26.8848C69.6194 26.8848 69.6964 27.013 69.6964 27.2951V37.375Z" fill="#3F4A59"/>
<path d="M78.1449 33.6555C78.1449 33.6811 78.1449 33.7067 78.1449 33.758C78.1449 33.8093 78.1449 33.835 78.1449 33.8606L72.4183 34.1941C72.4696 34.9379 72.6751 35.5534 73.0603 36.0151C73.4711 36.5281 74.0618 36.7846 74.7808 36.7846C75.7566 36.7846 76.4243 36.3229 76.7582 35.3995C76.8866 35.1687 77.1177 35.0661 77.4772 35.0661C77.9394 35.0661 78.1705 35.1944 78.1705 35.4765C78.1705 35.5021 78.1706 35.5278 78.1449 35.5791C77.9394 36.3485 77.5285 36.9385 76.8866 37.3232C76.2959 37.7079 75.6026 37.8874 74.7808 37.8874C73.5739 37.8874 72.6237 37.5027 71.956 36.7589C71.314 36.0408 71.0059 35.0661 71.0059 33.835C71.0059 32.6039 71.314 31.6292 71.9047 30.8854C72.5467 30.0647 73.4968 29.6543 74.6781 29.6543C75.731 29.6543 76.6041 30.0134 77.2718 30.7315C77.5799 31.065 77.811 31.4497 77.9394 31.8601C77.9908 32.1678 78.0678 32.7578 78.1449 33.6555ZM76.7582 32.7834C76.7068 32.2448 76.5527 31.8344 76.3216 31.5523C75.885 31.0393 75.3458 30.7828 74.6524 30.7828C74.0104 30.7828 73.4711 31.0137 73.0603 31.4497C72.6751 31.8601 72.4439 32.3987 72.3926 33.0655L76.7582 32.7834Z" fill="#3F4A59"/>
<path d="M85.6181 37.2475C85.6437 37.2731 85.6694 37.3244 85.6694 37.3757C85.6694 37.5296 85.5924 37.6579 85.4383 37.7605C85.3099 37.8631 85.1558 37.8887 85.0017 37.8887C84.7193 37.8887 84.4625 37.7605 84.2057 37.4527L81.3295 34.144L80.893 34.5801V37.4783C80.893 37.7092 80.6618 37.8374 80.1739 37.8374C79.7631 37.8374 79.5576 37.7092 79.5576 37.4783V27.1677C79.5576 26.9368 79.7631 26.8086 80.1996 26.8086C80.6619 26.8086 80.9186 26.9368 80.9186 27.1677V33.0155L84.0259 29.8608C84.2827 29.6043 84.5652 29.4504 84.8733 29.4504C85.0274 29.4504 85.1815 29.5017 85.3356 29.5786C85.5153 29.6812 85.5924 29.7838 85.5924 29.9377C85.5924 29.989 85.5667 30.0403 85.5153 30.0916L82.331 33.3489L85.6181 37.2475Z" fill="#3F4A59"/>
<path d="M89.7259 31.1939H88.4419V37.4264C88.4419 37.7086 88.2364 37.8625 87.7999 37.8625C87.3376 37.8625 87.1065 37.7086 87.1065 37.4264V31.1939H86.5672C86.3618 31.1939 86.2334 31.0143 86.2334 30.6553C86.2334 30.2705 86.3361 30.0654 86.5672 30.0654H87.1065V27.8852C87.1065 27.6031 87.3376 27.4492 87.7742 27.4492C88.2364 27.4492 88.4419 27.5775 88.4419 27.8339V30.0654H89.7259C89.957 30.0654 90.0854 30.2449 90.0854 30.6296C90.0854 31.0143 89.957 31.1939 89.7259 31.1939Z" fill="#3F4A59"/>
<path d="M95.788 29.9108C95.942 30.0647 96.0448 30.2186 96.0448 30.3981C96.0448 30.5776 95.9677 30.7572 95.8136 30.9111C95.6596 31.065 95.4798 31.1419 95.3 31.1419C95.223 31.1419 95.1716 31.1163 95.1203 31.065C94.9919 30.8598 94.7094 30.7315 94.2985 30.7315C93.5795 30.7315 93.0145 31.065 92.6293 31.7318C92.3212 32.2448 92.1928 32.886 92.1928 33.6811C92.1928 33.7324 92.1928 33.7837 92.1928 33.8863C92.1928 33.9632 92.1928 34.0402 92.1928 34.0915V37.5797C92.1671 37.8105 91.936 37.9387 91.4737 37.9387C91.0629 37.9387 90.8574 37.8105 90.8574 37.5797V30.5007V30.2699V30.1929C90.8574 29.9364 91.1142 29.8082 91.6021 29.8082C92.0387 29.8082 92.2441 29.9364 92.2441 30.2186V30.7059C92.8091 29.9877 93.5281 29.6543 94.4012 29.6543C95.1203 29.6543 95.5825 29.7312 95.788 29.9108Z" fill="#3F4A59"/>
<path d="M103.543 36.6821C103.543 37.6567 103.466 38.4006 103.312 38.8622C102.875 40.2472 101.72 40.9397 99.8194 40.9397C98.3042 40.9397 97.3027 40.5294 96.8405 39.683C96.7891 39.6317 96.7891 39.5804 96.7891 39.5291C96.7891 39.3752 96.8919 39.247 97.0973 39.1187C97.2771 39.0161 97.4311 38.9648 97.6109 38.9648C97.7906 38.9648 97.919 39.0161 98.0218 39.1444C98.2015 39.3495 98.3042 39.4778 98.3299 39.4778C98.6638 39.7343 99.1517 39.8369 99.845 39.8369C101.103 39.8369 101.874 39.3752 102.105 38.4262C102.182 38.1697 102.208 37.5798 102.208 36.7078C101.617 37.4003 100.898 37.7337 100.025 37.7337C98.9462 37.7337 98.0988 37.349 97.4825 36.5539C96.9175 35.8357 96.6094 34.938 96.6094 33.8351V30.27C96.6094 29.9622 96.8148 29.834 97.2514 29.834C97.7393 29.834 97.9704 29.9879 97.9704 30.27V33.7069C97.9704 33.6812 97.9961 33.6812 97.9961 33.6556C97.9961 34.502 98.1502 35.1689 98.4326 35.6818C98.7922 36.323 99.3828 36.6308 100.153 36.6308C100.692 36.6308 101.206 36.4 101.694 35.9127C102.054 35.5792 102.233 35.1689 102.285 34.6559C102.31 34.3481 102.336 33.4761 102.336 31.9628V30.27C102.336 29.9879 102.541 29.8596 102.927 29.8596C103.338 29.8596 103.569 29.9879 103.569 30.27V36.6821H103.543Z" fill="#3F4A59"/>
<path d="M111.427 36.0671C110.836 37.2982 109.86 37.9138 108.448 37.9138C107.266 37.9138 106.342 37.5291 105.726 36.734C105.135 36.0158 104.853 35.0412 104.853 33.8357C104.853 32.0147 105.417 30.7835 106.573 30.168C107.138 29.8602 107.78 29.6807 108.448 29.6807C109.706 29.6807 110.631 30.1423 111.17 31.04C111.17 31.0657 111.195 31.0913 111.195 31.117C111.195 31.2709 111.093 31.4504 110.887 31.6043C110.682 31.7582 110.502 31.8351 110.322 31.8351C110.22 31.8351 110.117 31.7838 110.066 31.7069C109.757 31.117 109.244 30.8092 108.499 30.8092C106.984 30.8092 106.214 31.8095 106.214 33.8101C106.214 35.8363 106.958 36.8366 108.422 36.8366C109.372 36.8366 109.989 36.3749 110.271 35.4772C110.374 35.2977 110.528 35.2207 110.708 35.2207C110.887 35.2207 111.067 35.2977 111.247 35.4259C111.427 35.5541 111.504 35.708 111.504 35.8876C111.504 35.9389 111.478 36.0158 111.427 36.0671Z" fill="#3F4A59"/>
<path d="M114.097 36.5793L118.565 36.5536C118.848 36.5536 119.002 36.7331 119.002 37.1179C119.002 37.5282 118.848 37.7334 118.539 37.7334H112.376C112.068 37.7334 111.914 37.6565 111.914 37.5282C111.914 37.3487 112.068 37.0666 112.376 36.6562L116.716 30.9366H112.376C112.094 30.9366 111.94 30.7571 111.94 30.398C111.94 30.0389 112.094 29.8594 112.376 29.8594H118.539C118.796 29.8594 118.925 29.9363 118.925 30.0902C118.925 30.1928 118.796 30.398 118.539 30.7571L114.097 36.5793Z" fill="#3F4A59"/>
<path d="M126.372 37.5032C126.372 37.7853 126.141 37.9392 125.679 37.9392C125.242 37.9392 125.037 37.811 125.037 37.5032V33.8354C125.037 32.9891 124.934 32.3991 124.755 32.0401C124.395 31.3732 123.856 31.0398 123.162 31.0398C122.469 31.0398 121.93 31.3732 121.57 32.0144C121.365 32.3735 121.262 32.9634 121.262 33.7585V37.4262C121.262 37.7084 121.031 37.8622 120.569 37.8622C120.132 37.8622 119.927 37.7084 119.927 37.4262V33.8867C119.927 32.7069 120.158 31.7579 120.646 31.0141C121.211 30.1421 122.058 29.7061 123.188 29.7061C123.779 29.7061 124.344 29.8599 124.857 30.1934C125.884 30.8346 126.398 32.0401 126.398 33.7842V37.5032H126.372Z" fill="#3F4A59"/>
<path d="M134.717 33.6555C134.717 33.6811 134.717 33.7067 134.717 33.758C134.717 33.8093 134.717 33.835 134.717 33.8606L128.991 34.1941C129.042 34.9379 129.247 35.5534 129.633 36.0151C130.043 36.5281 130.634 36.7846 131.353 36.7846C132.329 36.7846 132.997 36.3229 133.33 35.3995C133.459 35.1687 133.69 35.0661 134.049 35.0661C134.512 35.0661 134.743 35.1944 134.743 35.4765C134.743 35.5021 134.743 35.5278 134.717 35.5791C134.512 36.3485 134.101 36.9385 133.459 37.3232C132.868 37.7079 132.175 37.8874 131.353 37.8874C130.146 37.8874 129.196 37.5027 128.528 36.7589C127.886 36.0408 127.578 35.0661 127.578 33.835C127.578 32.6039 127.886 31.6292 128.477 30.8854C129.119 30.0647 130.069 29.6543 131.25 29.6543C132.303 29.6543 133.176 30.0134 133.844 30.7315C134.152 31.065 134.383 31.4497 134.512 31.8601C134.589 32.1678 134.666 32.7578 134.717 33.6555ZM133.356 32.7834C133.305 32.2448 133.151 31.8344 132.92 31.5523C132.483 31.0393 131.944 30.7828 131.25 30.7828C130.608 30.7828 130.069 31.0137 129.658 31.4497C129.273 31.8601 129.042 32.3987 129.016 33.0655L133.356 32.7834Z" fill="#3F4A59"/>
<path d="M66.3067 49.4037C66.3067 50.404 65.7931 51.1221 64.7916 51.5582C64.3037 51.789 63.6873 51.8916 62.9683 51.8916C61.4532 51.8916 60.426 51.3786 59.9124 50.3527C59.8867 50.3014 59.8867 50.2501 59.8867 50.1988C59.8867 50.0193 59.9894 49.8654 60.1692 49.7371C60.349 49.6089 60.503 49.5319 60.6828 49.5319C60.8369 49.5319 60.9653 49.5832 61.068 49.7115C61.3761 50.404 62.0181 50.7631 62.994 50.7631C64.3037 50.7631 64.9713 50.3527 64.9713 49.5063C64.9713 49.1985 64.8429 48.9677 64.5861 48.7881C64.4064 48.6599 63.9441 48.5317 63.1994 48.3265C62.352 48.1213 61.8127 47.9674 61.6073 47.8904C60.5287 47.4801 60.0151 46.8132 60.0151 45.8899C60.0151 45.0948 60.349 44.5049 61.0166 44.1201C61.5559 43.7867 62.2493 43.6328 63.0967 43.6328C64.4064 43.6328 65.2795 43.9662 65.7674 44.6331L65.7931 44.6587C65.8444 44.71 65.8444 44.7613 65.8444 44.8383C65.8444 44.9922 65.7417 45.1461 65.5363 45.2743C65.3565 45.3769 65.1768 45.4282 64.997 45.4282C64.8429 45.4282 64.7145 45.3769 64.6375 45.2743C64.355 44.9409 63.8671 44.7613 63.2251 44.7613C61.9925 44.7613 61.3761 45.0948 61.3761 45.7873C61.3761 46.1464 61.6073 46.4285 62.0438 46.608C62.1465 46.6593 62.5574 46.7619 63.2251 46.9415C64.0982 47.1723 64.6375 47.3262 64.7916 47.3775C65.7674 47.7622 66.3067 48.4547 66.3067 49.4037Z" fill="#3F4A59"/>
<path d="M78.0171 51.4045C78.0171 51.7636 77.8117 51.9175 77.3751 51.9175C77.1954 51.9175 77.0413 51.8662 76.9129 51.7893C76.7588 51.6867 76.6818 51.5584 76.7074 51.4045V46.7365C76.7074 45.4541 76.1938 44.7872 75.141 44.7872C73.9597 44.7872 73.3434 45.4798 73.3434 46.8904V51.3789C73.3434 51.738 73.1379 51.9175 72.7271 51.9175C72.5473 51.9175 72.3932 51.8662 72.2391 51.7893C72.0594 51.6867 71.9823 51.5584 72.008 51.3789V46.557C72.008 46.044 71.8539 45.608 71.5458 45.2746C71.2376 44.9411 70.8267 44.7616 70.3131 44.7616C69.5684 44.7616 69.0805 45.0694 68.8494 45.6593C68.721 45.9927 68.644 46.6339 68.644 47.5829V51.4045C68.644 51.738 68.4128 51.9175 67.9249 51.9175C67.514 51.9175 67.3086 51.738 67.3086 51.4045V47.3264C67.3086 44.8385 68.3358 43.6074 70.3902 43.6074C70.9295 43.6074 71.3917 43.7613 71.8026 44.0434C72.2135 44.3256 72.5216 44.7103 72.6757 45.2233C72.8041 44.7359 73.1123 44.3256 73.6259 44.0434C74.0881 43.7613 74.576 43.6331 75.1153 43.6331C75.9627 43.6331 76.6561 43.8639 77.1697 44.2999C77.709 44.7872 77.9914 45.4285 77.9914 46.2749V51.4045H78.0171Z" fill="#3F4A59"/>
<path d="M81.0211 42.3764C81.0211 42.6072 80.9441 42.8124 80.79 42.9663C80.6359 43.1202 80.4305 43.2228 80.1994 43.2228C79.9683 43.2228 79.7885 43.1459 79.6344 42.9663C79.4804 42.8124 79.4033 42.6072 79.4033 42.3764C79.4033 42.1456 79.4804 41.966 79.6344 41.7865C79.7885 41.6326 79.994 41.5557 80.1994 41.5557C80.4305 41.5557 80.6103 41.6326 80.79 41.7865C80.9441 41.9404 81.0211 42.1456 81.0211 42.3764ZM80.9184 51.4816C80.8927 51.7124 80.6616 51.8407 80.1994 51.8407C79.7885 51.8407 79.5831 51.7124 79.5831 51.4816V44.1718C79.5831 43.8897 79.8142 43.7358 80.2251 43.7358C80.6873 43.7358 80.9184 43.8897 80.9184 44.1718V51.4816Z" fill="#3F4A59"/>
<path d="M99.4079 42.3764C99.4079 42.6072 99.3308 42.8124 99.1768 42.9663C99.0227 43.1202 98.8172 43.2228 98.5861 43.2228C98.355 43.2228 98.1752 43.1459 98.0212 42.9663C97.8671 42.8124 97.79 42.6072 97.79 42.3764C97.79 42.1456 97.8671 41.966 98.0212 41.7865C98.1752 41.6326 98.3807 41.5557 98.5861 41.5557C98.8172 41.5557 98.997 41.6326 99.1768 41.7865C99.3308 41.9404 99.4079 42.1456 99.4079 42.3764ZM99.2795 51.4816C99.2538 51.7124 99.0227 51.8407 98.5604 51.8407C98.1496 51.8407 97.9441 51.7124 97.9441 51.4816V44.1718C97.9441 43.8897 98.1752 43.7358 98.5861 43.7358C99.0483 43.7358 99.2795 43.8897 99.2795 44.1718V51.4816Z" fill="#3F4A59"/>
<path d="M89.3167 47.634C89.3167 47.6596 89.3167 47.6853 89.3167 47.7366C89.3167 47.7879 89.3167 47.8135 89.3167 47.8392L83.5901 48.1726C83.6415 48.9164 83.8469 49.5319 84.2321 49.9936C84.643 50.5066 85.2336 50.7631 85.9527 50.7631C86.9285 50.7631 87.5962 50.3014 87.93 49.3781C88.0584 49.1472 88.2895 49.0446 88.649 49.0446C89.1113 49.0446 89.3424 49.1729 89.3424 49.455C89.3424 49.4806 89.3424 49.5063 89.3167 49.5576C89.1113 50.327 88.7004 50.917 88.0584 51.3017C87.4678 51.6864 86.7744 51.8659 85.9527 51.8659C84.7457 51.8659 83.7956 51.4812 83.1279 50.7374C82.4859 50.0193 82.1777 49.0446 82.1777 47.8135C82.1777 46.5824 82.4859 45.6077 83.0765 44.8639C83.7442 44.0432 84.6687 43.6328 85.8499 43.6328C86.9028 43.6328 87.7759 43.9919 88.4436 44.71C88.7518 45.0435 88.9829 45.4282 89.1113 45.8386C89.1883 46.1464 89.2654 46.7363 89.3167 47.634ZM87.9557 46.7619C87.9043 46.2233 87.7503 45.8129 87.5191 45.5308C87.0826 45.0178 86.5433 44.7613 85.8499 44.7613C85.208 44.7613 84.6687 44.9922 84.2578 45.4282C83.8726 45.8386 83.6415 46.3772 83.6158 47.044L87.9557 46.7619Z" fill="#3F4A59"/>
<path d="M96.8651 50.0456C96.2744 51.2768 95.2986 51.8923 93.8862 51.8923C92.7049 51.8923 91.7804 51.5076 91.1641 50.7125C90.5735 49.9943 90.291 49.0197 90.291 47.8142C90.291 45.9932 90.856 44.7621 92.0116 44.1465C92.5765 43.8387 93.2185 43.6592 93.8862 43.6592C95.1445 43.6592 96.069 44.1209 96.6083 45.0185C96.6083 45.0442 96.6339 45.0698 96.6339 45.0955C96.6339 45.2494 96.5312 45.4289 96.3258 45.5828C96.1203 45.7367 95.9406 45.8136 95.7608 45.8136C95.6581 45.8136 95.5554 45.7624 95.504 45.6598C95.1959 45.0698 94.6823 44.7621 93.9376 44.7621C92.4224 44.7621 91.652 45.7623 91.652 47.7886C91.652 49.8148 92.3968 50.8151 93.8605 50.8151C94.8107 50.8151 95.427 50.3534 95.7095 49.4557C95.8122 49.2762 95.9663 49.1992 96.146 49.1992C96.3258 49.1992 96.5055 49.2762 96.6853 49.4044C96.8651 49.5327 96.9421 49.6866 96.9421 49.8661C96.9421 49.9174 96.9164 49.9943 96.8651 50.0456Z" fill="#3F4A59"/>
<path d="M63.6619 43.1462C63.4821 43.1462 63.3024 43.0949 63.1226 42.9666C62.9172 42.8384 62.8145 42.6845 62.8145 42.505C62.8145 42.4537 62.8145 42.428 62.8401 42.3767L63.5078 41.0687C63.5592 40.9917 63.6362 40.9404 63.7903 40.9404C63.97 40.9404 64.1498 40.9917 64.3296 41.12C64.5607 41.2482 64.6634 41.3765 64.6634 41.556C64.6634 41.5816 64.6634 41.6329 64.6377 41.6586L63.97 42.9666C63.9444 43.0949 63.8417 43.1462 63.6619 43.1462Z" fill="#3F4A59"/>
</svg>
