<svg width="97" height="53" viewBox="0 0 97 53" fill="none" xmlns="http://www.w3.org/2000/svg">
<path d="M9.9924 13.3476L6.44302 9.79821C8.56914 7.68967 11.5035 6.37183 14.7366 6.37183C19.5863 6.37183 23.7506 9.30622 25.5253 13.5057H28.8111C26.8783 7.56667 21.2907 3.29688 14.719 3.29688C10.6425 3.29688 6.93502 4.94856 4.24663 7.63695L0.732394 4.08758V13.3476H9.9924ZM19.4984 22.836L23.0478 26.3854C20.9041 28.5115 17.9697 29.8118 14.7366 29.8118C9.88697 29.8118 5.72261 26.8774 3.94792 22.6779H0.662109C2.59494 28.5994 8.165 32.9043 14.7542 32.9043C18.8307 32.9043 22.5382 31.2526 25.2266 28.5642L28.776 32.1136V22.836H19.4984Z" fill="#686C6E"/>
<path d="M19.3401 13.5762H10.2031V22.7132H19.3401V13.5762Z" fill="#E52521"/>
<path d="M90.012 5.59876C90.012 4.82563 89.9944 4.1755 89.9592 3.59565H91.5231L91.6109 4.59721H91.6636C91.9624 4.07007 92.7355 3.43751 93.9128 3.43751C95.1603 3.43751 96.443 4.21064 96.443 6.33675V10.343H94.6507V6.53004C94.6507 5.56362 94.2642 4.82563 93.2978 4.82563C92.5773 4.82563 92.0854 5.30005 91.8921 5.82719C91.8394 5.96776 91.8218 6.17861 91.8218 6.3719V10.343H90.012V5.59876ZM86.0936 7.0396C84.8109 7.00446 83.616 7.2856 83.616 8.30472C83.616 8.97243 84.0729 9.27114 84.6352 9.27114C85.3556 9.27114 85.8651 8.81429 86.0409 8.33987C86.0936 8.21687 86.0936 8.0763 86.0936 7.9533V7.0396ZM87.8331 8.72643C87.8331 9.34142 87.8683 9.93884 87.921 10.3606H86.3044L86.1814 9.60499H86.1287C85.6894 10.1321 84.9515 10.5187 84.0378 10.5187C82.6145 10.5187 81.8062 9.53471 81.8062 8.49801C81.8062 6.7936 83.4052 5.93262 86.0233 5.93262V5.82719C86.0233 5.38791 85.83 4.64992 84.5825 4.64992C83.8796 4.64992 83.1416 4.86077 82.6672 5.14191L82.3158 4.03493C82.8429 3.73622 83.7566 3.43751 84.8812 3.43751C87.1478 3.43751 87.798 4.80806 87.798 6.28404V8.72643H87.8331ZM78.907 6.2489C78.9245 5.63391 78.6258 4.59721 77.431 4.59721C76.324 4.59721 75.8496 5.56362 75.7793 6.2489H78.907ZM75.7969 7.44374C75.832 8.67372 76.8336 9.20085 77.9757 9.20085C78.8015 9.20085 79.399 9.09543 79.9437 8.90214L80.2072 10.0794C79.5922 10.3254 78.7488 10.5187 77.7297 10.5187C75.4279 10.5187 74.0749 9.16571 74.0749 7.09231C74.0749 5.22977 75.2697 3.45508 77.5364 3.45508C79.8558 3.45508 80.6114 5.26491 80.6114 6.75846C80.6114 7.07474 80.5762 7.32074 80.5411 7.47888L75.7969 7.44374ZM67.5033 7.51402C67.5033 7.68973 67.5209 7.84787 67.556 7.98844C67.7317 8.67372 68.3643 9.18328 69.1374 9.18328C70.2795 9.18328 70.9472 8.28715 70.9472 6.95174C70.9472 5.7569 70.3322 4.79049 69.1901 4.79049C68.4521 4.79049 67.7668 5.30005 67.5911 6.03804C67.5384 6.17861 67.5208 6.31918 67.5208 6.47732L67.5033 7.51402ZM65.711 5.82719C65.711 4.94863 65.6759 4.22821 65.6583 3.57808H67.2221L67.31 4.61478H67.3276C67.8547 3.84165 68.6805 3.41994 69.77 3.41994C71.4041 3.41994 72.7571 4.75535 72.7571 6.86389C72.7571 9.30628 71.1405 10.4835 69.524 10.4835C68.6278 10.4835 67.8898 10.1146 67.5208 9.56985H67.4857V13.0665H65.6934V5.82719H65.711ZM58.5947 6.96932C58.5947 8.26958 59.2624 9.25357 60.3694 9.25357C61.3885 9.25357 62.0914 8.28715 62.0914 6.93417C62.0914 5.8799 61.5994 4.66749 60.3694 4.66749C59.1043 4.68506 58.6123 5.84476 58.5947 6.96932ZM63.9363 6.89903C63.9363 9.37656 62.1089 10.5011 60.2991 10.5011C58.2784 10.5011 56.7497 9.18328 56.7497 7.02203C56.7497 4.79049 58.2784 3.43751 60.4221 3.43751C62.5306 3.43751 63.9539 4.86077 63.9363 6.89903ZM51.8474 5.77448C51.8474 4.86077 51.8298 4.21064 51.7946 3.59565H53.3585L53.4112 4.89592H53.4815C53.8329 3.9295 54.6588 3.45508 55.4143 3.45508C55.59 3.45508 55.6954 3.47265 55.836 3.49022V5.10677C55.6954 5.0892 55.5373 5.05406 55.3089 5.05406C54.4479 5.05406 53.868 5.58119 53.7099 6.33675C53.6748 6.49489 53.6396 6.67061 53.6396 6.86389V10.3606H51.8474V5.77448ZM49.6158 8.3223C49.6158 9.13057 49.651 9.7807 49.6685 10.343H48.1047L48.0168 9.30628H47.9993C47.7006 9.79827 46.9977 10.4835 45.7326 10.4835C44.4323 10.4835 43.2551 9.74556 43.2551 7.54916V3.57808H45.0473V7.26803C45.0473 8.39258 45.4339 9.113 46.3652 9.113C47.0856 9.113 47.5424 8.63858 47.7357 8.1993C47.806 8.04116 47.8411 7.86545 47.8411 7.67216V3.57808H49.6334V8.3223H49.6158ZM41.1641 6.19618H37.4566V8.93729H41.6034V10.343H35.6819V0.995117H41.3925V2.40081H37.4741V4.80806H41.1817" fill="#686C6E"/>
<path d="M94.6329 18.5494C94.6329 18.3913 94.6154 18.2156 94.5802 18.075C94.3869 17.4424 93.8774 16.968 93.1218 16.968C92.1203 16.968 91.3647 17.8114 91.3647 19.2171C91.3647 20.3944 91.9797 21.3432 93.1042 21.3432C93.7719 21.3432 94.3518 20.904 94.5626 20.3065C94.5978 20.1133 94.6329 19.8673 94.6329 19.6916V18.5494ZM96.4252 21.6771C96.4252 23.1179 96.1265 24.1546 95.3709 24.7872C94.6329 25.4373 93.6138 25.6306 92.6474 25.6306C91.7337 25.6306 90.7848 25.4549 90.1698 25.0859L90.5564 23.7681C91.0133 24.0316 91.7688 24.2952 92.6298 24.2952C93.7895 24.2952 94.6681 23.6978 94.6681 22.2218V21.6244H94.6329C94.2288 22.2218 93.4908 22.6435 92.5595 22.6435C90.8024 22.6435 89.5373 21.2378 89.5373 19.2874C89.5373 17.0207 91.0484 15.6502 92.7528 15.6502C93.8246 15.6502 94.4748 16.1597 94.8086 16.722H94.8262L94.8965 15.8083H96.4603C96.4252 16.2652 96.4076 16.8275 96.4076 17.7763V21.6771H96.4252ZM81.3843 17.8466C81.3843 17.0559 81.3667 16.3882 81.3315 15.8083H82.9129L83.0008 16.845H83.0535C83.3522 16.3003 84.1254 15.6678 85.3202 15.6678C86.5502 15.6678 87.8329 16.4409 87.8329 18.6197V22.6962H86.0406V18.8306C86.0406 17.8466 85.6541 17.091 84.6876 17.091C83.9848 17.091 83.4752 17.583 83.2995 18.1101C83.2292 18.2683 83.2292 18.4791 83.2292 18.6724V22.7138H81.4194L81.3843 17.8466ZM77.3605 15.8083H79.1703V22.6787H77.3605V15.8083ZM79.2757 13.8931C79.2757 14.4202 78.8892 14.8243 78.2566 14.8243C77.6592 14.8243 77.2726 14.4202 77.2726 13.8931C77.2726 13.3484 77.6767 12.9442 78.2742 12.9442C78.8716 12.9442 79.2581 13.3484 79.2757 13.8931ZM73.3191 12.6631H75.1289V22.6787H73.3191V12.6631ZM71.7025 22.4678C71.316 22.6435 70.578 22.8368 69.6819 22.8368C67.4679 22.8368 66.0271 21.4487 66.0271 19.3226C66.0271 17.2667 67.4855 15.6502 69.9806 15.6502C70.6307 15.6502 71.2984 15.7908 71.7025 15.984L71.3863 17.2843C71.1051 17.1613 70.6658 17.0207 70.0333 17.0207C68.6627 17.0207 67.8545 18.0047 67.872 19.2523C67.872 20.658 68.8209 21.4662 70.0508 21.4662C70.6834 21.4662 71.1227 21.3432 71.4741 21.2027L71.7025 22.4678ZM60.211 15.8083L61.5113 19.4983C61.6518 19.92 61.7924 20.4295 61.8978 20.8337H61.9505C62.0735 20.4295 62.1965 19.92 62.3371 19.4807L63.4441 15.8083H65.3769L63.6022 20.4998C62.6182 23.0652 61.9681 24.2073 61.1247 24.9102C60.4219 25.5076 59.7014 25.736 59.2446 25.7888L58.8404 24.3303C59.1392 24.2601 59.5257 24.1019 59.8947 23.8559C60.2286 23.6451 60.6151 23.2409 60.8611 22.7665C60.9314 22.6435 60.9666 22.5381 60.9666 22.4502C60.9666 22.3799 60.949 22.2745 60.8787 22.1164L58.2782 15.8083H60.211ZM57.2415 22.4678C56.8725 22.6435 56.1169 22.8368 55.2384 22.8368C53.0244 22.8368 51.5835 21.4487 51.5835 19.3226C51.5835 17.2667 53.042 15.6502 55.5371 15.6502C56.1872 15.6502 56.8725 15.7908 57.2766 15.984L56.9603 17.2843C56.6792 17.1613 56.2399 17.0207 55.6074 17.0207C54.2368 17.0207 53.4285 18.0047 53.4285 19.2523C53.4285 20.658 54.3949 21.4662 55.6074 21.4662C56.2223 21.4662 56.6792 21.3432 57.013 21.2027L57.2415 22.4678ZM48.614 18.5143C48.6316 17.8817 48.3329 16.845 47.1556 16.845C46.0486 16.845 45.5918 17.8114 45.5039 18.5143H48.614ZM45.4864 19.7267C45.5391 20.9567 46.5406 21.5014 47.6652 21.5014C48.491 21.5014 49.0884 21.3784 49.6332 21.1851L49.8967 22.3799C49.2817 22.6259 48.4383 22.8192 47.4192 22.8192C45.1174 22.8192 43.7644 21.4311 43.7644 19.3226C43.7644 17.4073 44.9592 15.615 47.2259 15.615C49.5453 15.615 50.3009 17.4424 50.3009 18.9536C50.3009 19.2874 50.2657 19.5334 50.2306 19.6916L45.4864 19.7267ZM37.4563 17.4952H38.5282C39.7406 17.4952 40.4961 16.8802 40.4961 15.9313C40.4961 14.8946 39.7406 14.4026 38.5809 14.4026C38.001 14.4026 37.6496 14.4378 37.4739 14.4905L37.4563 17.4952ZM35.6816 13.2956C36.3493 13.1902 37.3509 13.1024 38.3876 13.1024C39.7933 13.1024 40.7597 13.3308 41.4274 13.8579C41.9721 14.2972 42.2708 14.9649 42.2708 15.7732C42.2708 17.0032 41.4098 17.829 40.4961 18.1629V18.198C41.199 18.444 41.6207 19.1117 41.8667 20.0254C42.1654 21.2202 42.4465 22.3097 42.6398 22.6787H40.7948C40.6543 22.3975 40.4083 21.6244 40.1447 20.4295C39.8636 19.1996 39.4067 18.7954 38.3876 18.7779H37.4915V22.6787H35.7168V13.2956H35.6816Z" fill="#E52521"/>
<path d="M81.437 30.2858C81.437 29.4424 81.4194 28.722 81.3843 28.0894H82.9832L83.0535 29.1788H83.1062C83.4577 28.6166 84.1254 27.9313 85.3729 27.9313C86.3393 27.9313 87.0949 28.476 87.4112 29.2843H87.4463C87.7099 28.8801 88.0086 28.5814 88.36 28.3706C88.7641 28.0894 89.2386 27.9313 89.836 27.9313C91.066 27.9313 92.3135 28.7571 92.3135 31.1117V35.4517H90.4861V31.3928C90.4861 30.1628 90.0644 29.4424 89.1859 29.4424C88.5533 29.4424 88.0789 29.8993 87.8856 30.4264C87.8504 30.6021 87.7977 30.8305 87.7977 31.0414V35.4517H85.9879V31.1819C85.9879 30.1628 85.5838 29.4248 84.7228 29.4248C84.0199 29.4248 83.5455 29.9695 83.3874 30.4791C83.3171 30.6724 83.282 30.8832 83.282 31.0941V35.4517H81.4545L81.437 30.2858ZM75.7615 30.4615C75.7615 29.46 75.7439 28.7571 75.6912 28.0894H77.3078L77.3605 29.4951H77.4307C77.7997 28.4584 78.6607 27.9313 79.4514 27.9313C79.6271 27.9313 79.7326 27.9489 79.8907 27.984V29.7411C79.7501 29.706 79.5744 29.6708 79.346 29.6708C78.4499 29.6708 77.8525 30.2507 77.6767 31.0765C77.6416 31.2347 77.624 31.4279 77.624 31.6564V35.4693H75.7615V30.4615ZM68.3992 31.7794C68.3992 33.2026 69.102 34.2745 70.2266 34.2745C71.2984 34.2745 72.0364 33.2378 72.0364 31.7618C72.0364 30.6197 71.5268 29.3018 70.2617 29.3018C68.9263 29.2843 68.3992 30.5494 68.3992 31.7794ZM73.9341 31.6915C73.9341 34.3975 72.0364 35.6099 70.1563 35.6099C68.0653 35.6099 66.4663 34.169 66.4663 31.8145C66.4663 29.4073 68.0477 27.9137 70.2793 27.9137C72.4757 27.9137 73.9341 29.46 73.9341 31.6915ZM62.1965 35.4517V29.4775H61.195V28.0894H62.1965V27.7731C62.1965 26.8067 62.4425 25.8755 63.0927 25.2605C63.6374 24.7509 64.3754 24.5576 65.0079 24.5576C65.4999 24.5576 65.8865 24.6279 66.2028 24.7333L66.0622 26.1742C65.8689 26.1039 65.6053 26.0336 65.2715 26.0336C64.3578 26.0336 64.0239 26.8067 64.0239 27.7029V28.0894H65.6581V29.4775H64.0591V35.4517H62.1965ZM58.5066 26.1917V28.0719H60.2813V29.46H58.5066V32.7106C58.5066 33.5892 58.7526 34.0636 59.473 34.0636C59.8069 34.0636 59.9826 34.0285 60.1934 33.9758L60.2286 35.399C59.9474 35.5045 59.473 35.5923 58.8932 35.5923C58.2079 35.5923 57.628 35.3463 57.2766 34.9773C56.89 34.538 56.6968 33.8879 56.6968 32.9215V29.46H55.6425V28.0719H56.6968V26.7189L58.5066 26.1917ZM52.3918 31.8497C51.074 31.8145 49.8264 32.0956 49.8264 33.2202C49.8264 33.9406 50.3009 34.2745 50.8807 34.2745C51.6187 34.2745 52.181 33.8001 52.3391 33.2729C52.3918 33.1323 52.4094 32.9918 52.4094 32.8688V31.8497H52.3918ZM54.2017 33.6771C54.2017 34.3448 54.2368 34.9949 54.3071 35.4517H52.6378L52.5148 34.6435H52.4797C52.0228 35.2233 51.2497 35.6275 50.3009 35.6275C48.8073 35.6275 47.9815 34.5556 47.9815 33.4311C47.9815 31.5685 49.6332 30.6372 52.3391 30.6548V30.5142C52.3391 30.0398 52.1458 29.2315 50.8456 29.2315C50.1251 29.2315 49.352 29.46 48.86 29.7763L48.5086 28.5638C49.0533 28.23 50.0021 27.9137 51.1618 27.9137C53.5164 27.9137 54.2017 29.4073 54.2017 31.0062V33.6771ZM44.3091 24.7158H46.1716V35.4517H44.3091V24.7158ZM37.509 30.1452C37.7375 30.2155 38.0362 30.2155 38.4227 30.2155C39.8109 30.2155 40.6543 29.5303 40.6543 28.3354C40.6543 27.1933 39.8636 26.5959 38.5809 26.5959C38.0713 26.5959 37.7023 26.6486 37.509 26.6837V30.1452ZM35.6816 25.401C36.3493 25.278 37.263 25.1902 38.5282 25.1902C39.8987 25.1902 40.8827 25.4713 41.5328 26.016C42.1478 26.508 42.5344 27.3163 42.5344 28.2651C42.5344 29.2315 42.2357 30.0398 41.6558 30.5845C40.9179 31.3225 39.7406 31.6739 38.4403 31.6739C38.0889 31.6739 37.7726 31.6564 37.5266 31.6037V35.4342H35.6816V25.401Z" fill="#686C6E"/>
<path d="M89.5554 47.3128L90.3636 49.4916C90.4339 49.7376 90.5393 50.0188 90.592 50.2472H90.6096C90.6799 50.0188 90.7502 49.7376 90.8556 49.474L91.576 47.2952H92.2789L91.2773 49.9309C90.8029 51.1785 90.4691 51.8462 90.0122 52.2327C89.6784 52.5139 89.3445 52.6369 89.1864 52.672L89.0107 52.1097C89.1864 52.057 89.3972 51.9516 89.5905 51.7759C89.7662 51.6353 89.9946 51.3717 90.1528 51.0203C90.1879 50.95 90.2055 50.8973 90.2055 50.8622C90.2055 50.827 90.1879 50.7743 90.1528 50.6865L88.7998 47.2777L89.5554 47.3128ZM85.1801 48.3143C85.1801 47.9278 85.1626 47.6115 85.145 47.3128H85.7424L85.7775 47.9278H85.7951C85.9708 47.5764 86.3925 47.2249 87.0075 47.2249C87.5171 47.2249 88.3078 47.5236 88.3078 48.7888V50.9852H87.6401V48.8591C87.6401 48.2616 87.4117 47.7696 86.7791 47.7696C86.3398 47.7696 85.9884 48.0859 85.883 48.4549C85.8478 48.5428 85.8303 48.6482 85.8303 48.7536V50.9676H85.1801V48.3143ZM83.4582 49.1226C82.7202 49.1051 81.8943 49.2456 81.8943 49.9485C81.8943 50.3878 82.1755 50.5986 82.5269 50.5986C83.0013 50.5986 83.3176 50.2999 83.423 49.9836C83.4582 49.9133 83.4757 49.843 83.4757 49.7728L83.4582 49.1226ZM84.0907 50.1242C84.0907 50.4405 84.1083 50.7567 84.161 51.0027H83.546L83.4933 50.5459H83.4582C83.2473 50.827 82.8607 51.0906 82.3336 51.0906C81.578 51.0906 81.1915 50.5635 81.1915 50.0363C81.1915 49.1402 81.9822 48.6482 83.4054 48.6658V48.5955C83.4054 48.2968 83.3176 47.7521 82.562 47.7521C82.2282 47.7521 81.8592 47.8575 81.5956 48.0332L81.4902 47.5588C81.7889 47.3655 82.2282 47.2249 82.7026 47.2249C83.8271 47.2249 84.1083 47.9981 84.1083 48.7361V50.1242H84.0907ZM77.8354 49.4916C77.8354 49.5795 77.853 49.6849 77.8705 49.7728C77.9935 50.2472 78.3977 50.5635 78.8721 50.5635C79.5749 50.5635 79.9966 49.9836 79.9966 49.1402C79.9966 48.4022 79.6101 47.7696 78.9072 47.7696C78.4504 47.7696 78.0111 48.1035 77.8881 48.5955C77.8705 48.6833 77.8354 48.7712 77.8354 48.8766V49.4916ZM77.1852 48.5252C77.1852 48.0508 77.1677 47.6642 77.1501 47.3128H77.7475L77.7651 47.9278H77.7827C78.0638 47.4885 78.4855 47.2249 79.0829 47.2249C79.9791 47.2249 80.6468 47.9805 80.6468 49.0875C80.6468 50.4229 79.8385 51.073 78.9775 51.073C78.5031 51.073 78.0638 50.8622 77.853 50.4932H77.8354V52.4963H77.1677L77.1852 48.5252ZM70.8245 48.3143C70.8245 47.9278 70.8069 47.6115 70.7893 47.3128H71.3868L71.4219 47.9102H71.4395C71.6503 47.5588 71.9842 47.2425 72.5992 47.2425C73.1087 47.2425 73.4777 47.5412 73.6359 47.9805H73.6534C73.7764 47.7696 73.917 47.6115 74.0576 47.5061C74.2684 47.3304 74.5144 47.2425 74.8659 47.2425C75.3403 47.2425 76.0783 47.5588 76.0783 48.8415V51.0203H75.4281V48.9293C75.4281 48.2265 75.1646 47.8048 74.6199 47.8048C74.2333 47.8048 73.9522 48.0859 73.8292 48.4198C73.794 48.5076 73.7764 48.6306 73.7764 48.7536V51.0379H73.1087V48.8415C73.1087 48.2441 72.8452 47.8224 72.3356 47.8224C71.9139 47.8224 71.6152 48.1562 71.5098 48.4901C71.4746 48.5779 71.457 48.7009 71.457 48.8239V51.0379H70.7893V48.3143H70.8245ZM67.0643 49.1753C67.0643 49.9836 67.5211 50.581 68.1888 50.581C68.8389 50.581 69.3134 49.9836 69.3134 49.1402C69.3134 48.5252 68.9971 47.7345 68.2064 47.7345C67.3981 47.7345 67.0643 48.4549 67.0643 49.1753ZM69.9811 49.1226C69.9811 50.4756 69.0322 51.073 68.1537 51.073C67.1521 51.073 66.379 50.3526 66.379 49.1753C66.379 47.9454 67.1873 47.2249 68.2064 47.2249C69.2607 47.2249 69.9811 47.9981 69.9811 49.1226ZM65.9221 50.827C65.6761 50.95 65.1841 51.073 64.5691 51.073C63.1283 51.073 62.0213 50.1593 62.0213 48.4725C62.0213 46.8735 63.1107 45.7841 64.7097 45.7841C65.3599 45.7841 65.7464 45.9247 65.9397 46.0125L65.7816 46.5572C65.5356 46.4342 65.1666 46.3288 64.7449 46.3288C63.55 46.3288 62.7417 47.1019 62.7417 48.4549C62.7417 49.7025 63.4622 50.5107 64.7097 50.5107C65.1139 50.5107 65.518 50.4229 65.7816 50.2999L65.9221 50.827ZM57.0311 49.4916C57.0135 49.5795 57.0487 49.6849 57.0487 49.7728C57.1717 50.2472 57.5758 50.5635 58.0502 50.5635C58.7531 50.5635 59.1748 49.9836 59.1748 49.1402C59.1748 48.4022 58.7882 47.7696 58.0678 47.7696C57.611 47.7696 57.1893 48.1035 57.0663 48.5955C57.0487 48.6833 57.0135 48.7712 57.0135 48.8766L57.0311 49.4916ZM56.3634 48.5252C56.3634 48.0508 56.3458 47.6642 56.3283 47.3128H56.9257L56.9608 47.9278H56.9784C57.2595 47.4885 57.6812 47.2249 58.2787 47.2249C59.1748 47.2249 59.8425 47.9805 59.8425 49.0875C59.8425 50.4229 59.0342 51.073 58.1732 51.073C57.6988 51.073 57.2595 50.8622 57.0487 50.4932H57.0311V52.4963H56.3634V48.5252ZM55.2564 50.0012C55.2564 50.3877 55.274 50.7216 55.2916 51.0027H54.6941L54.659 50.4053H54.6414C54.4657 50.704 54.0792 51.0906 53.429 51.0906C52.8492 51.0906 52.1639 50.7743 52.1639 49.474V47.3128H52.8316V49.3511C52.8316 50.0539 53.0425 50.5283 53.6399 50.5283C54.0967 50.5283 54.413 50.212 54.536 49.9133C54.5887 49.8255 54.6063 49.7025 54.6063 49.5795V47.3128H55.274V50.0012H55.2564ZM48.4037 49.1753C48.4037 49.9836 48.8605 50.581 49.5282 50.581C50.1784 50.581 50.6528 49.9836 50.6528 49.1402C50.6528 48.5252 50.3365 47.7345 49.5458 47.7345C48.7375 47.7345 48.4037 48.4549 48.4037 49.1753ZM51.3205 49.1226C51.3205 50.4756 50.3716 51.073 49.4931 51.073C48.4915 51.073 47.7184 50.3526 47.7184 49.1753C47.7184 47.9454 48.5267 47.2249 49.5458 47.2249C50.6001 47.2249 51.3205 47.9981 51.3205 49.1226ZM45.5747 48.4549C45.5747 48.0156 45.5571 47.6466 45.5396 47.3128H46.1194L46.137 48.0332H46.1721C46.3478 47.5412 46.752 47.2249 47.1913 47.2249C47.2615 47.2249 47.3143 47.2425 47.3845 47.2425V47.8751C47.3143 47.8575 47.244 47.8575 47.1561 47.8575C46.6817 47.8575 46.3478 48.2089 46.26 48.7185C46.2424 48.8063 46.2248 48.9118 46.2248 49.0348V51.0027H45.5747V48.4549ZM44.5732 50.7743C44.2744 50.8622 43.6946 51.0555 42.9917 51.0555C42.2186 51.0555 41.5861 50.8622 41.0765 50.3702C40.6372 49.9309 40.3561 49.2632 40.3561 48.4549C40.3736 46.9262 41.4279 45.8017 43.1323 45.8017C43.7297 45.8017 44.2042 45.9247 44.415 46.0477L44.2569 46.5748C43.9933 46.4518 43.6419 46.3464 43.1323 46.3464C41.8848 46.3464 41.0765 47.1195 41.0765 48.4022C41.0765 49.7025 41.8496 50.4756 43.062 50.4756C43.5013 50.4756 43.7825 50.4229 43.9406 50.335V48.8063H42.9039V48.2792H44.5907L44.5732 50.7743ZM37.246 45.5908H37.9137V51.0027H37.246V45.5908ZM35.4537 45.5908H36.1214V51.0027H35.4537V45.5908ZM33.9602 48.8063C33.9777 48.3671 33.7845 47.7169 33.0289 47.7169C32.3436 47.7169 32.0449 48.3319 31.9922 48.8063H33.9602ZM31.9922 49.2808C32.0098 50.1945 32.5896 50.5635 33.2573 50.5635C33.7317 50.5635 34.0305 50.4756 34.2764 50.3702L34.3994 50.8446C34.171 50.95 33.7669 51.0906 33.1695 51.0906C32.0273 51.0906 31.3596 50.335 31.3596 49.2281C31.3596 48.1035 32.0098 47.2425 33.0816 47.2425C34.294 47.2425 34.6103 48.2968 34.6103 48.9821C34.6103 49.1226 34.5927 49.2281 34.5927 49.2983H31.9922V49.2808ZM27.9508 49.5268C27.9508 49.6146 27.9684 49.7025 27.986 49.7728C28.109 50.2472 28.4955 50.5635 28.9875 50.5635C29.6904 50.5635 30.1121 49.9836 30.1121 49.1402C30.1121 48.4022 29.7255 47.7696 29.0051 47.7696C28.5482 47.7696 28.1265 48.0859 27.986 48.5955C27.9684 48.6658 27.9508 48.7712 27.9508 48.8766V49.5268ZM27.3007 45.5908H27.9684V47.9102H27.986C28.232 47.5061 28.6537 47.2425 29.2335 47.2425C30.1472 47.2425 30.7974 48.0156 30.7798 49.1226C30.7798 50.4405 29.9539 51.0906 29.1281 51.0906C28.601 51.0906 28.1617 50.8797 27.8981 50.4053H27.8805L27.8454 51.0203H27.2655C27.2831 50.7743 27.2831 50.4053 27.2831 50.0539V45.5908H27.3007ZM25.5084 48.8239C25.5084 48.7361 25.4909 48.6306 25.4733 48.5428C25.3854 48.1035 25.0164 47.7696 24.5069 47.7696C23.804 47.7696 23.3999 48.3846 23.3999 49.1929C23.3999 49.9485 23.7689 50.5459 24.4893 50.5459C24.9286 50.5459 25.3503 50.2648 25.4733 49.7552C25.4909 49.6673 25.5084 49.5795 25.5084 49.474V48.8239ZM26.1761 45.5908V50.0539C26.1761 50.3878 26.1937 50.7567 26.2113 51.0203H25.6139L25.5787 50.3702H25.5611C25.3503 50.7743 24.911 51.0906 24.3136 51.0906C23.4175 51.0906 22.7322 50.335 22.7322 49.2281C22.7322 47.9981 23.4877 47.2425 24.3839 47.2425C24.9637 47.2425 25.3327 47.5061 25.5084 47.8048H25.526V45.6084H26.1761V45.5908ZM18.7787 48.3143C18.7787 47.9278 18.7611 47.6115 18.7435 47.3128H19.341L19.3761 47.9278H19.3937C19.5694 47.5764 20.0087 47.2249 20.6061 47.2249C21.1156 47.2249 21.9063 47.5236 21.9063 48.7888V50.9852H21.2386V48.8591C21.2386 48.2616 21.0102 47.7696 20.3776 47.7696C19.9384 47.7696 19.6045 48.0859 19.4815 48.4549C19.4464 48.5428 19.4288 48.6482 19.4288 48.7536V50.9676H18.7611L18.7787 48.3143ZM17.0391 49.1226C16.3011 49.1051 15.4753 49.2456 15.4753 49.9485C15.4753 50.3878 15.7564 50.5986 16.1079 50.5986C16.5823 50.5986 16.881 50.2999 17.004 49.9836C17.0216 49.9133 17.0567 49.843 17.0567 49.7728L17.0391 49.1226ZM17.6893 50.1242C17.6893 50.4405 17.7068 50.7567 17.742 51.0027H17.1446L17.0918 50.5459H17.0743C16.8634 50.827 16.4768 51.0906 15.9497 51.0906C15.1942 51.0906 14.8252 50.5635 14.8252 50.0363C14.8252 49.1402 15.6159 48.6482 17.0391 48.6658V48.5955C17.0391 48.2968 16.9513 47.7521 16.2133 47.7521C15.8794 47.7521 15.5104 47.8575 15.2469 48.0332L15.1063 47.5939C15.405 47.4007 15.8443 47.2601 16.3011 47.2601C17.4257 47.2601 17.7068 48.0332 17.7068 48.7712L17.6893 50.1242ZM11.5218 45.872H12.1895V50.4405H14.3859V51.0027H11.5218V45.872ZM7.76155 48.8766L7.25198 47.3831C7.12899 47.0492 7.0587 46.7505 6.98842 46.4518C6.90056 46.7505 6.83028 47.0668 6.72485 47.3831L6.21529 48.8766H7.76155ZM6.07472 49.3862L5.54758 51.0027H4.8623L6.60185 45.872H7.41013L9.16724 51.0027H8.4644L7.90212 49.3862H6.07472Z" fill="#020203"/>
</svg>
