<svg width="139" height="55" viewBox="0 0 139 55" fill="none" xmlns="http://www.w3.org/2000/svg">
<path d="M67.2905 14.8746C67.2905 15.2534 67.1143 15.4554 66.787 15.5059H65.7297C64.8738 15.5059 64.4207 16.0362 64.4207 17.0716C64.4207 17.1726 64.4207 17.3494 64.4458 17.5514C64.4458 17.7534 64.471 17.9302 64.471 18.0312H66.0066C66.3087 18.0564 66.4598 18.2585 66.4598 18.6372C66.4598 18.9655 66.3087 19.1423 66.0066 19.1423H64.471L64.4962 25.0261C64.4962 25.3797 64.2696 25.5564 63.8417 25.5564C63.4137 25.5564 63.1871 25.3797 63.1871 25.0261V19.1423H62.5326C62.2809 19.1423 62.1802 18.9908 62.1802 18.6625C62.1802 18.2332 62.306 18.0312 62.5326 18.0312H63.1871C63.1871 17.9302 63.1871 17.7787 63.1871 17.5766C63.1871 17.3746 63.1871 17.2231 63.1871 17.1221C63.1871 16.2888 63.313 15.6574 63.5647 15.2282C63.9424 14.5968 64.5717 14.2686 65.5032 14.2686H66.8122C67.1143 14.3191 67.2905 14.5211 67.2905 14.8746Z" fill="#404B59"/>
<path d="M74.0121 21.3899C74.0121 23.107 73.5086 24.2939 72.5017 24.9505C71.9982 25.2788 71.4443 25.4303 70.8402 25.4303C69.7325 25.4303 68.9018 25.001 68.3479 24.1424C67.8696 23.4101 67.6431 22.4757 67.6431 21.3141V17.8293C67.6431 17.5515 67.8696 17.4 68.2976 17.4C68.7507 17.4 68.9773 17.5515 68.9773 17.8293V21.4404C68.9773 22.2232 69.078 22.804 69.2794 23.1576C69.6318 23.7889 70.1605 24.1171 70.8653 24.1171C71.5702 24.1171 72.0989 23.7889 72.4513 23.1576C72.6275 22.804 72.7282 22.2232 72.7282 21.3899V17.7535C72.7282 17.4757 72.9548 17.3242 73.3828 17.3242C73.8359 17.3242 74.0625 17.4757 74.0625 17.7535V21.3899H74.0121Z" fill="#404B59"/>
<path d="M82.3696 25.0264C82.3696 25.3042 82.143 25.4557 81.6899 25.4557C81.2619 25.4557 81.0354 25.3042 81.0354 25.0264V21.39C81.0354 20.5567 80.9347 19.9759 80.7584 19.6223C80.406 18.9658 79.8773 18.6375 79.1725 18.6375C78.4676 18.6375 77.9641 18.9658 77.5865 19.5971C77.3851 19.9759 77.2844 20.5314 77.2844 21.3143V24.9254C77.2844 25.2031 77.0578 25.3547 76.6047 25.3547C76.1768 25.3547 75.9502 25.2031 75.9502 24.9254V21.4658C75.9502 20.3042 76.1768 19.3698 76.6551 18.6375C77.2089 17.7789 78.0396 17.3496 79.1473 17.3496C79.7515 17.3496 80.3053 17.5011 80.8088 17.8294C81.8157 18.4607 82.3192 19.6476 82.3192 21.39V25.0264H82.3696Z" fill="#404B59"/>
<path d="M91.0801 25.1017C91.0801 25.3038 90.8788 25.43 90.476 25.43C90.0732 25.43 89.8718 25.329 89.8466 25.1017V24.2684C89.318 25.026 88.6131 25.4048 87.6816 25.4048C86.5992 25.4048 85.7432 24.9755 85.1139 24.0916C84.5852 23.3088 84.3335 22.3492 84.3335 21.2129C84.3335 20.1017 84.5852 19.1674 85.1139 18.4603C85.6929 17.6522 86.5236 17.2482 87.6313 17.2482C88.4872 17.2482 89.2173 17.6017 89.7711 18.3088V14.824C89.7711 14.5714 89.9725 14.4199 90.4004 14.4199C90.8536 14.4199 91.0801 14.5462 91.0801 14.824V25.1017ZM89.7207 21.2886C89.7207 20.3543 89.6201 19.6977 89.3935 19.3442C89.0159 18.6876 88.462 18.3593 87.732 18.3593C87.0019 18.3593 86.4481 18.6876 86.0957 19.3694C85.8188 19.8997 85.6677 20.5563 85.6677 21.3644C85.6677 22.1472 85.8188 22.8038 86.1209 23.3593C86.4985 24.0411 87.0523 24.3694 87.7823 24.3694C88.4872 24.3694 89.0662 24.0411 89.469 23.3593C89.6452 23.0563 89.7207 22.3745 89.7207 21.2886Z" fill="#404B59"/>
<path d="M98.9593 25.1019C98.9593 25.3291 98.7327 25.4301 98.3047 25.4301C97.9271 25.4301 97.7509 25.3291 97.7509 25.1019V24.2685C97.2474 25.0514 96.5426 25.4554 95.5859 25.4554C94.9314 25.4554 94.3524 25.2786 93.8489 24.9251C93.3454 24.5716 92.9427 24.0918 92.6658 23.4857C92.3888 22.8544 92.2378 22.1473 92.2378 21.3645C92.2378 19.6473 92.7665 18.4605 93.7986 17.7786C94.3272 17.4504 94.9062 17.2736 95.5356 17.2736C96.4419 17.2736 97.1719 17.6271 97.6754 18.3594V17.5009C97.6754 17.2483 97.8768 17.1221 98.3047 17.1221C98.7579 17.1221 98.9844 17.2483 98.9844 17.5009V25.1019H98.9593ZM97.7509 21.4655C97.7509 20.6322 97.5999 19.9251 97.323 19.3948C96.9453 18.713 96.3915 18.3594 95.6111 18.3594C94.8559 18.3594 94.3272 18.6877 93.9748 19.3443C93.6979 19.8746 93.5468 20.5312 93.5468 21.3392C93.5468 22.1221 93.6979 22.7786 94 23.3342C94.3776 23.9908 94.9314 24.319 95.6615 24.319C96.3915 24.319 96.9202 24.016 97.2978 23.3847C97.5999 22.8796 97.7509 22.2483 97.7509 21.4655Z" fill="#404B59"/>
<path d="M107.116 23.5863C106.537 24.7984 105.555 25.4045 104.171 25.4045C103.013 25.4045 102.106 25.0004 101.477 24.2176C100.898 23.5105 100.621 22.5509 100.621 21.3388C100.621 19.5459 101.175 18.3338 102.308 17.7025C102.887 17.3994 103.491 17.2227 104.171 17.2227C105.404 17.2227 106.31 17.6772 106.864 18.561C106.864 18.5863 106.889 18.6115 106.889 18.6368C106.889 18.7883 106.789 18.9651 106.587 19.1166C106.386 19.2681 106.21 19.3439 106.034 19.3439C105.933 19.3439 105.832 19.2934 105.782 19.1924C105.48 18.6115 104.976 18.3085 104.246 18.3085C102.761 18.3085 102.006 19.2934 102.006 21.2883C102.006 23.2833 102.736 24.2934 104.171 24.2934C105.102 24.2934 105.706 23.8388 106.008 22.955C106.109 22.7782 106.26 22.7025 106.436 22.7025C106.613 22.7025 106.789 22.7782 106.965 22.9045C107.141 23.0307 107.217 23.1823 107.217 23.359C107.192 23.46 107.166 23.5358 107.116 23.5863Z" fill="#404B59"/>
<path d="M109.835 25.2781C109.835 26.1619 109.709 26.8185 109.457 27.2983C109.105 27.9801 108.45 28.3336 107.519 28.3336H106.21C105.983 28.3084 105.882 28.1064 105.882 27.7528C105.882 27.374 106.008 27.1468 106.235 27.1215H107.292C108.148 27.1215 108.576 26.5407 108.576 25.3791C108.576 25.2781 108.576 25.1013 108.551 24.874C108.551 24.6468 108.526 24.47 108.526 24.369V17.8033C108.526 17.5508 108.752 17.4245 109.18 17.4245C109.608 17.4245 109.835 17.5508 109.835 17.8033V24.369C109.835 24.47 109.835 24.6215 109.835 24.8235C109.835 25.0255 109.835 25.1771 109.835 25.2781ZM109.91 15.5053C109.91 15.7326 109.835 15.9346 109.684 16.0862C109.533 16.2377 109.331 16.3387 109.105 16.3387C108.878 16.3387 108.702 16.2629 108.526 16.0862C108.375 15.9346 108.299 15.7326 108.299 15.5053C108.299 15.2781 108.375 15.0761 108.526 14.9245C108.677 14.773 108.878 14.6973 109.105 14.6973C109.331 14.6973 109.507 14.773 109.684 14.9245C109.835 15.1013 109.91 15.2781 109.91 15.5053Z" fill="#404B59"/>
<path d="M118.142 25.1019C118.142 25.3291 117.915 25.4301 117.487 25.4301C117.11 25.4301 116.934 25.3291 116.934 25.1019V24.2685C116.43 25.0514 115.725 25.4554 114.769 25.4554C114.114 25.4554 113.535 25.2786 113.032 24.9251C112.528 24.5716 112.125 24.0918 111.848 23.4857C111.571 22.8544 111.42 22.1473 111.42 21.3645C111.42 19.6473 111.949 18.4605 112.981 17.7786C113.51 17.4504 114.089 17.2736 114.718 17.2736C115.624 17.2736 116.355 17.6271 116.858 18.3594V17.5009C116.858 17.2483 117.059 17.1221 117.487 17.1221C117.94 17.1221 118.167 17.2483 118.167 17.5009V25.1019H118.142ZM116.959 21.4655C116.959 20.6322 116.808 19.9251 116.531 19.3948C116.153 18.713 115.599 18.3594 114.819 18.3594C114.064 18.3594 113.535 18.6877 113.183 19.3443C112.906 19.8746 112.755 20.5312 112.755 21.3392C112.755 22.1221 112.906 22.7786 113.208 23.3342C113.585 23.9908 114.139 24.319 114.869 24.319C115.599 24.319 116.128 24.016 116.506 23.3847C116.808 22.8796 116.959 22.2483 116.959 21.4655Z" fill="#404B59"/>
<path d="M69.6823 35.7578C69.6823 37.5759 69.1033 38.8133 67.9201 39.4699C67.3411 39.7982 66.7118 39.9497 66.0321 39.9497C64.8237 39.9497 63.8923 39.5709 63.2629 38.7881C62.6839 38.081 62.3818 37.0961 62.3818 35.884C62.3818 34.4446 62.7846 33.3588 63.5902 32.6769C64.2699 32.0961 65.0755 31.8184 66.0321 31.8184C67.1901 31.8184 68.0963 32.1971 68.7509 32.9295C69.3551 33.6365 69.6823 34.5709 69.6823 35.7578ZM68.3229 35.8083C68.3229 35.0002 68.1467 34.3184 67.7943 33.7881C67.3915 33.182 66.8125 32.8537 66.0321 32.8537C65.2265 32.8537 64.6475 33.1567 64.2447 33.7881C63.9175 34.3184 63.7412 35.0002 63.7412 35.8335C63.7412 36.6668 63.9175 37.3487 64.2447 37.879C64.6475 38.5103 65.2517 38.8133 66.0321 38.8133C66.8376 38.8133 67.4166 38.485 67.8194 37.8537C68.1467 37.3487 68.3229 36.6668 68.3229 35.8083Z" fill="#404B59"/>
<path d="M77.9642 39.6213C77.9642 39.8233 77.7628 39.9496 77.36 39.9496C76.9572 39.9496 76.7558 39.8485 76.7307 39.6213V38.7879C76.202 39.5455 75.4971 39.9243 74.5657 39.9243C73.4832 39.9243 72.6273 39.495 71.998 38.6112C71.4693 37.8283 71.1924 36.8687 71.1924 35.7324C71.1924 34.6213 71.4441 33.6869 71.9728 32.9799C72.5518 32.1718 73.3825 31.7677 74.4902 31.7677C75.3461 31.7677 76.0761 32.1213 76.63 32.8283V29.3435C76.63 29.091 76.8314 28.9395 77.2593 28.9395C77.7125 28.9395 77.939 29.0657 77.939 29.3435V39.6213H77.9642ZM76.6048 35.8081C76.6048 34.8738 76.5041 34.2172 76.2775 33.8637C75.8999 33.2071 75.3461 32.8788 74.6161 32.8788C73.886 32.8788 73.3322 33.2071 72.9797 33.8889C72.7028 34.4193 72.5518 35.0758 72.5518 35.8839C72.5518 36.6667 72.7028 37.3233 73.0049 37.8788C73.3825 38.5607 73.9364 38.8889 74.6664 38.8889C75.3713 38.8889 75.9503 38.5607 76.3531 37.8788C76.5293 37.5758 76.6048 36.894 76.6048 35.8081Z" fill="#404B59"/>
<path d="M80.9853 38.612L85.3907 38.5867C85.6677 38.5867 85.8187 38.7635 85.8187 39.1423C85.8187 39.5463 85.6677 39.7483 85.3656 39.7483H79.2734C78.9714 39.7483 78.8203 39.6726 78.8203 39.5463C78.8203 39.3696 78.9714 39.0665 79.2734 38.6877L83.553 33.0312H79.2734C78.9965 33.0312 78.8455 32.8544 78.8455 32.4756C78.8455 32.1221 78.9965 31.9453 79.2734 31.9453H85.3404C85.5921 31.9453 85.718 32.0211 85.718 32.1726C85.718 32.2736 85.5921 32.4756 85.3404 32.8292L80.9853 38.612Z" fill="#404B59"/>
<path d="M93.4213 38.7124C93.4213 39.672 93.3458 40.4043 93.1948 40.8841C92.7668 42.273 91.6088 42.9548 89.7459 42.9548C88.2355 42.9548 87.2789 42.5508 86.8006 41.7175C86.7502 41.667 86.7502 41.6165 86.7502 41.566C86.7502 41.4144 86.8509 41.2629 87.0523 41.1619C87.2285 41.0609 87.4047 41.0104 87.5558 41.0104C87.732 41.0104 87.8579 41.0609 87.9586 41.1872C88.1348 41.3892 88.2355 41.5155 88.2607 41.5155C88.5879 41.768 89.0914 41.8942 89.7459 41.8942C90.9795 41.8942 91.7347 41.4397 91.9864 40.5054C92.0619 40.2528 92.0871 39.672 92.0871 38.8134C91.5081 39.4953 90.8032 39.8235 89.9222 39.8235C88.8648 39.8235 88.0341 39.4447 87.4048 38.6619C86.8257 37.9549 86.5488 37.0458 86.5488 35.9599V32.4498C86.5488 32.1468 86.7502 32.0205 87.1782 32.0205C87.6565 32.0205 87.8831 32.172 87.8831 32.4498V35.8336C87.8831 35.8084 87.9082 35.8084 87.9082 35.7831C87.9082 36.6165 88.0593 37.273 88.3362 37.7781C88.6886 38.4094 89.2676 38.7377 90.0228 38.7377C90.5515 38.7377 91.055 38.5104 91.5585 38.0306C91.9109 37.7023 92.0871 37.2983 92.1375 36.7932C92.1626 36.4902 92.1878 35.6064 92.1878 34.1417V32.4751C92.1878 32.1973 92.3892 32.071 92.792 32.071C93.1948 32.071 93.4213 32.1973 93.4213 32.4751V38.7124Z" fill="#404B59"/>
<path d="M101.351 37.4746C101.351 38.4595 100.848 39.1666 99.8661 39.6211C99.3878 39.8484 98.7837 39.9494 98.0788 39.9494C96.5683 39.9494 95.5865 39.4443 95.0579 38.4342C95.0327 38.3837 95.0327 38.3332 95.0327 38.2827C95.0327 38.106 95.1334 37.9544 95.3096 37.8282C95.4858 37.7019 95.6369 37.6262 95.8131 37.6262C95.9642 37.6262 96.09 37.7019 96.1907 37.8282C96.4928 38.5353 97.1222 38.8635 98.0788 38.8635C99.3627 38.8635 100.017 38.4595 100.017 37.6262C100.017 37.3231 99.8913 37.0959 99.6396 36.9191C99.4633 36.7928 99.0102 36.6413 98.2802 36.4645C97.4494 36.2625 96.9208 36.111 96.6942 36.0353C95.6369 35.6312 95.1082 34.9746 95.1082 34.0403C95.1082 33.2575 95.4355 32.6767 96.09 32.2726C96.6187 31.9443 97.2984 31.7676 98.1291 31.7676C99.413 31.7676 100.294 32.0959 100.772 32.7524L100.798 32.7777C100.848 32.8282 100.848 32.8787 100.848 32.9544C100.848 33.106 100.747 33.2575 100.521 33.3837C100.344 33.4847 100.168 33.5353 99.992 33.5353C99.841 33.5353 99.7151 33.4847 99.6144 33.3837C99.3375 33.0555 98.8592 32.8787 98.2298 32.8787C96.9963 32.8787 96.3921 33.207 96.3921 33.8888C96.3921 34.2676 96.6187 34.5201 97.0466 34.6969C97.1473 34.7474 97.5501 34.8484 98.2046 35.0252C99.0857 35.2524 99.5892 35.4039 99.7403 35.4797C100.823 35.8585 101.351 36.5403 101.351 37.4746Z" fill="#404B59"/>
<path d="M108.928 39.2935C108.953 39.3188 108.979 39.3693 108.979 39.4198C108.979 39.5713 108.903 39.6976 108.752 39.7986C108.626 39.8996 108.475 39.9501 108.324 39.9501C108.047 39.9501 107.795 39.7986 107.544 39.5208L104.699 36.2632L104.271 36.6925V39.5713C104.271 39.8238 104.044 39.9249 103.566 39.9249C103.163 39.9249 102.962 39.7986 102.962 39.5713V29.3946C102.962 29.1673 103.163 29.041 103.591 29.041C104.044 29.041 104.296 29.1673 104.296 29.3946V35.1774L107.367 32.0713C107.619 31.8188 107.896 31.6673 108.198 31.6673C108.349 31.6673 108.5 31.7178 108.651 31.7935C108.827 31.8946 108.903 31.9956 108.903 32.1471C108.903 32.1976 108.878 32.2481 108.827 32.2986L105.681 35.5057L108.928 39.2935Z" fill="#404B59"/>
<path d="M116.707 39.6224C116.707 39.8496 116.48 39.9507 116.052 39.9507C115.675 39.9507 115.498 39.8496 115.498 39.6224V38.789C114.995 39.5719 114.29 39.9759 113.334 39.9759C112.679 39.9759 112.1 39.7991 111.596 39.4456C111.093 39.0921 110.69 38.6123 110.413 38.0062C110.136 37.3749 109.985 36.6678 109.985 35.885C109.985 34.1678 110.514 32.981 111.546 32.2991C112.075 31.9709 112.654 31.7941 113.283 31.7941C114.189 31.7941 114.919 32.1476 115.423 32.88V32.0214C115.423 31.7688 115.624 31.6426 116.052 31.6426C116.505 31.6426 116.732 31.7688 116.732 32.0214V39.6224H116.707ZM115.498 35.986C115.498 35.1527 115.347 34.4456 115.071 33.9153C114.693 33.2335 114.139 32.88 113.359 32.88C112.603 32.88 112.075 33.2082 111.722 33.8648C111.445 34.3951 111.294 35.0517 111.294 35.8597C111.294 36.6426 111.445 37.2991 111.748 37.8547C112.125 38.5113 112.679 38.8395 113.409 38.8395C114.139 38.8395 114.668 38.5365 115.045 37.9052C115.347 37.4254 115.498 36.7688 115.498 35.986Z" fill="#404B59"/>
<path d="M120.055 39.823C120.055 40.7068 119.929 41.3634 119.678 41.8432C119.325 42.525 118.671 42.8785 117.739 42.8785H116.43C116.204 42.8533 116.103 42.6513 116.103 42.2977C116.103 41.919 116.229 41.6917 116.455 41.6664H117.513C118.369 41.6664 118.797 41.0856 118.797 39.924C118.797 39.823 118.797 39.6462 118.771 39.419C118.771 39.1917 118.746 39.0149 118.746 38.9139V32.3482C118.746 32.0957 118.973 31.9695 119.401 31.9695C119.829 31.9695 120.055 32.0957 120.055 32.3482V38.9139C120.055 39.0149 120.055 39.1664 120.055 39.3684C120.055 39.5452 120.055 39.722 120.055 39.823ZM120.131 30.0503C120.131 30.2775 120.055 30.4796 119.904 30.6311C119.753 30.7826 119.552 30.8836 119.325 30.8836C119.099 30.8836 118.923 30.8078 118.746 30.6311C118.595 30.4796 118.52 30.2775 118.52 30.0503C118.52 29.823 118.595 29.621 118.746 29.4695C118.897 29.3179 119.099 29.2422 119.325 29.2422C119.552 29.2422 119.728 29.3179 119.904 29.4695C120.055 29.621 120.131 29.823 120.131 30.0503Z" fill="#404B59"/>
<path d="M68.8011 51.9961C68.8011 52.981 68.2976 53.6881 67.3158 54.1426C66.8375 54.3699 66.2334 54.4709 65.5285 54.4709C64.018 54.4709 63.0363 53.9658 62.5076 52.9557C62.4824 52.9052 62.4824 52.8547 62.4824 52.8042C62.4824 52.6274 62.5831 52.4759 62.7593 52.3497C62.9356 52.2234 63.0866 52.1477 63.2628 52.1477C63.4139 52.1477 63.5397 52.2234 63.6404 52.3497C63.9425 53.0567 64.5719 53.385 65.5285 53.385C66.8124 53.385 67.4669 52.981 67.4669 52.1477C67.4669 51.8446 67.341 51.6173 67.0893 51.4406C66.9131 51.3143 66.4599 51.1628 65.7299 50.986C64.8991 50.784 64.3705 50.6325 64.1439 50.5567C63.0866 50.1527 62.5579 49.4961 62.5579 48.5618C62.5579 47.779 62.8852 47.1982 63.5397 46.7941C64.0684 46.4658 64.7481 46.2891 65.5788 46.2891C66.8627 46.2891 67.7438 46.6173 68.2221 47.2739L68.2473 47.2992C68.2976 47.3497 68.2976 47.4002 68.2976 47.4759C68.2976 47.6274 68.1969 47.779 67.9704 47.9052C67.7941 48.0062 67.6179 48.0567 67.4417 48.0567C67.2907 48.0567 67.1648 48.0062 67.0641 47.9052C66.7872 47.5769 66.3089 47.4002 65.6795 47.4002C64.446 47.4002 63.8418 47.7285 63.8418 48.4103C63.8418 48.7891 64.0684 49.0416 64.4964 49.2184C64.597 49.2689 64.9998 49.3699 65.6544 49.5466C66.5354 49.7739 67.0389 49.9254 67.19 50.0012C68.2725 50.4052 68.8011 51.0618 68.8011 51.9961Z" fill="#404B59"/>
<path d="M75.1703 46.5416C75.3214 46.6931 75.4221 46.8446 75.4221 47.0214C75.4221 47.1982 75.3465 47.3749 75.1955 47.5264C75.0445 47.6779 74.8682 47.7537 74.692 47.7537C74.6165 47.7537 74.5661 47.7285 74.5158 47.678C74.3899 47.4507 74.113 47.3497 73.7102 47.3497C73.0054 47.3497 72.4515 47.6779 72.0739 48.3345C71.7718 48.8396 71.646 49.4709 71.646 50.279C71.646 50.3295 71.646 50.38 71.646 50.481C71.646 50.5567 71.646 50.6325 71.646 50.683V54.1426C71.6208 54.3699 71.3942 54.4961 70.9411 54.4961C70.5383 54.4961 70.3369 54.3699 70.3369 54.1426V47.1476C70.3369 47.0214 70.3369 46.9204 70.3369 46.9204V46.8446C70.3369 46.5921 70.5887 46.4658 71.067 46.4658C71.4949 46.4658 71.6963 46.5921 71.6963 46.8699V47.3497C72.2501 46.6426 72.955 46.2891 73.8361 46.2891C74.541 46.2891 74.9941 46.3901 75.1703 46.5416Z" fill="#404B59"/>
<path d="M83.2258 50.2783C83.2258 52.0964 82.6468 53.3338 81.4636 53.9904C80.8846 54.3187 80.2552 54.4702 79.5755 54.4702C78.3672 54.4702 77.4357 54.0914 76.8064 53.3086C76.2274 52.6015 75.9253 51.6166 75.9253 50.4045C75.9253 48.9651 76.3281 47.8793 77.1336 47.1975C77.8133 46.6166 78.6189 46.3389 79.5755 46.3389C80.7335 46.3389 81.6398 46.7177 82.2943 47.45C82.9237 48.157 83.2258 49.0914 83.2258 50.2783ZM81.8916 50.354C81.8916 49.5459 81.7153 48.8641 81.3629 48.3338C80.9601 47.7278 80.3811 47.3995 79.6007 47.3995C78.7951 47.3995 78.2161 47.7025 77.8134 48.3338C77.4861 48.8641 77.3099 49.5459 77.3099 50.3793C77.3099 51.2126 77.4861 51.8944 77.8134 52.4247C78.2161 53.056 78.8203 53.3591 79.6007 53.3591C80.4063 53.3591 80.9853 53.0308 81.3881 52.3995C81.7153 51.8944 81.8916 51.1874 81.8916 50.354Z" fill="#404B59"/>
<path d="M91.5077 54.1418C91.5077 54.3438 91.3063 54.4701 90.9035 54.4701C90.5007 54.4701 90.2993 54.3691 90.2741 54.1418V53.3084C89.7455 54.066 89.0406 54.4448 88.1092 54.4448C87.0267 54.4448 86.1708 54.0155 85.5414 53.1317C85.0127 52.3488 84.7358 51.3893 84.7358 50.2529C84.7358 49.1418 84.9876 48.2074 85.5162 47.5004C86.0952 46.6923 86.926 46.2882 88.0336 46.2882C88.8896 46.2882 89.6196 46.6418 90.1734 47.3488V43.864C90.1734 43.6115 90.3748 43.46 90.8028 43.46C91.2559 43.46 91.4825 43.5862 91.4825 43.864V54.1418H91.5077ZM90.1734 50.3286C90.1734 49.3943 90.0727 48.7377 89.8462 48.3842C89.4686 47.7276 88.9147 47.3994 88.1847 47.3994C87.4546 47.3994 86.9008 47.7276 86.5484 48.4095C86.2715 48.9398 86.1204 49.5963 86.1204 50.4044C86.1204 51.1872 86.2715 51.8438 86.5735 52.3994C86.9512 53.0812 87.505 53.4095 88.235 53.4095C88.9399 53.4095 89.5189 53.0812 89.9217 52.3994C90.0979 52.0963 90.1734 51.4145 90.1734 50.3286Z" fill="#404B59"/>
<path d="M99.9416 50.2783C99.9416 52.0964 99.3626 53.3338 98.1794 53.9904C97.6004 54.3187 96.9711 54.4702 96.2914 54.4702C95.083 54.4702 94.1516 54.0914 93.5222 53.3086C92.9432 52.6015 92.6411 51.6166 92.6411 50.4045C92.6411 48.9651 93.0439 47.8793 93.8495 47.1975C94.5292 46.6166 95.3347 46.3389 96.2914 46.3389C97.4494 46.3389 98.3556 46.7177 99.0102 47.45C99.6143 48.157 99.9416 49.0914 99.9416 50.2783ZM98.5822 50.354C98.5822 49.5459 98.406 48.8641 98.0535 48.3338C97.6508 47.7278 97.0718 47.3995 96.2914 47.3995C95.4858 47.3995 94.9068 47.7025 94.504 48.3338C94.1767 48.8641 94.0005 49.5459 94.0005 50.3793C94.0005 51.2126 94.1767 51.8944 94.504 52.4247C94.9068 53.056 95.511 53.3591 96.2914 53.3591C97.0969 53.3591 97.6759 53.0308 98.0787 52.3995C98.406 51.8944 98.5822 51.1874 98.5822 50.354Z" fill="#404B59"/>
<path d="M111.874 51.7184C111.874 52.5517 111.597 53.2083 111.068 53.6628C110.565 54.1173 109.885 54.3194 109.029 54.3194C108.501 54.3194 107.997 54.1931 107.544 53.9153C107.04 53.6123 106.738 53.2335 106.612 52.7285C106.436 53.2083 106.134 53.6123 105.731 53.8901C105.329 54.1679 104.85 54.3194 104.347 54.3194C102.308 54.3194 101.276 53.1072 101.301 50.6578L101.326 46.6426C101.326 46.3143 101.527 46.1376 101.93 46.1376C102.408 46.1376 102.66 46.3143 102.66 46.6426V50.4052C102.66 51.3396 102.736 51.9709 102.862 52.2992C103.088 52.88 103.566 53.183 104.296 53.183C104.8 53.183 105.203 53.0062 105.505 52.678C105.807 52.3497 105.958 51.9204 105.958 51.4153V46.6426C105.933 46.4911 106.008 46.3396 106.185 46.2386C106.336 46.1628 106.487 46.1123 106.663 46.1123C107.066 46.1123 107.267 46.2891 107.267 46.6426V51.1123C107.267 52.5012 107.846 53.183 109.029 53.183C110.061 53.183 110.565 52.5517 110.565 51.2638V46.6426C110.54 46.4658 110.615 46.3396 110.766 46.2386C110.892 46.1628 111.043 46.1123 111.244 46.1123C111.672 46.1123 111.874 46.2891 111.874 46.6174V51.7184Z" fill="#404B59"/>
<path d="M115.121 44.4702C115.121 44.6975 115.046 44.8995 114.895 45.051C114.744 45.2025 114.542 45.3035 114.316 45.3035C114.089 45.3035 113.913 45.2278 113.737 45.051C113.586 44.8995 113.51 44.6975 113.51 44.4702C113.51 44.2429 113.586 44.0409 113.737 43.8894C113.888 43.7379 114.089 43.6621 114.316 43.6621C114.542 43.6621 114.719 43.7379 114.895 43.8894C115.046 44.0409 115.121 44.2429 115.121 44.4702ZM115.021 54.0662C114.996 54.2934 114.769 54.4197 114.316 54.4197C113.913 54.4197 113.712 54.2934 113.712 54.0662V46.8439C113.712 46.5662 113.938 46.4146 114.366 46.4146C114.819 46.4146 115.046 46.5662 115.046 46.8439V54.0662H115.021Z" fill="#404B59"/>
<path d="M122.951 51.9952C122.951 52.98 122.447 53.6871 121.465 54.1416C120.987 54.3689 120.383 54.4699 119.678 54.4699C118.167 54.4699 117.186 53.9649 116.657 52.9548C116.632 52.9042 116.632 52.8537 116.632 52.8032C116.632 52.6265 116.733 52.475 116.909 52.3487C117.085 52.2224 117.236 52.1467 117.412 52.1467C117.563 52.1467 117.689 52.2224 117.79 52.3487C118.092 53.0558 118.721 53.384 119.678 53.384C120.962 53.384 121.616 52.98 121.616 52.1467C121.616 51.8436 121.49 51.6164 121.239 51.4396C121.062 51.3133 120.609 51.1618 119.879 50.9851C119.049 50.783 118.52 50.6315 118.293 50.5558C117.236 50.1517 116.707 49.4952 116.707 48.5608C116.707 47.778 117.035 47.1972 117.689 46.7931C118.218 46.4649 118.898 46.2881 119.728 46.2881C121.012 46.2881 121.893 46.6164 122.372 47.2729L122.397 47.2982C122.447 47.3487 122.447 47.3992 122.447 47.475C122.447 47.6265 122.346 47.778 122.12 47.9042C121.944 48.0053 121.767 48.0558 121.591 48.0558C121.44 48.0558 121.314 48.0053 121.214 47.9042C120.937 47.576 120.458 47.3992 119.829 47.3992C118.595 47.3992 117.991 47.7275 117.991 48.4093C117.991 48.7881 118.218 49.0406 118.646 49.2174C118.746 49.2679 119.149 49.3689 119.804 49.5457C120.685 49.7729 121.188 49.9245 121.339 50.0002C122.422 50.4042 122.951 51.0608 122.951 51.9952Z" fill="#404B59"/>
<path d="M130.528 53.8131C130.553 53.8383 130.578 53.8888 130.578 53.9393C130.578 54.0909 130.503 54.2171 130.352 54.3181C130.226 54.4191 130.075 54.4696 129.924 54.4696C129.647 54.4696 129.395 54.3181 129.143 54.0403L126.299 50.7828L125.871 51.2121V54.0909C125.871 54.3434 125.644 54.4444 125.166 54.4444C124.763 54.4444 124.562 54.3181 124.562 54.0909V43.9141C124.562 43.6868 124.763 43.5605 125.191 43.5605C125.644 43.5605 125.896 43.6868 125.896 43.9141V49.6969L128.967 46.5909C129.219 46.3383 129.496 46.1868 129.798 46.1868C129.949 46.1868 130.1 46.2373 130.251 46.3131C130.427 46.4141 130.503 46.5151 130.503 46.6666C130.503 46.7171 130.477 46.7676 130.427 46.8181L127.28 50.0252L130.528 53.8131Z" fill="#404B59"/>
<path d="M138.836 50.2783C138.836 52.0964 138.257 53.3338 137.073 53.9904C136.494 54.3187 135.865 54.4702 135.185 54.4702C133.977 54.4702 133.046 54.0914 132.416 53.3086C131.837 52.6015 131.535 51.6166 131.535 50.4045C131.535 48.9651 131.938 47.8793 132.744 47.1975C133.423 46.6166 134.229 46.3389 135.185 46.3389C136.343 46.3389 137.25 46.7177 137.904 47.45C138.534 48.157 138.836 49.0914 138.836 50.2783ZM137.476 50.354C137.476 49.5459 137.3 48.8641 136.948 48.3338C136.545 47.7278 135.966 47.3995 135.185 47.3995C134.38 47.3995 133.801 47.7025 133.398 48.3338C133.071 48.8641 132.895 49.5459 132.895 50.3793C132.895 51.2126 133.071 51.8944 133.398 52.4247C133.801 53.056 134.405 53.3591 135.185 53.3591C135.991 53.3591 136.57 53.0308 136.973 52.3995C137.325 51.8944 137.476 51.1874 137.476 50.354Z" fill="#404B59"/>
<path d="M66.2329 45.6576C66.0567 45.6576 65.8553 45.6071 65.679 45.4556C65.4776 45.3294 65.377 45.1778 65.377 45.0011C65.377 44.9506 65.3769 44.9001 65.4021 44.8748L66.0818 43.5364C66.1322 43.4607 66.2077 43.4102 66.3587 43.4102C66.535 43.4102 66.7112 43.4607 66.9126 43.5869C67.1391 43.7132 67.265 43.8647 67.265 44.0162C67.265 44.0667 67.265 44.092 67.2398 44.1425L66.5601 45.4809C66.5098 45.5819 66.4091 45.6576 66.2329 45.6576Z" fill="#404B59"/>
<path d="M27.4146 0C12.3101 0 0 12.3485 0 27.5C0 42.6515 12.3101 55 27.4146 55C42.519 55 54.8291 42.6515 54.8291 27.5C54.8291 25.7576 53.4194 24.3182 51.6572 24.3182C49.895 24.3182 48.4852 25.7323 48.4852 27.5C48.4852 39.1667 39.0198 48.6364 27.4146 48.6364C15.8093 48.6364 6.34386 39.1414 6.34386 27.5C6.34386 15.8586 15.8093 6.36364 27.4146 6.36364C29.1767 6.36364 30.5865 4.94949 30.5865 3.18182C30.5865 1.41414 29.1767 0 27.4146 0Z" fill="#404B59"/>
<path d="M27.0627 10.8848C27.0627 10.8848 6.41993 32.0464 17.7986 41.6171C18.9314 28.5363 29.278 24.0413 36.8302 24.6474C34.7659 19.9504 27.0627 10.8848 27.0627 10.8848Z" fill="#3287C3"/>
<path d="M19.4854 41.6171C19.4854 41.6171 28.8753 31.0363 36.8555 30.8848C36.8555 30.8848 24.7971 37.0717 21.3734 43.6626C22.6825 43.8141 33.8346 46.4151 39.4987 37.6525C42.293 33.3091 42.0917 30.4303 44.7098 27.7535C44.6846 27.7282 23.488 19.5717 19.4854 41.6171Z" fill="#93C23F"/>
<path d="M45.439 14.2935L48.4096 11.3137C50.0711 9.64702 50.4235 7.27328 49.19 6.03591C47.9564 4.79853 45.5901 5.15207 43.9286 6.81874L40.958 9.79853C39.2966 11.4652 38.9441 13.8389 40.1777 15.0763C41.4112 16.3137 43.7524 15.9854 45.439 14.2935Z" fill="#404B59"/>
</svg>
