<svg width="46" height="53" viewBox="0 0 46 53" fill="none" xmlns="http://www.w3.org/2000/svg">
<path d="M45.8366 0.364258H0.615234V52.0458H45.8366V0.364258Z" fill="#2E2D7D"/>
<path d="M43.9162 2.32422H2.58887V50.2177H43.9162V2.32422Z" fill="#AFCA0C"/>
<path d="M39.0349 6.46973H7.41602V37.3435H39.0349V6.46973Z" fill="#2E2D7D"/>
<path fill-rule="evenodd" clip-rule="evenodd" d="M23.5799 7.74219C31.3546 7.74219 37.6491 13.9938 37.6491 21.7155C37.6491 29.4373 31.3546 35.6889 23.5799 35.6889C15.8052 35.6889 9.51074 29.4373 9.51074 21.7155C9.51074 13.9938 15.8052 7.74219 23.5799 7.74219Z" fill="#AFCA0C"/>
<path fill-rule="evenodd" clip-rule="evenodd" d="M23.6325 16.5488C26.7797 16.5488 29.3402 19.0918 29.3402 22.2176C29.3402 25.3434 26.7797 27.8865 23.6325 27.8865C20.4853 27.8865 17.9248 25.3434 17.9248 22.2176C17.9248 19.0918 20.4719 16.5488 23.6325 16.5488Z" fill="#2E2D7D"/>
<path d="M24.1925 0.390625H22.2588V5.6356H24.1925V0.390625Z" fill="#2E2D7D"/>
<path d="M24.6866 0.364258H24.0198V5.94035H24.6866V0.364258Z" fill="#AFCA0C"/>
<path d="M23.9792 6.97266H23.2725V16.9196H23.9792V6.97266Z" fill="#2E2D7D"/>
<path fill-rule="evenodd" clip-rule="evenodd" d="M9.16382 10.0466L23.2863 7.58301L23.313 21.808L9.16382 10.0466Z" fill="#AFCA0C"/>
<path d="M39.795 38.8936V39.1055C39.515 39.1585 39.3016 39.2379 39.1682 39.3704C38.9682 39.5558 38.7815 39.8472 38.6215 40.2313L35.8743 46.8935H35.661L32.7138 40.1518C32.5671 39.8075 32.4604 39.5955 32.3937 39.5161C32.3004 39.3969 32.1803 39.3041 32.0336 39.2379C31.8869 39.1717 31.7002 39.132 31.4602 39.1055V38.8936H34.6741V39.1055C34.314 39.1452 34.074 39.1982 33.9673 39.2909C33.8606 39.3836 33.8073 39.4896 33.8073 39.6353C33.8073 39.8339 33.9006 40.1253 34.074 40.5359L36.0744 45.1186L37.928 40.5889C38.1147 40.1386 38.1947 39.8339 38.1947 39.6618C38.1947 39.5558 38.1414 39.4498 38.0214 39.3439C37.9147 39.2379 37.7147 39.1717 37.4479 39.132C37.4346 39.132 37.3946 39.1187 37.3546 39.1187V38.9068H39.795V38.8936Z" fill="#2E2D7D"/>
<path d="M14.6841 46.9203H11.7236V46.6025C11.8303 46.6025 11.9636 46.5892 12.137 46.576C12.3104 46.5627 12.417 46.5362 12.4837 46.4965C12.5771 46.4435 12.6571 46.3773 12.6971 46.2978C12.7371 46.2316 12.7638 46.1389 12.7638 46.0197V41.437H12.6971L10.4034 46.8144H10.1633L7.9896 41.331H7.92292V45.0926C7.92292 45.4634 7.94959 45.7283 7.9896 45.927C8.04294 46.1124 8.10962 46.2581 8.2163 46.3376C8.28298 46.4038 8.42967 46.4568 8.64304 46.5098C8.85642 46.5627 9.00311 46.6025 9.06979 46.6025V46.9203H6.37598V46.6025C6.52267 46.5892 6.66936 46.5627 6.81605 46.5362C6.97608 46.5098 7.0961 46.4568 7.17612 46.3906C7.2828 46.3111 7.36282 46.1786 7.40282 46.0065C7.44283 45.8343 7.4695 45.5429 7.4695 45.1455V41.9138C7.4695 41.7284 7.44283 41.5694 7.40282 41.4502C7.34948 41.331 7.2828 41.2383 7.20279 41.1588C7.10944 41.0794 6.98942 41.0131 6.84273 40.9866C6.69603 40.9469 6.56268 40.9204 6.41598 40.9204V40.6025H8.69639L10.6167 45.3442L12.257 41.384C12.3104 41.2383 12.3637 41.0926 12.417 40.9337C12.4571 40.7747 12.4837 40.6688 12.4837 40.6158H14.6708V40.9337C14.5774 40.9337 14.4707 40.9469 14.3374 40.9734C14.204 40.9999 14.0973 41.0131 14.044 41.0396C13.9373 41.0794 13.8706 41.1323 13.8306 41.2118C13.7906 41.2913 13.7773 41.384 13.7773 41.4767V46.0197C13.7773 46.1257 13.7906 46.2051 13.8306 46.2846C13.8706 46.3508 13.9373 46.417 14.044 46.47C14.0973 46.4965 14.204 46.523 14.3507 46.5495C14.4974 46.576 14.6041 46.5892 14.6974 46.5892V46.9203H14.6841Z" fill="#2E2D7D"/>
<path d="M21.8454 46.9202H19.0582V46.6023C19.2983 46.589 19.5116 46.5626 19.6717 46.5096C19.8317 46.4698 19.9117 46.4169 19.9117 46.3506C19.9117 46.3241 19.9117 46.2977 19.8984 46.2579C19.8984 46.2182 19.885 46.1917 19.8717 46.152L19.3116 44.7348H16.9645C16.8712 44.9467 16.8045 45.1189 16.7512 45.2778C16.6978 45.4367 16.6445 45.5692 16.6045 45.7016C16.5645 45.8341 16.5378 45.9268 16.5244 46.0195C16.5111 46.099 16.4978 46.1652 16.4978 46.2182C16.4978 46.3374 16.5911 46.4301 16.7912 46.4963C16.9912 46.5626 17.2179 46.6023 17.4579 46.6155V46.9334H14.9375V46.6155C15.0175 46.6155 15.1242 46.589 15.2442 46.5626C15.3642 46.5361 15.4709 46.4963 15.5509 46.4434C15.671 46.3639 15.7776 46.2844 15.8443 46.1917C15.911 46.099 15.9777 45.9798 16.0444 45.8341C16.3778 45.0394 16.7512 44.152 17.1646 43.1719C17.5646 42.1785 17.938 41.3043 18.2581 40.5361H18.6315L20.8719 45.9798C20.9252 46.099 20.9786 46.1917 21.0319 46.2579C21.0853 46.3241 21.1786 46.4036 21.2853 46.4698C21.352 46.5096 21.4587 46.5493 21.5653 46.5758C21.6854 46.6023 21.7787 46.6155 21.8587 46.6288V46.9202H21.8454ZM19.1382 44.3374L18.1247 41.8871L17.1246 44.3374H19.1382Z" fill="#2E2D7D"/>
<path d="M32.6471 46.9202H29.86V46.6023C30.1 46.589 30.3134 46.5626 30.4734 46.5096C30.6335 46.4698 30.7135 46.4169 30.7135 46.3506C30.7135 46.3241 30.7135 46.2977 30.7001 46.2579C30.7001 46.2182 30.6868 46.1917 30.6735 46.152L30.1134 44.7348H27.7663C27.6729 44.9467 27.6063 45.1189 27.5529 45.2778C27.4996 45.4367 27.4462 45.5692 27.4062 45.7016C27.3662 45.8341 27.3395 45.9268 27.3262 46.0195C27.3129 46.099 27.2995 46.1652 27.2995 46.2182C27.2995 46.3374 27.3929 46.4301 27.5929 46.4963C27.793 46.5626 28.0197 46.6023 28.2597 46.6155V46.9334H25.7393V46.6155C25.8193 46.6155 25.926 46.589 26.046 46.5626C26.166 46.5361 26.2727 46.4963 26.3527 46.4434C26.4727 46.3639 26.5794 46.2844 26.6461 46.1917C26.7128 46.099 26.7794 45.9798 26.8461 45.8341C27.1795 45.0394 27.5529 44.152 27.9663 43.1719C28.3664 42.1785 28.7398 41.3043 29.0598 40.5361H29.4332L31.6736 45.9798C31.727 46.099 31.7803 46.1917 31.8337 46.2579C31.887 46.3241 31.9804 46.4036 32.087 46.4698C32.1537 46.5096 32.2604 46.5493 32.3671 46.5758C32.4871 46.6023 32.5805 46.6155 32.6605 46.6288V46.9202H32.6471ZM29.94 44.3374L28.9265 41.8871L27.9263 44.3374H29.94Z" fill="#2E2D7D"/>
<path d="M27.0591 40.92C27.0058 40.92 26.9258 40.9465 26.8057 40.9862C26.6857 41.0259 26.6057 41.0657 26.5524 41.0922C26.4323 41.1584 26.3523 41.2246 26.299 41.2511C26.259 41.2908 26.1656 41.3968 26.0456 41.5557C25.8056 41.8869 25.5789 42.218 25.3655 42.5491C25.1521 42.8802 24.8987 43.3041 24.592 43.8206C24.472 44.006 24.392 44.165 24.3653 44.2842C24.3253 44.4034 24.312 44.5623 24.312 44.7875V45.9928C24.312 46.0987 24.3386 46.1914 24.3786 46.2709C24.4187 46.3504 24.4987 46.4166 24.6187 46.4563C24.6854 46.4828 24.8054 46.5093 24.9788 46.5491C25.1521 46.5888 25.2855 46.602 25.3922 46.602V46.9199H22.2583V46.602C22.3516 46.602 22.485 46.5888 22.6583 46.5623C22.8317 46.5491 22.9517 46.5226 23.0317 46.4961C23.1518 46.4563 23.2184 46.3901 23.2718 46.3107C23.3118 46.2312 23.3385 46.1385 23.3385 46.0325V44.4961C23.3385 44.4431 23.3118 44.3637 23.2451 44.2312C23.1784 44.0988 23.1118 43.9663 23.0317 43.8074C22.845 43.463 22.6317 43.0921 22.405 42.6948C22.1783 42.2975 21.9782 41.9531 21.8049 41.6617C21.6982 41.4895 21.6048 41.3703 21.5248 41.2776C21.4448 41.1849 21.3514 41.1187 21.2448 41.0524C21.1647 41.0127 21.0847 40.973 20.978 40.9465C20.8714 40.92 20.778 40.9067 20.698 40.9067V40.5889H23.5652V40.9067C23.2451 40.9067 23.0184 40.9332 22.8851 40.973C22.7517 41.0127 22.685 41.0524 22.685 41.1187C22.685 41.1319 22.6984 41.1716 22.7117 41.2114C22.725 41.2511 22.7517 41.3173 22.7917 41.3836C22.8317 41.463 22.885 41.5425 22.9384 41.6485C22.9917 41.7544 23.0451 41.8471 23.0984 41.9398C23.2451 42.2047 23.3918 42.4696 23.5518 42.7345C23.7119 42.9994 23.9119 43.3438 24.1519 43.7544C24.6454 42.9994 25.0188 42.4167 25.2855 42.0061C25.5389 41.5822 25.6722 41.3306 25.6722 41.2511C25.6722 41.1849 25.6455 41.1319 25.5922 41.0922C25.5389 41.0524 25.4722 41.0127 25.3788 40.9995C25.2855 40.973 25.1921 40.9597 25.0854 40.9465C24.9788 40.9332 24.8854 40.9332 24.7921 40.92V40.6021H27.1258V40.92H27.0591Z" fill="#2E2D7D"/>
<path d="M37.0615 46.4705C37.0615 46.1791 37.4216 45.9805 37.9283 45.9805C38.4351 45.9805 38.7818 46.1791 38.7818 46.4705C38.7818 46.7487 38.4484 46.9606 37.915 46.9606C37.4083 46.9739 37.0615 46.7619 37.0615 46.4705Z" fill="#2E2D7D"/>
</svg>
