<svg width="177" height="53" viewBox="0 0 177 53" fill="none" xmlns="http://www.w3.org/2000/svg">
<path d="M1.41316 22.6613C1.50672 20.8501 1.63146 19.1326 1.69383 17.5088C5.34249 19.8509 9.05353 22.2554 12.7957 24.7536C16.6003 27.283 20.4985 29.9061 24.459 32.5917C22.6191 32.5605 20.7168 32.498 18.7521 32.4355C22.8997 35.933 28.1077 38.3063 33.0973 38.6186C38.0869 38.9621 41.6108 37.2758 43.5443 34.4966C44.9165 38.6498 46.4133 43.2715 48.0662 48.4553C45.1036 50.7349 41.2678 52.0777 36.1222 52.0777C30.9767 52.0777 25.2386 50.485 20.0931 47.6746C14.9787 44.8641 10.4569 41.0543 6.99531 36.7137C4.87472 39.4617 2.56701 42.4596 0.0410156 45.7385C0.352867 40.9294 0.602349 36.5888 0.820645 32.6541C1.07013 29.0005 1.25724 25.7216 1.41316 22.6613Z" fill="#AFCB23"/>
<path d="M48.8147 44.0519C47.1619 39.3053 45.6338 35.0271 44.2305 31.1862C42.9519 27.6887 41.7668 24.5035 40.6754 21.5993C41.9539 22.8484 43.2325 24.1287 44.5735 25.4403C44.324 24.5972 44.4799 24.7533 43.6068 22.8796C42.7336 21.006 40.114 17.3211 37.6816 15.1352C35.3427 13.043 32.536 11.2942 29.667 10.1076C31.7564 9.70163 33.7211 9.3269 35.5922 8.9834C38.4612 10.7009 41.2055 12.8244 43.6379 15.2289C46.1951 17.7583 48.7835 21.1934 50.3116 23.9726C51.8396 26.7519 52.5257 28.5943 53.1182 30.8739C54.8958 31.2174 56.611 31.5609 58.3262 31.8732C57.0788 33.497 55.7378 35.277 54.2409 37.1506C52.6193 39.2741 50.8105 41.5537 48.8147 44.0519Z" fill="#C5C5C5"/>
<path d="M20.436 8.38973C17.7541 8.57709 15.384 9.42023 13.6688 10.8879C11.7977 12.5118 10.6127 15.8219 10.6127 17.8829C10.6127 19.9439 10.7686 20.1 11.0804 21.2242C7.49415 18.9134 4.00141 16.665 0.571045 14.4479C1.84964 10.1072 4.8746 7.07817 8.58563 5.32943C11.8601 3.79928 15.8518 3.20596 20.1241 3.61192C19.1574 2.48773 18.253 1.42599 17.3487 0.364258C19.9058 1.64459 22.4942 2.95614 25.0826 4.23647C27.6709 5.54802 30.2905 6.85958 32.9412 8.20236C30.9454 8.54587 28.856 8.88937 26.6418 9.29533C24.3029 9.70128 21.777 10.1385 19.095 10.6069C19.5004 9.82619 19.9682 9.10796 20.436 8.38973Z" fill="#DBE386"/>
<path d="M77.2237 31.9038H79.7809L78.9389 17.7265H75.5397L73.575 23.4099C73.0137 25.065 72.5459 26.8137 72.1717 28.3439H72.1093C71.7351 26.7513 71.2985 25.0962 70.7995 23.4099L68.9284 17.6953H65.4981L64.5625 31.8726H66.9949L67.3068 26.158C67.4004 24.2219 67.4939 21.9735 67.5563 20.0998H67.5875C67.9617 21.8798 68.4606 23.8159 69.022 25.6271L70.9243 31.6852H72.9201L75.0095 25.5334C75.6332 23.7535 76.2258 21.8173 76.6935 20.0686H76.7559C76.7247 22.0047 76.8495 24.2219 76.9118 26.0331L77.2237 31.9038Z" fill="#C5C5C5"/>
<path d="M81.5586 31.8736C82.2135 31.9672 83.305 32.0609 84.7707 32.0609C87.3902 32.0609 89.043 31.6237 90.0721 30.7494C90.9141 30.0624 91.4443 29.0943 91.4443 27.814C91.4443 25.8467 90.0721 24.6912 88.5753 24.3165V24.2853C90.1345 23.7232 90.9453 22.5053 90.9453 21.225C90.9453 20.0071 90.3528 19.1015 89.4484 18.5706C88.4817 17.8836 87.2967 17.665 85.3632 17.665C83.8975 17.665 82.4006 17.7899 81.5586 17.9773V31.8736ZM84.147 19.6324C84.4276 19.5699 84.8642 19.5387 85.6127 19.5387C87.2655 19.5387 88.2946 20.1632 88.2946 21.4748C88.2946 22.6927 87.2655 23.5046 85.4879 23.5046H84.147V19.6324ZM84.147 25.4095H85.4256C87.2343 25.4095 88.6688 26.0965 88.6688 27.7203C88.6688 29.469 87.2031 30.0936 85.5191 30.0936C84.9266 30.0936 84.49 30.0936 84.147 30.0311V25.4095Z" fill="#C5C5C5"/>
<path d="M98.1182 31.9038H100.707V26.0642H102.016C103.513 26.0954 104.168 26.6888 104.574 28.5624C104.979 30.3424 105.322 31.4978 105.54 31.9038H108.222C107.941 31.3729 107.536 29.7178 107.1 27.9379C106.725 26.5639 106.133 25.5958 105.104 25.1899V25.1274C106.445 24.659 107.692 23.4099 107.692 21.5675C107.692 20.3808 107.255 19.3815 106.476 18.7258C105.509 17.9138 104.137 17.6016 102.079 17.6016C100.582 17.6016 99.1161 17.7265 98.1494 17.8826V31.9038H98.1182ZM100.707 19.6938C100.956 19.6314 101.486 19.5689 102.328 19.5689C104.012 19.5689 105.135 20.2871 105.135 21.8485C105.135 23.2537 104.043 24.1906 102.266 24.1906H100.707V19.6938Z" fill="#C5C5C5"/>
<path d="M118.014 27.5005C118.046 27.2819 118.108 26.8759 118.108 26.4075C118.108 24.1592 117.016 21.4111 113.648 21.4111C110.343 21.4111 108.596 24.0967 108.596 26.9384C108.596 30.0612 110.561 32.1534 113.898 32.1534C115.364 32.1534 116.611 31.8411 117.484 31.4976L117.11 29.7177C116.33 29.9987 115.457 30.1861 114.241 30.1861C112.588 30.1861 111.122 29.3741 111.06 27.5317H118.014V27.5005ZM111.091 25.6893C111.185 24.6276 111.871 23.1911 113.493 23.1911C115.239 23.1911 115.644 24.7525 115.644 25.6893H111.091Z" fill="#C5C5C5"/>
<path d="M126.528 29.6874C126.029 29.906 125.374 30.0934 124.469 30.0934C122.692 30.0934 121.32 28.9067 121.32 26.7833C121.288 24.9096 122.473 23.4731 124.469 23.4731C125.405 23.4731 125.997 23.6917 126.434 23.8791L126.902 21.943C126.309 21.662 125.343 21.4434 124.376 21.4434C120.758 21.4434 118.638 23.8479 118.638 26.9082C118.638 30.0934 120.727 32.1544 123.939 32.1544C125.218 32.1544 126.309 31.8421 126.871 31.6235L126.528 29.6874Z" fill="#C5C5C5"/>
<path d="M127.058 21.6611L130.832 31.0606C130.956 31.3104 130.988 31.4666 130.988 31.5603C130.988 31.6852 130.925 31.8413 130.832 32.0287C130.458 32.7157 129.896 33.3402 129.397 33.6525C128.867 34.0272 128.306 34.2458 127.869 34.3707L128.462 36.5567C129.117 36.463 130.177 36.1195 131.206 35.2139C132.422 34.1521 133.389 32.4659 134.792 28.6249L137.381 21.6611H134.574L132.984 27.1259C132.796 27.813 132.609 28.5624 132.422 29.1557H132.36C132.204 28.5624 131.986 27.7817 131.798 27.1572L129.927 21.6924H127.058V21.6611Z" fill="#C5C5C5"/>
<path d="M144.927 29.6874C144.428 29.906 143.773 30.0934 142.869 30.0934C141.091 30.0934 139.719 28.9067 139.719 26.7833C139.688 24.9096 140.873 23.4731 142.869 23.4731C143.805 23.4731 144.428 23.6917 144.834 23.8791L145.301 21.943C144.709 21.662 143.742 21.4434 142.775 21.4434C139.158 21.4434 137.037 23.8479 137.037 26.9082C137.037 30.0934 139.127 32.1544 142.339 32.1544C143.617 32.1544 144.709 31.8421 145.27 31.6235L144.927 29.6874Z" fill="#C5C5C5"/>
<path d="M148.981 16.9463H146.361V31.9043H148.981V16.9463Z" fill="#C5C5C5"/>
<path d="M153.535 21.661H150.915V31.9036H153.535V21.661ZM152.225 17.3828C151.352 17.3828 150.759 18.0074 150.759 18.7881C150.759 19.5687 151.32 20.1621 152.194 20.1621C153.098 20.1621 153.659 19.5375 153.659 18.7881C153.659 17.9761 153.129 17.3828 152.225 17.3828Z" fill="#C5C5C5"/>
<path d="M155.468 31.9036H158.087V25.8767C158.087 25.5956 158.119 25.2833 158.181 25.0335C158.462 24.2528 159.179 23.5034 160.208 23.5034C161.611 23.5034 162.173 24.6276 162.173 26.0953V31.8724H164.792V25.8142C164.792 22.5666 162.921 21.4111 161.144 21.4111C159.428 21.4111 158.306 22.3792 157.869 23.1911H157.807L157.682 21.661H155.374C155.437 22.5353 155.468 23.5346 155.468 24.7212V31.9036Z" fill="#C5C5C5"/>
<path d="M176.019 24.5964C176.019 23.1911 176.05 22.348 176.113 21.661H173.836L173.743 23.035H173.712C173.213 22.1918 172.308 21.4424 170.718 21.4424C168.223 21.4424 166.04 23.4722 166.04 26.8447C166.04 29.7489 167.88 31.8411 170.437 31.8411C171.809 31.8411 172.838 31.2478 173.431 30.3422H173.462V31.2166C173.462 33.4337 172.184 34.3081 170.5 34.3081C169.252 34.3081 168.161 33.9022 167.506 33.5274L166.944 35.4948C167.818 36.0569 169.221 36.3067 170.531 36.3067C171.934 36.3067 173.431 36.0256 174.522 35.0576C175.614 34.0895 176.05 32.5594 176.05 30.4047V24.5964H176.019ZM173.431 27.4068C173.431 27.6879 173.4 28.0626 173.337 28.3437C173.026 29.2805 172.184 29.905 171.217 29.905C169.595 29.905 168.691 28.4998 168.691 26.7511C168.691 24.6588 169.782 23.4097 171.217 23.4097C172.308 23.4097 173.057 24.1279 173.337 25.0648C173.4 25.2834 173.431 25.5332 173.431 25.7518V27.4068Z" fill="#C5C5C5"/>
</svg>
