<svg width="119" height="53" viewBox="0 0 119 53" fill="none" xmlns="http://www.w3.org/2000/svg">
<g clip-path="url(#clip0_217_15549)">
<path d="M118.826 13.2052V0.914062H0.594727V41.2604H56.4096H108.431C112.027 41.2604 118.826 39.0189 118.826 30.8167V18.3778L116.757 14.2151L114.688 18.3778V30.8167C114.688 36.7282 109.441 37.147 108.407 37.147H52.2715V37.1223H4.70818V5.02752H114.712V13.2791L116.781 9.53508L118.826 13.2052Z" fill="#EB690D"/>
<path d="M15.8416 15.0028H17.2702C17.9353 15.0028 19.9551 14.9782 19.9551 17.3182C19.9551 19.9291 17.5905 19.8059 16.9254 19.8059H15.8416V15.0028ZM9.83154 9.85483V32.3187H15.8416V24.6337L21.2113 32.3434H28.7485L22.1473 23.3282C22.7631 23.0819 23.034 22.9095 23.305 22.7617C23.9454 22.343 24.3887 21.8011 24.5858 21.604C26.1868 19.732 26.2361 17.6137 26.2361 16.7024C26.2361 13.9929 25.1769 12.4165 24.3641 11.6529C23.8222 11.1357 23.1818 10.8155 22.9601 10.6923C21.7285 10.0765 20.7433 9.85483 18.1323 9.85483H9.83154ZM30.3742 9.85483V32.3187H43.7983V27.0476H36.7537V9.85483H30.3742ZM53.0598 9.73167C51.2863 10.1997 47.3945 11.6776 45.6457 16.4561C45.3009 17.3428 44.8575 18.8699 44.8575 21.2592C44.8575 25.7175 46.631 28.3284 47.9118 29.6585C48.4537 30.225 49.0941 30.7423 49.7592 31.1857C51.8282 32.4911 53.9958 32.9099 56.4096 32.9099C59.661 32.9099 61.6315 32.0724 62.8631 31.4074C67.5184 28.7225 67.7894 23.5746 67.8879 22.0474C67.9618 21.0868 67.9864 20.1508 67.9864 19.1902L56.7052 19.1409V24.1657H61.5823C61.5084 24.3628 61.4345 25.0278 61.1389 25.619C60.4492 27.0476 59.0945 27.491 58.5526 27.6634C57.8136 27.8604 57.2717 27.8604 56.9515 27.8604C55.8431 27.8604 55.1288 27.6387 54.6854 27.4417C52.1977 26.3825 51.3848 23.5253 51.3848 21.1114C51.3848 20.4217 51.3848 16.6038 54.3406 15.1013C55.3505 14.5841 56.3358 14.5594 56.7052 14.5594C57.5427 14.5594 59.0945 14.6333 60.3999 16.2097C60.7448 16.6285 61.0896 17.2196 61.1635 17.3674L66.9027 14.658C66.1391 13.3525 65.7203 12.8352 65.1785 12.2933C63.0109 10.0272 59.9073 9.26367 56.8776 9.26367C56.2619 9.2883 54.7101 9.2883 53.0598 9.73167Z" fill="url(#paint0_linear_217_15549)"/>
<path d="M116.289 48.9951V46.8521H116.683C117.003 46.8521 117.397 46.8767 117.668 47.0492C118.038 47.2955 118.038 47.8374 118.038 47.9359C118.038 48.4778 117.816 48.6995 117.594 48.8226C117.249 49.0197 116.707 48.9951 116.634 48.9951H116.289ZM116.313 52.4435V49.7094H116.806C117.299 49.7094 117.791 49.6847 118.21 49.3645C118.776 48.9212 118.826 48.133 118.826 47.9359C118.826 47.4186 118.653 47.0738 118.53 46.9014C118.062 46.2117 117.274 46.1871 116.535 46.1871H115.525V52.4681H116.313V52.4435ZM108.678 46.1624V50.0542C108.678 50.5715 108.702 50.7932 108.776 51.0395C109.121 52.4927 110.574 52.542 110.968 52.542C111.732 52.542 112.2 52.3449 112.471 52.1725C112.693 52.0247 113.111 51.6799 113.284 50.9902C113.382 50.5961 113.358 50.0788 113.358 50.0049V46.1624H112.594V49.8818C112.594 50.4976 112.594 51.138 112.027 51.5321C111.855 51.6553 111.559 51.803 111.067 51.803C110.919 51.803 110.55 51.803 110.18 51.606C110.082 51.5567 109.885 51.4336 109.761 51.2119C109.589 50.9656 109.54 50.67 109.515 50.0542V46.1871H108.678V46.1624ZM103.899 51.803C102.791 51.8523 102.2 51.2612 101.929 50.9409C101.436 50.3005 101.387 49.5862 101.387 49.3153C101.387 48.9704 101.461 48.0344 102.273 47.3694C102.52 47.1723 103.012 46.8275 103.825 46.8275C104.81 46.8275 105.673 47.3447 106.067 48.2561C106.264 48.6995 106.264 49.1182 106.264 49.3153C106.264 50.4483 105.648 51.0887 105.328 51.335C104.761 51.7291 104.145 51.7784 103.899 51.803ZM103.825 52.542C105.155 52.5174 106.313 51.803 106.83 50.5715C107.077 50.0049 107.101 49.4877 107.101 49.2414C107.101 48.8226 107.003 47.6896 106.042 46.8275C105.205 46.0639 104.219 46.0393 103.825 46.0393C102.421 46.0393 101.608 46.7536 101.264 47.197C100.598 48.0098 100.525 48.9212 100.525 49.2906C100.525 50.5961 101.214 51.7784 102.446 52.2957C103.062 52.542 103.604 52.542 103.825 52.542ZM96.5835 48.8719V46.8521H97.224C97.6427 46.8521 98.0861 46.8767 98.357 47.2709C98.4802 47.4679 98.5048 47.6403 98.5048 47.862C98.5048 48.3546 98.2585 48.601 98.0614 48.6995C97.8398 48.8226 97.5195 48.8473 97.0023 48.8719H96.5835ZM99.4654 52.4435L97.7412 49.5123C97.8398 49.4877 98.1846 49.4384 98.4802 49.2906C98.7019 49.1675 98.8004 49.0443 98.8989 48.9704C99.2684 48.5271 99.293 48.0098 99.293 47.8127C99.293 47.2955 99.1206 46.9753 98.9974 46.8029C98.6526 46.3349 98.16 46.2117 97.5934 46.1624C97.4456 46.1624 97.2732 46.1624 97.1254 46.1624H95.7953V52.4435H96.5835V49.5616H96.9284L98.5541 52.4435H99.4654ZM93.9233 47.2709C93.7509 47.0738 93.6278 46.926 93.4061 46.7536C92.5686 46.0885 91.7558 46.0393 91.3617 46.0393C89.9823 46.0393 89.1695 46.7536 88.8246 47.1477C88.0857 47.9852 88.0364 48.8965 88.0364 49.3153C88.0364 50.6207 88.7754 51.7784 89.9823 52.271C90.5242 52.4927 91.0168 52.5174 91.2385 52.5174C91.9528 52.5174 92.4455 52.271 92.6918 52.1479C93.0859 51.9262 93.3076 51.6799 93.4061 51.5321C93.9726 50.8178 94.0711 49.9064 94.0958 49.6355C94.0958 49.4631 94.0958 49.3153 94.0958 49.1428H91.5341V49.9064H93.209C93.209 50.1527 93.1844 50.2513 93.1598 50.3744C93.012 50.8917 92.6425 51.3597 92.1745 51.5814C91.805 51.7538 91.4109 51.7784 91.2878 51.7784C90.3025 51.7784 89.4404 51.2365 89.071 50.3005C88.8985 49.8818 88.8985 49.4877 88.8985 49.3399C88.8985 48.33 89.4404 47.4186 90.3764 46.9999C90.5242 46.926 90.8937 46.8029 91.337 46.8029C92.1745 46.8029 92.7164 47.2216 92.9381 47.4186C93.1351 47.5911 93.2829 47.7635 93.3322 47.8374L93.9233 47.2709ZM80.4007 51.2119C80.4992 51.4336 80.5485 51.606 80.6963 51.7784C81.1643 52.4435 81.8786 52.5174 82.1495 52.5174C82.8885 52.5174 83.4796 52.0986 83.7506 51.4089C83.8737 51.1134 83.8737 50.867 83.8737 50.7439C83.8737 50.2759 83.7013 49.9064 83.6028 49.7586C83.3811 49.4138 83.1101 49.2414 82.7653 49.0197L82.1249 48.6995C81.7061 48.4532 81.5584 48.33 81.4352 48.1083C81.3859 48.0344 81.3367 47.9113 81.3367 47.6896C81.3367 47.4679 81.4106 47.197 81.5584 47.0245C81.78 46.8029 82.1002 46.7536 82.1988 46.7536C82.716 46.7536 82.987 47.197 83.0609 47.3201C83.0855 47.3694 83.1101 47.4186 83.1348 47.4679L83.7752 47.0984C83.7013 46.9506 83.652 46.8521 83.5289 46.6797C83.3565 46.458 82.9377 46.0393 82.1741 46.0393C81.1889 46.0393 80.7948 46.729 80.6716 47.0738C80.5977 47.2709 80.5731 47.4925 80.5731 47.7142C80.5731 48.33 80.8194 48.6748 80.9918 48.8719C81.2135 49.1182 81.583 49.3399 81.8786 49.5123L82.2234 49.6847C82.6668 49.9557 83.0855 50.202 83.0855 50.7932C83.0855 50.9163 83.0855 51.2858 82.8146 51.5567C82.6175 51.7538 82.4205 51.8523 82.1495 51.8523C81.5337 51.8523 81.2628 51.4089 81.0904 50.8917L80.4007 51.2119ZM78.9721 46.458C78.8735 46.4087 78.7504 46.3595 78.6518 46.3102C78.0607 46.0885 77.4942 46.0393 77.2725 46.0393C75.967 46.0393 74.834 46.8275 74.4152 48.0837C74.2428 48.601 74.2182 49.0689 74.2182 49.266C74.2182 50.6454 74.9079 51.4582 75.3266 51.803C76.0902 52.4681 76.903 52.5174 77.2725 52.5174C77.9622 52.5174 78.5533 52.2957 78.775 52.1971C78.8735 52.1479 78.9721 52.0986 79.0706 52.0494V51.0641C78.9721 51.1626 78.8735 51.2612 78.7504 51.3597C78.3563 51.6306 77.839 51.803 77.371 51.803C76.4104 51.803 75.5975 51.2365 75.2281 50.3498C75.031 49.8818 75.0064 49.4877 75.0064 49.2906C75.0064 48.5763 75.2773 47.8127 75.8192 47.3201C76.3857 46.8029 76.9769 46.7782 77.2478 46.7782C77.5434 46.7782 77.9868 46.8275 78.5779 47.1477C78.7011 47.2216 78.7996 47.2709 78.9228 47.3447V46.458H78.9721ZM72.6418 46.1624H71.8536V52.4435H72.6418V46.1624ZM69.0456 52.4435V46.9014H70.5974V46.1624H66.7056V46.9014H68.2327V52.4435H69.0456ZM62.1488 51.2119C62.2473 51.4336 62.2966 51.606 62.4443 51.7784C62.9123 52.4435 63.6266 52.5174 63.8976 52.5174C64.6365 52.5174 65.2277 52.0986 65.4986 51.4089C65.6218 51.1134 65.6218 50.867 65.6218 50.7439C65.6218 50.2759 65.4494 49.9064 65.3508 49.7586C65.1292 49.4138 64.8582 49.2414 64.5134 49.0197L63.8976 48.6748C63.4789 48.4285 63.3311 48.3054 63.2079 48.0837C63.1586 48.0098 63.1094 47.8866 63.1094 47.665C63.1094 47.4433 63.1833 47.1723 63.3311 46.9999C63.5528 46.7782 63.873 46.729 63.9715 46.729C64.4887 46.729 64.7597 47.1723 64.8336 47.2955C64.8582 47.3447 64.8829 47.394 64.9075 47.4433L65.5479 47.0738C65.474 46.926 65.4248 46.8275 65.3016 46.6551C65.1292 46.4334 64.7104 46.0146 63.9469 46.0146C62.9616 46.0146 62.5675 46.7043 62.4443 47.0492C62.3704 47.2462 62.3458 47.4679 62.3458 47.6896C62.3458 48.3054 62.5921 48.6502 62.7645 48.8473C62.9862 49.0936 63.3557 49.3153 63.6513 49.4877L63.9961 49.6601C64.4395 49.931 64.8582 50.1774 64.8582 50.7685C64.8582 50.8917 64.8582 51.2611 64.5873 51.5321C64.3902 51.7291 64.1932 51.8277 63.9222 51.8277C63.3064 51.8277 63.0355 51.3843 62.8631 50.867L62.1488 51.2119ZM60.2275 46.1624H59.4393V52.4435H60.2275V46.1624ZM57.5919 47.2709C57.4195 47.0738 57.2964 46.926 57.0747 46.7536C56.2372 46.0885 55.4244 46.0393 55.0303 46.0393C53.6509 46.0393 52.8381 46.7536 52.4932 47.1477C51.7543 47.9852 51.705 48.8965 51.705 49.3153C51.705 50.6207 52.444 51.7784 53.6509 52.271C54.1928 52.4927 54.6854 52.5174 54.9071 52.5174C55.6214 52.5174 56.114 52.271 56.3604 52.1479C56.7545 51.9262 56.9762 51.6799 57.0747 51.5321C57.6412 50.8178 57.7397 49.9064 57.7644 49.6355C57.7644 49.4631 57.7644 49.3153 57.7644 49.1428H55.2027V49.9064H56.8776C56.8776 50.1527 56.853 50.2513 56.8284 50.3744C56.6806 50.8917 56.3111 51.3597 55.8431 51.5814C55.4736 51.7538 55.0795 51.7784 54.9564 51.7784C53.9711 51.7784 53.109 51.2365 52.7395 50.3005C52.5671 49.8818 52.5671 49.4877 52.5671 49.3399C52.5671 48.33 53.109 47.4186 54.045 46.9999C54.1928 46.926 54.5623 46.8029 55.0056 46.8029C55.8431 46.8029 56.385 47.2216 56.6067 47.4186C56.8037 47.5911 56.9515 47.7635 57.0008 47.8374L57.5919 47.2709ZM47.3452 51.803C46.2368 51.8523 45.6457 51.2612 45.3747 50.9409C44.8821 50.3005 44.8328 49.5862 44.8328 49.3153C44.8328 48.9704 44.9067 48.0344 45.7196 47.3694C45.9659 47.1723 46.4585 46.8275 47.2714 46.8275C48.2566 46.8275 49.1187 47.3447 49.5128 48.2561C49.7099 48.6995 49.7099 49.1182 49.7099 49.3153C49.7099 50.4483 49.0941 51.0887 48.7739 51.335C48.2074 51.7291 47.5916 51.7784 47.3452 51.803ZM47.2714 52.542C48.6015 52.5174 49.7591 51.803 50.2764 50.5715C50.5227 50.0049 50.5473 49.4877 50.5473 49.2414C50.5473 48.8226 50.4488 47.6896 49.4882 46.8275C48.6507 46.0639 47.6655 46.0393 47.2714 46.0393C45.8674 46.0393 45.0545 46.7536 44.7097 47.197C44.0446 48.0098 43.9707 48.9212 43.9707 49.2906C43.9707 50.5961 44.6604 51.7784 45.892 52.2957C46.5078 52.542 47.0497 52.542 47.2714 52.542ZM43.2564 52.4435V51.7291H41.2366V46.1624H40.4484V52.4435H43.2564ZM36.0394 52.4435V51.7045H33.527V49.3645H35.9901V48.6748H33.527V46.926H36.0148V46.1871H32.7388V52.4681H36.0394V52.4435ZM27.246 51.2119C27.3445 51.4336 27.3938 51.606 27.5416 51.7784C28.0095 52.4435 28.7239 52.5174 28.9948 52.5174C29.7338 52.5174 30.3249 52.0986 30.5959 51.4089C30.719 51.1134 30.719 50.867 30.719 50.7439C30.719 50.2759 30.5466 49.9064 30.4481 49.7586C30.2264 49.4138 29.9554 49.2414 29.6106 49.0197L28.9948 48.6748C28.5761 48.4285 28.4283 48.3054 28.3051 48.0837C28.2559 48.0098 28.2066 47.8866 28.2066 47.665C28.2066 47.4433 28.2805 47.1723 28.4283 46.9999C28.65 46.7782 28.9702 46.729 29.0687 46.729C29.586 46.729 29.8569 47.1723 29.9308 47.2955C29.9554 47.3447 29.9801 47.394 30.0047 47.4433L30.6451 47.0738C30.5712 46.926 30.522 46.8275 30.3988 46.6551C30.2264 46.4334 29.8076 46.0146 29.0441 46.0146C28.0588 46.0146 27.6647 46.7043 27.5416 47.0492C27.4677 47.2462 27.443 47.4679 27.443 47.6896C27.443 48.3054 27.6893 48.6502 27.8618 48.8473C28.0834 49.0936 28.4529 49.3153 28.7485 49.4877L29.0933 49.6601C29.5367 49.931 29.9554 50.1774 29.9554 50.7685C29.9554 50.8917 29.9554 51.2611 29.6845 51.5321C29.4874 51.7291 29.2904 51.8277 29.0194 51.8277C28.4037 51.8277 28.1327 51.3843 27.9603 50.867L27.246 51.2119ZM22.9355 48.8719V46.8521H23.5759C23.9946 46.8521 24.438 46.8767 24.7089 47.2709C24.8321 47.4679 24.8567 47.6403 24.8567 47.862C24.8567 48.3546 24.6104 48.601 24.4134 48.6995C24.1917 48.8226 23.8715 48.8473 23.3542 48.8719H22.9355ZM25.842 52.4435L24.1178 49.5123C24.2163 49.4877 24.5611 49.4384 24.8567 49.2906C25.0784 49.1675 25.1769 49.0443 25.2755 48.9704C25.6449 48.5271 25.6696 48.0098 25.6696 47.8127C25.6696 47.2955 25.4971 46.9753 25.374 46.8029C25.0291 46.3349 24.5365 46.2117 23.97 46.1624C23.8222 46.1624 23.6498 46.1624 23.4774 46.1624H22.1473V52.4435H22.9355V49.5616H23.2803L24.906 52.4435H25.842ZM20.1028 52.4435V51.7045H17.6151V49.3645H20.0782V48.6748H17.6151V46.926H20.1028V46.1871H16.8022V52.4681H20.1028V52.4435ZM13.0336 52.5912L15.5707 46.1624H14.7578L13.4031 49.6847C13.3046 49.9064 13.2307 50.1281 13.1568 50.3252C13.0829 50.5222 13.0336 50.6946 12.9844 50.8917C12.9105 50.6207 12.8366 50.3498 12.738 50.0542C12.6395 49.7094 12.5164 49.3892 12.3932 49.0443L11.2848 46.1378H10.398L12.8858 52.5666H13.0336V52.5912ZM9.24037 52.4435V51.7045H6.72796V49.3645H9.19111V48.6748H6.72796V46.926H9.21574V46.1871H5.93975V52.4681H9.24037V52.4435ZM1.40756 48.8719V46.8521H2.04798C2.46672 46.8521 2.91008 46.8767 3.18103 47.2709C3.30419 47.4679 3.32882 47.6403 3.32882 47.862C3.32882 48.3546 3.0825 48.601 2.88545 48.6995C2.66377 48.8226 2.34356 48.8473 1.8263 48.8719H1.40756ZM4.28945 52.4435L2.56524 49.5123C2.66377 49.4877 3.00861 49.4384 3.30419 49.2906C3.52587 49.1675 3.6244 49.0443 3.72292 48.9704C4.09239 48.5271 4.11703 48.0098 4.11703 47.8127C4.11703 47.2955 3.94461 46.9753 3.82145 46.8029C3.47661 46.3349 2.98398 46.2117 2.41746 46.1624C2.24503 46.1624 2.09725 46.1624 1.92483 46.1624H0.594727V52.4435H1.38293V49.5616H1.72777L3.37808 52.4435H4.28945Z" fill="#555965"/>
</g>
<defs>
<linearGradient id="paint0_linear_217_15549" x1="38.908" y1="32.9001" x2="38.908" y2="9.28572" gradientUnits="userSpaceOnUse">
<stop stop-color="#232E3B"/>
<stop offset="0.2067" stop-color="#283340"/>
<stop offset="0.5436" stop-color="#38424F"/>
<stop offset="0.9667" stop-color="#565E6A"/>
<stop offset="1" stop-color="#59616D"/>
</linearGradient>
<clipPath id="clip0_217_15549">
<rect width="118.231" height="51.6768" fill="white" transform="translate(0.594727 0.914062)"/>
</clipPath>
</defs>
</svg>
