<svg width="1279" height="601" viewBox="0 0 1279 601" fill="none" xmlns="http://www.w3.org/2000/svg">
<rect x="0.5" y="0.422852" width="1278" height="600" fill="#D9D9D9"/>
<path d="M501.865 281.676L515.945 243.176H523.865L537.945 281.676H530.465L527.385 272.766H512.37L509.235 281.676H501.865ZM514.295 267.266H525.46L519.85 251.261L514.295 267.266ZM541.969 281.676V243.176H549.009L567.104 270.291V243.176H574.144V281.676H567.104L549.009 254.616V281.676H541.969ZM580.673 281.676V243.176H587.713V281.676H580.673ZM594.24 281.676V243.176H602.6L614.865 267.596L626.965 243.176H635.325V281.676H628.285V255.111L617.56 276.176H612.005L601.28 255.111V281.676H594.24ZM639.384 281.676L653.464 243.176H661.384L675.464 281.676H667.984L664.904 272.766H649.889L646.754 281.676H639.384ZM651.814 267.266H662.979L657.369 251.261L651.814 267.266ZM694.722 282.336C690.835 282.336 687.498 281.511 684.712 279.861C681.925 278.174 679.78 275.846 678.277 272.876C676.773 269.869 676.022 266.404 676.022 262.481C676.022 258.557 676.773 255.092 678.277 252.086C679.78 249.079 681.925 246.732 684.712 245.046C687.498 243.359 690.835 242.516 694.722 242.516C699.342 242.516 703.118 243.671 706.052 245.981C709.022 248.254 710.873 251.462 711.607 255.606H703.852C703.375 253.516 702.348 251.884 700.772 250.711C699.232 249.501 697.178 248.896 694.612 248.896C691.055 248.896 688.268 250.106 686.252 252.526C684.235 254.946 683.227 258.264 683.227 262.481C683.227 266.697 684.235 270.016 686.252 272.436C688.268 274.819 691.055 276.011 694.612 276.011C697.178 276.011 699.232 275.461 700.772 274.361C702.348 273.224 703.375 271.666 703.852 269.686H711.607C710.873 273.646 709.022 276.744 706.052 278.981C703.118 281.217 699.342 282.336 694.722 282.336ZM726.968 282.336C723.228 282.336 720.222 281.291 717.948 279.201C715.712 277.074 714.593 274.067 714.593 270.181H721.633C721.67 271.977 722.092 273.407 722.898 274.471C723.705 275.534 725.007 276.066 726.803 276.066C728.49 276.066 729.718 275.571 730.488 274.581C731.258 273.554 731.643 272.216 731.643 270.566V243.176H738.683V270.566C738.683 274.342 737.62 277.257 735.493 279.311C733.403 281.327 730.562 282.336 726.968 282.336ZM741.101 281.676L755.181 243.176H763.101L777.181 281.676H769.701L766.621 272.766H751.606L748.471 281.676H741.101ZM753.531 267.266H764.696L759.086 251.261L753.531 267.266Z" fill="black"/>
</svg>
