<svg width="651" height="160" viewBox="0 0 651 160" fill="none" xmlns="http://www.w3.org/2000/svg">
<g clip-path="url(#clip0_0_4973)">
<path d="M112.241 0H0V112.676H112.241V0Z" fill="#1D1D1D"/>
<path fill-rule="evenodd" clip-rule="evenodd" d="M48.827 56.3871C48.827 56.3871 44.4806 58.0754 39.1352 58.0754C33.7898 58.0754 29.4436 56.3871 29.4436 56.3871C29.4436 56.3871 33.7898 54.6987 39.1352 54.6987C44.4806 54.6987 48.827 56.3871 48.827 56.3871Z" fill="#FFCC05"/>
<path fill-rule="evenodd" clip-rule="evenodd" d="M62.2323 31.5644C62.2323 31.5644 58.3856 28.9567 55.3883 24.5767C52.3908 20.197 51.3916 15.7002 51.3916 15.7002C51.3916 15.7002 55.2383 18.308 58.2356 22.6878C61.2332 27.0675 62.2323 31.5644 62.2323 31.5644Z" fill="#FFCC05"/>
<path fill-rule="evenodd" clip-rule="evenodd" d="M52.4072 42.2791C52.4072 42.2791 47.7777 41.7611 43.0485 39.2869C38.3193 36.8128 35.2886 33.3022 35.2886 33.3022C35.2886 33.3022 39.9179 33.8206 44.647 36.2947C49.3764 38.7686 52.4072 42.2791 52.4072 42.2791Z" fill="#FFCC05"/>
<path fill-rule="evenodd" clip-rule="evenodd" d="M62.2323 81.1128C62.2323 81.1128 58.3856 83.7206 55.3883 88.1003C52.3908 92.48 51.3916 96.9769 51.3916 96.9769C51.3916 96.9769 55.2383 94.3691 58.2356 89.9894C61.2332 85.6095 62.2323 81.1128 62.2323 81.1128Z" fill="#FFCC05"/>
<path fill-rule="evenodd" clip-rule="evenodd" d="M52.4072 70.396C52.4072 70.396 47.7777 70.9141 43.0485 73.3882C38.3193 75.8624 35.2886 79.3729 35.2886 79.3729C35.2886 79.3729 39.9179 78.8546 44.647 76.3807C49.3764 73.9065 52.4072 70.396 52.4072 70.396Z" fill="#FFCC05"/>
<path fill-rule="evenodd" clip-rule="evenodd" d="M63.6648 64.5115C67.1617 73.4884 72.7736 79.9245 82.7983 81.4456C81.6494 81.5961 80.5003 81.6964 79.3013 81.6964C65.097 81.7633 53.5235 70.4626 53.4571 56.454C53.3904 42.4453 64.8637 31.0445 79.0683 30.9775C80.3337 30.9775 81.5827 31.0611 82.7983 31.2284C71.3082 32.6661 63.6481 41.6094 62.1329 53.0104C61.65 59.9479 69.7096 62.2882 69.7096 62.2882C69.7096 62.2882 66.4124 64.4446 63.6648 64.4948V64.5115Z" fill="#FFCC05"/>
<path d="M651 0H224.483V112.676H651V0Z" fill="#00D46B"/>
<path d="M280.345 85.6336H250.514V27.2679H280.345V39.8234H265.725V49.9187H278.147V62.3892H265.725V73.0781H280.345V85.6336ZM301.707 85.6336H286.496V27.2679H301.707V49.5793H302.805L310.073 27.2679H325.792L314.891 55.0935L325.96 85.6336H309.82L302.805 62.474H301.707V85.6336ZM345.926 86.3124C329.278 86.3124 326.997 82.8341 326.997 56.4508C326.997 30.0674 329.278 26.5894 345.926 26.5894C362.659 26.5894 364.939 30.0674 364.939 56.4508C364.939 82.8341 362.659 86.3124 345.926 86.3124ZM345.926 73.7569C349.56 73.7569 349.643 73.4175 349.643 56.4508C349.643 39.484 349.56 39.1446 345.926 39.1446C342.291 39.1446 342.291 39.484 342.291 56.4508C342.291 73.4175 342.291 73.7569 345.926 73.7569ZM403.202 85.6336H369.907V73.7569L385.964 39.8234H370.5V27.2679H403.202V38.9752L386.979 73.0781H403.202V85.6336ZM434.311 85.6336H413.692L406.594 27.2679H421.805L424.764 69.8545H425.523L430.255 27.2679H447.663L452.566 69.8545H453.327L455.862 27.2679H470.904L463.721 85.6336H443.102L439.046 49.8337H438.368L434.311 85.6336ZM490.36 85.6336H475.149V27.2679H496.531C510.135 27.2679 511.825 34.3092 511.825 46.8645C511.825 54.5844 511.149 60.3532 506.756 63.7465L513.179 85.6336H497.543L492.558 64.7645L494.248 66.2067C493.826 66.4611 493.319 66.4611 491.882 66.4611H490.36V85.6336ZM490.36 39.7387V54.4147H492.643C496.446 54.4147 496.531 53.2271 496.531 47.0342C496.531 40.5021 496.446 39.7387 492.643 39.7387H490.36ZM535.571 86.3124C518.923 86.3124 516.64 82.8341 516.64 56.4508C516.64 30.0674 518.923 26.5894 535.571 26.5894C552.302 26.5894 554.585 30.0674 554.585 56.4508C554.585 82.8341 552.302 86.3124 535.571 86.3124ZM535.571 73.7569C539.203 73.7569 539.288 73.4175 539.288 56.4508C539.288 39.484 539.203 39.1446 535.571 39.1446C531.936 39.1446 531.936 39.484 531.936 56.4508C531.936 73.4175 531.936 73.7569 535.571 73.7569ZM583.044 85.6336H567.748V40.2475H557.694V27.2679H593.101V40.2475H583.044V85.6336ZM621.97 85.6336H606.759V66.2067L593.492 27.2679H608.788L614.279 50.8519H615.04L620.279 27.2679H635.237L621.97 66.2067V85.6336Z" fill="#1D1D1D"/>
<path d="M359.168 150.986V129.65H363.289L363.694 132.489H363.976C364.461 131.84 365.027 131.272 365.673 130.785C366.347 130.272 367.101 129.879 367.936 129.609C368.798 129.312 369.741 129.163 370.765 129.163C372.112 129.163 373.297 129.406 374.321 129.893C375.371 130.38 376.193 131.164 376.785 132.246C377.378 133.327 377.674 134.774 377.674 136.586V150.986H372.704V137.478C372.704 136.721 372.61 136.099 372.421 135.612C372.26 135.099 372.004 134.693 371.654 134.395C371.33 134.071 370.926 133.841 370.442 133.706C369.957 133.571 369.418 133.503 368.825 133.503C367.936 133.503 367.128 133.719 366.401 134.152C365.7 134.585 365.135 135.18 364.704 135.937C364.3 136.694 364.098 137.573 364.098 138.574V150.986H359.168ZM388.221 151.473C387.628 151.473 386.941 151.392 386.16 151.229C385.406 151.094 384.665 150.824 383.937 150.418C383.237 150.012 382.658 149.417 382.2 148.633C381.742 147.822 381.513 146.767 381.513 145.469C381.513 144.009 381.836 142.806 382.483 141.859C383.129 140.886 384.032 140.128 385.19 139.588C386.375 139.02 387.776 138.628 389.392 138.411C391.036 138.168 392.827 138.046 394.766 138.046V136.302C394.766 135.68 394.672 135.126 394.484 134.639C394.295 134.152 393.945 133.774 393.433 133.503C392.948 133.206 392.207 133.057 391.211 133.057C390.214 133.057 389.433 133.179 388.867 133.422C388.301 133.665 387.911 133.963 387.695 134.314C387.48 134.666 387.372 135.031 387.372 135.41V135.977H382.604C382.577 135.842 382.564 135.707 382.564 135.572C382.564 135.437 382.564 135.274 382.564 135.085C382.564 133.868 382.927 132.814 383.655 131.921C384.382 131.029 385.392 130.353 386.685 129.893C387.978 129.406 389.473 129.163 391.17 129.163C393.11 129.163 394.699 129.433 395.938 129.974C397.204 130.515 398.147 131.286 398.767 132.286C399.386 133.287 399.696 134.504 399.696 135.937V145.997C399.696 146.51 399.844 146.875 400.141 147.092C400.437 147.308 400.76 147.416 401.11 147.416H402.403V150.824C402.134 150.932 401.743 151.054 401.232 151.189C400.72 151.351 400.087 151.432 399.332 151.432C398.632 151.432 397.999 151.31 397.433 151.067C396.895 150.851 396.437 150.526 396.059 150.094C395.682 149.661 395.413 149.147 395.251 148.552H395.009C394.551 149.12 393.999 149.634 393.352 150.094C392.733 150.526 391.992 150.864 391.13 151.108C390.295 151.351 389.325 151.473 388.221 151.473ZM389.716 147.416C390.524 147.416 391.238 147.295 391.857 147.051C392.504 146.808 393.029 146.47 393.433 146.037C393.864 145.604 394.187 145.077 394.403 144.455C394.645 143.833 394.766 143.157 394.766 142.427V141.454C393.285 141.454 391.911 141.548 390.645 141.737C389.406 141.927 388.409 142.278 387.655 142.792C386.928 143.306 386.564 144.036 386.564 144.983C386.564 145.469 386.672 145.902 386.887 146.281C387.13 146.632 387.48 146.916 387.938 147.132C388.423 147.322 389.015 147.416 389.716 147.416ZM421.59 151.473C420.054 151.473 418.708 151.31 417.549 150.986C416.391 150.634 415.421 150.161 414.64 149.566C413.859 148.971 413.266 148.282 412.862 147.497C412.485 146.686 412.296 145.807 412.296 144.861C412.296 144.726 412.296 144.604 412.296 144.496C412.323 144.388 412.337 144.306 412.337 144.252H417.186C417.186 144.306 417.186 144.361 417.186 144.415C417.186 144.469 417.186 144.523 417.186 144.577C417.212 145.307 417.441 145.902 417.872 146.362C418.303 146.794 418.869 147.105 419.57 147.295C420.27 147.484 421.011 147.579 421.792 147.579C422.492 147.579 423.152 147.511 423.772 147.376C424.418 147.214 424.944 146.97 425.348 146.646C425.779 146.294 425.994 145.848 425.994 145.307C425.994 144.604 425.725 144.063 425.186 143.684C424.647 143.306 423.933 142.995 423.045 142.752C422.183 142.508 421.253 142.251 420.256 141.981C419.368 141.737 418.479 141.467 417.59 141.17C416.701 140.872 415.893 140.494 415.165 140.034C414.465 139.574 413.886 138.979 413.428 138.249C412.997 137.519 412.781 136.613 412.781 135.531C412.781 134.477 413.01 133.557 413.468 132.773C413.926 131.989 414.559 131.34 415.367 130.826C416.175 130.285 417.132 129.879 418.236 129.609C419.341 129.339 420.539 129.203 421.832 129.203C423.098 129.203 424.243 129.339 425.267 129.609C426.317 129.879 427.22 130.272 427.974 130.785C428.755 131.272 429.348 131.881 429.752 132.611C430.183 133.314 430.399 134.098 430.399 134.963C430.399 135.153 430.385 135.342 430.358 135.531C430.358 135.721 430.358 135.829 430.358 135.856H425.55V135.572C425.55 135.058 425.388 134.625 425.065 134.274C424.769 133.895 424.324 133.598 423.731 133.381C423.166 133.165 422.452 133.057 421.59 133.057C420.943 133.057 420.378 133.111 419.893 133.219C419.408 133.327 419.004 133.476 418.681 133.665C418.384 133.855 418.155 134.071 417.994 134.314C417.832 134.558 417.751 134.828 417.751 135.126C417.751 135.639 417.953 136.045 418.357 136.343C418.761 136.64 419.3 136.897 419.974 137.113C420.674 137.33 421.428 137.559 422.236 137.803C423.206 138.073 424.203 138.357 425.227 138.655C426.25 138.925 427.193 139.277 428.055 139.709C428.944 140.142 429.658 140.75 430.197 141.535C430.735 142.319 431.005 143.36 431.005 144.658C431.005 145.902 430.762 146.97 430.277 147.863C429.819 148.728 429.159 149.431 428.297 149.972C427.462 150.486 426.466 150.864 425.307 151.108C424.176 151.351 422.937 151.473 421.59 151.473ZM440.785 151.473C439.465 151.473 438.428 151.216 437.674 150.702C436.92 150.161 436.381 149.485 436.058 148.674C435.761 147.835 435.613 146.984 435.613 146.118V133.706H433.068V129.65H435.735L436.623 123.687H440.543V129.65H444.22V133.706H440.543V145.632C440.543 146.199 440.691 146.646 440.987 146.97C441.284 147.268 441.728 147.416 442.321 147.416H444.22V150.824C443.951 150.932 443.614 151.026 443.21 151.108C442.833 151.216 442.429 151.297 441.998 151.351C441.567 151.432 441.163 151.473 440.785 151.473ZM447.875 150.986V129.65H451.996L452.4 133.016H452.683C452.952 132.34 453.276 131.718 453.653 131.15C454.057 130.555 454.569 130.082 455.188 129.731C455.808 129.352 456.562 129.163 457.451 129.163C457.882 129.163 458.273 129.203 458.623 129.284C459 129.366 459.283 129.447 459.471 129.528V134.193H457.976C457.141 134.193 456.4 134.314 455.754 134.558C455.107 134.774 454.555 135.126 454.097 135.612C453.666 136.099 453.343 136.708 453.127 137.438C452.912 138.168 452.804 139.02 452.804 139.993V150.986H447.875ZM467.573 151.473C466.98 151.473 466.293 151.392 465.512 151.229C464.758 151.094 464.017 150.824 463.29 150.418C462.589 150.012 462.01 149.417 461.552 148.633C461.094 147.822 460.865 146.767 460.865 145.469C460.865 144.009 461.189 142.806 461.835 141.859C462.482 140.886 463.384 140.128 464.542 139.588C465.728 139.02 467.128 138.628 468.745 138.411C470.388 138.168 472.179 138.046 474.119 138.046V136.302C474.119 135.68 474.025 135.126 473.836 134.639C473.647 134.152 473.297 133.774 472.785 133.503C472.301 133.206 471.56 133.057 470.563 133.057C469.566 133.057 468.785 133.179 468.219 133.422C467.654 133.665 467.263 133.963 467.048 134.314C466.832 134.666 466.724 135.031 466.724 135.41V135.977H461.956C461.929 135.842 461.916 135.707 461.916 135.572C461.916 135.437 461.916 135.274 461.916 135.085C461.916 133.868 462.28 132.814 463.007 131.921C463.734 131.029 464.744 130.353 466.037 129.893C467.33 129.406 468.826 129.163 470.523 129.163C472.462 129.163 474.052 129.433 475.291 129.974C476.557 130.515 477.5 131.286 478.119 132.286C478.739 133.287 479.049 134.504 479.049 135.937V145.997C479.049 146.51 479.197 146.875 479.493 147.092C479.789 147.308 480.113 147.416 480.463 147.416H481.756V150.824C481.486 150.932 481.096 151.054 480.584 151.189C480.072 151.351 479.439 151.432 478.685 151.432C477.984 151.432 477.351 151.31 476.786 151.067C476.247 150.851 475.789 150.526 475.412 150.094C475.035 149.661 474.765 149.147 474.604 148.552H474.361C473.903 149.12 473.351 149.634 472.705 150.094C472.085 150.526 471.344 150.864 470.482 151.108C469.647 151.351 468.677 151.473 467.573 151.473ZM469.068 147.416C469.876 147.416 470.59 147.295 471.21 147.051C471.856 146.808 472.381 146.47 472.785 146.037C473.216 145.604 473.54 145.077 473.755 144.455C473.998 143.833 474.119 143.157 474.119 142.427V141.454C472.637 141.454 471.263 141.548 469.997 141.737C468.758 141.927 467.762 142.278 467.007 142.792C466.28 143.306 465.916 144.036 465.916 144.983C465.916 145.469 466.024 145.902 466.24 146.281C466.482 146.632 466.832 146.916 467.29 147.132C467.775 147.322 468.368 147.416 469.068 147.416ZM482.914 150.986V148.674L493.662 133.706H483.601V129.65H500.855V131.921L490.066 146.93H501.299V150.986H482.914ZM489.824 126.486V121.78H494.672V126.486H489.824ZM507.96 158.368C506.963 158.368 506.155 158.287 505.535 158.125C504.916 157.99 504.565 157.909 504.485 157.882V154.353H506.747C507.313 154.353 507.879 154.204 508.445 153.906C509.01 153.609 509.522 153.203 509.98 152.69C510.438 152.176 510.775 151.608 510.99 150.986L502.707 129.65H507.879L511.839 139.872C512.027 140.331 512.216 140.913 512.404 141.616C512.62 142.319 512.835 143.049 513.051 143.806C513.266 144.536 513.441 145.199 513.576 145.794H513.778C513.886 145.388 514.007 144.928 514.142 144.415C514.277 143.901 514.411 143.374 514.546 142.833C514.708 142.292 514.869 141.764 515.031 141.251C515.192 140.737 515.327 140.291 515.435 139.912L518.667 129.65H523.678L516.566 149.891C516.162 151.026 515.704 152.108 515.192 153.136C514.708 154.163 514.128 155.069 513.455 155.854C512.808 156.638 512.027 157.246 511.111 157.679C510.222 158.139 509.172 158.368 507.96 158.368ZM542.889 151.473C541.354 151.473 540.007 151.31 538.848 150.986C537.69 150.634 536.72 150.161 535.939 149.566C535.158 148.971 534.565 148.282 534.161 147.497C533.784 146.686 533.596 145.807 533.596 144.861C533.596 144.726 533.596 144.604 533.596 144.496C533.622 144.388 533.636 144.306 533.636 144.252H538.485C538.485 144.306 538.485 144.361 538.485 144.415C538.485 144.469 538.485 144.523 538.485 144.577C538.512 145.307 538.741 145.902 539.172 146.362C539.603 146.794 540.168 147.105 540.869 147.295C541.569 147.484 542.31 147.579 543.091 147.579C543.792 147.579 544.452 147.511 545.071 147.376C545.718 147.214 546.243 146.97 546.647 146.646C547.078 146.294 547.294 145.848 547.294 145.307C547.294 144.604 547.024 144.063 546.485 143.684C545.947 143.306 545.233 142.995 544.344 142.752C543.482 142.508 542.552 142.251 541.556 141.981C540.667 141.737 539.778 141.467 538.889 141.17C538 140.872 537.192 140.494 536.464 140.034C535.764 139.574 535.185 138.979 534.727 138.249C534.296 137.519 534.08 136.613 534.08 135.531C534.08 134.477 534.309 133.557 534.767 132.773C535.225 131.989 535.858 131.34 536.666 130.826C537.475 130.285 538.431 129.879 539.535 129.609C540.64 129.339 541.839 129.203 543.132 129.203C544.398 129.203 545.543 129.339 546.566 129.609C547.617 129.879 548.519 130.272 549.273 130.785C550.055 131.272 550.647 131.881 551.051 132.611C551.482 133.314 551.698 134.098 551.698 134.963C551.698 135.153 551.684 135.342 551.657 135.531C551.657 135.721 551.657 135.829 551.657 135.856H546.849V135.572C546.849 135.058 546.687 134.625 546.364 134.274C546.068 133.895 545.623 133.598 545.031 133.381C544.465 133.165 543.751 133.057 542.889 133.057C542.243 133.057 541.677 133.111 541.192 133.219C540.707 133.327 540.303 133.476 539.98 133.665C539.684 133.855 539.455 134.071 539.293 134.314C539.131 134.558 539.051 134.828 539.051 135.126C539.051 135.639 539.253 136.045 539.657 136.343C540.061 136.64 540.599 136.897 541.273 137.113C541.973 137.33 542.728 137.559 543.536 137.803C544.505 138.073 545.502 138.357 546.526 138.655C547.549 138.925 548.492 139.277 549.354 139.709C550.243 140.142 550.957 140.75 551.496 141.535C552.035 142.319 552.304 143.36 552.304 144.658C552.304 145.902 552.062 146.97 551.577 147.863C551.119 148.728 550.459 149.431 549.597 149.972C548.762 150.486 547.765 150.864 546.607 151.108C545.475 151.351 544.236 151.473 542.889 151.473ZM565.6 151.473C563.337 151.473 561.452 151.081 559.943 150.296C558.435 149.485 557.303 148.255 556.549 146.605C555.795 144.955 555.418 142.86 555.418 140.318C555.418 137.749 555.795 135.653 556.549 134.03C557.303 132.381 558.435 131.164 559.943 130.38C561.452 129.568 563.337 129.163 565.6 129.163C567.647 129.163 569.358 129.555 570.732 130.339C572.133 131.096 573.183 132.273 573.883 133.868C574.584 135.464 574.934 137.532 574.934 140.074V141.535H560.468C560.522 142.86 560.724 143.982 561.074 144.901C561.425 145.794 561.963 146.47 562.691 146.93C563.445 147.362 564.428 147.579 565.641 147.579C566.26 147.579 566.839 147.497 567.378 147.335C567.917 147.173 568.388 146.93 568.792 146.605C569.196 146.254 569.506 145.821 569.722 145.307C569.964 144.793 570.085 144.198 570.085 143.522H574.934C574.934 144.874 574.692 146.051 574.207 147.051C573.749 148.052 573.089 148.877 572.227 149.526C571.392 150.175 570.409 150.661 569.277 150.986C568.146 151.31 566.92 151.473 565.6 151.473ZM560.549 138.046H569.802C569.802 137.154 569.695 136.397 569.479 135.775C569.291 135.153 569.008 134.639 568.631 134.233C568.28 133.828 567.849 133.544 567.338 133.381C566.826 133.192 566.247 133.097 565.6 133.097C564.549 133.097 563.661 133.273 562.933 133.625C562.233 133.976 561.694 134.517 561.317 135.247C560.94 135.977 560.684 136.91 560.549 138.046ZM579.118 150.986V129.65H583.24L583.644 133.016H583.927C584.196 132.34 584.52 131.718 584.897 131.15C585.301 130.555 585.813 130.082 586.432 129.731C587.052 129.352 587.806 129.163 588.695 129.163C589.126 129.163 589.516 129.203 589.867 129.284C590.244 129.366 590.527 129.447 590.715 129.528V134.193H589.22C588.385 134.193 587.644 134.314 586.998 134.558C586.351 134.774 585.799 135.126 585.341 135.612C584.91 136.099 584.587 136.708 584.371 137.438C584.156 138.168 584.048 139.02 584.048 139.993V150.986H579.118ZM602.211 151.473C600.002 151.473 598.157 151.081 596.675 150.296C595.221 149.485 594.13 148.255 593.402 146.605C592.675 144.955 592.311 142.86 592.311 140.318C592.311 137.749 592.675 135.653 593.402 134.03C594.157 132.381 595.261 131.164 596.716 130.38C598.197 129.568 600.029 129.163 602.211 129.163C603.639 129.163 604.905 129.339 606.009 129.69C607.114 130.042 608.056 130.583 608.838 131.313C609.646 132.016 610.252 132.895 610.656 133.949C611.06 135.004 611.262 136.234 611.262 137.641H606.252C606.252 136.64 606.104 135.815 605.807 135.166C605.511 134.517 605.053 134.03 604.433 133.706C603.841 133.354 603.073 133.179 602.13 133.179C601.026 133.179 600.123 133.435 599.423 133.949C598.722 134.463 598.197 135.234 597.847 136.261C597.524 137.262 597.362 138.533 597.362 140.074V140.602C597.362 142.116 597.524 143.387 597.847 144.415C598.197 145.442 598.736 146.213 599.463 146.727C600.191 147.214 601.147 147.457 602.332 147.457C603.248 147.457 604.002 147.295 604.595 146.97C605.215 146.619 605.686 146.105 606.009 145.429C606.333 144.753 606.494 143.941 606.494 142.995H611.262C611.262 144.32 611.06 145.51 610.656 146.565C610.252 147.619 609.659 148.512 608.878 149.242C608.097 149.972 607.141 150.526 606.009 150.905C604.905 151.283 603.639 151.473 602.211 151.473ZM620.915 151.473C620.322 151.473 619.635 151.392 618.854 151.229C618.1 151.094 617.359 150.824 616.632 150.418C615.931 150.012 615.352 149.417 614.894 148.633C614.436 147.822 614.207 146.767 614.207 145.469C614.207 144.009 614.531 142.806 615.177 141.859C615.824 140.886 616.726 140.128 617.884 139.588C619.07 139.02 620.47 138.628 622.087 138.411C623.73 138.168 625.521 138.046 627.461 138.046V136.302C627.461 135.68 627.367 135.126 627.178 134.639C626.989 134.152 626.639 133.774 626.127 133.503C625.643 133.206 624.902 133.057 623.905 133.057C622.908 133.057 622.127 133.179 621.561 133.422C620.996 133.665 620.605 133.963 620.39 134.314C620.174 134.666 620.066 135.031 620.066 135.41V135.977H615.298C615.271 135.842 615.258 135.707 615.258 135.572C615.258 135.437 615.258 135.274 615.258 135.085C615.258 133.868 615.622 132.814 616.349 131.921C617.076 131.029 618.086 130.353 619.379 129.893C620.672 129.406 622.167 129.163 623.865 129.163C625.804 129.163 627.393 129.433 628.633 129.974C629.899 130.515 630.841 131.286 631.461 132.286C632.081 133.287 632.39 134.504 632.39 135.937V145.997C632.39 146.51 632.539 146.875 632.835 147.092C633.131 147.308 633.454 147.416 633.805 147.416H635.098V150.824C634.828 150.932 634.438 151.054 633.926 151.189C633.414 151.351 632.781 151.432 632.027 151.432C631.326 151.432 630.693 151.31 630.128 151.067C629.589 150.851 629.131 150.526 628.754 150.094C628.377 149.661 628.107 149.147 627.946 148.552H627.703C627.245 149.12 626.693 149.634 626.047 150.094C625.427 150.526 624.686 150.864 623.824 151.108C622.989 151.351 622.019 151.473 620.915 151.473ZM622.41 147.416C623.218 147.416 623.932 147.295 624.551 147.051C625.198 146.808 625.723 146.47 626.127 146.037C626.558 145.604 626.882 145.077 627.097 144.455C627.34 143.833 627.461 143.157 627.461 142.427V141.454C625.979 141.454 624.605 141.548 623.339 141.737C622.1 141.927 621.103 142.278 620.349 142.792C619.622 143.306 619.258 144.036 619.258 144.983C619.258 145.469 619.366 145.902 619.581 146.281C619.824 146.632 620.174 146.916 620.632 147.132C621.117 147.322 621.71 147.416 622.41 147.416Z" fill="#1D1D1D"/>
<path d="M224.483 0H112.241V112.676H224.483V0Z" fill="#FD5F2E"/>
<path d="M177.686 34.4961H171.47V40.7366H177.686V34.4961Z" fill="#1D1D1D"/>
<path d="M183.903 28.2559H177.687V34.4964H183.903V28.2559Z" fill="#1D1D1D"/>
<path d="M190.12 28.2559H183.903V34.4964H190.12V28.2559Z" fill="#1D1D1D"/>
<path d="M196.336 34.4961H190.12V40.7366H196.336V34.4961Z" fill="#1D1D1D"/>
<path d="M202.552 40.7368H196.336V46.9773H202.552V40.7368Z" fill="#1D1D1D"/>
<path d="M202.552 46.9775H196.336V53.2181H202.552V46.9775Z" fill="#1D1D1D"/>
<path d="M165.254 34.4961H159.038V40.7366H165.254V34.4961Z" fill="#1D1D1D"/>
<path d="M159.037 28.2559H152.821V34.4964H159.037V28.2559Z" fill="#1D1D1D"/>
<path d="M152.821 28.2559H146.604V34.4964H152.821V28.2559Z" fill="#1D1D1D"/>
<path d="M146.604 34.4961H140.388V40.7366H146.604V34.4961Z" fill="#1D1D1D"/>
<path d="M140.388 40.7368H134.172V46.9773H140.388V40.7368Z" fill="#1D1D1D"/>
<path d="M140.388 46.9775H134.172V53.2181H140.388V46.9775Z" fill="#1D1D1D"/>
<path d="M171.471 40.7368H165.254V46.9773H171.471V40.7368Z" fill="#1D1D1D"/>
<path d="M146.604 53.2173H140.388V59.4578H146.604V53.2173Z" fill="#1D1D1D"/>
<path d="M152.821 59.458H146.604V65.6985H152.821V59.458Z" fill="#1D1D1D"/>
<path d="M165.254 71.939H159.038V78.1795H165.254V71.939Z" fill="#1D1D1D"/>
<path d="M159.037 65.6987H152.821V71.9393H159.037V65.6987Z" fill="#1D1D1D"/>
<path d="M183.903 65.6987H177.687V71.9393H183.903V65.6987Z" fill="#1D1D1D"/>
<path d="M171.471 78.1802H165.254V84.4207H171.471V78.1802Z" fill="#1D1D1D"/>
<path d="M177.686 71.9395H171.47V78.18H177.686V71.9395Z" fill="#1D1D1D"/>
<path d="M190.12 59.4585H183.903V65.699H190.12V59.4585Z" fill="#1D1D1D"/>
<path d="M196.336 53.2173H190.12V59.4578H196.336V53.2173Z" fill="#1D1D1D"/>
</g>
<defs>
<clipPath id="clip0_0_4973">
<rect width="651" height="160" fill="white"/>
</clipPath>
</defs>
</svg>
