<svg width="122" height="121" viewBox="0 0 122 121" fill="none" xmlns="http://www.w3.org/2000/svg">
<g clip-path="url(#clip0_0_3940)">
<path d="M20.1921 76.0555L41.6063 76.4596V99.8939L20.1921 99.4899V76.0555Z" fill="#009746"/>
<path d="M6.05071 57.4697C0.798185 52.2172 3.22243 42.5202 9.68707 41.7122C13.3234 40.5 18.98 44.1364 20.1921 39.692C18.1719 36.0556 16.1517 33.2273 14.5356 29.995C-4.85838 30.8031 2.01031 1.71216 18.576 11.8132C24.6366 5.75256 33.9295 2.92428 42.0103 6.56064C53.7275 -10.4091 70.6972 13.4293 53.3234 20.7021L50.8992 31.6111C54.5356 35.2475 61.0002 28.3788 66.2527 29.1869C78.3739 28.3788 88.475 38.0758 90.4952 49.3889L95.3436 38.8839C81.2022 25.5505 93.7275 3.73236 110.697 10.197C126.859 17.0657 122.818 42.1162 103.828 42.1162L100.192 58.2778C106.657 59.4899 119.586 55.0455 119.99 64.7425C118.374 80.096 124.031 102.722 112.313 114.035C108.273 117.672 103.424 119.692 97.7679 119.692C72.3133 119.288 46.4548 118.884 21.0002 118.48C15.3436 118.076 10.0911 115.652 6.05071 111.611C-4.45434 99.894 2.01031 79.2879 0.798185 64.7425C1.60627 60.7021 2.41435 59.4899 6.05071 57.4697ZM5.24263 78.0758C4.83859 92.6213 1.60627 113.631 21.4042 115.248C46.8588 115.652 72.7174 116.46 98.1719 116.46C102.212 116.46 106.253 115.248 109.081 112.419C117.97 104.338 115.142 90.6011 115.546 80.096L5.24263 78.0758ZM17.7679 23.9344C17.7679 44.1364 51.3032 40.5 49.283 21.1061C46.4548 2.52024 17.7679 6.56064 17.7679 23.9344ZM5.64667 73.6314L116.354 75.6516V72.0152L5.64667 69.995V73.6314ZM5.64667 65.1465L116.354 67.1667C116.758 63.5303 116.354 63.1263 113.121 63.1263L8.87899 61.5101C6.05071 61.5101 5.64667 61.9142 5.64667 65.1465ZM50.4952 36.4596C48.0709 32.4192 43.6265 40.5 37.9699 41.3081C29.8891 44.1364 24.6366 37.6718 22.2123 44.5404C20.1921 48.5808 19.384 53.0253 18.98 57.8738L43.6265 58.2778C42.4143 50.197 44.8386 42.1162 50.4952 36.4596ZM47.6669 57.8738C56.9598 59.4899 55.7477 38.4798 84.0305 44.5404C73.9295 23.9344 43.2224 36.4596 47.6669 57.8738ZM56.5558 58.2778L81.6063 58.6819C87.6669 58.6819 88.0709 57.4697 86.8588 51.4091C86.0507 50.6011 85.6467 49.3889 84.8386 49.3889C73.9295 46.5606 63.0204 47.3687 56.5558 58.2778ZM114.334 33.6314C111.505 32.4192 109.889 27.1667 106.253 28.3788C105.041 28.7829 103.424 28.7829 102.212 28.3788C98.98 27.1667 98.576 21.9142 94.5356 24.3384C92.1113 26.7627 94.5356 31.2071 96.1517 33.6314C100.596 40.096 110.293 40.096 114.334 33.6314ZM95.3436 19.4899C102.212 19.894 100.596 25.5505 108.677 24.3384C110.697 24.7425 113.121 28.3788 115.546 28.7829C121.606 16.6617 101.404 7.36872 95.3436 19.4899ZM16.9598 45.7526C13.3234 45.7526 4.03051 44.9445 7.26283 51.4091C9.68707 53.8334 11.7073 57.4697 15.3436 57.8738L16.9598 45.7526ZM46.0507 7.77276L52.5154 16.6617C63.4244 13.0253 51.7073 -1.92421 46.0507 7.77276ZM12.9194 25.9546L15.3436 15.0455C6.05071 8.98489 2.01031 26.7627 12.9194 25.9546ZM100.192 41.7122L98.98 41.3081L90.4952 58.6819H95.7477C97.7679 53.0253 98.98 47.3687 100.192 41.7122Z" fill="#404243"/>
<path d="M32.7174 26.3586C35.1416 26.3586 35.1416 22.7222 32.7174 22.7222C30.2931 22.3182 30.2931 26.3586 32.7174 26.3586Z" fill="#404243"/>
<path d="M26.6568 21.9142C29.081 21.9142 29.081 18.2778 26.6568 18.2778C24.2326 18.2778 24.2326 21.9142 26.6568 21.9142Z" fill="black"/>
<path d="M36.7579 19.894C39.1821 19.894 39.1821 16.2576 36.7579 16.2576C34.3336 15.8536 34.3336 19.894 36.7579 19.894Z" fill="black"/>
<path d="M26.6568 21.9142C29.081 21.9142 29.081 18.2778 26.6568 18.2778C24.2326 18.2778 24.2326 21.9142 26.6568 21.9142Z" fill="#404243"/>
<path d="M36.7579 19.894C39.1821 19.894 39.1821 16.2576 36.7579 16.2576C34.3336 15.8536 34.3336 19.894 36.7579 19.894Z" fill="#404243"/>
<path d="M60.5962 100.298H53.3235L53.7275 75.2476H61.0003L60.5962 100.298ZM55.7477 97.4698H58.172L58.576 77.6718H56.1518L55.7477 97.4698Z" fill="#404243"/>
<path d="M79.586 100.702H72.3132L72.7173 75.6516H79.99L79.586 100.702ZM74.7375 97.8738H77.1617L77.5658 78.0759H75.1415L74.7375 97.8738Z" fill="#404243"/>
<path d="M98.576 100.702H91.3032L91.7073 75.6516H98.98L98.576 100.702ZM94.1315 98.2779H96.5558L96.9598 78.4799H94.5356L94.1315 98.2779Z" fill="#404243"/>
</g>
<defs>
<clipPath id="clip0_0_3940">
<rect width="120.404" height="120" fill="white" transform="translate(0.798096 0.5)"/>
</clipPath>
</defs>
</svg>
