<svg width="154" height="121" viewBox="0 0 154 121" fill="none" xmlns="http://www.w3.org/2000/svg">
<g clip-path="url(#clip0_0_3997)">
<path d="M22.3334 0.5H18.7778V24.6481H22.3334V0.5Z" fill="#404243"/>
<path d="M78.6297 71.3148H75.0741V85.9815H78.6297V71.3148Z" fill="#404243"/>
<path d="M41.8164 9.36989V5.81433L0.186783 5.81433V9.36989L41.8164 9.36989Z" fill="#404243"/>
<path d="M134.185 0.5H130.63V24.6481H134.185V0.5Z" fill="#404243"/>
<path d="M153.772 9.41432V5.85876L112.142 5.85876V9.41432L153.772 9.41432Z" fill="#404243"/>
<path d="M123.963 23.463H119.667H33.7407H30.9259H7.81482V37.3889C7.81482 44.5 13.5926 50.4259 20.8519 50.4259C26.3333 50.4259 31.0741 47.0185 32.8519 42.2778H43.5185L52.1111 62.1296L53.1482 64.6482L57 73.9815H97.4444L100.111 67.0185L102.926 59.9074L109.889 42.1296H120.556C122.481 46.8704 127.074 50.2778 132.556 50.2778C139.667 50.2778 145.593 44.5 145.593 37.2407V23.3148H123.963V23.463ZM28.1111 37.0926C28.1111 40.9445 25 44.0556 21.1482 44.0556C17.2963 44.0556 14.1852 40.9445 14.1852 37.0926V29.2407H28.1111V37.0926ZM96.7037 58.7222L94.6296 64.2037L93.2963 67.6111H61.1482L58.9259 62.1296L56.8519 57.2407L51.5185 44.5H102.185L96.7037 58.7222ZM117.741 35.9074H37.4444V29.8333H117.741V35.9074ZM139.963 37.0926C139.963 40.9445 136.852 44.0556 133 44.0556C129.148 44.0556 126.037 40.9445 126.037 37.0926V29.2407H139.963V37.0926Z" fill="#404243"/>
<path d="M89.2963 84.5H64.4075C62.6297 84.5 61.1482 85.9815 61.1482 87.7593V112.648C61.1482 114.426 62.6297 115.907 64.4075 115.907H89.2963C91.0741 115.907 92.5556 114.426 92.5556 112.648V87.7593C92.5556 85.9815 91.0741 84.5 89.2963 84.5ZM90.4815 112.648C90.4815 113.241 89.8889 113.833 89.2963 113.833H64.4075C63.8149 113.833 63.2223 113.241 63.2223 112.648V87.7593C63.2223 87.1667 63.8149 86.5741 64.4075 86.5741H89.2963C89.8889 86.5741 90.4815 87.1667 90.4815 87.7593V112.648Z" fill="#404243"/>
<path d="M84.7038 92.5H70.0371V107.167H84.7038V92.5Z" fill="#009746"/>
<path d="M13.5927 117.537V120.5H23.6667C23.5186 119.463 23.3704 118.574 23.2223 117.537H13.5927Z" fill="#404243"/>
<path d="M139.963 117.537V120.5H129.889C130.037 119.463 130.185 118.574 130.333 117.537H139.963Z" fill="#404243"/>
<path d="M25.8889 117.093C25.5926 114.87 25.4445 112.5 25.4445 110.278C25.4445 90.4259 36.7037 73.2408 53.1482 64.6482L52.1111 62.1296C34.6296 71.1667 22.6296 89.3889 22.6296 110.278C22.6296 112.056 22.7778 113.833 22.9259 115.611L23.0741 116.204C23.0741 116.648 23.2222 117.093 23.2222 117.537L23.6667 120.5H26.4815L25.8889 117.093Z" fill="#404243"/>
<path d="M130.926 110.278C130.926 89.537 119.222 71.4629 102.037 62.4259L101 64.9444C117.148 73.537 128.111 90.7222 128.111 110.278C128.111 113.833 127.815 117.241 127.074 120.5H129.741C130.481 117.241 130.926 113.833 130.926 110.278Z" fill="#404243"/>
</g>
<defs>
<clipPath id="clip0_0_3997">
<rect width="153.481" height="120" fill="white" transform="translate(0.259277 0.5)"/>
</clipPath>
</defs>
</svg>
