<svg width="146" height="121" viewBox="0 0 146 121" fill="none" xmlns="http://www.w3.org/2000/svg">
<g clip-path="url(#clip0_0_3954)">
<path d="M133.692 0.5H65.6435C60.409 0.5 56.0233 3.77791 54.1841 8.33848L16.2694 17.3171C8.77136 21.4501 8.77136 32.2815 16.2694 36.4145L54.1841 45.3931C56.0233 49.9537 60.409 53.2316 65.6435 53.2316H133.692C140.483 53.2316 146 47.6734 146 40.8325V12.899C146 6.05819 140.483 0.5 133.692 0.5ZM50.5059 38.2672L18.6745 30.7138C16.9768 29.4311 16.8353 27.5784 16.8353 26.8658C16.8353 26.1532 16.9768 24.3005 18.8159 23.0178L50.6473 15.4644V38.2672H50.5059ZM140.058 40.8325C140.058 44.3955 137.229 47.2458 133.692 47.2458H65.6435C62.1066 47.2458 59.2772 44.3955 59.2772 40.8325V12.899C59.2772 9.3361 62.1066 6.48575 65.6435 6.48575H133.692C137.229 6.48575 140.058 9.3361 140.058 12.899V40.8325Z" fill="#404041"/>
<path d="M12.874 24.728H0V26.8658H12.874V24.728Z" fill="#404041"/>
<path d="M41.593 17.4596H39.4709V37.5546H41.593V17.4596Z" fill="#404041"/>
<path d="M127.891 17.4596H90.1182V20.88H127.891V17.4596Z" fill="#404041"/>
<path d="M127.891 24.0154H90.1182V27.4358H127.891V24.0154Z" fill="#404041"/>
<path d="M127.891 30.5713H90.1182V33.9917H127.891V30.5713Z" fill="#404041"/>
<path d="M129.731 93.2791V47.2458H90.1182V93.9917C84.6008 95.7019 80.6395 100.833 80.6395 106.961V120.643H132.984V93.2791H129.731ZM96.2015 51.9489H123.789V89.2886H96.2015V51.9489ZM126.901 114.514H86.7229V106.961C86.7229 102.828 90.1182 99.4074 94.2209 99.4074H126.901V114.514Z" fill="#404041"/>
<path d="M102.709 65.2031H84.7423V83.3029H102.709V65.2031Z" fill="#009746"/>
</g>
<defs>
<clipPath id="clip0_0_3954">
<rect width="146" height="120" fill="white" transform="translate(0 0.5)"/>
</clipPath>
</defs>
</svg>
