<svg width="134" height="121" viewBox="0 0 134 121" fill="none" xmlns="http://www.w3.org/2000/svg">
<g clip-path="url(#clip0_0_3855)">
<path d="M34.4767 0.640187C33.6356 0.5 32.9346 0.5 32.2337 0.5C14.5701 1.06075 0.411255 15.6402 0.411255 33.4439C0.411255 51.2477 14.8505 65.9673 32.6542 66.3879C33.0748 66.3879 33.4954 66.3879 33.9159 66.2477L102.608 54.3318C105.692 53.771 107.794 51.2477 107.794 48.1636V18.8645C107.794 15.7804 105.551 13.257 102.608 12.6963L34.4767 0.640187ZM96.7197 49.285L33.4954 60.2196C33.0748 60.3598 32.6543 60.3598 32.0935 60.3598C17.7944 59.6589 6.43929 47.8832 6.43929 33.4439C6.43929 19.0047 17.9346 7.08879 32.2337 6.52804C32.6543 6.52804 33.215 6.52804 33.6356 6.66822L96.8599 17.743C99.8038 18.3037 102.047 20.8271 102.047 23.9112V43.257C101.907 46.2009 99.8038 48.8645 96.7197 49.285Z" fill="#404243"/>
<path d="M94.4767 15.3599H91.8131V52.0888H94.4767V15.3599Z" fill="#404243"/>
<path d="M29.2898 62.3225L5.17761 50.5468L15.8318 120.64L53.4019 119.659V60.2196L29.2898 62.3225ZM47.3739 113.771L21.0187 114.472L12.4673 58.6776L29.2898 63.8645L47.3739 64.0047V113.771Z" fill="#404243"/>
<path d="M47.6542 79.0046H31.2523V94.5654H47.6542V79.0046Z" fill="#009746"/>
<path d="M47.6542 105.36H31.2523V107.042H47.6542V105.36Z" fill="#404243"/>
<path d="M133.589 16.9019H111.86V19.7056H133.589V16.9019Z" fill="#404243"/>
<path d="M133.589 19.5654H121.953V22.9299H133.589V19.5654Z" fill="#404243"/>
<path d="M133.589 30.3599H111.86V33.1636H133.589V30.3599Z" fill="#404243"/>
<path d="M133.589 33.1636H121.953V36.5281H133.589V33.1636Z" fill="#404243"/>
<path d="M133.589 43.6776H111.86V46.4814H133.589V43.6776Z" fill="#404243"/>
<path d="M133.589 46.3411H121.953V49.7055H133.589V46.3411Z" fill="#404243"/>
<path d="M33.215 20.4065C26.2056 20.4065 20.5981 26.014 20.5981 33.0233C20.5981 40.0327 26.2056 45.6401 33.215 45.6401C40.2243 45.6401 45.8318 40.0327 45.8318 33.0233C45.8318 26.014 40.2243 20.4065 33.215 20.4065ZM33.215 43.6775C27.4673 43.6775 22.7009 38.9112 22.7009 33.1635C22.7009 27.4158 27.4673 22.6495 33.215 22.6495C38.9626 22.6495 43.729 27.4158 43.729 33.1635C43.729 38.9112 39.1028 43.6775 33.215 43.6775Z" fill="#404243"/>
</g>
<defs>
<clipPath id="clip0_0_3855">
<rect width="133.178" height="120" fill="white" transform="translate(0.411255 0.5)"/>
</clipPath>
</defs>
</svg>
