<svg width="146" height="121" viewBox="0 0 146 121" fill="none" xmlns="http://www.w3.org/2000/svg">
<g clip-path="url(#clip0_0_3965)">
<mask id="mask0_0_3965" style="mask-type:luminance" maskUnits="userSpaceOnUse" x="-6" y="3" width="156" height="141">
<path d="M108.153 3.17288L-5.0564 59.1842L36.5099 143.198L149.72 87.1865L108.153 3.17288Z" fill="white"/>
</mask>
<g mask="url(#mask0_0_3965)">
<path d="M133.45 60.2553L116.296 64.2668L119.853 79.4792L137.008 75.4677L133.45 60.2553Z" fill="#04A64B"/>
</g>
<mask id="mask1_0_3965" style="mask-type:luminance" maskUnits="userSpaceOnUse" x="-6" y="1" width="156" height="141">
<path d="M107.904 1.8117L-5.30249 57.8353L36.2729 141.847L149.48 85.8232L107.904 1.8117Z" fill="white"/>
</mask>
<g mask="url(#mask1_0_3965)">
<path d="M127.306 59.9324L110.151 63.9457L114.164 81.1001L131.319 77.0867L127.306 59.9324Z" fill="#04A64B"/>
</g>
<mask id="mask2_0_3965" style="mask-type:luminance" maskUnits="userSpaceOnUse" x="0" y="0" width="146" height="121">
<path d="M123.859 0.650858L0.86499 29.413L22.2095 120.687L145.203 91.9251L123.859 0.650858Z" fill="white"/>
</mask>
<g mask="url(#mask2_0_3965)">
<path d="M141.809 76.6219L139.814 67.9792C139.15 64.6551 137.155 61.6634 134.163 60.0014C131.504 58.0069 127.848 57.3421 124.524 58.0069L106.241 60.3338L80.313 34.0734L79.6482 31.4141C79.3158 29.7521 77.9862 28.09 76.3241 27.4252C74.6621 27.0928 72.6676 27.0928 71.0056 28.4224L55.3823 39.0595L55.7147 36.0678C56.3795 31.4141 53.3878 27.0928 48.7341 25.7631L34.1081 21.7742C32.7784 21.4418 31.7812 22.1066 31.4488 23.1039L27.4599 35.0706L24.4682 43.7133L18.8172 60.3338H18.1524C17.4876 60.3338 17.1552 60.3338 16.4903 60.6662C16.1579 60.9986 15.4931 61.331 15.4931 61.9958L11.8366 75.2922C11.5042 76.2895 12.169 77.6191 13.1662 77.9515L99.9252 102.55C99.9252 102.55 99.9252 102.55 100.258 102.55C100.258 102.55 100.258 102.55 100.59 102.55C100.59 102.55 100.59 102.55 100.922 102.55L132.834 95.2368C139.482 93.5748 143.803 86.9266 142.141 79.946L141.809 76.6219ZM101.92 62.3282L99.2604 63.9903L74.6621 43.3809L78.651 38.7271L101.92 62.3282ZM34.7729 26.428L47.7369 29.7521C50.0637 30.4169 51.7258 32.7437 51.3934 35.403L51.061 40.3892L32.1136 34.4058L34.7729 26.428ZM83.9696 78.6163L87.2937 73.9626C87.9585 72.9654 87.9585 71.6357 86.9612 70.9709C85.964 70.3061 84.6344 70.3061 83.9696 71.3033L79.6482 77.2867L70.6732 74.6274L76.3241 67.3144C76.989 66.3172 76.989 64.9875 75.9917 64.3227C74.9945 63.6579 73.6649 63.6579 73 64.6551L66.3518 73.2978L58.0416 70.9709L66.0194 60.6662C66.6842 59.669 66.6842 58.3393 65.687 57.6745C64.6898 57.0097 63.3601 57.0097 62.6953 58.0069L53.7202 69.6412L50.0637 68.644L48.7341 60.6662C47.7369 54.3504 43.4155 49.3642 37.7646 46.705L29.7867 43.0485L30.784 38.3947L52.3906 45.3753C52.3906 45.3753 52.3906 45.3753 52.723 45.3753H53.0554C53.0554 45.3753 53.0554 45.3753 53.3878 45.3753C53.3878 45.3753 53.3878 45.3753 53.7202 45.3753L73.3324 32.0789C73.9973 31.7465 74.3297 31.7465 74.6621 32.0789C74.9945 32.0789 75.3269 32.4113 75.3269 33.0762L75.9917 35.403L70.0083 42.716C69.3435 43.7133 69.3435 45.0429 70.3407 45.7077L97.9308 68.644C98.5956 68.9764 99.2604 69.3088 99.9252 68.9764C100.258 68.9764 100.258 68.9764 100.59 68.644L106.573 64.9875L125.521 61.9958C130.175 61.331 134.496 64.3227 135.826 68.9764L137.488 75.6246L101.92 83.6025M27.7923 47.3698L35.4377 50.6939C39.759 52.6883 43.0831 56.6773 43.7479 61.6634L44.7452 67.6468L22.8061 61.331L27.7923 47.3698ZM138.152 80.2784C139.15 84.5997 136.49 89.2534 131.837 90.2507L100.59 97.8961L16.4903 73.9626L19.1496 64.6551L79.3158 81.608C79.6482 81.9404 79.9806 81.9404 80.313 81.9404L101.587 87.9238C101.92 87.9238 101.92 87.9238 102.252 87.9238H102.585L138.152 79.6135V80.2784Z" fill="#404243"/>
</g>
<mask id="mask3_0_3965" style="mask-type:luminance" maskUnits="userSpaceOnUse" x="-15" y="-18" width="155" height="141">
<path d="M98.3677 -17.2308L-14.8422 38.7805L26.7241 122.794L139.934 66.7828L98.3677 -17.2308Z" fill="white"/>
</mask>
<g mask="url(#mask3_0_3965)">
<path d="M48.4422 97.7237L18.6648 104.687L19.1189 106.629L48.8964 99.6657L48.4422 97.7237Z" fill="#404243"/>
</g>
<mask id="mask4_0_3965" style="mask-type:luminance" maskUnits="userSpaceOnUse" x="-13" y="-21" width="156" height="142">
<path d="M100.594 -20.015L-12.6157 35.9963L28.9506 120.01L142.16 63.9986L100.594 -20.015Z" fill="white"/>
</mask>
<g mask="url(#mask4_0_3965)">
<path d="M29.0953 87.3539L15.1776 90.6085L16.0859 94.4925L30.0036 91.2379L29.0953 87.3539Z" fill="#404243"/>
</g>
<mask id="mask5_0_3965" style="mask-type:luminance" maskUnits="userSpaceOnUse" x="-17" y="-14" width="156" height="141">
<path d="M96.4582 -13.5686L-16.7516 42.4427L24.8147 126.456L138.025 70.445L96.4582 -13.5686Z" fill="white"/>
</mask>
<g mask="url(#mask5_0_3965)">
<path d="M74.7935 103.994L21.3883 116.483L22.2966 120.367L75.7017 107.878L74.7935 103.994Z" fill="#404243"/>
</g>
<mask id="mask6_0_3965" style="mask-type:luminance" maskUnits="userSpaceOnUse" x="0" y="0" width="146" height="121">
<path d="M123.859 0.650858L0.86499 29.413L22.2095 120.687L145.203 91.9251L123.859 0.650858Z" fill="white"/>
</mask>
<g mask="url(#mask6_0_3965)">
<path d="M110.23 64.3226L111.227 62.6606L121.864 60.9985L126.186 60.6661L128.512 60.9985L131.837 61.9958L133.499 63.3254L136.158 66.3171L138.485 76.6218L115.881 81.9404L114.219 80.9431" fill="#009746"/>
</g>
</g>
<defs>
<clipPath id="clip0_0_3965">
<rect width="144.266" height="120" fill="white" transform="translate(0.867065 0.5)"/>
</clipPath>
</defs>
</svg>
