<svg width="120" height="120" viewBox="0 0 120 120" fill="none" xmlns="http://www.w3.org/2000/svg">
<g clip-path="url(#clip0_0_3882)">
<path d="M0 36.3829V120H120V36.3829H0ZM114.511 114.511H5.48936V41.7446H114.638V114.511H114.511Z" fill="#404243"/>
<path d="M47.3617 78.2554V107.745H107.617V78.2554H47.3617ZM104.043 104.043H50.9362V81.8298H104.043V104.043Z" fill="#404243"/>
<path d="M60.929 88.5713V86.1458H58.5034V88.5713H60.929Z" fill="#404243"/>
<path d="M72.948 88.5522V86.1267H70.5225V88.5522H72.948Z" fill="#404243"/>
<path d="M84.8855 88.4871V86.0615H82.46V88.4871H84.8855Z" fill="#404243"/>
<path d="M96.9452 88.5551V86.1295H94.5197V88.5551H96.9452Z" fill="#404243"/>
<path d="M60.8992 99.7754V97.3499H58.4736V99.7754H60.8992Z" fill="#404243"/>
<path d="M72.9181 99.7563V97.3308H70.4926V99.7563H72.9181Z" fill="#404243"/>
<path d="M84.8556 99.6913V97.2657H82.4301V99.6913H84.8556Z" fill="#404243"/>
<path d="M96.9153 99.7592V97.3336H94.4897V99.7592H96.9153Z" fill="#404243"/>
<path d="M107.234 48.2554H84.2554V71.2341H107.234V48.2554Z" fill="#009746"/>
<path d="M24.383 55.1489H22.9788V71.4894H24.383V55.1489Z" fill="#404243"/>
<path d="M48.5107 55.1489H47.1064V71.4894H48.5107V55.1489Z" fill="#404243"/>
<path d="M73.0213 55.1489H71.6171V71.4894H73.0213V55.1489Z" fill="#404243"/>
<path d="M60.7659 60H59.3617V71.4894H60.7659V60Z" fill="#404243"/>
<path d="M36.6383 60H35.234V71.4894H36.6383V60Z" fill="#404243"/>
<path d="M84.2553 60H82.8511V71.4894H84.2553V60Z" fill="#404243"/>
<path d="M12.5106 48.2554V71.4894H107.745V48.2554H12.5106ZM106.979 70.7235H13.1489V49.0213H106.851V70.7235H106.979Z" fill="#404243"/>
<path d="M26.0426 77.3617C17.4894 77.3617 10.4681 84.383 10.4681 92.9362C10.4681 101.489 17.4894 108.511 26.0426 108.511C34.5958 108.511 41.6171 101.489 41.6171 92.9362C41.6171 84.383 34.7235 77.3617 26.0426 77.3617ZM26.0426 107.106C18.2554 107.106 12.0001 100.851 12.0001 93.0638C12.0001 85.2766 18.2554 79.0213 26.0426 79.0213C33.8298 79.0213 40.0852 85.2766 40.0852 93.0638C40.0852 100.851 33.8298 107.106 26.0426 107.106Z" fill="#404243"/>
<path d="M90.2554 0C86.9362 0 84.2554 2.68085 84.2554 6C84.2554 9.31915 86.9362 12 90.2554 12C93.5745 12 96.2554 9.31915 96.2554 6C96.2554 2.68085 93.5745 0 90.2554 0ZM90.2554 10.9787C87.4469 10.9787 85.2767 8.68085 85.2767 6C85.2767 3.19149 87.5745 1.02128 90.2554 1.02128C93.0639 1.02128 95.2341 3.31915 95.2341 6C95.2341 8.80851 93.0639 10.9787 90.2554 10.9787Z" fill="#404243"/>
<path d="M23.617 30.6383C17.8724 30.6383 13.2766 33.1915 13.2766 36.2553C13.2766 39.3192 17.8724 41.8723 23.617 41.8723C29.3617 41.8723 33.9575 39.3192 33.9575 36.2553C33.9575 33.1915 29.2341 30.6383 23.617 30.6383ZM23.617 40.8511C18.8936 40.8511 15.0638 38.8085 15.0638 36.2553C15.0638 33.7021 18.8936 31.6596 23.617 31.6596C28.3404 31.6596 32.1702 33.7021 32.1702 36.2553C32.1702 38.8085 28.3404 40.8511 23.617 40.8511Z" fill="#404243"/>
<path d="M84.766 7.4043L23.1064 31.0213L25.915 31.2766L85.2767 8.42557L84.766 7.4043Z" fill="#404243"/>
</g>
<defs>
<clipPath id="clip0_0_3882">
<rect width="120" height="120" fill="white"/>
</clipPath>
</defs>
</svg>
