<svg width="74" height="121" viewBox="0 0 74 121" fill="none" xmlns="http://www.w3.org/2000/svg">
<g clip-path="url(#clip0_0_3837)">
<path d="M60.8723 0.5H13.1276C6.23396 0.5 0.616943 6.11702 0.616943 13.0106V107.989C0.616943 114.883 6.23396 120.5 13.1276 120.5H60.8723C67.7659 120.5 73.3829 114.883 73.3829 107.989V13.0106C73.3829 6.11702 67.7659 0.5 60.8723 0.5ZM66.1063 107.989C66.1063 110.926 63.8084 113.223 60.8723 113.223H13.1276C10.1914 113.223 7.89354 110.926 7.89354 107.989V13.0106C7.89354 10.0745 10.1914 7.7766 13.1276 7.7766H60.8723C63.8084 7.7766 66.1063 10.0745 66.1063 13.0106V107.989Z" fill="#404243"/>
<path d="M70.7021 21.5638H4.70215V25.266H70.7021V21.5638Z" fill="#404243"/>
<path d="M70.7021 94.5851H4.70215V98.2872H70.7021V94.5851Z" fill="#404243"/>
<path d="M48.8723 36.5H24.8723V60.5H48.8723V36.5Z" fill="#009746"/>
<path d="M36.8722 101.096C33.936 101.096 31.5105 103.521 31.5105 106.457C31.5105 109.394 33.936 111.819 36.8722 111.819C39.8084 111.819 42.2339 109.394 42.2339 106.457C42.2339 103.521 39.8084 101.096 36.8722 101.096ZM36.8722 110.925C34.319 110.925 32.4041 108.883 32.4041 106.457C32.4041 104.032 34.4467 101.989 36.8722 101.989C39.4254 101.989 41.3403 104.032 41.3403 106.457C41.3403 108.883 39.2977 110.925 36.8722 110.925Z" fill="#404243"/>
</g>
<defs>
<clipPath id="clip0_0_3837">
<rect width="72.766" height="120" fill="white" transform="translate(0.616943 0.5)"/>
</clipPath>
</defs>
</svg>
