<svg width="126" height="127" viewBox="0 0 126 127" fill="none" xmlns="http://www.w3.org/2000/svg">
<g clip-path="url(#clip0_0_3846)">
<path d="M62.1087 121.365L26.9437 120.967C23.1554 120.791 21.9648 119.72 22.1413 115.932C23.0475 104.547 23.9338 92.7853 24.4632 81.4204C24.9564 76.4816 25.0728 71.5628 25.586 67.0008C25.566 66.624 25.546 66.2471 25.5259 65.8703C25.5059 65.4935 25.4859 65.1167 25.089 64.7599C24.6921 64.4031 24.6721 64.0262 24.2953 64.0463C23.8984 63.6895 23.5216 63.7095 23.1448 63.7296C17.3521 61.3923 11.1827 59.0751 5.39002 56.7378C2.29527 55.3908 1.46148 53.9235 3.18534 50.8087L16.2826 27.061C19.0368 22.002 23.3584 17.9933 28.9306 16.1855C29.6642 15.7686 30.3979 15.3517 30.7747 15.3317C33.3924 14.8146 35.9901 13.9207 37.7941 12.3133C39.975 10.6857 41.7589 8.70144 42.7892 6.7572C43.5028 5.96348 44.2164 5.16976 45.3268 4.73283C46.4373 4.2959 47.5678 4.2358 48.7183 4.55252C56.7118 5.6391 65.042 5.95199 73.3122 5.13441C73.689 5.11437 73.689 5.11437 74.0658 5.09434C79.2612 3.30655 82.7929 5.76402 84.9175 10.1858C85.3544 11.2962 86.1481 12.0098 86.9418 12.7234C87.7356 13.437 88.8861 13.7537 90.0366 14.0704C92.3376 14.7038 94.2618 15.3573 96.5829 16.3676C101.602 18.3681 105.947 21.916 108.489 27.0714C113.075 35.1411 117.304 43.6078 121.513 51.6976C122.803 54.6522 122.507 56.1795 119.175 57.4903C113.266 60.0718 106.96 62.2965 101.031 64.5012C100.278 64.5413 99.921 64.9381 99.5642 65.335C99.2074 65.7318 99.2475 66.4855 99.2875 67.2392C99.8685 78.1671 100.47 89.4719 101.071 100.777C101.371 106.429 101.672 112.081 101.972 117.734C102.112 120.372 100.665 121.582 97.6506 121.743L62.1087 121.365ZM117.684 50.7675C116.971 51.5612 116.277 52.7318 115.544 53.1487C110.368 55.3133 105.55 57.081 100.374 59.2457C98.8868 59.7026 98.5501 60.4763 99.4039 62.3204L120.126 54.0387L117.684 50.7675C117.267 50.0339 116.85 49.3003 116.81 48.5466C113.852 42.6576 110.537 37.1655 107.955 31.2565C104.063 22.0162 95.9294 18.2918 86.7453 16.1348C85.715 18.0791 84.6647 19.6465 83.6143 21.2139C82.584 23.1581 81.1569 24.7456 79.7297 26.333C78.3025 27.9205 76.4785 29.1511 74.6344 30.0049C72.7503 30.1051 70.4693 29.8485 68.5451 29.195C68.6252 30.7023 68.7054 32.2096 68.4287 34.1138C68.4688 34.8674 67.3784 35.6812 67.0416 36.4549C66.6047 35.3444 65.811 34.6309 65.7709 33.8772C65.6507 31.6162 65.5505 29.7321 65.8072 27.4511C66.0638 25.1701 64.5364 24.8734 62.6523 24.9736C61.145 25.0538 59.2609 25.1539 59.4011 27.7917C59.5013 29.6758 59.2246 31.58 59.3248 33.4641C59.1684 37.6293 59.1684 37.6293 63.7103 37.7657C64.4639 37.7256 65.2577 38.4392 66.0514 39.1528C65.3178 39.5697 64.6042 40.3634 63.8505 40.4035C63.0969 40.4435 62.3432 40.4836 61.5896 40.5237C57.8013 40.3472 56.6107 39.2768 56.7872 35.4885C56.667 33.2276 56.9236 30.9466 56.8034 28.6856C51.648 31.227 49.7439 30.9504 46.132 26.9856C43.314 23.7344 40.8527 20.0864 38.3713 16.0615C36.1304 16.5585 33.5327 17.4524 30.935 18.3463C28.3172 18.8634 25.7596 20.5109 23.9556 22.1184C21.7747 23.7459 20.0108 26.107 19.0006 28.4281C15.5729 35.0345 12.1252 41.2641 8.69749 47.8705C8.36073 48.6441 8.02398 49.4178 8.06404 50.1715L5.58654 53.3263L25.6824 61.7052C26.7127 59.761 25.5421 59.0674 24.3916 58.7507C19.3727 56.7502 14.3537 54.7497 9.31473 52.3723C8.54104 52.0356 8.10411 50.9251 7.68722 50.1915C8.8177 50.1314 9.55132 49.7145 10.7018 50.0312C16.0976 52.0117 21.1366 54.389 26.5324 56.3695C26.809 54.4654 26.7289 52.958 27.0256 51.4307C27.5188 46.4919 27.6352 41.5731 28.1284 36.6343C28.0883 35.8807 29.1987 35.4437 29.5355 34.67C29.9524 35.4037 30.3693 36.1373 30.4093 36.8909C30.4494 37.6446 30.5095 38.7751 30.5496 39.5287C29.6634 51.2905 28.7571 62.6754 28.2477 74.4171C27.3414 85.802 26.4552 97.5638 25.9257 108.929C25.7092 111.963 25.4926 114.998 25.2761 118.033L98.9976 118.648C98.9576 117.894 98.9175 117.14 98.8975 116.764C98.5569 110.358 98.2163 103.952 97.8557 97.1687C97.2546 85.8639 96.6335 74.1823 96.0325 62.8775C95.5717 54.2105 95.131 45.9203 94.6702 37.2533C94.6301 36.4997 95.3437 35.706 96.0573 34.9122C96.4742 35.6458 97.2679 36.3594 97.6848 37.093C97.825 39.7308 97.9653 42.3686 98.1055 45.0064C98.3058 48.7747 98.5062 52.5429 98.7065 56.3112C104.259 54.1265 109.434 51.9619 114.253 50.1942C115.403 50.5109 116.554 50.8276 117.684 50.7675ZM62.452 21.2054C65.5066 21.7987 68.2446 23.5426 70.2489 25.7034C73.0069 27.8241 74.1374 27.764 76.655 25.3628C78.0821 23.7754 79.5093 22.1879 80.9164 20.2237C84.7811 14.7277 84.761 14.3509 80.6922 8.89884C80.2753 8.16522 79.8785 7.80843 79.1048 7.47167C78.3311 7.13491 77.5774 7.17498 76.8238 7.21505C68.5737 8.40946 60.2635 8.4734 51.8932 7.40685C49.969 6.75337 47.708 6.87358 45.884 8.10423C44.0399 8.95806 42.6127 10.5455 41.9593 12.4697C41.9793 12.8465 42.0194 13.6002 41.6626 13.997C41.6826 14.3739 41.7227 15.1275 41.7427 15.5043C44.204 19.1524 46.6653 22.8005 49.1066 26.0717C50.7141 27.8757 52.2214 27.7955 54.4022 26.168C55.1158 25.3743 55.8294 24.5806 56.9398 24.1437C58.7638 22.913 60.6079 22.0592 62.452 21.2054Z" fill="#404243"/>
<path d="M62.0647 113.431L31.8184 113.15C31.0648 113.19 30.3111 113.23 29.9143 112.873C29.5374 112.893 28.7437 112.18 28.7237 111.803C28.7036 111.426 28.7036 111.426 29.0604 111.029C29.0404 110.653 29.4172 110.633 29.7941 110.613C30.5477 110.572 31.3014 110.532 32.055 110.492L92.5476 111.055C93.6981 111.372 95.5421 110.518 95.2655 112.422C95.3657 114.306 93.4415 113.653 92.311 113.713C82.4734 113.48 72.259 113.267 62.0647 113.431Z" fill="#404243"/>
<path d="M49.2981 48.5358L49.1499 70.0447L75.5644 70.2267L75.7126 48.7178L49.2981 48.5358Z" fill="#009746"/>
<path d="M77.8161 82.7406L46.8162 82.4993L46.8724 76.4501L77.8724 76.6914L77.8161 82.7406ZM48.997 80.8718L76.5854 80.9166L76.4452 78.2788L48.8567 78.234L48.997 80.8718Z" fill="#404243"/>
<path d="M73.4983 93.929L51.5823 93.9605L51.6385 87.9112L73.5546 87.8797L73.4983 93.929ZM53.3662 91.9762L71.8908 92.125L71.7506 89.4872L53.226 89.3384L53.3662 91.9762Z" fill="#404243"/>
</g>
<defs>
<clipPath id="clip0_0_3846">
<rect width="119.623" height="120" fill="white" transform="translate(0.0876465 6.76013) rotate(-3.04335)"/>
</clipPath>
</defs>
</svg>
