<svg width="138" height="121" viewBox="0 0 138 121" fill="none" xmlns="http://www.w3.org/2000/svg">
<g clip-path="url(#clip0_0_3908)">
<path d="M0.219482 24.2073V120.5H137.78V24.2073H0.219482ZM131.488 114.207H6.51217V30.5H131.634V114.207H131.488Z" fill="#404243"/>
<path d="M13.2439 13.5244V28.1586H27.878V13.5244H13.2439ZM25.8293 26.1098H15.2927V15.5732H25.8293V26.1098Z" fill="#404243"/>
<mask id="mask0_0_3908" style="mask-type:luminance" maskUnits="userSpaceOnUse" x="37" y="0" width="92" height="31">
<path d="M128.707 0.5H37.0974V30.5H128.707V0.5Z" fill="white"/>
</mask>
<g mask="url(#mask0_0_3908)">
<path d="M110.268 0.5H55.0974L27.5852 48.2073L55.0974 95.9146H110.122L137.78 48.2073L110.268 0.5ZM106.61 89.622H58.7559L34.7559 48.2073L58.7559 6.79268H106.61L130.61 48.2073L106.61 89.622Z" fill="#404243"/>
</g>
<path d="M20.9999 38.4025C17.195 38.4025 14.1218 41.4756 14.1218 45.2805C14.1218 49.0854 17.195 52.1586 20.9999 52.1586C24.8048 52.1586 27.8779 49.0854 27.8779 45.2805C27.8779 41.622 24.8048 38.4025 20.9999 38.4025ZM20.9999 51.1342C17.7804 51.1342 15.1462 48.5 15.1462 45.2805C15.1462 42.061 17.7804 39.4269 20.9999 39.4269C24.2194 39.4269 26.8535 42.061 26.8535 45.2805C26.7072 48.5 24.2194 51.1342 20.9999 51.1342Z" fill="#404243"/>
<path d="M82.756 42.939C67.0974 42.939 54.3657 55.6707 54.3657 71.3292C54.3657 86.9877 67.0974 99.7195 82.756 99.7195C98.4145 99.7195 111.146 86.9877 111.146 71.3292C111.146 55.5243 98.5608 42.939 82.756 42.939ZM82.756 96.4999C68.8535 96.4999 57.4389 85.2316 57.4389 71.1829C57.4389 57.2804 68.7072 45.8658 82.756 45.8658C96.6584 45.8658 108.073 57.1341 108.073 71.1829C108.073 85.2316 96.8047 96.4999 82.756 96.4999Z" fill="#404243"/>
<path d="M29.0487 65.0366H26.7073V100.159H29.0487V65.0366Z" fill="#404243"/>
<path d="M97.2439 58.4512H69V86.6951H97.2439V58.4512Z" fill="#009746"/>
</g>
<defs>
<clipPath id="clip0_0_3908">
<rect width="137.561" height="120" fill="white" transform="translate(0.219482 0.5)"/>
</clipPath>
</defs>
</svg>
