<svg width="136" height="121" viewBox="0 0 136 121" fill="none" xmlns="http://www.w3.org/2000/svg">
<g clip-path="url(#clip0_0_3922)">
<path d="M35.5561 13.5342L17.1382 54.4787H68.0001V13.5342H35.5561ZM66.0166 52.3535H20.2551L36.8312 15.5177H65.8749V52.3535H66.0166Z" fill="#404243"/>
<path d="M33.9976 80.9723C23.0885 80.9723 14.1628 89.7562 14.1628 100.807C14.1628 111.858 22.9468 120.642 33.9976 120.642C45.0483 120.642 53.8323 111.858 53.8323 100.807C53.8323 89.7562 45.0483 80.9723 33.9976 80.9723ZM33.9976 117.808C24.6469 117.808 16.9964 110.158 16.9964 100.807C16.9964 91.4564 24.6469 83.8058 33.9976 83.8058C43.3482 83.8058 50.9987 91.4564 50.9987 100.807C50.9987 110.158 43.4899 117.808 33.9976 117.808Z" fill="#404243"/>
<path d="M33.9975 94.0065C30.3139 94.0065 27.197 96.9817 27.197 100.807C27.197 104.632 30.1722 107.607 33.9975 107.607C37.8228 107.607 40.798 104.632 40.798 100.807C40.798 96.9817 37.8228 94.0065 33.9975 94.0065ZM33.9975 105.624C31.3056 105.624 29.1805 103.499 29.1805 100.807C29.1805 98.1151 31.3056 95.9899 33.9975 95.9899C36.6893 95.9899 38.8145 98.1151 38.8145 100.807C38.8145 103.499 36.6893 105.624 33.9975 105.624Z" fill="#404243"/>
<path d="M101.152 94.0065C97.4687 94.0065 94.3518 96.9817 94.3518 100.807C94.3518 104.632 97.327 107.607 101.152 107.607C104.836 107.607 107.953 104.632 107.953 100.807C107.953 96.9817 104.836 94.0065 101.152 94.0065ZM101.152 105.624C98.4604 105.624 96.3353 103.499 96.3353 100.807C96.3353 98.1151 98.4604 95.9899 101.152 95.9899C103.844 95.9899 105.969 98.1151 105.969 100.807C105.969 103.499 103.702 105.624 101.152 105.624Z" fill="#404243"/>
<path d="M101.152 80.9723C90.2432 80.9723 81.3176 89.7562 81.3176 100.807C81.3176 111.858 90.1016 120.642 101.152 120.642C112.203 120.642 120.987 111.858 120.987 100.807C120.987 89.7562 112.061 80.9723 101.152 80.9723ZM101.152 117.808C91.8017 117.808 84.1512 110.158 84.1512 100.807C84.1512 91.4564 91.8017 83.8058 101.152 83.8058C110.503 83.8058 118.154 91.4564 118.154 100.807C118.154 110.158 110.503 117.808 101.152 117.808Z" fill="#404243"/>
<path d="M135.296 56.3206H81.0342V0.5H28.1889L1.27032 56.3206H0.703613V106.757H15.1546C14.5879 104.916 14.1629 102.79 14.1629 100.665H6.7957V58.5874L31.8724 6.59209H74.9421V62.4126H129.204V100.807H120.845C120.845 102.932 120.562 104.916 119.854 106.899H135.296V56.3206Z" fill="#404243"/>
<path d="M53.8323 100.807C53.8323 102.932 53.549 104.916 52.8406 106.899H82.1676C81.6009 105.057 81.1759 102.932 81.1759 100.807H53.8323Z" fill="#404243"/>
<path d="M33.9975 117.808C26.772 117.808 20.5382 113.274 18.1297 106.899H15.1545C17.7047 114.833 25.2136 120.642 33.9975 120.642C42.7815 120.642 50.2903 114.833 52.8405 106.757H49.8653C47.4568 113.274 41.3647 117.808 33.9975 117.808Z" fill="#404243"/>
<path d="M33.9976 83.8058C43.3482 83.8058 50.9987 91.4564 50.9987 100.807H53.8323C53.8323 89.8979 45.0483 80.9723 33.9976 80.9723C22.9468 80.9723 14.1628 89.7562 14.1628 100.807H16.9964C16.9964 91.4564 24.6469 83.8058 33.9976 83.8058Z" fill="#404243"/>
<path d="M101.152 117.808C93.9268 117.808 87.693 113.274 85.2845 106.899H82.3093C84.8595 114.833 92.3684 120.642 101.152 120.642C109.936 120.642 117.445 114.833 119.995 106.899H117.02C114.612 113.274 108.378 117.808 101.152 117.808Z" fill="#404243"/>
<path d="M101.152 80.9723C90.2432 80.9723 81.3176 89.7562 81.3176 100.807H84.1512C84.1512 91.4564 91.8017 83.8058 101.152 83.8058C110.503 83.8058 118.154 91.4564 118.154 100.807H120.987C120.845 89.8979 112.061 80.9723 101.152 80.9723Z" fill="#404243"/>
<path d="M20.3966 66.0962H6.79565V81.1139H20.3966V66.0962Z" fill="#009746"/>
<path d="M129.346 66.8046H115.745V81.8223H129.346V66.8046Z" fill="#009746"/>
<path d="M68.7084 66.0962H50.4321V69.7798H68.7084V66.0962Z" fill="#404243"/>
</g>
<defs>
<clipPath id="clip0_0_3922">
<rect width="134.593" height="120" fill="white" transform="translate(0.703613 0.5)"/>
</clipPath>
</defs>
</svg>
