<svg width="152" height="121" viewBox="0 0 152 121" fill="none" xmlns="http://www.w3.org/2000/svg">
<g clip-path="url(#clip0_0_3870)">
<path d="M69.8324 103.258C55.4719 92.6988 38.9291 88.5681 20.7775 88.2397L20.1496 8.35611C41.9866 8.45077 60.559 15.4128 75.9839 31.0849C90.8722 14.9697 109.662 7.8574 131.452 7.215C131.499 7.95206 131.545 8.68913 131.592 9.42619C131.814 24.5828 132.035 39.7394 131.888 54.9193C132.151 64.8931 132.045 74.8902 132.308 84.864C132.425 86.7067 132.103 87.4671 129.869 87.2389C118.421 87.5951 107.09 89.7941 96.6829 94.8945C92.746 96.9943 88.8324 99.4627 85.264 101.539C84.5503 101.954 84.2051 102.346 83.8834 103.107C84.6204 103.06 85.3575 103.013 85.726 102.99C102.725 102.651 119.379 102.705 136.379 102.366C139.327 102.179 139.695 102.156 139.854 98.8159C139.738 73.6622 139.277 48.9004 139.161 23.7466C139.114 23.0096 139.068 22.2725 139.366 21.1435C139.618 19.2775 141.022 18.0784 142.888 18.33C144.385 18.605 145.929 19.6171 146.046 21.4597C146.093 22.1968 146.116 22.5653 146.163 23.3024C146.372 49.9303 146.605 76.9266 146.814 103.554C146.703 107.632 145.668 108.807 141.59 108.696C123.462 108.736 105.726 109.121 87.5976 109.161C85.755 109.278 84.2808 109.372 84.076 111.975C83.801 113.473 82.7655 114.648 80.9228 114.765C78.3431 114.929 76.1085 114.701 73.5288 114.864C71.6862 114.981 70.5104 113.946 70.3935 112.103C70.2532 109.892 69.1243 109.593 67.2816 109.71C49.1534 109.75 30.68 110.182 12.5518 110.222C8.84305 110.088 8.05922 109.397 7.82542 105.712C7.59275 78.7157 7.33669 51.3508 7.10402 24.3544C7.05726 23.6173 7.03388 23.2488 6.98712 22.5117C7.23875 20.6457 8.29758 19.8385 10.1402 19.7216C11.9829 19.6047 13.1586 20.6401 13.6207 22.0909C13.6675 22.828 13.7376 23.9336 13.7844 24.6706C13.8768 49.4558 14.3611 74.5862 14.4534 99.3713C14.6639 102.688 14.6872 103.057 18.004 102.846L68.2881 102.246C69.0252 102.199 69.7622 102.153 70.1308 102.129L69.8324 103.258ZM23.7002 11.831C23.747 12.5681 23.7938 13.3051 23.4486 13.697C23.7637 30.3278 23.7336 47.3504 24.0721 64.3496C24.0776 70.2695 24.0832 76.1894 24.0887 82.1093C23.9306 85.4495 23.9073 85.081 26.8789 85.2625C43.2112 86.0764 58.3032 90.6691 71.5348 100.93C72.3186 101.62 73.1024 102.311 74.2548 102.978C74.1846 101.872 74.1379 101.135 74.0911 100.398C74.0566 88.1896 73.6536 76.0047 73.5957 63.4278C73.4031 54.5597 73.579 45.6681 73.3864 36.8C73.2929 35.3258 72.8308 33.8751 71.6551 32.8396C62.5476 23.427 51.8078 17.4481 39.389 14.1658C34.8497 12.6037 29.6435 12.194 23.7002 11.831ZM127.977 10.7656C124.315 11.3679 120.998 11.5784 117.705 12.1573C102.712 14.9586 89.4504 21.7202 79.0725 33.1091C78.037 34.2848 77.7386 35.4138 77.8088 36.5194C77.7965 47.9907 78.1528 59.4385 78.1405 70.9098C78.4033 80.8836 78.2741 90.5122 78.5369 100.486C78.5836 101.223 78.6304 101.96 78.6772 102.697C81.14 100.691 83.2576 99.0764 85.7439 97.4386C98.1749 89.2496 111.969 85.0443 126.71 84.1091C128.184 84.0156 128.898 83.6003 128.781 81.7576C128.658 73.9951 128.559 66.601 128.437 58.8385C128.215 43.6819 127.97 28.1568 128.117 12.9768C127.725 12.6316 128.047 11.8712 127.977 10.7656Z" fill="#404243"/>
<path d="M121.061 53.3862L121.271 56.703C107.682 58.3051 96.1931 63.8442 85.6281 72.2849C84.704 69.3834 85.0024 68.2544 87.4886 66.6166C97.3866 59.3283 108.232 55.3101 120.324 53.433C120.324 53.433 120.692 53.4096 121.061 53.3862Z" fill="#404243"/>
<path d="M121.323 63.3599C121.394 64.4655 121.072 65.226 121.464 65.5711C121.902 66.6534 121.189 67.0686 120.106 67.5073C112.022 68.3902 104.423 71.0924 97.263 74.8768C93.6946 76.9533 90.1496 79.3983 86.9731 81.8199C86.6279 82.2118 85.9142 82.6271 85.5457 82.6505C84.5748 79.0119 84.92 78.62 87.7513 76.5903C94.1277 72.1156 100.919 68.3546 108.565 66.3895C112.572 65.3952 116.603 64.7695 121.323 63.3599Z" fill="#404243"/>
<path d="M120.775 43.0439C121.354 46.3373 121.354 46.3373 118.429 46.8929C110.76 48.4895 103.482 50.4312 96.7142 54.5608C93.1691 57.0058 89.6241 59.4508 86.0791 61.8958C85.7105 61.9192 85.7339 62.2877 84.9968 62.3345C84.4646 59.7781 84.7163 57.9121 87.2025 56.2743C97.1239 49.3546 108.315 44.9444 120.406 43.0673L120.775 43.0439Z" fill="#404243"/>
<path d="M84.7697 41.2579C84.2375 38.7016 84.4892 36.8356 86.6068 35.2211C96.5283 28.3014 107.35 23.9147 119.442 22.0375C119.81 22.0141 120.179 21.9908 120.547 21.9674C120.571 22.3359 120.571 22.3359 120.594 22.7044C120.641 23.4415 120.688 24.1786 120.758 25.2842C107.584 27.6 95.3113 32.4488 84.7697 41.2579Z" fill="#404243"/>
<path d="M120.857 32.6782L121.067 35.995C107.87 37.9423 95.6208 43.1596 85.4243 51.5768C84.5002 48.6753 84.7986 47.5464 86.9163 45.932C96.8143 38.6437 107.66 34.6255 119.751 32.7483C120.12 32.7249 120.488 32.7016 120.857 32.6782Z" fill="#404243"/>
<path d="M68.7923 31.9868L30.0175 31.7612L30.1338 63.1493L68.5393 63.3762L68.7923 31.9868Z" fill="#009746"/>
</g>
<defs>
<clipPath id="clip0_0_3870">
<rect width="143.278" height="111.151" fill="white" transform="translate(0.985962 9.5719) rotate(-3.63015)"/>
</clipPath>
</defs>
</svg>
