<svg width="291" height="71" viewBox="0 0 291 71" fill="none" xmlns="http://www.w3.org/2000/svg">
<rect x="0.453125" width="50" height="50" fill="#1D1D1D"/>
<path fill-rule="evenodd" clip-rule="evenodd" d="M22.204 25.0217C22.204 25.0217 20.2679 25.7709 17.8867 25.7709C15.5055 25.7709 13.5693 25.0217 13.5693 25.0217C13.5693 25.0217 15.5055 24.2725 17.8867 24.2725C20.2679 24.2725 22.204 25.0217 22.204 25.0217Z" fill="#FFCC05"/>
<path fill-rule="evenodd" clip-rule="evenodd" d="M28.1756 14.0068C28.1756 14.0068 26.462 12.8496 25.1268 10.906C23.7915 8.96251 23.3464 6.96704 23.3464 6.96704C23.3464 6.96704 25.06 8.12426 26.3953 10.0678C27.7305 12.0113 28.1756 14.0068 28.1756 14.0068Z" fill="#FFCC05"/>
<path fill-rule="evenodd" clip-rule="evenodd" d="M23.7989 18.7613C23.7989 18.7613 21.7367 18.5314 19.6299 17.4335C17.5232 16.3356 16.1731 14.7778 16.1731 14.7778C16.1731 14.7778 18.2353 15.0078 20.3421 16.1057C22.4488 17.2035 23.7989 18.7613 23.7989 18.7613Z" fill="#FFCC05"/>
<path fill-rule="evenodd" clip-rule="evenodd" d="M28.1756 35.9937C28.1756 35.9937 26.462 37.1509 25.1268 39.0944C23.7915 41.0379 23.3464 43.0334 23.3464 43.0334C23.3464 43.0334 25.06 41.8762 26.3953 39.9327C27.7305 37.9891 28.1756 35.9937 28.1756 35.9937Z" fill="#FFCC05"/>
<path fill-rule="evenodd" clip-rule="evenodd" d="M23.7989 31.2383C23.7989 31.2383 21.7367 31.4682 19.6299 32.5661C17.5232 33.664 16.1731 35.2218 16.1731 35.2218C16.1731 35.2218 18.2353 34.9918 20.3421 33.894C22.4488 32.7961 23.7989 31.2383 23.7989 31.2383Z" fill="#FFCC05"/>
<path fill-rule="evenodd" clip-rule="evenodd" d="M28.8138 28.627C30.3716 32.6105 32.8715 35.4665 37.3371 36.1415C36.8253 36.2083 36.3134 36.2528 35.7793 36.2528C29.4517 36.2825 24.2962 31.2678 24.2665 25.0515C24.2368 18.8351 29.3479 13.776 35.6755 13.7463C36.2393 13.7463 36.7956 13.7834 37.3371 13.8576C32.2187 14.4956 28.8064 18.4642 28.1313 23.5234C27.9162 26.6019 31.5065 27.6404 31.5065 27.6404C31.5065 27.6404 30.0378 28.5973 28.8138 28.6196V28.627Z" fill="#FFCC05"/>
<rect x="100.453" width="190" height="50" fill="#00D46B"/>
<path d="M125.338 38H112.05V12.1002H125.338V17.6717H118.826V22.1515H124.359V27.6853H118.826V32.4285H125.338V38ZM134.854 38H128.078V12.1002H134.854V22.0009H135.344L138.581 12.1002H145.583L140.727 24.4478L145.658 38H138.468L135.344 27.7229H134.854V38ZM154.552 38.3012C147.136 38.3012 146.12 36.7577 146.12 25.0501C146.12 13.3425 147.136 11.7991 154.552 11.7991C162.006 11.7991 163.022 13.3425 163.022 25.0501C163.022 36.7577 162.006 38.3012 154.552 38.3012ZM154.552 32.7297C156.171 32.7297 156.209 32.5791 156.209 25.0501C156.209 17.5211 156.171 17.3705 154.552 17.3705C152.933 17.3705 152.933 17.5211 152.933 25.0501C152.933 32.5791 152.933 32.7297 154.552 32.7297ZM180.068 38H165.235V32.7297L172.388 17.6717H165.499V12.1002H180.068V17.2953L172.84 32.4285H180.068V38ZM193.926 38H184.74L181.578 12.1002H188.354L189.672 30.998H190.01L192.119 12.1002H199.873L202.057 30.998H202.396L203.525 12.1002H210.226L207.026 38H197.841L196.034 22.1138H195.733L193.926 38ZM218.894 38H212.118V12.1002H221.642C227.703 12.1002 228.455 15.2248 228.455 20.7962C228.455 24.2219 228.154 26.7818 226.197 28.2876L229.058 38H222.093L219.872 28.7393L220.625 29.3793C220.437 29.4922 220.211 29.4922 219.571 29.4922H218.894V38ZM218.894 17.6341V24.1466H219.91C221.604 24.1466 221.642 23.6196 221.642 20.8715C221.642 17.9729 221.604 17.6341 219.91 17.6341H218.894ZM239.033 38.3012C231.617 38.3012 230.6 36.7577 230.6 25.0501C230.6 13.3425 231.617 11.7991 239.033 11.7991C246.487 11.7991 247.503 13.3425 247.503 25.0501C247.503 36.7577 246.487 38.3012 239.033 38.3012ZM239.033 32.7297C240.652 32.7297 240.689 32.5791 240.689 25.0501C240.689 17.5211 240.652 17.3705 239.033 17.3705C237.414 17.3705 237.414 17.5211 237.414 25.0501C237.414 32.5791 237.414 32.7297 239.033 32.7297ZM260.181 38H253.368V17.8599H248.888V12.1002H264.661V17.8599H260.181V38ZM277.521 38H270.745V29.3793L264.835 12.1002H271.649L274.096 22.5656H274.434L276.768 12.1002H283.432L277.521 29.3793V38Z" fill="#1D1D1D"/>
<path d="M160.451 67V57.532H162.287L162.467 58.792H162.593C162.809 58.504 163.061 58.252 163.349 58.036C163.649 57.808 163.985 57.634 164.357 57.514C164.741 57.382 165.161 57.316 165.617 57.316C166.217 57.316 166.745 57.424 167.201 57.64C167.669 57.856 168.035 58.204 168.299 58.684C168.563 59.164 168.695 59.806 168.695 60.61V67H166.481V61.006C166.481 60.67 166.439 60.394 166.355 60.178C166.283 59.95 166.169 59.77 166.013 59.638C165.869 59.494 165.689 59.392 165.473 59.332C165.257 59.272 165.017 59.242 164.753 59.242C164.357 59.242 163.997 59.338 163.673 59.53C163.361 59.722 163.109 59.986 162.917 60.322C162.737 60.658 162.647 61.048 162.647 61.492V67H160.451ZM173.393 67.216C173.129 67.216 172.823 67.18 172.475 67.108C172.139 67.048 171.809 66.928 171.485 66.748C171.173 66.568 170.915 66.304 170.711 65.956C170.507 65.596 170.405 65.128 170.405 64.552C170.405 63.904 170.549 63.37 170.837 62.95C171.125 62.518 171.527 62.182 172.043 61.942C172.571 61.69 173.195 61.516 173.915 61.42C174.647 61.312 175.445 61.258 176.309 61.258V60.484C176.309 60.208 176.267 59.962 176.183 59.746C176.099 59.53 175.943 59.362 175.715 59.242C175.499 59.11 175.169 59.044 174.725 59.044C174.281 59.044 173.933 59.098 173.681 59.206C173.429 59.314 173.255 59.446 173.159 59.602C173.063 59.758 173.015 59.92 173.015 60.088V60.34H170.891C170.879 60.28 170.873 60.22 170.873 60.16C170.873 60.1 170.873 60.028 170.873 59.944C170.873 59.404 171.035 58.936 171.359 58.54C171.683 58.144 172.133 57.844 172.709 57.64C173.285 57.424 173.951 57.316 174.707 57.316C175.571 57.316 176.279 57.436 176.831 57.676C177.395 57.916 177.815 58.258 178.091 58.702C178.367 59.146 178.505 59.686 178.505 60.322V64.786C178.505 65.014 178.571 65.176 178.703 65.272C178.835 65.368 178.979 65.416 179.135 65.416H179.711V66.928C179.591 66.976 179.417 67.03 179.189 67.09C178.961 67.162 178.679 67.198 178.343 67.198C178.031 67.198 177.749 67.144 177.497 67.036C177.257 66.94 177.053 66.796 176.885 66.604C176.717 66.412 176.597 66.184 176.525 65.92H176.417C176.213 66.172 175.967 66.4 175.679 66.604C175.403 66.796 175.073 66.946 174.689 67.054C174.317 67.162 173.885 67.216 173.393 67.216ZM174.059 65.416C174.419 65.416 174.737 65.362 175.013 65.254C175.301 65.146 175.535 64.996 175.715 64.804C175.907 64.612 176.051 64.378 176.147 64.102C176.255 63.826 176.309 63.526 176.309 63.202V62.77C175.649 62.77 175.037 62.812 174.473 62.896C173.921 62.98 173.477 63.136 173.141 63.364C172.817 63.592 172.655 63.916 172.655 64.336C172.655 64.552 172.703 64.744 172.799 64.912C172.907 65.068 173.063 65.194 173.267 65.29C173.483 65.374 173.747 65.416 174.059 65.416ZM188.258 67.216C187.574 67.216 186.974 67.144 186.458 67C185.942 66.844 185.51 66.634 185.162 66.37C184.814 66.106 184.55 65.8 184.37 65.452C184.202 65.092 184.118 64.702 184.118 64.282C184.118 64.222 184.118 64.168 184.118 64.12C184.13 64.072 184.136 64.036 184.136 64.012H186.296C186.296 64.036 186.296 64.06 186.296 64.084C186.296 64.108 186.296 64.132 186.296 64.156C186.308 64.48 186.41 64.744 186.602 64.948C186.794 65.14 187.046 65.278 187.358 65.362C187.67 65.446 188 65.488 188.348 65.488C188.66 65.488 188.954 65.458 189.23 65.398C189.518 65.326 189.752 65.218 189.932 65.074C190.124 64.918 190.22 64.72 190.22 64.48C190.22 64.168 190.1 63.928 189.86 63.76C189.62 63.592 189.302 63.454 188.906 63.346C188.522 63.238 188.108 63.124 187.664 63.004C187.268 62.896 186.872 62.776 186.476 62.644C186.08 62.512 185.72 62.344 185.396 62.14C185.084 61.936 184.826 61.672 184.622 61.348C184.43 61.024 184.334 60.622 184.334 60.142C184.334 59.674 184.436 59.266 184.64 58.918C184.844 58.57 185.126 58.282 185.486 58.054C185.846 57.814 186.272 57.634 186.764 57.514C187.256 57.394 187.79 57.334 188.366 57.334C188.93 57.334 189.44 57.394 189.896 57.514C190.364 57.634 190.766 57.808 191.102 58.036C191.45 58.252 191.714 58.522 191.894 58.846C192.086 59.158 192.182 59.506 192.182 59.89C192.182 59.974 192.176 60.058 192.164 60.142C192.164 60.226 192.164 60.274 192.164 60.286H190.022V60.16C190.022 59.932 189.95 59.74 189.806 59.584C189.674 59.416 189.476 59.284 189.212 59.188C188.96 59.092 188.642 59.044 188.258 59.044C187.97 59.044 187.718 59.068 187.502 59.116C187.286 59.164 187.106 59.23 186.962 59.314C186.83 59.398 186.728 59.494 186.656 59.602C186.584 59.71 186.548 59.83 186.548 59.962C186.548 60.19 186.638 60.37 186.818 60.502C186.998 60.634 187.238 60.748 187.538 60.844C187.85 60.94 188.186 61.042 188.546 61.15C188.978 61.27 189.422 61.396 189.878 61.528C190.334 61.648 190.754 61.804 191.138 61.996C191.534 62.188 191.852 62.458 192.092 62.806C192.332 63.154 192.452 63.616 192.452 64.192C192.452 64.744 192.344 65.218 192.128 65.614C191.924 65.998 191.63 66.31 191.246 66.55C190.874 66.778 190.43 66.946 189.914 67.054C189.41 67.162 188.858 67.216 188.258 67.216ZM196.809 67.216C196.221 67.216 195.759 67.102 195.423 66.874C195.087 66.634 194.847 66.334 194.703 65.974C194.571 65.602 194.505 65.224 194.505 64.84V59.332H193.371V57.532H194.559L194.955 54.886H196.701V57.532H198.339V59.332H196.701V64.624C196.701 64.876 196.767 65.074 196.899 65.218C197.031 65.35 197.229 65.416 197.493 65.416H198.339V66.928C198.219 66.976 198.069 67.018 197.889 67.054C197.721 67.102 197.541 67.138 197.349 67.162C197.157 67.198 196.977 67.216 196.809 67.216ZM199.967 67V57.532H201.803L201.983 59.026H202.109C202.229 58.726 202.373 58.45 202.541 58.198C202.721 57.934 202.949 57.724 203.225 57.568C203.501 57.4 203.837 57.316 204.233 57.316C204.425 57.316 204.599 57.334 204.755 57.37C204.923 57.406 205.049 57.442 205.133 57.478V59.548H204.467C204.095 59.548 203.765 59.602 203.477 59.71C203.189 59.806 202.943 59.962 202.739 60.178C202.547 60.394 202.403 60.664 202.307 60.988C202.211 61.312 202.163 61.69 202.163 62.122V67H199.967ZM208.743 67.216C208.479 67.216 208.173 67.18 207.825 67.108C207.489 67.048 207.159 66.928 206.835 66.748C206.523 66.568 206.265 66.304 206.061 65.956C205.857 65.596 205.755 65.128 205.755 64.552C205.755 63.904 205.899 63.37 206.187 62.95C206.475 62.518 206.877 62.182 207.393 61.942C207.921 61.69 208.545 61.516 209.265 61.42C209.997 61.312 210.795 61.258 211.659 61.258V60.484C211.659 60.208 211.617 59.962 211.533 59.746C211.449 59.53 211.293 59.362 211.065 59.242C210.849 59.11 210.519 59.044 210.075 59.044C209.631 59.044 209.283 59.098 209.031 59.206C208.779 59.314 208.605 59.446 208.509 59.602C208.413 59.758 208.365 59.92 208.365 60.088V60.34H206.241C206.229 60.28 206.223 60.22 206.223 60.16C206.223 60.1 206.223 60.028 206.223 59.944C206.223 59.404 206.385 58.936 206.709 58.54C207.033 58.144 207.483 57.844 208.059 57.64C208.635 57.424 209.301 57.316 210.057 57.316C210.921 57.316 211.629 57.436 212.181 57.676C212.745 57.916 213.165 58.258 213.441 58.702C213.717 59.146 213.855 59.686 213.855 60.322V64.786C213.855 65.014 213.921 65.176 214.053 65.272C214.185 65.368 214.329 65.416 214.485 65.416H215.061V66.928C214.941 66.976 214.767 67.03 214.539 67.09C214.311 67.162 214.029 67.198 213.693 67.198C213.381 67.198 213.099 67.144 212.847 67.036C212.607 66.94 212.403 66.796 212.235 66.604C212.067 66.412 211.947 66.184 211.875 65.92H211.767C211.563 66.172 211.317 66.4 211.029 66.604C210.753 66.796 210.423 66.946 210.039 67.054C209.667 67.162 209.235 67.216 208.743 67.216ZM209.409 65.416C209.769 65.416 210.087 65.362 210.363 65.254C210.651 65.146 210.885 64.996 211.065 64.804C211.257 64.612 211.401 64.378 211.497 64.102C211.605 63.826 211.659 63.526 211.659 63.202V62.77C210.999 62.77 210.387 62.812 209.823 62.896C209.271 62.98 208.827 63.136 208.491 63.364C208.167 63.592 208.005 63.916 208.005 64.336C208.005 64.552 208.053 64.744 208.149 64.912C208.257 65.068 208.413 65.194 208.617 65.29C208.833 65.374 209.097 65.416 209.409 65.416ZM215.577 67V65.974L220.365 59.332H215.883V57.532H223.569V58.54L218.763 65.2H223.767V67H215.577ZM218.655 56.128V54.04H220.815V56.128H218.655ZM226.733 70.276C226.289 70.276 225.929 70.24 225.653 70.168C225.377 70.108 225.221 70.072 225.185 70.06V68.494H226.193C226.445 68.494 226.697 68.428 226.949 68.296C227.201 68.164 227.429 67.984 227.633 67.756C227.837 67.528 227.987 67.276 228.083 67L224.393 57.532H226.697L228.461 62.068C228.545 62.272 228.629 62.53 228.713 62.842C228.809 63.154 228.905 63.478 229.001 63.814C229.097 64.138 229.175 64.432 229.235 64.696H229.325C229.373 64.516 229.427 64.312 229.487 64.084C229.547 63.856 229.607 63.622 229.667 63.382C229.739 63.142 229.811 62.908 229.883 62.68C229.955 62.452 230.015 62.254 230.063 62.086L231.503 57.532H233.735L230.567 66.514C230.387 67.018 230.183 67.498 229.955 67.954C229.739 68.41 229.481 68.812 229.181 69.16C228.893 69.508 228.545 69.778 228.137 69.97C227.741 70.174 227.273 70.276 226.733 70.276ZM242.294 67.216C241.61 67.216 241.01 67.144 240.494 67C239.978 66.844 239.546 66.634 239.198 66.37C238.85 66.106 238.586 65.8 238.406 65.452C238.238 65.092 238.154 64.702 238.154 64.282C238.154 64.222 238.154 64.168 238.154 64.12C238.166 64.072 238.172 64.036 238.172 64.012H240.332C240.332 64.036 240.332 64.06 240.332 64.084C240.332 64.108 240.332 64.132 240.332 64.156C240.344 64.48 240.446 64.744 240.638 64.948C240.83 65.14 241.082 65.278 241.394 65.362C241.706 65.446 242.036 65.488 242.384 65.488C242.696 65.488 242.99 65.458 243.266 65.398C243.554 65.326 243.788 65.218 243.968 65.074C244.16 64.918 244.256 64.72 244.256 64.48C244.256 64.168 244.136 63.928 243.896 63.76C243.656 63.592 243.338 63.454 242.942 63.346C242.558 63.238 242.144 63.124 241.7 63.004C241.304 62.896 240.908 62.776 240.512 62.644C240.116 62.512 239.756 62.344 239.432 62.14C239.12 61.936 238.862 61.672 238.658 61.348C238.466 61.024 238.37 60.622 238.37 60.142C238.37 59.674 238.472 59.266 238.676 58.918C238.88 58.57 239.162 58.282 239.522 58.054C239.882 57.814 240.308 57.634 240.8 57.514C241.292 57.394 241.826 57.334 242.402 57.334C242.966 57.334 243.476 57.394 243.932 57.514C244.4 57.634 244.802 57.808 245.138 58.036C245.486 58.252 245.75 58.522 245.93 58.846C246.122 59.158 246.218 59.506 246.218 59.89C246.218 59.974 246.212 60.058 246.2 60.142C246.2 60.226 246.2 60.274 246.2 60.286H244.058V60.16C244.058 59.932 243.986 59.74 243.842 59.584C243.71 59.416 243.512 59.284 243.248 59.188C242.996 59.092 242.678 59.044 242.294 59.044C242.006 59.044 241.754 59.068 241.538 59.116C241.322 59.164 241.142 59.23 240.998 59.314C240.866 59.398 240.764 59.494 240.692 59.602C240.62 59.71 240.584 59.83 240.584 59.962C240.584 60.19 240.674 60.37 240.854 60.502C241.034 60.634 241.274 60.748 241.574 60.844C241.886 60.94 242.222 61.042 242.582 61.15C243.014 61.27 243.458 61.396 243.914 61.528C244.37 61.648 244.79 61.804 245.174 61.996C245.57 62.188 245.888 62.458 246.128 62.806C246.368 63.154 246.488 63.616 246.488 64.192C246.488 64.744 246.38 65.218 246.164 65.614C245.96 65.998 245.666 66.31 245.282 66.55C244.91 66.778 244.466 66.946 243.95 67.054C243.446 67.162 242.894 67.216 242.294 67.216ZM252.41 67.216C251.402 67.216 250.562 67.042 249.89 66.694C249.218 66.334 248.714 65.788 248.378 65.056C248.042 64.324 247.874 63.394 247.874 62.266C247.874 61.126 248.042 60.196 248.378 59.476C248.714 58.744 249.218 58.204 249.89 57.856C250.562 57.496 251.402 57.316 252.41 57.316C253.322 57.316 254.084 57.49 254.696 57.838C255.32 58.174 255.788 58.696 256.1 59.404C256.412 60.112 256.568 61.03 256.568 62.158V62.806H250.124C250.148 63.394 250.238 63.892 250.394 64.3C250.55 64.696 250.79 64.996 251.114 65.2C251.45 65.392 251.888 65.488 252.428 65.488C252.704 65.488 252.962 65.452 253.202 65.38C253.442 65.308 253.652 65.2 253.832 65.056C254.012 64.9 254.15 64.708 254.246 64.48C254.354 64.252 254.408 63.988 254.408 63.688H256.568C256.568 64.288 256.46 64.81 256.244 65.254C256.04 65.698 255.746 66.064 255.362 66.352C254.99 66.64 254.552 66.856 254.048 67C253.544 67.144 252.998 67.216 252.41 67.216ZM250.16 61.258H254.282C254.282 60.862 254.234 60.526 254.138 60.25C254.054 59.974 253.928 59.746 253.76 59.566C253.604 59.386 253.412 59.26 253.184 59.188C252.956 59.104 252.698 59.062 252.41 59.062C251.942 59.062 251.546 59.14 251.222 59.296C250.91 59.452 250.67 59.692 250.502 60.016C250.334 60.34 250.22 60.754 250.16 61.258ZM258.432 67V57.532H260.268L260.448 59.026H260.574C260.694 58.726 260.838 58.45 261.006 58.198C261.186 57.934 261.414 57.724 261.69 57.568C261.966 57.4 262.302 57.316 262.698 57.316C262.89 57.316 263.064 57.334 263.22 57.37C263.388 57.406 263.514 57.442 263.598 57.478V59.548H262.932C262.56 59.548 262.23 59.602 261.942 59.71C261.654 59.806 261.408 59.962 261.204 60.178C261.012 60.394 260.868 60.664 260.772 60.988C260.676 61.312 260.628 61.69 260.628 62.122V67H258.432ZM268.719 67.216C267.735 67.216 266.913 67.042 266.253 66.694C265.605 66.334 265.119 65.788 264.795 65.056C264.471 64.324 264.309 63.394 264.309 62.266C264.309 61.126 264.471 60.196 264.795 59.476C265.131 58.744 265.623 58.204 266.271 57.856C266.931 57.496 267.747 57.316 268.719 57.316C269.355 57.316 269.919 57.394 270.411 57.55C270.903 57.706 271.323 57.946 271.671 58.27C272.031 58.582 272.301 58.972 272.481 59.44C272.661 59.908 272.751 60.454 272.751 61.078H270.519C270.519 60.634 270.453 60.268 270.321 59.98C270.189 59.692 269.985 59.476 269.709 59.332C269.445 59.176 269.103 59.098 268.683 59.098C268.191 59.098 267.789 59.212 267.477 59.44C267.165 59.668 266.931 60.01 266.775 60.466C266.631 60.91 266.559 61.474 266.559 62.158V62.392C266.559 63.064 266.631 63.628 266.775 64.084C266.931 64.54 267.171 64.882 267.495 65.11C267.819 65.326 268.245 65.434 268.773 65.434C269.181 65.434 269.517 65.362 269.781 65.218C270.057 65.062 270.267 64.834 270.411 64.534C270.555 64.234 270.627 63.874 270.627 63.454H272.751C272.751 64.042 272.661 64.57 272.481 65.038C272.301 65.506 272.037 65.902 271.689 66.226C271.341 66.55 270.915 66.796 270.411 66.964C269.919 67.132 269.355 67.216 268.719 67.216ZM277.051 67.216C276.787 67.216 276.481 67.18 276.133 67.108C275.797 67.048 275.467 66.928 275.143 66.748C274.831 66.568 274.573 66.304 274.369 65.956C274.165 65.596 274.063 65.128 274.063 64.552C274.063 63.904 274.207 63.37 274.495 62.95C274.783 62.518 275.185 62.182 275.701 61.942C276.229 61.69 276.853 61.516 277.573 61.42C278.305 61.312 279.103 61.258 279.967 61.258V60.484C279.967 60.208 279.925 59.962 279.841 59.746C279.757 59.53 279.601 59.362 279.373 59.242C279.157 59.11 278.827 59.044 278.383 59.044C277.939 59.044 277.591 59.098 277.339 59.206C277.087 59.314 276.913 59.446 276.817 59.602C276.721 59.758 276.673 59.92 276.673 60.088V60.34H274.549C274.537 60.28 274.531 60.22 274.531 60.16C274.531 60.1 274.531 60.028 274.531 59.944C274.531 59.404 274.693 58.936 275.017 58.54C275.341 58.144 275.791 57.844 276.367 57.64C276.943 57.424 277.609 57.316 278.365 57.316C279.229 57.316 279.937 57.436 280.489 57.676C281.053 57.916 281.473 58.258 281.749 58.702C282.025 59.146 282.163 59.686 282.163 60.322V64.786C282.163 65.014 282.229 65.176 282.361 65.272C282.493 65.368 282.637 65.416 282.793 65.416H283.369V66.928C283.249 66.976 283.075 67.03 282.847 67.09C282.619 67.162 282.337 67.198 282.001 67.198C281.689 67.198 281.407 67.144 281.155 67.036C280.915 66.94 280.711 66.796 280.543 66.604C280.375 66.412 280.255 66.184 280.183 65.92H280.075C279.871 66.172 279.625 66.4 279.337 66.604C279.061 66.796 278.731 66.946 278.347 67.054C277.975 67.162 277.543 67.216 277.051 67.216ZM277.717 65.416C278.077 65.416 278.395 65.362 278.671 65.254C278.959 65.146 279.193 64.996 279.373 64.804C279.565 64.612 279.709 64.378 279.805 64.102C279.913 63.826 279.967 63.526 279.967 63.202V62.77C279.307 62.77 278.695 62.812 278.131 62.896C277.579 62.98 277.135 63.136 276.799 63.364C276.475 63.592 276.313 63.916 276.313 64.336C276.313 64.552 276.361 64.744 276.457 64.912C276.565 65.068 276.721 65.194 276.925 65.29C277.141 65.374 277.405 65.416 277.717 65.416Z" fill="#1D1D1D"/>
<rect x="50.4531" width="50" height="50" fill="#FD5F2E"/>
<rect x="76.8376" y="15.3076" width="2.76923" height="2.76923" fill="#1D1D1D"/>
<rect x="79.6069" y="12.5386" width="2.76923" height="2.76923" fill="#1D1D1D"/>
<rect x="82.3762" y="12.5386" width="2.76923" height="2.76923" fill="#1D1D1D"/>
<rect x="85.1455" y="15.3076" width="2.76923" height="2.76923" fill="#1D1D1D"/>
<rect x="87.9146" y="18.0769" width="2.76923" height="2.76923" fill="#1D1D1D"/>
<rect x="87.9146" y="20.8462" width="2.76923" height="2.76923" fill="#1D1D1D"/>
<rect x="71.2993" y="15.3076" width="2.76923" height="2.76923" fill="#1D1D1D"/>
<rect x="68.53" y="12.5386" width="2.76923" height="2.76923" fill="#1D1D1D"/>
<rect x="65.7607" y="12.5386" width="2.76923" height="2.76923" fill="#1D1D1D"/>
<rect x="62.9915" y="15.3076" width="2.76923" height="2.76923" fill="#1D1D1D"/>
<rect x="60.2224" y="18.0769" width="2.76923" height="2.76923" fill="#1D1D1D"/>
<rect x="60.2224" y="20.8462" width="2.76923" height="2.76923" fill="#1D1D1D"/>
<rect x="74.0686" y="18.0769" width="2.76923" height="2.76923" fill="#1D1D1D"/>
<rect x="62.9915" y="23.6152" width="2.76923" height="2.76923" fill="#1D1D1D"/>
<rect x="65.7607" y="26.3845" width="2.76923" height="2.76923" fill="#1D1D1D"/>
<rect x="71.2993" y="31.9229" width="2.76923" height="2.76923" fill="#1D1D1D"/>
<rect x="68.53" y="29.1538" width="2.76923" height="2.76923" fill="#1D1D1D"/>
<rect x="79.6069" y="29.1538" width="2.76923" height="2.76923" fill="#1D1D1D"/>
<rect x="74.0686" y="34.6924" width="2.76923" height="2.76923" fill="#1D1D1D"/>
<rect x="76.8376" y="31.9231" width="2.76923" height="2.76923" fill="#1D1D1D"/>
<rect x="82.3762" y="26.3848" width="2.76923" height="2.76923" fill="#1D1D1D"/>
<rect x="85.1455" y="23.6152" width="2.76923" height="2.76923" fill="#1D1D1D"/>
</svg>
